<?xml version="1.0" encoding="UTF-8"?>
<svg width="24px" height="24px" viewBox="0 0 24 24" version="1.1" xmlns="http://www.w3.org/2000/svg" xmlns:xlink="http://www.w3.org/1999/xlink">
    <title>Group 5</title>
    <g id="--메인" stroke="none" stroke-width="1" fill="none" fill-rule="evenodd">
        <g id="메인" transform="translate(-600.000000, -3437.000000)">
            <g id="Group-11-Copy" transform="translate(600.000000, 2735.000000)">
                <g id="Group-5" transform="translate(0.000000, 702.000000)">
                    <polygon id="Path" points="0 0 24 0 24 24 0 24"></polygon>
                    <path d="M12,21 L12,21 C7.029,21 3,16.971 3,12 L3,12 C3,7.029 7.029,3 12,3 L12,3 C16.971,3 21,7.029 21,12 L21,12 C21,16.971 16.971,21 12,21 Z" id="Path" stroke="#00ADFD" stroke-width="2" stroke-linecap="round" stroke-linejoin="round"></path>
                    <line x1="16" y1="12" x2="8" y2="12" id="Path" stroke="#00ADFD" stroke-width="2" stroke-linecap="round" stroke-linejoin="round"></line>
                    <polyline id="Path" stroke="#00ADFD" stroke-width="2" stroke-linecap="round" stroke-linejoin="round" points="13 9 16 12 13 15"></polyline>
                </g>
            </g>
        </g>
    </g>
</svg>