<?xml version="1.0" encoding="UTF-8"?>
<svg width="16px" height="16px" viewBox="0 0 16 16" version="1.1" xmlns="http://www.w3.org/2000/svg" xmlns:xlink="http://www.w3.org/1999/xlink">
    <title>Phone</title>
    <g id="--메인" stroke="none" stroke-width="1" fill="none" fill-rule="evenodd">
        <g id="메인" transform="translate(-408.000000, -4754.000000)">
            <g id="Group" transform="translate(200.000000, 4754.000000)">
                <g id="Phone" transform="translate(208.000000, 0.000000)">
                    <rect id="Rectangle" x="0" y="0" width="16" height="16"></rect>
                    <path d="M5.77976813,7.800955 C6.2984155,8.86129031 7.15791572,9.71688536 8.22060187,10.2306987 C8.37878807,10.305658 8.56478822,10.2915855 8.70989562,10.1936794 L10.274625,9.15028312 C10.4152197,9.05653174 10.5936563,9.04013953 10.7489788,9.10670625 L13.6762913,10.3612687 C13.8805781,10.4480454 14.0028522,10.6594666 13.9761875,10.8798125 C13.7847675,12.3776734 12.5100427,13.5 11,13.5 C6.30557963,13.5 2.5,9.69442037 2.5,5 C2.5,3.48995731 3.62232658,2.21523249 5.1201875,2.0238125 C5.34053119,1.99714736 5.55195124,2.1194182 5.63873,2.32370187 L6.89438688,5.25356875 C6.96035307,5.40749001 6.94488408,5.58421485 6.85318,5.724335 L5.81340562,7.31306812 C5.717137,7.45845264 5.7043627,7.64373437 5.77976813,7.800955 Z" id="Path" stroke="#575757" stroke-linecap="round" stroke-linejoin="round"></path>
                </g>
            </g>
        </g>
    </g>
</svg>