<svg width="800" height="800" viewBox="0 0 800 800" fill="none" xmlns="http://www.w3.org/2000/svg">
<rect width="800" height="800" fill="#F5F5F5"/>
<g opacity="0.2">
<path d="M326.789 393.769C318.873 391.311 312.043 389.215 312.043 384.015C312.043 379.695 315.691 377.444 322.469 377.03C332.144 376.435 342.725 383.783 342.725 383.783L348.649 372.762C348.649 372.762 337.913 363.086 323.141 363.345C315.121 363.474 308.731 365.622 303.713 369.399C298.616 373.227 295.9 378.453 295.9 384.481C295.9 398.994 308.809 403.03 320.166 406.574C328.419 409.161 335.559 411.386 335.559 417.207C335.559 421.993 329.919 425.693 322.417 425.796C322.339 425.796 322.236 425.796 322.158 425.796C313.492 425.796 304.463 419.51 304.463 419.51L295.512 428.9C301.695 435.523 310.879 439.016 322.676 439.016C339.776 439.016 351.702 429.728 351.702 416.431C351.702 401.504 337.887 397.209 326.763 393.794L326.789 393.769Z" fill="#888888"/>
<path d="M415.887 363.262C409.161 363.262 402.9 366.056 399.097 370.712C395.294 366.03 389.034 363.262 382.307 363.262C368.544 363.262 359.309 372.756 359.309 386.881V438.156H374.986V386.985C374.986 380.698 377.961 377.102 383.135 377.102C388.309 377.102 391.284 380.698 391.284 386.985V438.156H406.962V386.985C406.962 380.698 409.937 377.102 415.111 377.102C420.285 377.102 423.26 380.698 423.26 386.985V438.156H438.938V386.881C438.938 372.756 429.702 363.262 415.939 363.262H415.887Z" fill="#888888"/>
<path d="M456.009 438.107H500.584C502.162 433.761 503.481 429.286 504.49 424.681H466.875V364.17H451.197V433.114C451.197 436.322 452.931 438.082 456.009 438.082V438.107Z" fill="#888888"/>
<path d="M398.008 304.229C419.765 304.048 441.185 311.421 458.234 324.977C465.529 330.772 472.618 338.533 477.533 345.518H494.271C473.29 309.817 437.486 290 398.784 290H397.904C358.814 290.336 322.233 311.628 302.494 346.915H319.155C337.264 319.906 366.497 304.487 398.008 304.229Z" fill="url(#paint0_linear_364_24562)"/>
<path d="M399.559 495.772C377.802 495.953 343.601 487.907 320.008 454.509C320.008 454.535 303.27 454.509 303.27 454.509C322.75 488.916 360.055 510.001 398.783 510.001H399.663C438.727 509.69 475.256 488.399 495.124 453.086C495.098 453.086 478.386 453.138 478.386 453.086C461.803 478.749 431.043 495.539 399.533 495.798L399.559 495.772Z" fill="url(#paint1_linear_364_24562)"/>
</g>
<defs>
<linearGradient id="paint0_linear_364_24562" x1="451.585" y1="396.715" x2="325.777" y2="270.908" gradientUnits="userSpaceOnUse">
<stop offset="0.07" stop-color="#888888" stop-opacity="0"/>
<stop offset="0.12" stop-color="#888888" stop-opacity="0.14"/>
<stop offset="0.2" stop-color="#888888" stop-opacity="0.34"/>
<stop offset="0.28" stop-color="#888888" stop-opacity="0.52"/>
<stop offset="0.37" stop-color="#888888" stop-opacity="0.67"/>
<stop offset="0.46" stop-color="#888888" stop-opacity="0.79"/>
<stop offset="0.55" stop-color="#888888" stop-opacity="0.88"/>
<stop offset="0.65" stop-color="#888888" stop-opacity="0.95"/>
<stop offset="0.75" stop-color="#888888" stop-opacity="0.99"/>
<stop offset="0.88" stop-color="#888888"/>
</linearGradient>
<linearGradient id="paint1_linear_364_24562" x1="345.956" y1="403.311" x2="471.763" y2="529.093" gradientUnits="userSpaceOnUse">
<stop offset="0.07" stop-color="#888888" stop-opacity="0"/>
<stop offset="0.12" stop-color="#888888" stop-opacity="0.14"/>
<stop offset="0.2" stop-color="#888888" stop-opacity="0.34"/>
<stop offset="0.28" stop-color="#888888" stop-opacity="0.52"/>
<stop offset="0.37" stop-color="#888888" stop-opacity="0.67"/>
<stop offset="0.46" stop-color="#888888" stop-opacity="0.79"/>
<stop offset="0.55" stop-color="#888888" stop-opacity="0.88"/>
<stop offset="0.65" stop-color="#888888" stop-opacity="0.95"/>
<stop offset="0.75" stop-color="#888888" stop-opacity="0.99"/>
<stop offset="0.88" stop-color="#888888"/>
</linearGradient>
</defs>
</svg>
