<svg width="60" height="60" viewBox="0 0 60 60" fill="none" xmlns="http://www.w3.org/2000/svg">
<mask id="path-1-outside-1_3778_92196" maskUnits="userSpaceOnUse" x="2.5" y="1.5" width="56" height="57" fill="black">
<rect fill="white" x="2.5" y="1.5" width="56" height="57"/>
<path d="M56.0413 22.3767L51.9623 20.0299C51.6723 19.8618 51.3144 19.8618 51.0223 20.0299L46.9433 22.3767C46.6533 22.5448 46.4743 22.8523 46.4743 23.1884V27.3636L40.7168 30.6759C40.5975 30.6923 40.4823 30.7312 40.3754 30.7927L34.7619 34.021L28.665 30.514V18.5315L34.7928 15.0061L40.3733 18.2159C40.5194 18.2999 40.6819 18.3409 40.8423 18.3409C41.0028 18.3409 41.1673 18.2999 41.3113 18.2159L47.3814 14.7232C47.6715 14.5552 47.8504 14.2477 47.8504 13.9116V6.92833C47.8504 6.59423 47.6715 6.28473 47.3814 6.11665L41.3113 2.62606C41.0213 2.45798 40.6634 2.45798 40.3713 2.62606L34.3011 6.1187C34.0111 6.28678 33.8321 6.59423 33.8321 6.93038V13.3951L27.7846 16.8754L16.5515 10.4128C16.2615 10.2447 15.9036 10.2447 15.6115 10.4128L3.96899 17.1091C3.67896 17.2771 3.5 17.5846 3.5 17.9207V31.3154C3.5 31.6495 3.67896 31.959 3.96899 32.1271L15.6115 38.8254C15.7575 38.9094 15.92 38.9504 16.0805 38.9504C16.2409 38.9504 16.4055 38.9094 16.5494 38.8254L27.9492 32.2664L33.8301 35.6504V41.5597L27.725 45.0728L22.0066 41.7831C21.7166 41.615 21.3587 41.615 21.0666 41.7831L14.9964 45.2757C14.7064 45.4438 14.5274 45.7513 14.5274 46.0874V53.0707C14.5274 53.4047 14.7064 53.7142 14.9964 53.8823L21.0666 57.375C21.2126 57.459 21.3751 57.5 21.5356 57.5C21.696 57.5 21.8606 57.459 22.0045 57.375L28.0747 53.8823C28.3647 53.7142 28.5437 53.4068 28.5437 53.0707V46.7638L34.7866 43.1728L40.3671 46.3826C40.5132 46.4666 40.6757 46.5076 40.8361 46.5076C40.9966 46.5076 41.1611 46.4666 41.3051 46.3826L47.3753 42.8899C47.6653 42.7218 47.8443 42.4144 47.8443 42.0782V35.095C47.8443 34.7609 47.6653 34.4514 47.3753 34.2833L42.7841 31.6433L47.4226 28.9747L51.014 31.0407C51.1601 31.1248 51.3226 31.1658 51.483 31.1658C51.6435 31.1658 51.808 31.1248 51.952 31.0407L56.031 28.6938C56.321 28.5258 56.5 28.2183 56.5 27.8822V23.1884C56.5 22.8543 56.321 22.5448 56.031 22.3767H56.0413ZM35.7122 7.46944L40.8423 4.51791L45.9724 7.46944V13.3725L40.8423 16.324L35.7122 13.3725V7.46944ZM26.7849 30.7743L16.0825 36.9315L5.38007 30.7743V18.4598L16.0825 12.3026L26.7849 18.4598V30.7743ZM26.6698 52.5275L21.5397 55.479L16.4096 52.5275V46.6244L21.5397 43.6729L26.6698 46.6244V52.5275ZM45.9724 35.634V41.5371L40.8423 44.4887L35.7122 41.5371V35.634L40.5173 32.869C40.6346 32.8526 40.7518 32.8157 40.8588 32.7522L40.9123 32.7215L45.9724 35.632V35.634ZM54.6302 27.3411L51.4892 29.1468L48.3482 27.3411V23.7275L51.4892 21.9217L54.6302 23.7275V27.3411Z"/>
</mask>
<path d="M56.0413 22.3767L51.9623 20.0299C51.6723 19.8618 51.3144 19.8618 51.0223 20.0299L46.9433 22.3767C46.6533 22.5448 46.4743 22.8523 46.4743 23.1884V27.3636L40.7168 30.6759C40.5975 30.6923 40.4823 30.7312 40.3754 30.7927L34.7619 34.021L28.665 30.514V18.5315L34.7928 15.0061L40.3733 18.2159C40.5194 18.2999 40.6819 18.3409 40.8423 18.3409C41.0028 18.3409 41.1673 18.2999 41.3113 18.2159L47.3814 14.7232C47.6715 14.5552 47.8504 14.2477 47.8504 13.9116V6.92833C47.8504 6.59423 47.6715 6.28473 47.3814 6.11665L41.3113 2.62606C41.0213 2.45798 40.6634 2.45798 40.3713 2.62606L34.3011 6.1187C34.0111 6.28678 33.8321 6.59423 33.8321 6.93038V13.3951L27.7846 16.8754L16.5515 10.4128C16.2615 10.2447 15.9036 10.2447 15.6115 10.4128L3.96899 17.1091C3.67896 17.2771 3.5 17.5846 3.5 17.9207V31.3154C3.5 31.6495 3.67896 31.959 3.96899 32.1271L15.6115 38.8254C15.7575 38.9094 15.92 38.9504 16.0805 38.9504C16.2409 38.9504 16.4055 38.9094 16.5494 38.8254L27.9492 32.2664L33.8301 35.6504V41.5597L27.725 45.0728L22.0066 41.7831C21.7166 41.615 21.3587 41.615 21.0666 41.7831L14.9964 45.2757C14.7064 45.4438 14.5274 45.7513 14.5274 46.0874V53.0707C14.5274 53.4047 14.7064 53.7142 14.9964 53.8823L21.0666 57.375C21.2126 57.459 21.3751 57.5 21.5356 57.5C21.696 57.5 21.8606 57.459 22.0045 57.375L28.0747 53.8823C28.3647 53.7142 28.5437 53.4068 28.5437 53.0707V46.7638L34.7866 43.1728L40.3671 46.3826C40.5132 46.4666 40.6757 46.5076 40.8361 46.5076C40.9966 46.5076 41.1611 46.4666 41.3051 46.3826L47.3753 42.8899C47.6653 42.7218 47.8443 42.4144 47.8443 42.0782V35.095C47.8443 34.7609 47.6653 34.4514 47.3753 34.2833L42.7841 31.6433L47.4226 28.9747L51.014 31.0407C51.1601 31.1248 51.3226 31.1658 51.483 31.1658C51.6435 31.1658 51.808 31.1248 51.952 31.0407L56.031 28.6938C56.321 28.5258 56.5 28.2183 56.5 27.8822V23.1884C56.5 22.8543 56.321 22.5448 56.031 22.3767H56.0413ZM35.7122 7.46944L40.8423 4.51791L45.9724 7.46944V13.3725L40.8423 16.324L35.7122 13.3725V7.46944ZM26.7849 30.7743L16.0825 36.9315L5.38007 30.7743V18.4598L16.0825 12.3026L26.7849 18.4598V30.7743ZM26.6698 52.5275L21.5397 55.479L16.4096 52.5275V46.6244L21.5397 43.6729L26.6698 46.6244V52.5275ZM45.9724 35.634V41.5371L40.8423 44.4887L35.7122 41.5371V35.634L40.5173 32.869C40.6346 32.8526 40.7518 32.8157 40.8588 32.7522L40.9123 32.7215L45.9724 35.632V35.634ZM54.6302 27.3411L51.4892 29.1468L48.3482 27.3411V23.7275L51.4892 21.9217L54.6302 23.7275V27.3411Z" fill="url(#paint0_linear_3778_92196)"/>
<path d="M56.0413 22.3767L51.9623 20.0299C51.6723 19.8618 51.3144 19.8618 51.0223 20.0299L46.9433 22.3767C46.6533 22.5448 46.4743 22.8523 46.4743 23.1884V27.3636L40.7168 30.6759C40.5975 30.6923 40.4823 30.7312 40.3754 30.7927L34.7619 34.021L28.665 30.514V18.5315L34.7928 15.0061L40.3733 18.2159C40.5194 18.2999 40.6819 18.3409 40.8423 18.3409C41.0028 18.3409 41.1673 18.2999 41.3113 18.2159L47.3814 14.7232C47.6715 14.5552 47.8504 14.2477 47.8504 13.9116V6.92833C47.8504 6.59423 47.6715 6.28473 47.3814 6.11665L41.3113 2.62606C41.0213 2.45798 40.6634 2.45798 40.3713 2.62606L34.3011 6.1187C34.0111 6.28678 33.8321 6.59423 33.8321 6.93038V13.3951L27.7846 16.8754L16.5515 10.4128C16.2615 10.2447 15.9036 10.2447 15.6115 10.4128L3.96899 17.1091C3.67896 17.2771 3.5 17.5846 3.5 17.9207V31.3154C3.5 31.6495 3.67896 31.959 3.96899 32.1271L15.6115 38.8254C15.7575 38.9094 15.92 38.9504 16.0805 38.9504C16.2409 38.9504 16.4055 38.9094 16.5494 38.8254L27.9492 32.2664L33.8301 35.6504V41.5597L27.725 45.0728L22.0066 41.7831C21.7166 41.615 21.3587 41.615 21.0666 41.7831L14.9964 45.2757C14.7064 45.4438 14.5274 45.7513 14.5274 46.0874V53.0707C14.5274 53.4047 14.7064 53.7142 14.9964 53.8823L21.0666 57.375C21.2126 57.459 21.3751 57.5 21.5356 57.5C21.696 57.5 21.8606 57.459 22.0045 57.375L28.0747 53.8823C28.3647 53.7142 28.5437 53.4068 28.5437 53.0707V46.7638L34.7866 43.1728L40.3671 46.3826C40.5132 46.4666 40.6757 46.5076 40.8361 46.5076C40.9966 46.5076 41.1611 46.4666 41.3051 46.3826L47.3753 42.8899C47.6653 42.7218 47.8443 42.4144 47.8443 42.0782V35.095C47.8443 34.7609 47.6653 34.4514 47.3753 34.2833L42.7841 31.6433L47.4226 28.9747L51.014 31.0407C51.1601 31.1248 51.3226 31.1658 51.483 31.1658C51.6435 31.1658 51.808 31.1248 51.952 31.0407L56.031 28.6938C56.321 28.5258 56.5 28.2183 56.5 27.8822V23.1884C56.5 22.8543 56.321 22.5448 56.031 22.3767H56.0413ZM35.7122 7.46944L40.8423 4.51791L45.9724 7.46944V13.3725L40.8423 16.324L35.7122 13.3725V7.46944ZM26.7849 30.7743L16.0825 36.9315L5.38007 30.7743V18.4598L16.0825 12.3026L26.7849 18.4598V30.7743ZM26.6698 52.5275L21.5397 55.479L16.4096 52.5275V46.6244L21.5397 43.6729L26.6698 46.6244V52.5275ZM45.9724 35.634V41.5371L40.8423 44.4887L35.7122 41.5371V35.634L40.5173 32.869C40.6346 32.8526 40.7518 32.8157 40.8588 32.7522L40.9123 32.7215L45.9724 35.632V35.634ZM54.6302 27.3411L51.4892 29.1468L48.3482 27.3411V23.7275L51.4892 21.9217L54.6302 23.7275V27.3411Z" stroke="url(#paint1_linear_3778_92196)" mask="url(#path-1-outside-1_3778_92196)"/>
<defs>
<linearGradient id="paint0_linear_3778_92196" x1="56.5" y1="51.6071" x2="15.0132" y2="4.01401" gradientUnits="userSpaceOnUse">
<stop stop-color="#49B1B5"/>
<stop offset="1" stop-color="#7AE3EA"/>
</linearGradient>
<linearGradient id="paint1_linear_3778_92196" x1="56.5" y1="51.6071" x2="15.0132" y2="4.01401" gradientUnits="userSpaceOnUse">
<stop stop-color="#49B1B5"/>
<stop offset="1" stop-color="#7AE3EA"/>
</linearGradient>
</defs>
</svg>
