<svg width="80" height="80" viewBox="0 0 80 80" fill="none" xmlns="http://www.w3.org/2000/svg">
<path d="M23.4697 74.9892C19.5969 74.9892 15.724 73.359 12.7752 70.1012C6.8801 63.583 6.8801 52.9752 12.7752 46.4542L45.8409 9.89634C48.6963 6.73912 52.4959 5 56.5328 5C60.5698 5 64.3694 6.73912 67.2248 9.89634C70.0828 13.0536 71.6556 17.252 71.6556 21.7185C71.6556 26.1849 70.0828 30.3834 67.2248 33.5406L34.1617 70.0984C31.2129 73.359 27.3426 74.9864 23.4672 74.9864L23.4697 74.9892ZM14.6056 68.0774C19.4908 73.479 27.4461 73.479 32.3313 68.0774L65.3945 31.5167C67.7601 28.8983 69.0653 25.42 69.0653 21.7185C69.0653 18.0169 67.7601 14.5359 65.3945 11.9202C63.0288 9.30454 59.8831 7.86132 56.5328 7.86132C53.1826 7.86132 50.0369 9.30175 47.6687 11.9202L14.6056 48.4809C9.72036 53.8853 9.72036 62.6758 14.6056 68.0774Z" fill="url(#paint0_linear_3778_92030)"/>
<path d="M63.3823 56.719H16.6203C8.2838 56.719 1.5 49.2182 1.5 39.9978C1.5 30.7773 8.2838 23.2793 16.6203 23.2793H63.3797C71.7162 23.2793 78.5 30.7801 78.5 39.9978C78.5 49.2154 71.7162 56.719 63.3797 56.719H63.3823ZM16.6203 26.1434C9.71024 26.1434 4.08779 32.3601 4.08779 40.0006C4.08779 47.641 9.70771 53.8577 16.6203 53.8577H63.3797C70.2898 53.8577 75.9122 47.641 75.9122 40.0006C75.9122 32.3601 70.2898 26.1434 63.3797 26.1434H16.6203Z" fill="url(#paint1_linear_3778_92030)"/>
<path d="M56.5328 74.9969C52.4959 74.9969 48.6963 73.2578 45.8383 70.0977L12.7752 33.5427C6.8801 27.0245 6.8801 16.4167 12.7752 9.89843C18.6729 3.38021 28.2666 3.38021 34.1617 9.89843L67.2248 46.4563C70.0828 49.6135 71.6556 53.812 71.6556 58.2784C71.6556 62.7449 70.0828 66.9433 67.2248 70.1005C64.3694 73.2578 60.5723 74.9997 56.5328 74.9997V74.9969ZM23.4697 7.86899C20.2609 7.86899 17.0495 9.22009 14.6056 11.9195C9.72036 17.3211 9.72036 26.1144 14.6056 31.516L47.6712 68.0739C50.0369 70.6896 53.1851 72.1328 56.5354 72.1328C59.8856 72.1328 63.0288 70.6896 65.397 68.0739C67.7626 65.4554 69.0678 61.9772 69.0678 58.2756C69.0678 54.5741 67.7626 51.093 65.397 48.4774L32.3313 11.9195C29.8875 9.2173 26.6761 7.86899 23.4672 7.86899H23.4697Z" fill="url(#paint2_linear_3778_92030)"/>
<path d="M40.0013 47.3592C36.3304 47.3592 33.3438 44.0569 33.3438 39.998C33.3438 35.9391 36.3304 32.6367 40.0013 32.6367C43.6722 32.6367 46.6564 35.9391 46.6564 39.998C46.6564 44.0569 43.6697 47.3592 40.0013 47.3592ZM40.0013 35.5008C37.7594 35.5008 35.9315 37.5191 35.9315 39.998C35.9315 42.4769 37.7569 44.4951 40.0013 44.4951C42.2457 44.4951 44.0686 42.4769 44.0686 39.998C44.0686 37.5191 42.2457 35.5008 40.0013 35.5008Z" fill="url(#paint3_linear_3778_92030)"/>
<defs>
<linearGradient id="paint0_linear_3778_92030" x1="71.6556" y1="67.4904" x2="18.5092" y2="10.2661" gradientUnits="userSpaceOnUse">
<stop stop-color="#49B1B5"/>
<stop offset="1" stop-color="#7AE3EA"/>
</linearGradient>
<linearGradient id="paint1_linear_3778_92030" x1="78.5" y1="53.1362" x2="62.1049" y2="8.19315" gradientUnits="userSpaceOnUse">
<stop stop-color="#49B1B5"/>
<stop offset="1" stop-color="#7AE3EA"/>
</linearGradient>
<linearGradient id="paint2_linear_3778_92030" x1="71.6556" y1="67.5007" x2="18.5086" y2="10.2765" gradientUnits="userSpaceOnUse">
<stop stop-color="#49B1B5"/>
<stop offset="1" stop-color="#7AE3EA"/>
</linearGradient>
<linearGradient id="paint3_linear_3778_92030" x1="46.6564" y1="45.7818" x2="35.4766" y2="33.7471" gradientUnits="userSpaceOnUse">
<stop stop-color="#49B1B5"/>
<stop offset="1" stop-color="#7AE3EA"/>
</linearGradient>
</defs>
</svg>
