<svg width="214" height="94" viewBox="0 0 214 94" fill="none" xmlns="http://www.w3.org/2000/svg">
<g clip-path="url(#clip0_5735_102928)">
<path d="M106.989 27C80.9395 27 59.8163 35.9346 59.8163 46.9747C59.8163 58.0148 80.9395 67 106.989 67C133.038 67 154.184 58.0148 154.184 46.9747C154.184 35.9346 133.061 27 106.989 27ZM83.366 55.0253H79.684C79.5771 55.0253 79.5377 54.9634 79.5658 54.8564L80.9564 48.1795H74.3132L72.9001 54.8564C72.8888 54.9634 72.7988 55.0253 72.703 55.0253H69.0155C68.9254 55.0253 68.8635 54.9634 68.9029 54.8564L72.3878 38.3441C72.4103 38.254 72.4891 38.1865 72.5848 38.1865H76.2667C76.3624 38.1865 76.4075 38.254 76.3962 38.3441L75.0732 44.6777H81.7108L83.0394 38.3441C83.0788 38.254 83.1464 38.1865 83.2477 38.1865H86.9409C87.0085 38.1865 87.0817 38.254 87.0591 38.3441L83.5574 54.8564C83.5461 54.9634 83.4617 55.0253 83.3603 55.0253H83.366ZM99.9121 47.4138L98.3357 54.8564C98.3244 54.9634 98.2344 55.0253 98.1387 55.0253H94.9859C94.8902 55.0253 94.8339 54.9634 94.8565 54.8564L95.0535 53.8994C94.1415 54.6932 92.5876 55.3744 90.9325 55.3744C88.0162 55.3744 86.5975 53.5954 86.6988 51.9233C86.817 49.4912 88.4384 47.7516 91.7432 47.0141C93.2801 46.6932 94.6594 46.5243 96.5679 46.6087C96.6073 46.3948 96.6411 46.254 96.658 46.2484C96.6693 46.1809 96.6693 46.1527 96.6862 45.9782C96.7931 44.7565 94.7439 44.582 94.0458 44.6327C91.9402 44.779 89.5363 45.5897 88.8888 45.8431C88.7875 45.8656 88.7199 45.8262 88.7425 45.7248L89.2773 43.1239C89.2998 43.0338 89.3843 42.9381 89.4743 42.9043C90.2062 42.6904 92.9198 41.8121 95.1942 41.8121C97.7052 41.8121 98.9437 42.3638 99.4729 43.0338C100.03 43.7431 100.272 44.278 100.25 45.2632C100.25 45.7586 100.12 46.4624 99.9121 47.4082V47.4138ZM114.42 47.5433L112.861 54.8564C112.849 54.9634 112.754 55.0253 112.658 55.0253H109.241C109.145 55.0253 109.089 54.9634 109.106 54.8564C109.106 54.8564 109.483 53.0155 109.871 51.1576C110.254 49.2998 110.648 47.4757 110.648 47.4757C110.738 47.1042 110.851 46.2991 110.851 45.9782C110.851 45.3195 110.057 44.8522 109.348 44.8522C106.938 44.8522 106.184 47.2055 105.975 48.2301L104.574 54.8564C104.568 54.9634 104.461 55.0253 104.371 55.0253H100.942C100.858 55.0253 100.802 54.9634 100.807 54.8564L103.436 42.3132C103.459 42.2343 103.538 42.1499 103.622 42.1499H106.916C107.011 42.1499 107.056 42.2343 107.051 42.3132C107.051 42.3132 106.814 43.3659 106.769 43.6024C107.867 42.4145 109.269 41.8177 110.958 41.8177C113.429 41.8177 114.786 43.0676 114.786 45.3364C114.786 45.7136 114.668 46.4286 114.426 47.5433H114.42ZM136.759 47.0028L135.099 54.8564C135.07 54.9634 134.986 55.0253 134.913 55.0253H131.473C131.383 55.0253 131.31 54.9634 131.355 54.8564L132.999 46.9127L133.032 46.6932C133.061 46.4398 133.1 46.2259 133.1 46.0289C133.1 45.3308 132.509 44.8466 131.743 44.8466C130.009 44.8466 128.99 46.6425 128.652 48.1738L127.239 54.8508C127.234 54.9578 127.132 55.0197 127.042 55.0197H123.58C123.49 55.0197 123.445 54.9578 123.462 54.8508L125.122 46.9071L125.151 46.6875C125.196 46.4342 125.207 46.2203 125.207 46.0232C125.207 45.3251 124.638 44.841 123.856 44.841C122.127 44.841 121.108 46.6369 120.759 48.1682L119.363 54.8452C119.335 54.9521 119.256 55.0141 119.189 55.0141H115.743C115.642 55.0141 115.597 54.9521 115.625 54.8452L118.237 42.3019C118.26 42.2231 118.339 42.1386 118.423 42.1386H121.733C121.795 42.1386 121.863 42.2231 121.835 42.3019C121.835 42.3019 121.615 43.3378 121.559 43.5686C122.6 42.4089 124.036 41.8008 125.759 41.8008C127.363 41.8008 128.483 42.5215 128.855 43.8051C129.784 42.6341 131.36 41.8008 133.196 41.8008C135.594 41.8008 137.03 43.0225 137.03 45.3026C137.03 45.7924 136.9 46.3779 136.759 46.9916V47.0028ZM143.994 42.3132L141.314 54.8564C141.314 54.9634 141.224 55.0253 141.134 55.0253H137.683C137.581 55.0253 137.519 54.9634 137.553 54.8564L140.227 42.3132C140.233 42.2343 140.334 42.1499 140.413 42.1499H143.864C143.943 42.1499 144.027 42.2343 143.994 42.3132ZM145.097 39.0985C144.889 40.14 143.616 40.9564 142.355 40.8607C141.077 40.7706 140.227 39.7966 140.43 38.772C140.633 37.7474 141.843 36.9198 143.127 37.0436C144.399 37.1112 145.328 38.0457 145.103 39.1042L145.097 39.0985Z" fill="#ED1C24"/>
<path d="M90.2738 51.4789C90.2738 52.2839 91.107 52.5992 92.0753 52.5485C93.4603 52.4528 95.4645 51.0622 95.8586 49.8068L96.0669 49.0637V48.9961C95.1548 49.0017 94.2878 49.0918 93.1281 49.3508C91.5292 49.7336 90.2738 50.4599 90.2738 51.4789Z" fill="#ED1C24"/>
</g>
<defs>
<clipPath id="clip0_5735_102928">
<rect width="94.3673" height="40" fill="white" transform="translate(59.8163 27)"/>
</clipPath>
</defs>
</svg>
