<svg width="214" height="94" viewBox="0 0 214 94" fill="none" xmlns="http://www.w3.org/2000/svg">
<g clip-path="url(#clip0_5149_121163)">
<path d="M138.778 39.149V43.0279C138.778 43.1376 138.867 43.2267 138.977 43.2267H145.462C145.505 43.2267 145.54 43.2605 145.54 43.3039V58.7713C145.54 60.2727 146.757 61.4909 148.259 61.4909C149.761 61.4909 150.979 60.2739 150.979 58.7713V43.2376C150.979 43.1954 151.013 43.1605 151.056 43.1605H157.582C157.692 43.1605 157.781 43.0713 157.781 42.9616V39.149C157.781 39.0394 157.692 38.9502 157.582 38.9502H138.978C138.869 38.9502 138.78 39.0394 138.78 39.149H138.778Z" fill="#7D7D7D"/>
<path d="M105.236 38.9238H102.832C102.415 38.9238 102.438 39.3215 102.69 39.4203C103.657 39.7975 105.235 41.0133 105.235 43.3365V58.6919C105.235 60.0969 106.261 61.3513 107.66 61.4851C109.264 61.6381 110.615 60.3801 110.615 58.8075V39.154C110.615 39.0275 110.511 38.9238 110.385 38.9238H105.235H105.236Z" fill="#7D7D7D"/>
<path d="M102.425 60.8273L95.2127 51.9344C97.6758 51.4922 100.365 49.1955 100.365 45.7154C100.365 41.4835 97.5541 38.959 93.5884 38.959H80.0225C79.6586 38.959 79.6285 39.353 79.8815 39.4506C80.8431 39.829 82.4168 41.04 82.4217 43.3524V58.6571C82.4217 60.0826 83.4664 61.3563 84.8871 61.4853C86.5066 61.6323 87.8598 60.3598 87.8598 58.7764V50.9777C87.8598 50.9463 87.8791 50.9186 87.9092 50.909C87.9382 50.8993 87.9719 50.909 87.9912 50.9331L96.0093 61.1081C96.0514 61.1623 96.1177 61.1937 96.1864 61.1937H102.249C102.336 61.1937 102.414 61.1443 102.451 61.0659C102.489 60.9876 102.478 60.8948 102.425 60.8273ZM87.9357 48.2062C87.8936 48.2062 87.8586 48.1724 87.8586 48.129V43.3102C87.8586 43.2681 87.8924 43.2331 87.9357 43.2331H93.5884C94.8211 43.2331 95.8152 44.4984 95.8152 45.719C95.8152 47.0108 94.7609 48.2001 93.6053 48.205H87.9369L87.9357 48.2062Z" fill="#7D7D7D"/>
<path d="M123.368 37.6164C124.391 37.3561 125.462 37.2188 126.563 37.2188C130.87 37.2188 134.757 39.3335 137.137 42.7292C137.194 42.81 137.172 42.9208 137.09 42.9762L132.657 45.9514C132.579 46.0032 132.475 45.9839 132.42 45.9068C131.082 44.0439 128.926 42.9003 126.562 42.9003C122.593 42.9003 119.354 46.1117 119.354 50.1111C119.354 54.1105 122.593 57.317 126.562 57.317C128.967 57.317 131.104 56.1457 132.42 54.3105C132.475 54.2346 132.579 54.2141 132.657 54.2659L137.09 57.241C137.171 57.2953 137.193 57.4073 137.137 57.4869C134.775 60.8669 130.878 63.0022 126.562 63.0022C119.884 63.0022 114.345 57.9026 113.728 51.3233C113.588 49.77 113.706 48.1987 114.153 46.6045C113.218 45.1971 113.23 43.3317 114.235 41.9291C115.506 40.1517 117.914 39.7059 119.72 40.806C120.445 39.8216 121.573 39.1528 122.86 39.0455C122.86 39.0455 122.857 38.5539 122.904 38.2828C122.951 38.0128 123.365 37.6176 123.365 37.6176L123.368 37.6164Z" fill="#00ADA9"/>
<path d="M110.257 35.4141C111.038 33.953 110.488 32.1348 109.027 31.353C107.565 30.5712 105.747 31.1219 104.965 32.583C104.184 34.0441 104.734 35.8623 106.195 36.6441C107.657 37.4259 109.475 36.8752 110.257 35.4141Z" fill="#74C6BE"/>
<path d="M121.701 44.3233C121.701 44.4884 121.691 44.6523 121.672 44.8125C121.119 45.3234 120.647 45.9187 120.276 46.5791C119.416 45.7838 118.879 44.6462 118.879 43.3822C118.879 42.4182 119.192 41.5265 119.724 40.8047C120.909 41.5277 121.701 42.8327 121.701 44.3233Z" fill="#2FB6AA"/>
<path d="M127.571 42.9681C127.242 42.9224 126.905 42.8983 126.564 42.8983C126.192 42.8983 125.826 42.926 125.469 42.9814C123.964 42.2946 122.908 40.7943 122.863 39.0423C125.27 38.8386 127.349 40.6172 127.571 42.9681Z" fill="#2FB6AA"/>
<path d="M129.046 59.7402C128.492 59.7402 127.955 59.8137 127.445 59.9523C127.681 61.0272 128.195 61.9984 128.907 62.7865C130.396 62.5129 131.797 61.9827 133.061 61.2441C131.987 60.3078 130.583 59.7402 129.046 59.7402Z" fill="#0075C2"/>
<path d="M131.779 38.9237C131.779 40.9373 130.443 42.6399 128.609 43.193C130.163 43.6521 131.498 44.6209 132.421 45.9043C132.476 45.9802 132.58 46.0007 132.658 45.9489L137.091 42.9761C137.172 42.9219 137.194 42.8098 137.138 42.7291C135.786 40.7975 133.919 39.2527 131.736 38.2959C131.765 38.5007 131.78 38.7104 131.78 38.9237H131.779Z" fill="#00AC97"/>
<path d="M119.536 34.2595L121.483 35.3838C121.574 35.4368 121.631 35.5344 121.631 35.6404V37.889C121.631 37.995 121.576 38.0926 121.484 38.1456L119.537 39.2699C119.445 39.3229 119.332 39.3229 119.24 39.2699L117.293 38.1456C117.202 38.0926 117.145 37.995 117.145 37.889V35.6404C117.145 35.5344 117.2 35.4368 117.292 35.3838L119.239 34.2595C119.331 34.2065 119.444 34.2065 119.536 34.2595Z" fill="#74C6BE"/>
<path d="M113.534 37.8142C114.378 37.8142 115.063 37.1295 115.063 36.285C115.063 35.4405 114.378 34.7559 113.534 34.7559C112.689 34.7559 112.004 35.4405 112.004 36.285C112.004 37.1295 112.689 37.8142 113.534 37.8142Z" fill="#74C6BE"/>
<path d="M116.28 34.8018C116.951 34.8018 117.496 34.2575 117.496 33.586C117.496 32.9145 116.951 32.3701 116.28 32.3701C115.608 32.3701 115.064 32.9145 115.064 33.586C115.064 34.2575 115.608 34.8018 116.28 34.8018Z" fill="#74C6BE"/>
<path d="M137.092 57.2391L132.66 54.2639C132.582 54.2109 132.479 54.2314 132.423 54.3085C131.277 55.9051 129.495 57.0137 127.445 57.2632C127.351 57.6957 127.301 58.144 127.301 58.6043C127.301 59.0646 127.351 59.5189 127.446 59.9527C127.956 59.8153 128.492 59.7406 129.047 59.7406C130.583 59.7406 131.988 60.3082 133.062 61.2445C134.678 60.2998 136.071 59.014 137.139 57.4849C137.196 57.4041 137.174 57.2933 137.092 57.2378V57.2391Z" fill="#0099D9"/>
<path d="M128.907 62.7863C128.196 61.9982 127.683 61.027 127.445 59.9521C125.906 60.3679 124.61 61.3704 123.806 62.7032C124.694 62.8972 125.616 62.9984 126.563 62.9984C127.363 62.9984 128.147 62.9249 128.907 62.7863Z" fill="#0099D9"/>
<path d="M119.713 52.36C118.58 51.5322 117.183 51.043 115.672 51.043C114.998 51.043 114.345 51.1406 113.729 51.3225C114.169 56.0281 117.138 59.9997 121.262 61.8627C122.542 60.0612 122.829 57.8259 122.219 55.8606C121.061 54.9845 120.176 53.7687 119.713 52.3588V52.36Z" fill="#00ADA9"/>
<path d="M127.299 58.6039C127.299 58.1436 127.349 57.6953 127.444 57.2627C127.156 57.2977 126.862 57.3158 126.563 57.3158C124.932 57.3158 123.427 56.7747 122.218 55.8613C122.829 57.8279 122.541 60.0632 121.261 61.8634C122.069 62.2286 122.921 62.5117 123.805 62.7045C124.608 61.3718 125.905 60.3692 127.444 59.9535C127.349 59.5185 127.298 59.0678 127.298 58.6051L127.299 58.6039Z" fill="#42BDD8"/>
<path d="M115.672 51.043C117.184 51.043 118.58 51.5322 119.713 52.36C119.48 51.6515 119.354 50.8948 119.354 50.1091C119.354 49.3234 119.481 48.5583 119.716 47.8461C119.095 48.2233 118.364 48.4402 117.584 48.4402C116.153 48.4402 114.893 47.7099 114.155 46.6025C113.841 47.7172 113.673 48.8932 113.673 50.1079C113.673 50.5176 113.693 50.9225 113.73 51.3213C114.346 51.1394 114.999 51.0418 115.674 51.0418L115.672 51.043Z" fill="#4CBBB4"/>
<path d="M121.672 44.8115C121.691 44.6513 121.701 44.4886 121.701 44.3223C121.701 42.8317 120.909 41.5267 119.724 40.8037C120.448 39.8192 121.575 39.1504 122.863 39.042C122.908 40.7929 123.964 42.2931 125.469 42.9799C124.016 43.2017 122.705 43.8572 121.673 44.8103L121.672 44.8115Z" fill="#4CBBB4"/>
<path d="M131.778 38.9241C131.778 40.9376 130.443 42.6403 128.609 43.1934C128.273 43.0934 127.926 43.0186 127.571 42.9692C127.349 40.6183 125.27 38.8397 122.863 39.0434C122.854 38.7192 122.881 38.3951 122.941 38.0769C122.983 37.8552 123.149 37.6733 123.368 37.6166C124.389 37.3563 125.461 37.2178 126.564 37.2178C128.403 37.2178 130.152 37.6022 131.735 38.2962C131.764 38.5011 131.778 38.7108 131.778 38.9241Z" fill="#4CBBB4"/>
<path d="M120.276 46.5791C120.05 46.9791 119.862 47.4033 119.716 47.8455C119.095 48.2227 118.364 48.4408 117.584 48.4408C116.153 48.4408 114.893 47.7106 114.155 46.6032C113.219 45.1969 113.231 43.3304 114.236 41.9278C114.983 40.8854 116.204 40.207 117.585 40.207C118.352 40.207 119.087 40.4179 119.724 40.8059C119.193 41.5277 118.879 42.4194 118.879 43.3834C118.879 44.6463 119.416 45.785 120.276 46.5803V46.5791Z" fill="#74C6BE"/>
<path d="M78.9633 60.8261L70.2186 49.7847C70.1993 49.7594 70.1981 49.7257 70.2174 49.6992L77.7438 39.3277C77.8595 39.1783 77.7511 38.9602 77.5595 38.9602H72.349C72.2406 38.9602 72.1382 39.0084 72.0767 39.0964L64.6069 49.5088C64.5659 49.5702 64.4707 49.5365 64.4707 49.4606V39.1843C64.4707 39.0614 64.3683 38.959 64.2394 38.959H56.631C56.2972 38.959 56.2358 39.3542 56.4876 39.4494C57.454 39.8302 59.0278 41.0424 59.0278 43.3645V58.6861C59.0278 60.1839 60.2002 61.4684 61.6968 61.4961C63.2224 61.5238 64.4683 60.2959 64.4683 58.7764V51.1259C64.4683 51.0945 64.4876 51.0668 64.5177 51.056C64.5479 51.0463 64.5804 51.056 64.5997 51.0801L72.4201 61.0985C72.4623 61.1527 72.5286 61.1852 72.5973 61.1852H78.7825C78.8681 61.1852 78.9464 61.137 78.9838 61.0599C79.0211 60.9828 79.0139 60.8924 78.9621 60.8237L78.9633 60.8261Z" fill="#7D7D7D"/>
</g>
<defs>
<clipPath id="clip0_5149_121163">
<rect width="101.333" height="32" fill="white" transform="translate(56.3334 31)"/>
</clipPath>
</defs>
</svg>
