<svg width="214" height="94" viewBox="0 0 214 94" fill="none" xmlns="http://www.w3.org/2000/svg">
<g clip-path="url(#clip0_5149_121153)">
<path d="M60.5757 40.3383H56.8551C55.3155 40.3383 54.9576 41.655 54.9576 41.655L52.493 49.5217C52.4052 49.7985 52.2094 49.9133 52.0338 49.9133C51.8582 49.9133 51.6692 49.812 51.5679 49.5217L48.9884 41.655C48.9884 41.655 48.6441 40.345 47.2733 40.345H44.0321C42.4318 40.345 42.0806 41.655 42.0806 41.655L39.67 49.8053C39.5755 50.0889 39.3797 50.2037 39.2041 50.2037C39.0285 50.2037 38.826 50.1024 38.7382 49.8053L36.2195 41.709C36.2195 41.709 35.8549 40.291 34.7069 40.291L33.1539 46.1724C33.2281 45.8821 33.4172 45.7673 33.5995 45.7673C33.7819 45.7673 33.9439 45.8956 34.0384 46.1927L37.2594 55.7204C37.705 57.0709 38.8124 57.9217 40.1089 57.9217C41.4054 57.9217 42.5196 57.0777 42.9517 55.7204L45.9903 45.9428C46.0916 45.6457 46.2874 45.5174 46.463 45.5242C46.6386 45.5242 46.8276 45.6457 46.9289 45.9428L50.0553 55.4233C50.501 56.7738 51.6084 57.6246 52.8981 57.6246C54.1878 57.6246 55.302 56.7738 55.7477 55.4233L60.704 40.5071C60.704 40.5071 60.7648 40.345 60.5824 40.345" fill="#0072BC"/>
<mask id="mask0_5149_121153" style="mask-type:luminance" maskUnits="userSpaceOnUse" x="33" y="40" width="6" height="16">
<path d="M33.1471 46.1657C33.2214 45.8753 33.4105 45.7605 33.5928 45.7605C33.7751 45.7605 33.9372 45.8888 34.0317 46.1859L37.2526 55.7137L38.7314 49.812L36.2127 41.709C36.2127 41.709 35.8481 40.291 34.7002 40.291L33.1471 46.1724V46.1657Z" fill="white"/>
</mask>
<g mask="url(#mask0_5149_121153)">
<path d="M34.8114 37.7235L26.0903 51.1016L37.0643 58.2554L45.7853 44.8773L34.8114 37.7235Z" fill="url(#paint0_linear_5149_121153)"/>
</g>
<mask id="mask1_5149_121153" style="mask-type:luminance" maskUnits="userSpaceOnUse" x="29" y="31" width="8" height="7">
<path d="M30.2841 32.0736C28.9876 33.4444 29.0349 35.5917 30.3921 36.8814C31.7494 38.1644 33.8899 38.1036 35.1864 36.7329C36.4829 35.3621 36.4356 33.2148 35.0783 31.9251C34.4301 31.3039 33.5928 31 32.7622 31C31.8574 31 30.9526 31.3579 30.2841 32.0736Z" fill="white"/>
</mask>
<g mask="url(#mask1_5149_121153)">
<path d="M28.7108 31H36.4829L36.7597 38.1644H28.9876L28.7108 31Z" fill="url(#paint1_radial_5149_121153)"/>
</g>
<mask id="mask2_5149_121153" style="mask-type:luminance" maskUnits="userSpaceOnUse" x="15" y="40" width="20" height="23">
<path d="M29.7034 40.2842C28.7715 40.2842 28.6027 41.1147 28.6027 41.1147L24.8888 55.0789C23.9705 58.2458 22.7213 60.3593 19.7434 60.177C18.42 60.0892 17.5151 59.5558 16.9142 59.1236C16.9142 59.1236 16.428 58.7522 16.1849 59.3869L15.8473 60.4538C15.8 60.5956 15.8743 60.6699 15.8743 60.6699C16.2389 61.1021 18.5348 62.3243 20.3714 62.4796C26.631 62.9995 29.5751 59.8596 30.9863 54.3361L34.7069 40.2909H29.7101L29.7034 40.2842Z" fill="white"/>
</mask>
<g mask="url(#mask2_5149_121153)">
<path d="M34.7002 40.2842H15.8V62.9995H34.7002V40.2842Z" fill="url(#paint2_linear_5149_121153)"/>
</g>
<path d="M75.2623 44.9305C74.5601 44.6064 73.4459 44.4443 71.9334 44.4443H68.098V56.4773H70.4681V51.7573H72.0549C72.3588 51.7573 72.6829 51.7438 73.0408 51.7235C74.3913 51.629 75.4176 51.2238 76.1064 50.5148C76.6871 49.8936 76.9775 49.0698 76.9775 48.0299C76.9775 46.4971 76.4035 45.4707 75.2623 44.9305ZM70.4681 50.4203V45.8083H71.6903C72.5613 45.8083 73.2163 45.9164 73.6553 46.1257C74.3102 46.4633 74.6344 47.1048 74.6344 48.0502C74.6344 48.5769 74.5398 48.9955 74.3508 49.2994C73.8848 50.0489 72.953 50.4203 71.5552 50.4203H70.4681Z" fill="#0072BC"/>
<path d="M85.2965 47.1659C85.7557 47.382 86.1271 47.7264 86.3904 48.2531C86.5862 48.665 86.6875 49.2322 86.6875 49.9682V56.4843H84.3107V50.0627C84.3107 49.2862 84.1013 48.7662 83.6827 48.5029C83.4666 48.3678 83.1357 48.3003 82.6901 48.2733C81.9811 48.2598 81.4071 48.4084 80.9344 48.5974V56.4843H78.5913V43.3643H80.9344V47.3077C80.9344 47.3077 83.5881 46.3624 85.2898 47.1727" fill="#0072BC"/>
<path d="M198.428 43.3574H196.037V56.4775H198.428V43.3574Z" fill="#0072BC"/>
<path d="M164.24 53.7092C164.24 54.8909 164.463 55.7012 164.902 56.1333C165.232 56.4507 165.793 56.606 166.59 56.606C166.704 56.606 166.826 56.606 166.954 56.606C167.042 56.606 167.13 56.606 167.211 56.606C167.407 56.606 167.602 56.606 167.825 56.5925C168.447 56.5655 168.953 56.4912 169.331 56.3899V55.2758H168.068C167.488 55.2758 167.089 55.1812 166.88 54.9854C166.677 54.7896 166.569 54.3304 166.569 53.5944V48.3207H169.324V47.1255H166.549V44.6406L164.226 45.1876V53.716L164.24 53.7092Z" fill="#0072BC"/>
<path d="M161.215 55.8566V47.0986H158.824V55.1949C158.277 55.3569 157.703 55.4447 157.102 55.4717C156.603 55.4447 156.231 55.3637 156.015 55.2151C155.637 54.972 155.455 54.4656 155.455 53.6958V47.1054H153.044V53.4865C153.044 54.7627 153.321 55.7756 154.037 56.2415C154.037 56.2415 155.59 57.6663 161.208 55.8633" fill="#0072BC"/>
<path d="M102.11 48.4286V56.4775H99.7198V47.7195C102.569 46.808 104.372 46.7269 105.459 46.862V48.4488C105.459 48.4488 103.4 48.2462 102.11 48.4218" fill="#0072BC"/>
<path d="M112.57 47.7199V56.4779H114.933V48.3817C115.406 48.2264 115.892 48.1386 116.405 48.1048C116.837 48.1318 117.155 48.2129 117.337 48.3614C117.654 48.6045 117.816 49.1109 117.816 49.8807V56.4779H120.2V50.0968C120.2 48.8206 119.95 47.8145 119.295 47.3485C119.295 47.3485 117.688 45.9238 112.57 47.7199Z" fill="#0072BC"/>
<path d="M107.296 47.7199V56.4779H109.659V48.3817C110.132 48.2264 110.618 48.1386 111.132 48.1048C111.564 48.1318 111.874 48.2129 112.063 48.3614C112.381 48.6045 112.543 49.1109 112.543 49.8807V56.4779H114.926V50.0968C114.926 48.8206 114.677 47.8145 114.022 47.3485C114.022 47.3485 112.421 45.9238 107.296 47.7199Z" fill="#0072BC"/>
<path d="M136.642 48.9151C137.115 48.564 137.831 48.3817 138.769 48.4357L140.424 48.5505V47.4498C140.424 47.4498 138.844 47.0244 137.25 47.0244C135.44 47.0244 134.191 47.7604 133.502 49.2392C133.192 49.8807 133.043 50.7923 133.043 51.8862C133.043 52.9801 133.199 53.8917 133.502 54.5332C134.191 56.012 135.44 56.748 137.25 56.748C138.844 56.748 140.424 56.3158 140.424 56.3158V55.2084L138.769 55.33C137.824 55.3772 137.115 55.2017 136.642 54.8505C135.9 54.3103 135.528 53.3447 135.528 51.8862C135.528 50.4277 135.893 49.4621 136.642 48.9219" fill="#0072BC"/>
<path d="M179.993 48.9151C180.473 48.564 181.182 48.3817 182.127 48.4357L183.781 48.5505V47.4498C183.781 47.4498 182.201 47.0244 180.608 47.0244C178.791 47.0244 177.542 47.7604 176.853 49.2392C176.55 49.8807 176.394 50.7923 176.394 51.8862C176.394 52.9801 176.55 53.8917 176.853 54.5332C177.542 56.012 178.791 56.748 180.608 56.748C182.201 56.748 183.781 56.3158 183.781 56.3158V55.2084L182.127 55.33C181.182 55.3772 180.473 55.2017 179.993 54.8505C179.257 54.3103 178.886 53.3447 178.886 51.8862C178.886 50.4277 179.257 49.4621 179.993 48.9219" fill="#0072BC"/>
<path d="M150.654 51.3591C150.654 50.38 150.532 49.59 150.289 49.0025C149.729 47.6115 148.189 46.916 146.899 46.916H146.406C145.569 46.916 144.394 47.1861 143.705 47.7196C142.632 48.5501 142.092 50.0222 142.092 52.0547C142.092 53.1283 142.26 54.0264 142.598 54.6611C143.354 56.1196 144.718 56.8422 146.697 56.8422C148.432 56.8422 150.161 56.4168 150.161 56.4168V55.3296L148.223 55.4511C147.115 55.4984 146.278 55.3229 145.718 54.9785C144.847 54.4383 144.408 53.4929 144.408 52.0547H150.654V51.3591ZM144.448 50.927C144.482 50.4003 144.57 49.9546 144.712 49.6035C145.083 48.7459 145.697 48.1652 146.541 48.1652C147.055 48.1652 147.487 48.3881 147.77 48.6987C148.176 49.1511 148.378 49.8939 148.378 50.927H144.441H144.448Z" fill="#0072BC"/>
<path d="M174.179 43.4922H171.586V45.5247H174.179V43.4922Z" fill="#0072BC"/>
<path d="M174.078 47.0645H171.674V56.4774H174.078V47.0645Z" fill="#0072BC"/>
<path d="M126.527 56.8425C128.647 56.9708 130.903 56.2077 130.903 56.2077V51.7511C130.903 50.7045 130.768 49.8266 130.471 49.2054C129.795 47.7806 128.56 47.0851 126.777 47.0784C125.062 47.0649 123.408 47.5713 123.408 47.5713V48.6315C123.408 48.6315 125.825 48.3006 126.723 48.5437C127.648 48.78 128.317 49.381 128.371 50.4344C128.371 50.4344 122.692 49.5903 122.692 53.5068C122.692 56.0187 124.447 56.7277 126.534 56.8357M128.472 55.5392C128.472 55.5392 127.608 55.7013 127.007 55.6473C125.751 55.5257 125.015 54.7627 125.015 53.6283C125.015 52.4939 125.757 51.7173 127.007 51.6093C127.54 51.562 128.472 51.6498 128.472 51.6498V55.5392Z" fill="#0072BC"/>
<path d="M92.5217 56.8425C94.6487 56.9708 96.904 56.2077 96.904 56.2077V51.7511C96.904 50.7045 96.7622 49.8266 96.4651 49.2054C95.7899 47.7806 94.5609 47.0851 92.7715 47.0784C91.0564 47.0649 89.402 47.5713 89.402 47.5713V48.6315C89.402 48.6315 91.8194 48.3006 92.7175 48.5437C93.6426 48.78 94.3178 49.381 94.3651 50.4344C94.3651 50.4344 88.693 49.5903 88.693 53.5068C88.693 56.0187 90.4487 56.7277 92.5284 56.8357M94.4731 55.5392C94.4731 55.5392 93.6088 55.7013 93.0079 55.6473C91.7586 55.5257 91.0159 54.7627 91.0159 53.6283C91.0159 52.4939 91.7586 51.7173 93.0079 51.6093C93.5413 51.562 94.4731 51.6498 94.4731 51.6498V55.5392Z" fill="#0072BC"/>
<path d="M189.17 56.8425C191.297 56.9708 193.552 56.2077 193.552 56.2077V51.7511C193.552 50.7045 193.417 49.8266 193.113 49.2054C192.438 47.7806 191.202 47.0851 189.427 47.0784C187.711 47.0649 186.057 47.5713 186.057 47.5713V48.6315C186.057 48.6315 188.468 48.3006 189.372 48.5437C190.291 48.78 190.966 49.381 191.02 50.4344C191.02 50.4344 185.341 49.5903 185.341 53.5068C185.341 56.0187 187.09 56.7277 189.177 56.8357M191.115 55.5392C191.115 55.5392 190.25 55.7013 189.649 55.6473C188.393 55.5257 187.657 54.7627 187.657 53.6283C187.657 52.4939 188.4 51.7173 189.649 51.6093C190.183 51.562 191.115 51.6498 191.115 51.6498V55.5392Z" fill="#0072BC"/>
</g>
<defs>
<linearGradient id="paint0_linear_5149_121153" x1="32.944" y1="45.9352" x2="38.5162" y2="49.5663" gradientUnits="userSpaceOnUse">
<stop stop-color="#004A8F"/>
<stop offset="0.31" stop-color="#004A8F"/>
<stop offset="1" stop-color="#0072BC"/>
</linearGradient>
<radialGradient id="paint1_radial_5149_121153" cx="0" cy="0" r="1" gradientUnits="userSpaceOnUse" gradientTransform="translate(69.8082 33.3426) scale(3.86755)">
<stop stop-color="#00AEE6"/>
<stop offset="1" stop-color="#0072BC"/>
</radialGradient>
<linearGradient id="paint2_linear_5149_121153" x1="23.8093" y1="41.2949" x2="23.8093" y2="53.673" gradientUnits="userSpaceOnUse">
<stop stop-color="#0072BC"/>
<stop offset="0.15" stop-color="#00AEE6"/>
<stop offset="0.29" stop-color="#009EDB"/>
<stop offset="0.55" stop-color="#0086CA"/>
<stop offset="0.8" stop-color="#0077BF"/>
<stop offset="1" stop-color="#0072BC"/>
</linearGradient>
<clipPath id="clip0_5149_121153">
<rect width="182.4" height="32" fill="white" transform="translate(15.8 31)"/>
</clipPath>
</defs>
</svg>
