<svg width="81" height="80" viewBox="0 0 81 80" fill="none" xmlns="http://www.w3.org/2000/svg">
<g clip-path="url(#clip0_3659_12571)">
<path d="M35.7947 26.3516H33.5573C33.116 26.3516 32.7582 26.7093 32.7582 27.1506V28.4292C32.7582 28.8705 33.116 29.2282 33.5573 29.2282H35.7947C36.236 29.2282 36.5938 28.8705 36.5938 28.4292V27.1506C36.5938 26.7093 36.236 26.3516 35.7947 26.3516Z" fill="url(#paint0_linear_3659_12571)"/>
<path d="M43.4658 26.3516H41.2284C40.7871 26.3516 40.4293 26.7093 40.4293 27.1506V28.4292C40.4293 28.8705 40.7871 29.2282 41.2284 29.2282H43.4658C43.9071 29.2282 44.2649 28.8705 44.2649 28.4292V27.1506C44.2649 26.7093 43.9071 26.3516 43.4658 26.3516Z" fill="url(#paint1_linear_3659_12571)"/>
<path d="M43.4658 33.3833H41.2284C40.7871 33.3833 40.4293 33.7411 40.4293 34.1824V35.7805C40.4293 36.2218 40.7871 36.5796 41.2284 36.5796H43.4658C43.9071 36.5796 44.2649 36.2218 44.2649 35.7805V34.1824C44.2649 33.7411 43.9071 33.3833 43.4658 33.3833Z" fill="url(#paint2_linear_3659_12571)"/>
<path d="M43.4658 19H41.2284C40.7871 19 40.4293 19.3578 40.4293 19.7991V21.0776C40.4293 21.5189 40.7871 21.8767 41.2284 21.8767H43.4658C43.9071 21.8767 44.2649 21.5189 44.2649 21.0776V19.7991C44.2649 19.3578 43.9071 19 43.4658 19Z" fill="url(#paint3_linear_3659_12571)"/>
<path d="M51.4565 33.3833H49.2191C48.7778 33.3833 48.42 33.7411 48.42 34.1824V35.7805C48.42 36.2218 48.7778 36.5796 49.2191 36.5796H51.4565C51.8978 36.5796 52.2556 36.2218 52.2556 35.7805V34.1824C52.2556 33.7411 51.8978 33.3833 51.4565 33.3833Z" fill="url(#paint4_linear_3659_12571)"/>
<path d="M27.4844 26.3516H25.5666C25.1253 26.3516 24.7675 26.7093 24.7675 27.1506V28.4292C24.7675 28.8705 25.1253 29.2282 25.5666 29.2282H27.4844C27.9257 29.2282 28.2834 28.8705 28.2834 28.4292V27.1506C28.2834 26.7093 27.9257 26.3516 27.4844 26.3516Z" fill="url(#paint5_linear_3659_12571)"/>
<path d="M19.8132 33.3833H17.5758C17.1345 33.3833 16.7767 33.7411 16.7767 34.1824V35.7805C16.7767 36.2218 17.1345 36.5796 17.5758 36.5796H19.8132C20.2545 36.5796 20.6123 36.2218 20.6123 35.7805V34.1824C20.6123 33.7411 20.2545 33.3833 19.8132 33.3833Z" fill="url(#paint6_linear_3659_12571)"/>
<path d="M71.6395 36.2033C71.574 35.9619 71.3966 35.763 71.1649 35.6703C70.1772 35.2763 69.2439 35.1317 68.5511 35.2707L68.3961 35.3019H68.2379C67.4868 35.3019 66.8371 35.3107 66.4895 35.4178C66.448 35.4305 66.4072 35.4465 66.3673 35.4665L64.5645 36.3679L64.1203 34.3694C63.6472 32.2422 62.5868 30.3764 61.2108 29.2497C61.0422 29.1115 60.8209 29.0484 60.6035 29.0755C60.387 29.1035 60.1888 29.2202 60.0594 29.3967C59.8149 29.7316 59.4777 30.3604 59.2579 31.4552L59.2387 31.5391C58.7026 33.687 58.9726 35.7837 59.9779 37.2924L61.0702 38.9313L59.2411 39.6624C57.5063 40.356 55.8091 40.6956 54.1662 41.0241L54.0112 41.0552H12.4658C12.2532 41.0552 12.0455 41.1423 11.8968 41.2933C11.7474 41.4452 11.6635 41.6537 11.6667 41.8663C11.7195 45.2607 12.314 48.4762 13.4846 51.6957C14.6185 54.8145 16.5722 57.3875 19.1333 59.1359C19.1644 59.1574 19.1972 59.1766 19.2299 59.1926C22.8617 60.9833 26.7013 61.8911 30.6415 61.8911C31.2017 61.8911 31.7706 61.8719 32.3323 61.8343L32.4386 61.8311C34.8958 61.8311 37.2994 61.5307 39.8428 61.2126C39.8588 61.211 39.874 61.2086 39.8892 61.2055C43.2709 60.5822 46.595 59.3324 49.5092 57.5872C51.6979 56.2168 53.809 54.4908 56.1527 52.1575C56.1727 52.1376 56.1919 52.1168 56.2094 52.0952C59.0246 48.6344 61.1078 44.9515 62.5765 40.8371L62.9552 39.7767H64.7204C66.8715 39.7767 69.0617 38.98 70.7294 37.5904L70.7949 37.5361L70.866 37.489C71.0235 37.3835 71.2608 37.2085 71.4981 36.9048C71.6515 36.7075 71.7043 36.4462 71.6387 36.2049L71.6395 36.2033Z" fill="url(#paint7_linear_3659_12571)"/>
<path d="M35.7947 33.3833H33.5573C33.116 33.3833 32.7582 33.7411 32.7582 34.1824V35.7805C32.7582 36.2218 33.116 36.5796 33.5573 36.5796H35.7947C36.236 36.5796 36.5938 36.2218 36.5938 35.7805V34.1824C36.5938 33.7411 36.236 33.3833 35.7947 33.3833Z" fill="url(#paint8_linear_3659_12571)"/>
<path d="M27.4844 33.3833H25.5666C25.1253 33.3833 24.7675 33.7411 24.7675 34.1824V35.7805C24.7675 36.2218 25.1253 36.5796 25.5666 36.5796H27.4844C27.9257 36.5796 28.2834 36.2218 28.2834 35.7805V34.1824C28.2834 33.7411 27.9257 33.3833 27.4844 33.3833Z" fill="url(#paint9_linear_3659_12571)"/>
</g>
<defs>
<linearGradient id="paint0_linear_3659_12571" x1="36.5938" y1="28.92" x2="34.6181" y2="25.784" gradientUnits="userSpaceOnUse">
<stop stop-color="#49B1B5"/>
<stop offset="1" stop-color="#7AE3EA"/>
</linearGradient>
<linearGradient id="paint1_linear_3659_12571" x1="44.2649" y1="28.92" x2="42.2892" y2="25.784" gradientUnits="userSpaceOnUse">
<stop stop-color="#49B1B5"/>
<stop offset="1" stop-color="#7AE3EA"/>
</linearGradient>
<linearGradient id="paint2_linear_3659_12571" x1="44.2649" y1="36.2371" x2="41.9781" y2="32.9704" gradientUnits="userSpaceOnUse">
<stop stop-color="#49B1B5"/>
<stop offset="1" stop-color="#7AE3EA"/>
</linearGradient>
<linearGradient id="paint3_linear_3659_12571" x1="44.2649" y1="21.5684" x2="42.2892" y2="18.4324" gradientUnits="userSpaceOnUse">
<stop stop-color="#49B1B5"/>
<stop offset="1" stop-color="#7AE3EA"/>
</linearGradient>
<linearGradient id="paint4_linear_3659_12571" x1="52.2556" y1="36.2371" x2="49.9689" y2="32.9704" gradientUnits="userSpaceOnUse">
<stop stop-color="#49B1B5"/>
<stop offset="1" stop-color="#7AE3EA"/>
</linearGradient>
<linearGradient id="paint5_linear_3659_12571" x1="28.2834" y1="28.92" x2="26.2386" y2="25.9447" gradientUnits="userSpaceOnUse">
<stop stop-color="#49B1B5"/>
<stop offset="1" stop-color="#7AE3EA"/>
</linearGradient>
<linearGradient id="paint6_linear_3659_12571" x1="20.6123" y1="36.2371" x2="18.3255" y2="32.9704" gradientUnits="userSpaceOnUse">
<stop stop-color="#49B1B5"/>
<stop offset="1" stop-color="#7AE3EA"/>
</linearGradient>
<linearGradient id="paint7_linear_3659_12571" x1="71.6664" y1="58.3744" x2="52.703" y2="17.1054" gradientUnits="userSpaceOnUse">
<stop stop-color="#49B1B5"/>
<stop offset="1" stop-color="#7AE3EA"/>
</linearGradient>
<linearGradient id="paint8_linear_3659_12571" x1="36.5938" y1="36.2371" x2="34.307" y2="32.9704" gradientUnits="userSpaceOnUse">
<stop stop-color="#49B1B5"/>
<stop offset="1" stop-color="#7AE3EA"/>
</linearGradient>
<linearGradient id="paint9_linear_3659_12571" x1="28.2834" y1="36.2371" x2="25.9356" y2="33.1626" gradientUnits="userSpaceOnUse">
<stop stop-color="#49B1B5"/>
<stop offset="1" stop-color="#7AE3EA"/>
</linearGradient>
<clipPath id="clip0_3659_12571">
<rect width="60" height="42.8902" fill="white" transform="translate(11.6667 19)"/>
</clipPath>
</defs>
</svg>
