<svg width="81" height="80" viewBox="0 0 81 80" fill="none" xmlns="http://www.w3.org/2000/svg">
<g clip-path="url(#clip0_3659_12532)">
<path d="M35.463 26.3516H33.2256C32.7843 26.3516 32.4265 26.7093 32.4265 27.1506V28.4292C32.4265 28.8705 32.7843 29.2282 33.2256 29.2282H35.463C35.9043 29.2282 36.2621 28.8705 36.2621 28.4292V27.1506C36.2621 26.7093 35.9043 26.3516 35.463 26.3516Z" fill="#CCCCCC"/>
<path d="M43.1341 26.3516H40.8967C40.4554 26.3516 40.0977 26.7093 40.0977 27.1506V28.4292C40.0977 28.8705 40.4554 29.2282 40.8967 29.2282H43.1341C43.5754 29.2282 43.9332 28.8705 43.9332 28.4292V27.1506C43.9332 26.7093 43.5754 26.3516 43.1341 26.3516Z" fill="#CCCCCC"/>
<path d="M43.1341 33.3833H40.8967C40.4554 33.3833 40.0977 33.7411 40.0977 34.1824V35.7805C40.0977 36.2218 40.4554 36.5796 40.8967 36.5796H43.1341C43.5754 36.5796 43.9332 36.2218 43.9332 35.7805V34.1824C43.9332 33.7411 43.5754 33.3833 43.1341 33.3833Z" fill="#CCCCCC"/>
<path d="M43.1341 19H40.8967C40.4554 19 40.0977 19.3578 40.0977 19.7991V21.0776C40.0977 21.5189 40.4554 21.8767 40.8967 21.8767H43.1341C43.5754 21.8767 43.9332 21.5189 43.9332 21.0776V19.7991C43.9332 19.3578 43.5754 19 43.1341 19Z" fill="#CCCCCC"/>
<path d="M51.1249 33.3833H48.8875C48.4461 33.3833 48.0884 33.7411 48.0884 34.1824V35.7805C48.0884 36.2218 48.4461 36.5796 48.8875 36.5796H51.1249C51.5662 36.5796 51.9239 36.2218 51.9239 35.7805V34.1824C51.9239 33.7411 51.5662 33.3833 51.1249 33.3833Z" fill="#CCCCCC"/>
<path d="M27.1526 26.3516H25.2349C24.7935 26.3516 24.4358 26.7093 24.4358 27.1506V28.4292C24.4358 28.8705 24.7935 29.2282 25.2349 29.2282H27.1526C27.594 29.2282 27.9517 28.8705 27.9517 28.4292V27.1506C27.9517 26.7093 27.594 26.3516 27.1526 26.3516Z" fill="#CCCCCC"/>
<path d="M19.4815 33.3833H17.2441C16.8028 33.3833 16.4451 33.7411 16.4451 34.1824V35.7805C16.4451 36.2218 16.8028 36.5796 17.2441 36.5796H19.4815C19.9229 36.5796 20.2806 36.2218 20.2806 35.7805V34.1824C20.2806 33.7411 19.9229 33.3833 19.4815 33.3833Z" fill="#CCCCCC"/>
<path d="M71.3078 36.2033C71.2422 35.9619 71.0648 35.763 70.8331 35.6703C69.8455 35.2763 68.9121 35.1317 68.2193 35.2707L68.0643 35.3019H67.9061C67.155 35.3019 66.5053 35.3107 66.1577 35.4178C66.1162 35.4305 66.0754 35.4465 66.0355 35.4665L64.2328 36.3679L63.7885 34.3694C63.3154 32.2422 62.2551 30.3764 60.8791 29.2497C60.7105 29.1115 60.4891 29.0484 60.2718 29.0755C60.0552 29.1035 59.857 29.2202 59.7276 29.3967C59.4831 29.7316 59.1459 30.3604 58.9261 31.4552L58.9069 31.5391C58.3708 33.687 58.6409 35.7837 59.6461 37.2924L60.7384 38.9313L58.9093 39.6624C57.1746 40.356 55.4773 40.6956 53.8344 41.0241L53.6794 41.0552H12.134C11.9214 41.0552 11.7137 41.1423 11.5651 41.2933C11.4156 41.4452 11.3317 41.6537 11.3349 41.8663C11.3877 45.2607 11.9822 48.4762 13.1528 51.6957C14.2867 54.8145 16.2404 57.3875 18.8015 59.1359C18.8326 59.1574 18.8654 59.1766 18.8982 59.1926C22.5299 60.9833 26.3695 61.8911 30.3097 61.8911C30.8699 61.8911 31.4388 61.8719 32.0006 61.8343L32.1068 61.8311C34.564 61.8311 36.9676 61.5307 39.511 61.2126C39.527 61.211 39.5422 61.2086 39.5574 61.2055C42.9391 60.5822 46.2632 59.3324 49.1774 57.5872C51.3661 56.2168 53.4772 54.4908 55.8209 52.1575C55.8409 52.1376 55.8601 52.1168 55.8777 52.0952C58.6928 48.6344 60.776 44.9515 62.2447 40.8371L62.6234 39.7767H64.3886C66.5397 39.7767 68.7299 38.98 70.3976 37.5904L70.4631 37.5361L70.5343 37.489C70.6917 37.3835 70.929 37.2085 71.1663 36.9048C71.3197 36.7075 71.3725 36.4462 71.307 36.2049L71.3078 36.2033Z" fill="#CCCCCC"/>
<path d="M35.463 33.3833H33.2256C32.7843 33.3833 32.4265 33.7411 32.4265 34.1824V35.7805C32.4265 36.2218 32.7843 36.5796 33.2256 36.5796H35.463C35.9043 36.5796 36.2621 36.2218 36.2621 35.7805V34.1824C36.2621 33.7411 35.9043 33.3833 35.463 33.3833Z" fill="#CCCCCC"/>
<path d="M27.1526 33.3833H25.2349C24.7935 33.3833 24.4358 33.7411 24.4358 34.1824V35.7805C24.4358 36.2218 24.7935 36.5796 25.2349 36.5796H27.1526C27.594 36.5796 27.9517 36.2218 27.9517 35.7805V34.1824C27.9517 33.7411 27.594 33.3833 27.1526 33.3833Z" fill="#CCCCCC"/>
</g>
<defs>
<clipPath id="clip0_3659_12532">
<rect width="60" height="42.8902" fill="white" transform="translate(11.335 19)"/>
</clipPath>
</defs>
</svg>
