<svg width="81" height="80" viewBox="0 0 81 80" fill="none" xmlns="http://www.w3.org/2000/svg">
<g clip-path="url(#clip0_3659_19104)">
<path d="M35.7955 26.3516H33.5581C33.1168 26.3516 32.759 26.7093 32.759 27.1506V28.4292C32.759 28.8705 33.1168 29.2282 33.5581 29.2282H35.7955C36.2368 29.2282 36.5946 28.8705 36.5946 28.4292V27.1506C36.5946 26.7093 36.2368 26.3516 35.7955 26.3516Z" fill="url(#paint0_linear_3659_19104)"/>
<path d="M43.4666 26.3516H41.2292C40.7879 26.3516 40.4301 26.7093 40.4301 27.1506V28.4292C40.4301 28.8705 40.7879 29.2282 41.2292 29.2282H43.4666C43.9079 29.2282 44.2657 28.8705 44.2657 28.4292V27.1506C44.2657 26.7093 43.9079 26.3516 43.4666 26.3516Z" fill="url(#paint1_linear_3659_19104)"/>
<path d="M43.4666 33.3833H41.2292C40.7879 33.3833 40.4301 33.7411 40.4301 34.1824V35.7805C40.4301 36.2218 40.7879 36.5796 41.2292 36.5796H43.4666C43.9079 36.5796 44.2657 36.2218 44.2657 35.7805V34.1824C44.2657 33.7411 43.9079 33.3833 43.4666 33.3833Z" fill="url(#paint2_linear_3659_19104)"/>
<path d="M43.4666 19H41.2292C40.7879 19 40.4301 19.3578 40.4301 19.7991V21.0776C40.4301 21.5189 40.7879 21.8767 41.2292 21.8767H43.4666C43.9079 21.8767 44.2657 21.5189 44.2657 21.0776V19.7991C44.2657 19.3578 43.9079 19 43.4666 19Z" fill="url(#paint3_linear_3659_19104)"/>
<path d="M51.4573 33.3833H49.2199C48.7786 33.3833 48.4208 33.7411 48.4208 34.1824V35.7805C48.4208 36.2218 48.7786 36.5796 49.2199 36.5796H51.4573C51.8986 36.5796 52.2564 36.2218 52.2564 35.7805V34.1824C52.2564 33.7411 51.8986 33.3833 51.4573 33.3833Z" fill="url(#paint4_linear_3659_19104)"/>
<path d="M27.4852 26.3516H25.5674C25.1261 26.3516 24.7683 26.7093 24.7683 27.1506V28.4292C24.7683 28.8705 25.1261 29.2282 25.5674 29.2282H27.4852C27.9265 29.2282 28.2842 28.8705 28.2842 28.4292V27.1506C28.2842 26.7093 27.9265 26.3516 27.4852 26.3516Z" fill="url(#paint5_linear_3659_19104)"/>
<path d="M19.814 33.3833H17.5766C17.1353 33.3833 16.7775 33.7411 16.7775 34.1824V35.7805C16.7775 36.2218 17.1353 36.5796 17.5766 36.5796H19.814C20.2553 36.5796 20.6131 36.2218 20.6131 35.7805V34.1824C20.6131 33.7411 20.2553 33.3833 19.814 33.3833Z" fill="url(#paint6_linear_3659_19104)"/>
<path d="M71.6403 36.2033C71.5748 35.9619 71.3974 35.763 71.1657 35.6703C70.178 35.2763 69.2447 35.1317 68.5519 35.2707L68.3969 35.3019H68.2387C67.4876 35.3019 66.8379 35.3107 66.4903 35.4178C66.4488 35.4305 66.408 35.4465 66.3681 35.4665L64.5653 36.3679L64.1211 34.3694C63.648 32.2422 62.5876 30.3764 61.2116 29.2497C61.043 29.1115 60.8217 29.0484 60.6043 29.0755C60.3878 29.1035 60.1896 29.2202 60.0602 29.3967C59.8157 29.7316 59.4784 30.3604 59.2587 31.4552L59.2395 31.5391C58.7033 33.687 58.9734 35.7837 59.9787 37.2924L61.071 38.9313L59.2419 39.6624C57.5071 40.356 55.8099 40.6956 54.167 41.0241L54.012 41.0552H12.4666C12.254 41.0552 12.0463 41.1423 11.8976 41.2933C11.7482 41.4452 11.6643 41.6537 11.6675 41.8663C11.7202 45.2607 12.3148 48.4762 13.4854 51.6957C14.6193 54.8145 16.573 57.3875 19.134 59.1359C19.1652 59.1574 19.198 59.1766 19.2307 59.1926C22.8625 60.9833 26.7021 61.8911 30.6423 61.8911C31.2024 61.8911 31.7714 61.8719 32.3331 61.8343L32.4394 61.8311C34.8966 61.8311 37.3002 61.5307 39.8436 61.2126C39.8596 61.211 39.8748 61.2086 39.89 61.2055C43.2716 60.5822 46.5958 59.3324 49.51 57.5872C51.6987 56.2168 53.8098 54.4908 56.1535 52.1575C56.1735 52.1376 56.1927 52.1168 56.2102 52.0952C59.0254 48.6344 61.1086 44.9515 62.5772 40.8371L62.956 39.7767H64.7212C66.8723 39.7767 69.0625 38.98 70.7302 37.5904L70.7957 37.5361L70.8668 37.489C71.0243 37.3835 71.2616 37.2085 71.4989 36.9048C71.6523 36.7075 71.7051 36.4462 71.6395 36.2049L71.6403 36.2033Z" fill="url(#paint7_linear_3659_19104)"/>
<path d="M35.7955 33.3833H33.5581C33.1168 33.3833 32.759 33.7411 32.759 34.1824V35.7805C32.759 36.2218 33.1168 36.5796 33.5581 36.5796H35.7955C36.2368 36.5796 36.5946 36.2218 36.5946 35.7805V34.1824C36.5946 33.7411 36.2368 33.3833 35.7955 33.3833Z" fill="url(#paint8_linear_3659_19104)"/>
<path d="M27.4852 33.3833H25.5674C25.1261 33.3833 24.7683 33.7411 24.7683 34.1824V35.7805C24.7683 36.2218 25.1261 36.5796 25.5674 36.5796H27.4852C27.9265 36.5796 28.2842 36.2218 28.2842 35.7805V34.1824C28.2842 33.7411 27.9265 33.3833 27.4852 33.3833Z" fill="url(#paint9_linear_3659_19104)"/>
</g>
<defs>
<linearGradient id="paint0_linear_3659_19104" x1="36.5946" y1="28.92" x2="34.6189" y2="25.784" gradientUnits="userSpaceOnUse">
<stop stop-color="#49B1B5"/>
<stop offset="1" stop-color="#7AE3EA"/>
</linearGradient>
<linearGradient id="paint1_linear_3659_19104" x1="44.2657" y1="28.92" x2="42.29" y2="25.784" gradientUnits="userSpaceOnUse">
<stop stop-color="#49B1B5"/>
<stop offset="1" stop-color="#7AE3EA"/>
</linearGradient>
<linearGradient id="paint2_linear_3659_19104" x1="44.2657" y1="36.2371" x2="41.9789" y2="32.9704" gradientUnits="userSpaceOnUse">
<stop stop-color="#49B1B5"/>
<stop offset="1" stop-color="#7AE3EA"/>
</linearGradient>
<linearGradient id="paint3_linear_3659_19104" x1="44.2657" y1="21.5684" x2="42.29" y2="18.4324" gradientUnits="userSpaceOnUse">
<stop stop-color="#49B1B5"/>
<stop offset="1" stop-color="#7AE3EA"/>
</linearGradient>
<linearGradient id="paint4_linear_3659_19104" x1="52.2564" y1="36.2371" x2="49.9696" y2="32.9704" gradientUnits="userSpaceOnUse">
<stop stop-color="#49B1B5"/>
<stop offset="1" stop-color="#7AE3EA"/>
</linearGradient>
<linearGradient id="paint5_linear_3659_19104" x1="28.2842" y1="28.92" x2="26.2394" y2="25.9447" gradientUnits="userSpaceOnUse">
<stop stop-color="#49B1B5"/>
<stop offset="1" stop-color="#7AE3EA"/>
</linearGradient>
<linearGradient id="paint6_linear_3659_19104" x1="20.6131" y1="36.2371" x2="18.3263" y2="32.9704" gradientUnits="userSpaceOnUse">
<stop stop-color="#49B1B5"/>
<stop offset="1" stop-color="#7AE3EA"/>
</linearGradient>
<linearGradient id="paint7_linear_3659_19104" x1="71.6672" y1="58.3744" x2="52.7038" y2="17.1054" gradientUnits="userSpaceOnUse">
<stop stop-color="#49B1B5"/>
<stop offset="1" stop-color="#7AE3EA"/>
</linearGradient>
<linearGradient id="paint8_linear_3659_19104" x1="36.5946" y1="36.2371" x2="34.3078" y2="32.9704" gradientUnits="userSpaceOnUse">
<stop stop-color="#49B1B5"/>
<stop offset="1" stop-color="#7AE3EA"/>
</linearGradient>
<linearGradient id="paint9_linear_3659_19104" x1="28.2842" y1="36.2371" x2="25.9364" y2="33.1626" gradientUnits="userSpaceOnUse">
<stop stop-color="#49B1B5"/>
<stop offset="1" stop-color="#7AE3EA"/>
</linearGradient>
<clipPath id="clip0_3659_19104">
<rect width="60" height="42.8902" fill="white" transform="translate(11.6675 19)"/>
</clipPath>
</defs>
</svg>
