<svg width="81" height="80" viewBox="0 0 81 80" fill="none" xmlns="http://www.w3.org/2000/svg">
<g clip-path="url(#clip0_3659_12823)">
<path d="M35.4613 26.3516H33.2239C32.7826 26.3516 32.4248 26.7093 32.4248 27.1506V28.4292C32.4248 28.8705 32.7826 29.2282 33.2239 29.2282H35.4613C35.9026 29.2282 36.2604 28.8705 36.2604 28.4292V27.1506C36.2604 26.7093 35.9026 26.3516 35.4613 26.3516Z" fill="url(#paint0_linear_3659_12823)"/>
<path d="M43.1324 26.3516H40.895C40.4537 26.3516 40.0959 26.7093 40.0959 27.1506V28.4292C40.0959 28.8705 40.4537 29.2282 40.895 29.2282H43.1324C43.5737 29.2282 43.9315 28.8705 43.9315 28.4292V27.1506C43.9315 26.7093 43.5737 26.3516 43.1324 26.3516Z" fill="#CCCCCC"/>
<path d="M43.1324 33.3833H40.895C40.4537 33.3833 40.0959 33.7411 40.0959 34.1824V35.7805C40.0959 36.2218 40.4537 36.5796 40.895 36.5796H43.1324C43.5737 36.5796 43.9315 36.2218 43.9315 35.7805V34.1824C43.9315 33.7411 43.5737 33.3833 43.1324 33.3833Z" fill="url(#paint1_linear_3659_12823)"/>
<path d="M43.1324 19H40.895C40.4537 19 40.0959 19.3578 40.0959 19.7991V21.0776C40.0959 21.5189 40.4537 21.8767 40.895 21.8767H43.1324C43.5737 21.8767 43.9315 21.5189 43.9315 21.0776V19.7991C43.9315 19.3578 43.5737 19 43.1324 19Z" fill="#CCCCCC"/>
<path d="M51.1231 33.3833H48.8857C48.4444 33.3833 48.0867 33.7411 48.0867 34.1824V35.7805C48.0867 36.2218 48.4444 36.5796 48.8857 36.5796H51.1231C51.5645 36.5796 51.9222 36.2218 51.9222 35.7805V34.1824C51.9222 33.7411 51.5645 33.3833 51.1231 33.3833Z" fill="url(#paint2_linear_3659_12823)"/>
<path d="M27.1509 26.3516H25.2332C24.7918 26.3516 24.4341 26.7093 24.4341 27.1506V28.4292C24.4341 28.8705 24.7918 29.2282 25.2332 29.2282H27.1509C27.5922 29.2282 27.95 28.8705 27.95 28.4292V27.1506C27.95 26.7093 27.5922 26.3516 27.1509 26.3516Z" fill="url(#paint3_linear_3659_12823)"/>
<path d="M19.4798 33.3833H17.2424C16.8011 33.3833 16.4434 33.7411 16.4434 34.1824V35.7805C16.4434 36.2218 16.8011 36.5796 17.2424 36.5796H19.4798C19.9212 36.5796 20.2789 36.2218 20.2789 35.7805V34.1824C20.2789 33.7411 19.9212 33.3833 19.4798 33.3833Z" fill="url(#paint4_linear_3659_12823)"/>
<path d="M71.306 36.2033C71.2405 35.9619 71.0631 35.763 70.8314 35.6703C69.8437 35.2763 68.9104 35.1317 68.2176 35.2707L68.0626 35.3019H67.9044C67.1533 35.3019 66.5036 35.3107 66.156 35.4178C66.1145 35.4305 66.0737 35.4465 66.0338 35.4665L64.2311 36.3679L63.7868 34.3694C63.3137 32.2422 62.2533 30.3764 60.8773 29.2497C60.7087 29.1115 60.4874 29.0484 60.2701 29.0755C60.0535 29.1035 59.8553 29.2202 59.7259 29.3967C59.4814 29.7316 59.1442 30.3604 58.9244 31.4552L58.9052 31.5391C58.3691 33.687 58.6391 35.7837 59.6444 37.2924L60.7367 38.9313L58.9076 39.6624C57.1728 40.356 55.4756 40.6956 53.8327 41.0241L53.6777 41.0552H12.1323C11.9197 41.0552 11.712 41.1423 11.5634 41.2933C11.4139 41.4452 11.33 41.6537 11.3332 41.8663C11.386 45.2607 11.9805 48.4762 13.1511 51.6957C14.285 54.8145 16.2387 57.3875 18.7998 59.1359C18.8309 59.1574 18.8637 59.1766 18.8964 59.1926C22.5282 60.9833 26.3678 61.8911 30.308 61.8911C30.8682 61.8911 31.4371 61.8719 31.9988 61.8343L32.1051 61.8311C34.5623 61.8311 36.9659 61.5307 39.5093 61.2126C39.5253 61.211 39.5405 61.2086 39.5557 61.2055C42.9374 60.5822 46.2615 59.3324 49.1757 57.5872C51.3644 56.2168 53.4755 54.4908 55.8192 52.1575C55.8392 52.1376 55.8584 52.1168 55.8759 52.0952C58.6911 48.6344 60.7743 44.9515 62.243 40.8371L62.6217 39.7767H64.3869C66.538 39.7767 68.7282 38.98 70.3959 37.5904L70.4614 37.5361L70.5325 37.489C70.69 37.3835 70.9273 37.2085 71.1646 36.9048C71.318 36.7075 71.3708 36.4462 71.3053 36.2049L71.306 36.2033Z" fill="#CCCCCC"/>
<path d="M35.4613 33.3833H33.2239C32.7826 33.3833 32.4248 33.7411 32.4248 34.1824V35.7805C32.4248 36.2218 32.7826 36.5796 33.2239 36.5796H35.4613C35.9026 36.5796 36.2604 36.2218 36.2604 35.7805V34.1824C36.2604 33.7411 35.9026 33.3833 35.4613 33.3833Z" fill="url(#paint5_linear_3659_12823)"/>
<path d="M27.1509 33.3833H25.2332C24.7918 33.3833 24.4341 33.7411 24.4341 34.1824V35.7805C24.4341 36.2218 24.7918 36.5796 25.2332 36.5796H27.1509C27.5922 36.5796 27.95 36.2218 27.95 35.7805V34.1824C27.95 33.7411 27.5922 33.3833 27.1509 33.3833Z" fill="url(#paint6_linear_3659_12823)"/>
</g>
<defs>
<linearGradient id="paint0_linear_3659_12823" x1="36.2604" y1="28.92" x2="34.2846" y2="25.784" gradientUnits="userSpaceOnUse">
<stop stop-color="#49B1B5"/>
<stop offset="1" stop-color="#7AE3EA"/>
</linearGradient>
<linearGradient id="paint1_linear_3659_12823" x1="43.9315" y1="36.2371" x2="41.6448" y2="32.9704" gradientUnits="userSpaceOnUse">
<stop stop-color="#49B1B5"/>
<stop offset="1" stop-color="#7AE3EA"/>
</linearGradient>
<linearGradient id="paint2_linear_3659_12823" x1="51.9222" y1="36.2371" x2="49.6355" y2="32.9704" gradientUnits="userSpaceOnUse">
<stop stop-color="#49B1B5"/>
<stop offset="1" stop-color="#7AE3EA"/>
</linearGradient>
<linearGradient id="paint3_linear_3659_12823" x1="27.95" y1="28.92" x2="25.9051" y2="25.9447" gradientUnits="userSpaceOnUse">
<stop stop-color="#49B1B5"/>
<stop offset="1" stop-color="#7AE3EA"/>
</linearGradient>
<linearGradient id="paint4_linear_3659_12823" x1="20.2789" y1="36.2371" x2="17.9922" y2="32.9704" gradientUnits="userSpaceOnUse">
<stop stop-color="#49B1B5"/>
<stop offset="1" stop-color="#7AE3EA"/>
</linearGradient>
<linearGradient id="paint5_linear_3659_12823" x1="36.2604" y1="36.2371" x2="33.9736" y2="32.9704" gradientUnits="userSpaceOnUse">
<stop stop-color="#49B1B5"/>
<stop offset="1" stop-color="#7AE3EA"/>
</linearGradient>
<linearGradient id="paint6_linear_3659_12823" x1="27.95" y1="36.2371" x2="25.6021" y2="33.1626" gradientUnits="userSpaceOnUse">
<stop stop-color="#49B1B5"/>
<stop offset="1" stop-color="#7AE3EA"/>
</linearGradient>
<clipPath id="clip0_3659_12823">
<rect width="60" height="42.8902" fill="white" transform="translate(11.3333 19)"/>
</clipPath>
</defs>
</svg>
