<svg width="80" height="80" viewBox="0 0 80 80" fill="none" xmlns="http://www.w3.org/2000/svg">
<g clip-path="url(#clip0_3659_19123)">
<path d="M35.1305 26.3516H32.8931C32.4518 26.3516 32.094 26.7093 32.094 27.1506V28.4292C32.094 28.8705 32.4518 29.2282 32.8931 29.2282H35.1305C35.5718 29.2282 35.9295 28.8705 35.9295 28.4292V27.1506C35.9295 26.7093 35.5718 26.3516 35.1305 26.3516Z" fill="#CCCCCC"/>
<path d="M42.8016 26.3516H40.5641C40.1228 26.3516 39.7651 26.7093 39.7651 27.1506V28.4292C39.7651 28.8705 40.1228 29.2282 40.5641 29.2282H42.8016C43.2429 29.2282 43.6006 28.8705 43.6006 28.4292V27.1506C43.6006 26.7093 43.2429 26.3516 42.8016 26.3516Z" fill="url(#paint0_linear_3659_19123)"/>
<path d="M42.8016 33.3833H40.5641C40.1228 33.3833 39.7651 33.7411 39.7651 34.1824V35.7805C39.7651 36.2218 40.1228 36.5796 40.5641 36.5796H42.8016C43.2429 36.5796 43.6006 36.2218 43.6006 35.7805V34.1824C43.6006 33.7411 43.2429 33.3833 42.8016 33.3833Z" fill="url(#paint1_linear_3659_19123)"/>
<path d="M42.8016 19H40.5641C40.1228 19 39.7651 19.3578 39.7651 19.7991V21.0776C39.7651 21.5189 40.1228 21.8767 40.5641 21.8767H42.8016C43.2429 21.8767 43.6006 21.5189 43.6006 21.0776V19.7991C43.6006 19.3578 43.2429 19 42.8016 19Z" fill="url(#paint2_linear_3659_19123)"/>
<path d="M50.7923 33.3833H48.5549C48.1136 33.3833 47.7558 33.7411 47.7558 34.1824V35.7805C47.7558 36.2218 48.1136 36.5796 48.5549 36.5796H50.7923C51.2336 36.5796 51.5913 36.2218 51.5913 35.7805V34.1824C51.5913 33.7411 51.2336 33.3833 50.7923 33.3833Z" fill="url(#paint3_linear_3659_19123)"/>
<path d="M26.8201 26.3516H24.9023C24.461 26.3516 24.1033 26.7093 24.1033 27.1506V28.4292C24.1033 28.8705 24.461 29.2282 24.9023 29.2282H26.8201C27.2614 29.2282 27.6192 28.8705 27.6192 28.4292V27.1506C27.6192 26.7093 27.2614 26.3516 26.8201 26.3516Z" fill="#CCCCCC"/>
<path d="M19.149 33.3833H16.9116C16.4702 33.3833 16.1125 33.7411 16.1125 34.1824V35.7805C16.1125 36.2218 16.4702 36.5796 16.9116 36.5796H19.149C19.5903 36.5796 19.948 36.2218 19.948 35.7805V34.1824C19.948 33.7411 19.5903 33.3833 19.149 33.3833Z" fill="url(#paint4_linear_3659_19123)"/>
<path d="M70.9753 36.2033C70.9098 35.9619 70.7324 35.763 70.5007 35.6703C69.513 35.2763 68.5797 35.1317 67.8869 35.2707L67.7319 35.3019H67.5736C66.8225 35.3019 66.1729 35.3107 65.8253 35.4178C65.7837 35.4305 65.743 35.4465 65.703 35.4665L63.9003 36.3679L63.456 34.3694C62.983 32.2422 61.9226 30.3764 60.5466 29.2497C60.378 29.1115 60.1566 29.0484 59.9393 29.0755C59.7228 29.1035 59.5246 29.2202 59.3951 29.3967C59.1506 29.7316 58.8134 30.3604 58.5937 31.4552L58.5745 31.5391C58.0383 33.687 58.3084 35.7837 59.3136 37.2924L60.406 38.9313L58.5769 39.6624C56.8421 40.356 55.1449 40.6956 53.502 41.0241L53.3469 41.0552H11.8015C11.589 41.0552 11.3812 41.1423 11.2326 41.2933C11.0832 41.4452 10.9993 41.6537 11.0025 41.8663C11.0552 45.2607 11.6497 48.4762 12.8204 51.6957C13.9542 54.8145 15.908 57.3875 18.469 59.1359C18.5002 59.1574 18.5329 59.1766 18.5657 59.1926C22.1975 60.9833 26.037 61.8911 29.9773 61.8911C30.5374 61.8911 31.1063 61.8719 31.6681 61.8343L31.7744 61.8311C34.2315 61.8311 36.6351 61.5307 39.1786 61.2126C39.1946 61.211 39.2097 61.2086 39.2249 61.2055C42.6066 60.5822 45.9307 59.3324 48.845 57.5872C51.0336 56.2168 53.1448 54.4908 55.4885 52.1575C55.5084 52.1376 55.5276 52.1168 55.5452 52.0952C58.3603 48.6344 60.4435 44.9515 61.9122 40.8371L62.291 39.7767H64.0561C66.2072 39.7767 68.3975 38.98 70.0652 37.5904L70.1307 37.5361L70.2018 37.489C70.3592 37.3835 70.5965 37.2085 70.8339 36.9048C70.9873 36.7075 71.04 36.4462 70.9745 36.2049L70.9753 36.2033Z" fill="url(#paint5_linear_3659_19123)"/>
<path d="M35.1305 33.3833H32.8931C32.4518 33.3833 32.094 33.7411 32.094 34.1824V35.7805C32.094 36.2218 32.4518 36.5796 32.8931 36.5796H35.1305C35.5718 36.5796 35.9295 36.2218 35.9295 35.7805V34.1824C35.9295 33.7411 35.5718 33.3833 35.1305 33.3833Z" fill="url(#paint6_linear_3659_19123)"/>
<path d="M26.8201 33.3833H24.9023C24.461 33.3833 24.1033 33.7411 24.1033 34.1824V35.7805C24.1033 36.2218 24.461 36.5796 24.9023 36.5796H26.8201C27.2614 36.5796 27.6192 36.2218 27.6192 35.7805V34.1824C27.6192 33.7411 27.2614 33.3833 26.8201 33.3833Z" fill="url(#paint7_linear_3659_19123)"/>
</g>
<defs>
<linearGradient id="paint0_linear_3659_19123" x1="43.6006" y1="28.92" x2="41.6249" y2="25.784" gradientUnits="userSpaceOnUse">
<stop stop-color="#49B1B5"/>
<stop offset="1" stop-color="#7AE3EA"/>
</linearGradient>
<linearGradient id="paint1_linear_3659_19123" x1="43.6006" y1="36.2371" x2="41.3139" y2="32.9704" gradientUnits="userSpaceOnUse">
<stop stop-color="#49B1B5"/>
<stop offset="1" stop-color="#7AE3EA"/>
</linearGradient>
<linearGradient id="paint2_linear_3659_19123" x1="43.6006" y1="21.5684" x2="41.6249" y2="18.4324" gradientUnits="userSpaceOnUse">
<stop stop-color="#49B1B5"/>
<stop offset="1" stop-color="#7AE3EA"/>
</linearGradient>
<linearGradient id="paint3_linear_3659_19123" x1="51.5913" y1="36.2371" x2="49.3046" y2="32.9704" gradientUnits="userSpaceOnUse">
<stop stop-color="#49B1B5"/>
<stop offset="1" stop-color="#7AE3EA"/>
</linearGradient>
<linearGradient id="paint4_linear_3659_19123" x1="19.948" y1="36.2371" x2="17.6613" y2="32.9704" gradientUnits="userSpaceOnUse">
<stop stop-color="#49B1B5"/>
<stop offset="1" stop-color="#7AE3EA"/>
</linearGradient>
<linearGradient id="paint5_linear_3659_19123" x1="71.0021" y1="58.3744" x2="52.0388" y2="17.1054" gradientUnits="userSpaceOnUse">
<stop stop-color="#49B1B5"/>
<stop offset="1" stop-color="#7AE3EA"/>
</linearGradient>
<linearGradient id="paint6_linear_3659_19123" x1="35.9295" y1="36.2371" x2="33.6428" y2="32.9704" gradientUnits="userSpaceOnUse">
<stop stop-color="#49B1B5"/>
<stop offset="1" stop-color="#7AE3EA"/>
</linearGradient>
<linearGradient id="paint7_linear_3659_19123" x1="27.6192" y1="36.2371" x2="25.2713" y2="33.1626" gradientUnits="userSpaceOnUse">
<stop stop-color="#49B1B5"/>
<stop offset="1" stop-color="#7AE3EA"/>
</linearGradient>
<clipPath id="clip0_3659_19123">
<rect width="60" height="42.8902" fill="white" transform="translate(11.0024 19)"/>
</clipPath>
</defs>
</svg>
