<svg width="80" height="80" viewBox="0 0 80 80" fill="none" xmlns="http://www.w3.org/2000/svg">
<g clip-path="url(#clip0_3659_19157)">
<path d="M35.128 26.3516H32.8906C32.4493 26.3516 32.0916 26.7093 32.0916 27.1506V28.4292C32.0916 28.8705 32.4493 29.2282 32.8906 29.2282H35.128C35.5693 29.2282 35.9271 28.8705 35.9271 28.4292V27.1506C35.9271 26.7093 35.5693 26.3516 35.128 26.3516Z" fill="#CCCCCC"/>
<path d="M42.7991 26.3516H40.5617C40.1204 26.3516 39.7626 26.7093 39.7626 27.1506V28.4292C39.7626 28.8705 40.1204 29.2282 40.5617 29.2282H42.7991C43.2404 29.2282 43.5982 28.8705 43.5982 28.4292V27.1506C43.5982 26.7093 43.2404 26.3516 42.7991 26.3516Z" fill="#CCCCCC"/>
<path d="M42.7991 33.3833H40.5617C40.1204 33.3833 39.7626 33.7411 39.7626 34.1824V35.7805C39.7626 36.2218 40.1204 36.5796 40.5617 36.5796H42.7991C43.2404 36.5796 43.5982 36.2218 43.5982 35.7805V34.1824C43.5982 33.7411 43.2404 33.3833 42.7991 33.3833Z" fill="url(#paint0_linear_3659_19157)"/>
<path d="M42.7991 19H40.5617C40.1204 19 39.7626 19.3578 39.7626 19.7991V21.0776C39.7626 21.5189 40.1204 21.8767 40.5617 21.8767H42.7991C43.2404 21.8767 43.5982 21.5189 43.5982 21.0776V19.7991C43.5982 19.3578 43.2404 19 42.7991 19Z" fill="#CCCCCC"/>
<path d="M50.7898 33.3833H48.5524C48.1111 33.3833 47.7534 33.7411 47.7534 34.1824V35.7805C47.7534 36.2218 48.1111 36.5796 48.5524 36.5796H50.7898C51.2312 36.5796 51.5889 36.2218 51.5889 35.7805V34.1824C51.5889 33.7411 51.2312 33.3833 50.7898 33.3833Z" fill="url(#paint1_linear_3659_19157)"/>
<path d="M26.8177 26.3516H24.8999C24.4586 26.3516 24.1008 26.7093 24.1008 27.1506V28.4292C24.1008 28.8705 24.4586 29.2282 24.8999 29.2282H26.8177C27.259 29.2282 27.6168 28.8705 27.6168 28.4292V27.1506C27.6168 26.7093 27.259 26.3516 26.8177 26.3516Z" fill="#CCCCCC"/>
<path d="M19.1465 33.3833H16.9091C16.4678 33.3833 16.11 33.7411 16.11 34.1824V35.7805C16.11 36.2218 16.4678 36.5796 16.9091 36.5796H19.1465C19.5878 36.5796 19.9456 36.2218 19.9456 35.7805V34.1824C19.9456 33.7411 19.5878 33.3833 19.1465 33.3833Z" fill="#CCCCCC"/>
<path d="M70.9729 36.2033C70.9073 35.9619 70.7299 35.763 70.4982 35.6703C69.5106 35.2763 68.5772 35.1317 67.8844 35.2707L67.7294 35.3019H67.5712C66.8201 35.3019 66.1704 35.3107 65.8228 35.4178C65.7813 35.4305 65.7405 35.4465 65.7006 35.4665L63.8979 36.3679L63.4536 34.3694C62.9805 32.2422 61.9202 30.3764 60.5442 29.2497C60.3756 29.1115 60.1542 29.0484 59.9369 29.0755C59.7203 29.1035 59.5221 29.2202 59.3927 29.3967C59.1482 29.7316 58.811 30.3604 58.5912 31.4552L58.572 31.5391C58.0359 33.687 58.306 35.7837 59.3112 37.2924L60.4035 38.9313L58.5744 39.6624C56.8397 40.356 55.1424 40.6956 53.4995 41.0241L53.3445 41.0552H11.7991C11.5865 41.0552 11.3788 41.1423 11.2302 41.2933C11.0807 41.4452 10.9968 41.6537 11 41.8663C11.0528 45.2607 11.6473 48.4762 12.8179 51.6957C13.9518 54.8145 15.9055 57.3875 18.4666 59.1359C18.4977 59.1574 18.5305 59.1766 18.5633 59.1926C22.195 60.9833 26.0346 61.8911 29.9748 61.8911C30.535 61.8911 31.1039 61.8719 31.6657 61.8343L31.7719 61.8311C34.2291 61.8311 36.6327 61.5307 39.1761 61.2126C39.1921 61.211 39.2073 61.2086 39.2225 61.2055C42.6042 60.5822 45.9283 59.3324 48.8425 57.5872C51.0312 56.2168 53.1423 54.4908 55.486 52.1575C55.506 52.1376 55.5252 52.1168 55.5428 52.0952C58.3579 48.6344 60.4411 44.9515 61.9098 40.8371L62.2885 39.7767H64.0537C66.2048 39.7767 68.3951 38.98 70.0627 37.5904L70.1282 37.5361L70.1994 37.489C70.3568 37.3835 70.5941 37.2085 70.8314 36.9048C70.9848 36.7075 71.0376 36.4462 70.9721 36.2049L70.9729 36.2033Z" fill="url(#paint2_linear_3659_19157)"/>
<path d="M35.128 33.3833H32.8906C32.4493 33.3833 32.0916 33.7411 32.0916 34.1824V35.7805C32.0916 36.2218 32.4493 36.5796 32.8906 36.5796H35.128C35.5693 36.5796 35.9271 36.2218 35.9271 35.7805V34.1824C35.9271 33.7411 35.5693 33.3833 35.128 33.3833Z" fill="url(#paint3_linear_3659_19157)"/>
<path d="M26.8177 33.3833H24.8999C24.4586 33.3833 24.1008 33.7411 24.1008 34.1824V35.7805C24.1008 36.2218 24.4586 36.5796 24.8999 36.5796H26.8177C27.259 36.5796 27.6168 36.2218 27.6168 35.7805V34.1824C27.6168 33.7411 27.259 33.3833 26.8177 33.3833Z" fill="url(#paint4_linear_3659_19157)"/>
</g>
<defs>
<linearGradient id="paint0_linear_3659_19157" x1="43.5982" y1="36.2371" x2="41.3114" y2="32.9704" gradientUnits="userSpaceOnUse">
<stop stop-color="#49B1B5"/>
<stop offset="1" stop-color="#7AE3EA"/>
</linearGradient>
<linearGradient id="paint1_linear_3659_19157" x1="51.5889" y1="36.2371" x2="49.3022" y2="32.9704" gradientUnits="userSpaceOnUse">
<stop stop-color="#49B1B5"/>
<stop offset="1" stop-color="#7AE3EA"/>
</linearGradient>
<linearGradient id="paint2_linear_3659_19157" x1="70.9997" y1="58.3744" x2="52.0363" y2="17.1054" gradientUnits="userSpaceOnUse">
<stop stop-color="#49B1B5"/>
<stop offset="1" stop-color="#7AE3EA"/>
</linearGradient>
<linearGradient id="paint3_linear_3659_19157" x1="35.9271" y1="36.2371" x2="33.6404" y2="32.9704" gradientUnits="userSpaceOnUse">
<stop stop-color="#49B1B5"/>
<stop offset="1" stop-color="#7AE3EA"/>
</linearGradient>
<linearGradient id="paint4_linear_3659_19157" x1="27.6168" y1="36.2371" x2="25.2689" y2="33.1626" gradientUnits="userSpaceOnUse">
<stop stop-color="#49B1B5"/>
<stop offset="1" stop-color="#7AE3EA"/>
</linearGradient>
<clipPath id="clip0_3659_19157">
<rect width="60" height="42.8902" fill="white" transform="translate(11 19)"/>
</clipPath>
</defs>
</svg>
