<svg width="60" height="60" viewBox="0 0 60 60" fill="none" xmlns="http://www.w3.org/2000/svg">
<path d="M18.0588 25.6816V48.1748C18.0588 48.9205 17.7675 49.6357 17.2491 50.1629C16.7306 50.6902 16.0274 50.9865 15.2941 50.9865H9.76471C9.03146 50.9865 8.32825 50.6902 7.80976 50.1629C7.29128 49.6357 7 48.9205 7 48.1748V28.4932C7 27.7475 7.29128 27.0324 7.80976 26.5051C8.32825 25.9778 9.03146 25.6816 9.76471 25.6816H18.0588ZM18.0588 25.6816C20.9918 25.6816 23.8047 24.4967 25.8786 22.3875C27.9525 20.2784 29.1176 17.4177 29.1176 14.435V11.6233C29.1176 10.1319 29.7002 8.7016 30.7372 7.64703C31.7741 6.59245 33.1806 6 34.6471 6C36.1136 6 37.52 6.59245 38.5569 7.64703C39.5939 8.7016 40.1765 10.1319 40.1765 11.6233V25.6816H48.4706C49.9371 25.6816 51.3435 26.274 52.3805 27.3286C53.4174 28.3832 54 29.8135 54 31.3049L51.2353 45.3632C50.8377 47.088 50.0834 48.5691 49.0862 49.5833C48.0889 50.5976 46.9025 51.09 45.7059 50.9865H26.3529C24.1532 50.9865 22.0436 50.0978 20.4881 48.5159C18.9327 46.9341 18.0588 44.7886 18.0588 42.5515" stroke="url(#paint0_linear_5347_133545)" stroke-width="3" stroke-linecap="round" stroke-linejoin="round"/>
<defs>
<linearGradient id="paint0_linear_5347_133545" x1="54" y1="46.1786" x2="20.5329" y2="4.56607" gradientUnits="userSpaceOnUse">
<stop stop-color="#49B1B5"/>
<stop offset="1" stop-color="#7AE3EA"/>
</linearGradient>
</defs>
</svg>
