<svg width="25" height="151" viewBox="0 0 25 151" fill="none" xmlns="http://www.w3.org/2000/svg">
<g clip-path="url(#clip0_406_4877)">
<mask id="path-1-inside-1_406_4877" fill="white">
<path d="M25 139C25 145.627 19.6274 151 13 151L0 151L1.32008e-05 -2.18557e-06L13 -1.04907e-06C19.6274 -4.69686e-07 25 5.37259 25 12L25 139Z"/>
</mask>
<line x1="24" y1="120.5" x2="-30" y2="120.5" stroke="#C7C3F4"/>
<line x1="24" y1="90.5" x2="-30" y2="90.5" stroke="#C7C3F4"/>
<line x1="24" y1="60.5" x2="-30" y2="60.5" stroke="#C7C3F4"/>
<line x1="24" y1="30.5" x2="-30" y2="30.5" stroke="#C7C3F4"/>
</g>
<path d="M26 139C26 146.18 20.1797 152 13 152L-8.74228e-08 152L8.74228e-08 150L13 150C19.0751 150 24 145.075 24 139L26 139ZM1.32883e-05 -1L13 -1C20.1797 -1 26 4.8203 26 12L24 12C24 5.92487 19.0751 0.999999 13 0.999999L1.31134e-05 0.999998L1.32883e-05 -1ZM13 -1C20.1797 -1 26 4.8203 26 12L26 139C26 146.18 20.1797 152 13 152L13 150C19.0751 150 24 145.075 24 139L24 12C24 5.92487 19.0751 0.999999 13 0.999999L13 -1ZM0 151L1.32008e-05 -2.18557e-06L0 151Z" fill="#C7C3F4" mask="url(#path-1-inside-1_406_4877)"/>
<defs>
<clipPath id="clip0_406_4877">
<path d="M25 139C25 145.627 19.6274 151 13 151L0 151L1.32008e-05 -2.18557e-06L13 -1.04907e-06C19.6274 -4.69686e-07 25 5.37259 25 12L25 139Z" fill="white"/>
</clipPath>
</defs>
</svg>
