<svg width="80" height="80" viewBox="0 0 80 80" fill="none" xmlns="http://www.w3.org/2000/svg">
<mask id="path-1-outside-1_3706_87658" maskUnits="userSpaceOnUse" x="9" y="9" width="62" height="62" fill="black">
<rect fill="white" x="9" y="9" width="62" height="62"/>
<path d="M66.1086 60.2783V34.8747C68.3278 34.4017 70 32.4269 70 30.0687C70 27.3587 67.7943 25.153 65.0842 25.153C64.098 25.153 63.1812 25.4444 62.4123 25.9465L54.0535 17.5877C54.5556 16.8188 54.847 15.8998 54.847 14.9158C54.847 12.2057 52.6413 10 49.9313 10C47.5731 10 45.5961 11.67 45.1253 13.8914H19.7217C19.2487 11.67 17.2739 10 14.9158 10C12.2057 10 10 12.2057 10 14.9158C10 17.2739 11.67 19.2509 13.8914 19.7217V45.1253C11.6722 45.5983 10 47.5731 10 49.9313C10 52.6413 12.2057 54.847 14.9158 54.847C15.902 54.847 16.8188 54.5556 17.5877 54.0535L25.9465 62.4123C25.4444 63.1812 25.153 64.1002 25.153 65.0842C25.153 67.7943 27.3587 70 30.0687 70C32.4269 70 34.4039 68.33 34.8747 66.1086H60.2783C60.7513 68.3278 62.7261 70 65.0842 70C67.7943 70 70 67.7943 70 65.0842C70 62.7261 68.33 60.7491 66.1086 60.2783ZM62.4123 60.9642L54.0535 52.6054C54.5556 51.8366 54.847 50.9175 54.847 49.9335C54.847 47.5754 53.177 45.5983 50.9557 45.1276V34.0341C50.9557 33.4692 50.4961 33.0097 49.9313 33.0097C49.3664 33.0097 48.9069 33.4692 48.9069 34.0341V45.1276C47.0172 45.5288 45.5266 47.0217 45.1231 48.9113H33.7651C33.2002 48.9113 32.7407 49.3686 32.7407 49.9357C32.7407 50.5029 33.2002 50.9601 33.7651 50.9601H45.1231C45.5961 53.1793 47.5709 54.8515 49.929 54.8515C50.9153 54.8515 51.8321 54.5601 52.601 54.058L60.9598 62.4168C60.637 62.9122 60.4016 63.4681 60.2738 64.0666H34.8702C34.4689 62.1769 32.9761 60.6863 31.0864 60.2828V34.8791C32.9761 34.4779 34.4667 32.985 34.8702 31.0954H60.2738C60.6751 32.985 62.168 34.4757 64.0576 34.8791V60.2828C63.4613 60.4106 62.9032 60.6459 62.4078 60.9687L62.4123 60.9642ZM49.9313 47.0643C51.5116 47.0643 52.7982 48.351 52.7982 49.9313C52.7982 51.5116 51.5116 52.7982 49.9313 52.7982C48.351 52.7982 47.0643 51.5116 47.0643 49.9313C47.0643 48.351 48.351 47.0643 49.9313 47.0643ZM27.3946 60.9642L19.0358 52.6054C19.3585 52.1101 19.5939 51.5542 19.7217 50.9557H25.9196C26.4845 50.9557 26.944 50.4984 26.944 49.9313C26.944 49.3641 26.4845 48.9069 25.9196 48.9069H19.7217C19.3204 47.0172 17.8275 45.5266 15.9379 45.1231V19.7217C16.5342 19.5939 17.0923 19.3585 17.5877 19.0358L25.9465 27.3946C25.4444 28.1634 25.153 29.0825 25.153 30.0665C25.153 32.4246 26.823 34.4017 29.0443 34.8724V60.2761C28.4481 60.4039 27.8899 60.6392 27.3946 60.962V60.9642ZM48.9091 19.7217V26.3433C48.9091 26.9081 49.3686 27.3677 49.9335 27.3677C50.4984 27.3677 50.9579 26.9104 50.9579 26.3433V19.7217C51.5541 19.5939 52.1123 19.3585 52.6077 19.0358L60.9665 27.3946C60.6437 27.8899 60.4083 28.4458 60.2806 29.0443H34.8769C34.4039 26.8252 32.4291 25.153 30.071 25.153C29.0847 25.153 28.1679 25.4444 27.399 25.9465L19.0402 17.5877C19.363 17.0923 19.5984 16.5364 19.7262 15.9379H45.1298C45.5311 17.8275 47.0239 19.3182 48.9136 19.7217H48.9091ZM30.0687 32.9357C28.4884 32.9357 27.2018 31.649 27.2018 30.0687C27.2018 28.4884 28.4884 27.2018 30.0687 27.2018C31.649 27.2018 32.9357 28.4884 32.9357 30.0687C32.9357 31.649 31.649 32.9357 30.0687 32.9357ZM67.9534 30.0687C67.9534 31.649 66.6668 32.9357 65.0865 32.9357C63.5062 32.9357 62.2195 31.649 62.2195 30.0687C62.2195 28.4884 63.5062 27.2018 65.0865 27.2018C66.6668 27.2018 67.9534 28.4884 67.9534 30.0687ZM49.9313 12.0488C51.5116 12.0488 52.7982 13.3355 52.7982 14.9158C52.7982 16.4961 51.5116 17.7827 49.9313 17.7827C48.351 17.7827 47.0643 16.4961 47.0643 14.9158C47.0643 13.3355 48.351 12.0488 49.9313 12.0488ZM12.0488 14.9158C12.0488 13.3355 13.3355 12.0488 14.9158 12.0488C16.4961 12.0488 17.7827 13.3355 17.7827 14.9158C17.7827 16.4961 16.4961 17.7827 14.9158 17.7827C13.3355 17.7827 12.0488 16.4961 12.0488 14.9158ZM12.0488 49.9313C12.0488 48.351 13.3355 47.0643 14.9158 47.0643C16.4961 47.0643 17.7827 48.351 17.7827 49.9313C17.7827 51.5116 16.4961 52.7982 14.9158 52.7982C13.3355 52.7982 12.0488 51.5116 12.0488 49.9313ZM30.0687 67.9534C28.4884 67.9534 27.2018 66.6668 27.2018 65.0865C27.2018 63.5062 28.4884 62.2195 30.0687 62.2195C31.649 62.2195 32.9357 63.5062 32.9357 65.0865C32.9357 66.6668 31.649 67.9534 30.0687 67.9534ZM65.0865 67.9534C63.5062 67.9534 62.2195 66.6668 62.2195 65.0865C62.2195 63.5062 63.5062 62.2195 65.0865 62.2195C66.6668 62.2195 67.9534 63.5062 67.9534 65.0865C67.9534 66.6668 66.6668 67.9534 65.0865 67.9534Z"/>
</mask>
<path d="M66.1086 60.2783V34.8747C68.3278 34.4017 70 32.4269 70 30.0687C70 27.3587 67.7943 25.153 65.0842 25.153C64.098 25.153 63.1812 25.4444 62.4123 25.9465L54.0535 17.5877C54.5556 16.8188 54.847 15.8998 54.847 14.9158C54.847 12.2057 52.6413 10 49.9313 10C47.5731 10 45.5961 11.67 45.1253 13.8914H19.7217C19.2487 11.67 17.2739 10 14.9158 10C12.2057 10 10 12.2057 10 14.9158C10 17.2739 11.67 19.2509 13.8914 19.7217V45.1253C11.6722 45.5983 10 47.5731 10 49.9313C10 52.6413 12.2057 54.847 14.9158 54.847C15.902 54.847 16.8188 54.5556 17.5877 54.0535L25.9465 62.4123C25.4444 63.1812 25.153 64.1002 25.153 65.0842C25.153 67.7943 27.3587 70 30.0687 70C32.4269 70 34.4039 68.33 34.8747 66.1086H60.2783C60.7513 68.3278 62.7261 70 65.0842 70C67.7943 70 70 67.7943 70 65.0842C70 62.7261 68.33 60.7491 66.1086 60.2783ZM62.4123 60.9642L54.0535 52.6054C54.5556 51.8366 54.847 50.9175 54.847 49.9335C54.847 47.5754 53.177 45.5983 50.9557 45.1276V34.0341C50.9557 33.4692 50.4961 33.0097 49.9313 33.0097C49.3664 33.0097 48.9069 33.4692 48.9069 34.0341V45.1276C47.0172 45.5288 45.5266 47.0217 45.1231 48.9113H33.7651C33.2002 48.9113 32.7407 49.3686 32.7407 49.9357C32.7407 50.5029 33.2002 50.9601 33.7651 50.9601H45.1231C45.5961 53.1793 47.5709 54.8515 49.929 54.8515C50.9153 54.8515 51.8321 54.5601 52.601 54.058L60.9598 62.4168C60.637 62.9122 60.4016 63.4681 60.2738 64.0666H34.8702C34.4689 62.1769 32.9761 60.6863 31.0864 60.2828V34.8791C32.9761 34.4779 34.4667 32.985 34.8702 31.0954H60.2738C60.6751 32.985 62.168 34.4757 64.0576 34.8791V60.2828C63.4613 60.4106 62.9032 60.6459 62.4078 60.9687L62.4123 60.9642ZM49.9313 47.0643C51.5116 47.0643 52.7982 48.351 52.7982 49.9313C52.7982 51.5116 51.5116 52.7982 49.9313 52.7982C48.351 52.7982 47.0643 51.5116 47.0643 49.9313C47.0643 48.351 48.351 47.0643 49.9313 47.0643ZM27.3946 60.9642L19.0358 52.6054C19.3585 52.1101 19.5939 51.5542 19.7217 50.9557H25.9196C26.4845 50.9557 26.944 50.4984 26.944 49.9313C26.944 49.3641 26.4845 48.9069 25.9196 48.9069H19.7217C19.3204 47.0172 17.8275 45.5266 15.9379 45.1231V19.7217C16.5342 19.5939 17.0923 19.3585 17.5877 19.0358L25.9465 27.3946C25.4444 28.1634 25.153 29.0825 25.153 30.0665C25.153 32.4246 26.823 34.4017 29.0443 34.8724V60.2761C28.4481 60.4039 27.8899 60.6392 27.3946 60.962V60.9642ZM48.9091 19.7217V26.3433C48.9091 26.9081 49.3686 27.3677 49.9335 27.3677C50.4984 27.3677 50.9579 26.9104 50.9579 26.3433V19.7217C51.5541 19.5939 52.1123 19.3585 52.6077 19.0358L60.9665 27.3946C60.6437 27.8899 60.4083 28.4458 60.2806 29.0443H34.8769C34.4039 26.8252 32.4291 25.153 30.071 25.153C29.0847 25.153 28.1679 25.4444 27.399 25.9465L19.0402 17.5877C19.363 17.0923 19.5984 16.5364 19.7262 15.9379H45.1298C45.5311 17.8275 47.0239 19.3182 48.9136 19.7217H48.9091ZM30.0687 32.9357C28.4884 32.9357 27.2018 31.649 27.2018 30.0687C27.2018 28.4884 28.4884 27.2018 30.0687 27.2018C31.649 27.2018 32.9357 28.4884 32.9357 30.0687C32.9357 31.649 31.649 32.9357 30.0687 32.9357ZM67.9534 30.0687C67.9534 31.649 66.6668 32.9357 65.0865 32.9357C63.5062 32.9357 62.2195 31.649 62.2195 30.0687C62.2195 28.4884 63.5062 27.2018 65.0865 27.2018C66.6668 27.2018 67.9534 28.4884 67.9534 30.0687ZM49.9313 12.0488C51.5116 12.0488 52.7982 13.3355 52.7982 14.9158C52.7982 16.4961 51.5116 17.7827 49.9313 17.7827C48.351 17.7827 47.0643 16.4961 47.0643 14.9158C47.0643 13.3355 48.351 12.0488 49.9313 12.0488ZM12.0488 14.9158C12.0488 13.3355 13.3355 12.0488 14.9158 12.0488C16.4961 12.0488 17.7827 13.3355 17.7827 14.9158C17.7827 16.4961 16.4961 17.7827 14.9158 17.7827C13.3355 17.7827 12.0488 16.4961 12.0488 14.9158ZM12.0488 49.9313C12.0488 48.351 13.3355 47.0643 14.9158 47.0643C16.4961 47.0643 17.7827 48.351 17.7827 49.9313C17.7827 51.5116 16.4961 52.7982 14.9158 52.7982C13.3355 52.7982 12.0488 51.5116 12.0488 49.9313ZM30.0687 67.9534C28.4884 67.9534 27.2018 66.6668 27.2018 65.0865C27.2018 63.5062 28.4884 62.2195 30.0687 62.2195C31.649 62.2195 32.9357 63.5062 32.9357 65.0865C32.9357 66.6668 31.649 67.9534 30.0687 67.9534ZM65.0865 67.9534C63.5062 67.9534 62.2195 66.6668 62.2195 65.0865C62.2195 63.5062 63.5062 62.2195 65.0865 62.2195C66.6668 62.2195 67.9534 63.5062 67.9534 65.0865C67.9534 66.6668 66.6668 67.9534 65.0865 67.9534Z" fill="url(#paint0_linear_3706_87658)"/>
<path d="M66.1086 60.2783V34.8747C68.3278 34.4017 70 32.4269 70 30.0687C70 27.3587 67.7943 25.153 65.0842 25.153C64.098 25.153 63.1812 25.4444 62.4123 25.9465L54.0535 17.5877C54.5556 16.8188 54.847 15.8998 54.847 14.9158C54.847 12.2057 52.6413 10 49.9313 10C47.5731 10 45.5961 11.67 45.1253 13.8914H19.7217C19.2487 11.67 17.2739 10 14.9158 10C12.2057 10 10 12.2057 10 14.9158C10 17.2739 11.67 19.2509 13.8914 19.7217V45.1253C11.6722 45.5983 10 47.5731 10 49.9313C10 52.6413 12.2057 54.847 14.9158 54.847C15.902 54.847 16.8188 54.5556 17.5877 54.0535L25.9465 62.4123C25.4444 63.1812 25.153 64.1002 25.153 65.0842C25.153 67.7943 27.3587 70 30.0687 70C32.4269 70 34.4039 68.33 34.8747 66.1086H60.2783C60.7513 68.3278 62.7261 70 65.0842 70C67.7943 70 70 67.7943 70 65.0842C70 62.7261 68.33 60.7491 66.1086 60.2783ZM62.4123 60.9642L54.0535 52.6054C54.5556 51.8366 54.847 50.9175 54.847 49.9335C54.847 47.5754 53.177 45.5983 50.9557 45.1276V34.0341C50.9557 33.4692 50.4961 33.0097 49.9313 33.0097C49.3664 33.0097 48.9069 33.4692 48.9069 34.0341V45.1276C47.0172 45.5288 45.5266 47.0217 45.1231 48.9113H33.7651C33.2002 48.9113 32.7407 49.3686 32.7407 49.9357C32.7407 50.5029 33.2002 50.9601 33.7651 50.9601H45.1231C45.5961 53.1793 47.5709 54.8515 49.929 54.8515C50.9153 54.8515 51.8321 54.5601 52.601 54.058L60.9598 62.4168C60.637 62.9122 60.4016 63.4681 60.2738 64.0666H34.8702C34.4689 62.1769 32.9761 60.6863 31.0864 60.2828V34.8791C32.9761 34.4779 34.4667 32.985 34.8702 31.0954H60.2738C60.6751 32.985 62.168 34.4757 64.0576 34.8791V60.2828C63.4613 60.4106 62.9032 60.6459 62.4078 60.9687L62.4123 60.9642ZM49.9313 47.0643C51.5116 47.0643 52.7982 48.351 52.7982 49.9313C52.7982 51.5116 51.5116 52.7982 49.9313 52.7982C48.351 52.7982 47.0643 51.5116 47.0643 49.9313C47.0643 48.351 48.351 47.0643 49.9313 47.0643ZM27.3946 60.9642L19.0358 52.6054C19.3585 52.1101 19.5939 51.5542 19.7217 50.9557H25.9196C26.4845 50.9557 26.944 50.4984 26.944 49.9313C26.944 49.3641 26.4845 48.9069 25.9196 48.9069H19.7217C19.3204 47.0172 17.8275 45.5266 15.9379 45.1231V19.7217C16.5342 19.5939 17.0923 19.3585 17.5877 19.0358L25.9465 27.3946C25.4444 28.1634 25.153 29.0825 25.153 30.0665C25.153 32.4246 26.823 34.4017 29.0443 34.8724V60.2761C28.4481 60.4039 27.8899 60.6392 27.3946 60.962V60.9642ZM48.9091 19.7217V26.3433C48.9091 26.9081 49.3686 27.3677 49.9335 27.3677C50.4984 27.3677 50.9579 26.9104 50.9579 26.3433V19.7217C51.5541 19.5939 52.1123 19.3585 52.6077 19.0358L60.9665 27.3946C60.6437 27.8899 60.4083 28.4458 60.2806 29.0443H34.8769C34.4039 26.8252 32.4291 25.153 30.071 25.153C29.0847 25.153 28.1679 25.4444 27.399 25.9465L19.0402 17.5877C19.363 17.0923 19.5984 16.5364 19.7262 15.9379H45.1298C45.5311 17.8275 47.0239 19.3182 48.9136 19.7217H48.9091ZM30.0687 32.9357C28.4884 32.9357 27.2018 31.649 27.2018 30.0687C27.2018 28.4884 28.4884 27.2018 30.0687 27.2018C31.649 27.2018 32.9357 28.4884 32.9357 30.0687C32.9357 31.649 31.649 32.9357 30.0687 32.9357ZM67.9534 30.0687C67.9534 31.649 66.6668 32.9357 65.0865 32.9357C63.5062 32.9357 62.2195 31.649 62.2195 30.0687C62.2195 28.4884 63.5062 27.2018 65.0865 27.2018C66.6668 27.2018 67.9534 28.4884 67.9534 30.0687ZM49.9313 12.0488C51.5116 12.0488 52.7982 13.3355 52.7982 14.9158C52.7982 16.4961 51.5116 17.7827 49.9313 17.7827C48.351 17.7827 47.0643 16.4961 47.0643 14.9158C47.0643 13.3355 48.351 12.0488 49.9313 12.0488ZM12.0488 14.9158C12.0488 13.3355 13.3355 12.0488 14.9158 12.0488C16.4961 12.0488 17.7827 13.3355 17.7827 14.9158C17.7827 16.4961 16.4961 17.7827 14.9158 17.7827C13.3355 17.7827 12.0488 16.4961 12.0488 14.9158ZM12.0488 49.9313C12.0488 48.351 13.3355 47.0643 14.9158 47.0643C16.4961 47.0643 17.7827 48.351 17.7827 49.9313C17.7827 51.5116 16.4961 52.7982 14.9158 52.7982C13.3355 52.7982 12.0488 51.5116 12.0488 49.9313ZM30.0687 67.9534C28.4884 67.9534 27.2018 66.6668 27.2018 65.0865C27.2018 63.5062 28.4884 62.2195 30.0687 62.2195C31.649 62.2195 32.9357 63.5062 32.9357 65.0865C32.9357 66.6668 31.649 67.9534 30.0687 67.9534ZM65.0865 67.9534C63.5062 67.9534 62.2195 66.6668 62.2195 65.0865C62.2195 63.5062 63.5062 62.2195 65.0865 62.2195C66.6668 62.2195 67.9534 63.5062 67.9534 65.0865C67.9534 66.6668 66.6668 67.9534 65.0865 67.9534Z" stroke="url(#paint1_linear_3706_87658)" mask="url(#path-1-outside-1_3706_87658)"/>
<defs>
<linearGradient id="paint0_linear_3706_87658" x1="70" y1="63.5714" x2="25" y2="10" gradientUnits="userSpaceOnUse">
<stop stop-color="#49B1B5"/>
<stop offset="1" stop-color="#7AE3EA"/>
</linearGradient>
<linearGradient id="paint1_linear_3706_87658" x1="70" y1="63.5714" x2="25" y2="10" gradientUnits="userSpaceOnUse">
<stop stop-color="#49B1B5"/>
<stop offset="1" stop-color="#7AE3EA"/>
</linearGradient>
</defs>
</svg>
