<svg width="80" height="80" viewBox="0 0 80 80" fill="none" xmlns="http://www.w3.org/2000/svg">
<path d="M10.2064 37.9265V38.0678C10.2064 39.3114 11.2248 40.3267 12.4817 40.3326L10.2064 37.9265ZM10.2064 37.9265C10.2792 36.743 11.274 35.7987 12.4895 35.7987C13.7523 35.7987 14.7769 36.8179 14.7769 38.0657C14.7769 39.3135 13.7543 40.3307 12.4934 40.3326H12.4934H12.4934H12.4933H12.4933H12.4933H12.4933H12.4932H12.4932H12.4932H12.4932H12.4931H12.4931H12.4931H12.4931H12.493H12.493H12.493H12.493H12.4929H12.4929H12.4929H12.4929H12.4928H12.4928H12.4928H12.4928H12.4927H12.4927H12.4927H12.4927H12.4926H12.4926H12.4926H12.4925H12.4925H12.4925H12.4925H12.4924H12.4924H12.4924H12.4924H12.4923H12.4923H12.4923H12.4923H12.4922H12.4922H12.4922H12.4922H12.4921H12.4921H12.4921H12.4921H12.492H12.492H12.492H12.492H12.4919H12.4919H12.4919H12.4919H12.4918H12.4918H12.4918H12.4918H12.4917H12.4917H12.4917H12.4917H12.4916H12.4916H12.4916H12.4916H12.4915H12.4915H12.4915H12.4915H12.4914H12.4914H12.4914H12.4914H12.4913H12.4913H12.4913H12.4913H12.4912H12.4912H12.4912H12.4912H12.4911H12.4911H12.4911H12.4911H12.491H12.491H12.491H12.491H12.4909H12.4909H12.4909H12.4909H12.4908H12.4908H12.4908H12.4908H12.4907H12.4907H12.4907H12.4907H12.4906H12.4906H12.4906H12.4906H12.4905H12.4905H12.4905H12.4905H12.4904H12.4904H12.4904H12.4904H12.4903H12.4903H12.4903H12.4903H12.4902H12.4902H12.4902H12.4902H12.4901H12.4901H12.4901H12.4901H12.49H12.49H12.49H12.49H12.4899H12.4899H12.4899H12.4899H12.4898H12.4898H12.4898H12.4898H12.4897H12.4897H12.4897H12.4897H12.4896H12.4896H12.4896H12.4896H12.4895H12.4895H12.4895H12.4895H12.4894H12.4894H12.4894H12.4894H12.4893H12.4893H12.4893H12.4893H12.4892H12.4892H12.4892H12.4892H12.4891H12.4891H12.4891H12.4891H12.489H12.489H12.489H12.489H12.4889H12.4889H12.4889H12.4889H12.4888H12.4888H12.4888H12.4888H12.4887H12.4887H12.4887H12.4887H12.4886H12.4886H12.4886H12.4886H12.4885H12.4885H12.4885H12.4885H12.4884H12.4884H12.4884H12.4884H12.4883H12.4883H12.4883H12.4883H12.4882H12.4882H12.4882H12.4882H12.4881H12.4881H12.4881H12.4881H12.488H12.488H12.488H12.488H12.4879H12.4879H12.4879H12.4879H12.4878H12.4878H12.4878H12.4878H12.4877H12.4877H12.4877H12.4877H12.4876H12.4876H12.4876H12.4876H12.4875H12.4875H12.4875H12.4875H12.4874H12.4874H12.4874H12.4874H12.4873H12.4873H12.4873H12.4873H12.4872H12.4872H12.4872H12.4872H12.4871H12.4871H12.4871H12.4871H12.487H12.487H12.487H12.487H12.4869H12.4869H12.4869H12.4869H12.4868H12.4868H12.4868H12.4868H12.4867H12.4867H12.4867H12.4867H12.4866H12.4866H12.4866H12.4866H12.4865H12.4865H12.4865H12.4865H12.4864H12.4864H12.4864H12.4864H12.4863H12.4863H12.4863H12.4863H12.4862H12.4862H12.4862H12.4862H12.4861H12.4861H12.4861H12.4861H12.486H12.486H12.486H12.486H12.4859H12.4859H12.4859H12.4859H12.4858H12.4858H12.4858H12.4858H12.4857H12.4857H12.4857H12.4857H12.4856H12.4856H12.4856H12.4856H12.4855H12.4855H12.4855H12.4855H12.4854H12.4854H12.4854H12.4854H12.4853H12.4853H12.4853H12.4853H12.4852H12.4852H12.4852H12.4852H12.4851H12.4851H12.4851H12.4851H12.485H12.485H12.485H12.485H12.4849H12.4849H12.4849H12.4849H12.4848H12.4848H12.4848H12.4848H12.4847H12.4847H12.4847H12.4847H12.4846H12.4846H12.4846H12.4846H12.4845H12.4845H12.4845H12.4845H12.4844H12.4844H12.4844H12.4844H12.4843H12.4843H12.4843H12.4843H12.4842H12.4842H12.4842H12.4842H12.4841H12.4841H12.4841H12.4841H12.484H12.484H12.484H12.484H12.4839H12.4839H12.4839H12.4839H12.4838H12.4838H12.4838H12.4838H12.4837H12.4837H12.4837H12.4837H12.4836H12.4836H12.4836H12.4836H12.4835H12.4835H12.4835H12.4835H12.4834H12.4834H12.4834H12.4834H12.4833H12.4833H12.4833H12.4833H12.4832H12.4832H12.4832H12.4832H12.4831H12.4831H12.4831H12.4831H12.483H12.483H12.483H12.483H12.4829H12.4829H12.4829H12.4829H12.4828H12.4828H12.4828H12.4828H12.4827H12.4827H12.4827H12.4827H12.4826H12.4826H12.4826H12.4826H12.4825H12.4825H12.4825H12.4825H12.4824H12.4824H12.4824H12.4824H12.4823H12.4823H12.4823H12.4823H12.4822H12.4822H12.4822H12.4822H12.4821H12.4821L10.2064 37.9265ZM72.25 40C72.25 32.2761 69.3471 24.9866 64.0559 19.3669C64.5518 18.4494 64.8344 17.402 64.8344 16.2903C64.8344 12.6821 61.8757 9.75 58.2432 9.75C56.2674 9.75 54.4928 10.616 53.2841 11.9863C49.6269 10.5022 45.7518 9.75 41.7546 9.75C27.4421 9.75 15.0804 19.6318 11.9947 33.3891C9.61429 33.6346 7.75 35.6346 7.75 38.0636C7.75 40.2784 9.30043 42.1368 11.3779 42.6348C12.7285 58.2045 25.8792 70.25 41.7567 70.25C58.5694 70.25 72.25 56.6823 72.25 40ZM41.7546 12.1864C45.3136 12.1864 48.7625 12.8362 52.0272 14.1141C51.7836 14.7956 51.6497 15.5281 51.6497 16.2924C51.6497 19.9006 54.6085 22.8326 58.241 22.8326C59.861 22.8326 61.3458 22.2488 62.4942 21.2843C67.2102 26.4167 69.7957 33.013 69.7957 40.0021C69.7957 55.2214 57.4069 67.6299 42.1009 67.8157H41.7546C27.1995 67.8157 15.1449 56.8112 13.8313 42.5722C15.7897 41.9952 17.2226 40.1951 17.2226 38.0657C17.2226 36.1546 16.0675 34.5095 14.4178 33.7743C17.3131 21.2036 28.6393 12.1864 41.7546 12.1864ZM58.2432 12.1864C60.5268 12.1864 62.3823 14.0297 62.3823 16.2924C62.3823 18.5549 60.527 20.3962 58.2432 20.3962C55.9594 20.3962 54.104 18.5528 54.104 16.2924C54.104 14.0318 55.9596 12.1864 58.2432 12.1864Z" fill="url(#paint0_linear_3706_87665)" stroke="url(#paint1_linear_3706_87665)" stroke-width="0.5"/>
<path d="M57.4864 44.8876C57.9982 43.3138 58.258 41.6736 58.258 40.0001C58.258 31.1272 50.8903 23.9167 41.8458 23.9167C32.8013 23.9167 25.4336 31.1251 25.4336 40.0001C25.4336 48.875 32.8013 56.0834 41.8458 56.0834C44.2536 56.0834 46.6429 55.5605 48.8078 54.5658C49.9522 55.512 51.4295 56.0834 53.0398 56.0834C56.662 56.0834 59.6178 53.1951 59.6178 49.6341C59.6178 47.7556 58.7932 46.0663 57.4864 44.8876ZM27.8838 40.0001C27.8838 32.4654 34.1441 26.3252 41.8479 26.3252C49.5518 26.3252 55.812 32.4654 55.812 40.0001C55.812 41.2224 55.6473 42.4215 55.3262 43.5829C54.615 43.3237 53.8458 43.1828 53.044 43.1828C49.4218 43.1828 46.466 46.0711 46.466 49.632C46.466 50.7109 46.7386 51.7282 47.2188 52.6234C45.5261 53.3126 43.6936 53.675 41.8479 53.675C34.1441 53.675 27.8838 47.5348 27.8838 40.0001ZM53.0419 53.675C50.7603 53.675 48.9119 51.857 48.9119 49.632C48.9119 47.4071 50.7603 45.5891 53.0419 45.5891C55.3235 45.5891 57.1719 47.4071 57.1719 49.632C57.1719 51.857 55.3235 53.675 53.0419 53.675Z" fill="url(#paint2_linear_3706_87665)" stroke="url(#paint3_linear_3706_87665)" stroke-width="0.5"/>
<defs>
<linearGradient id="paint0_linear_3706_87665" x1="72" y1="63.5714" x2="27.5876" y2="7.17475" gradientUnits="userSpaceOnUse">
<stop stop-color="#49B1B5"/>
<stop offset="1" stop-color="#7AE3EA"/>
</linearGradient>
<linearGradient id="paint1_linear_3706_87665" x1="72" y1="63.5714" x2="27.5876" y2="7.17475" gradientUnits="userSpaceOnUse">
<stop stop-color="#49B1B5"/>
<stop offset="1" stop-color="#7AE3EA"/>
</linearGradient>
<linearGradient id="paint2_linear_3706_87665" x1="59.3678" y1="52.4406" x2="35.9128" y2="22.7389" gradientUnits="userSpaceOnUse">
<stop stop-color="#49B1B5"/>
<stop offset="1" stop-color="#7AE3EA"/>
</linearGradient>
<linearGradient id="paint3_linear_3706_87665" x1="59.3678" y1="52.4406" x2="35.9128" y2="22.7389" gradientUnits="userSpaceOnUse">
<stop stop-color="#49B1B5"/>
<stop offset="1" stop-color="#7AE3EA"/>
</linearGradient>
</defs>
</svg>
