<svg width="80" height="80" viewBox="0 0 80 80" fill="none" xmlns="http://www.w3.org/2000/svg">
<path d="M39.6323 33.1648C36.0287 33.1648 33.1191 36.2425 33.1191 40.0002C33.1191 43.7578 36.0287 46.8355 39.6323 46.8355C43.2359 46.8355 46.1455 43.7578 46.1455 40.0002C46.1455 36.2425 43.2359 33.1648 39.6323 33.1648ZM39.6323 44.4569C37.3156 44.4569 35.4078 42.4695 35.4078 40.0022C35.4078 37.535 37.3156 35.5475 39.6323 35.5475C41.949 35.5475 43.8568 37.535 43.8568 40.0022C43.8568 42.4695 41.949 44.4569 39.6323 44.4569Z" fill="url(#paint0_linear_3706_87673)" stroke="url(#paint1_linear_3706_87673)" stroke-width="0.5"/>
<mask id="path-2-outside-1_3706_87673" maskUnits="userSpaceOnUse" x="11" y="9" width="58" height="62" fill="black">
<rect fill="white" x="11" y="9" width="58" height="62"/>
<path d="M68 46.7858C68 44.9151 66.4646 43.3924 64.5784 43.3924C64.33 43.3924 64.0876 43.4198 63.853 43.4706C63.0843 42.3173 62.1816 41.1562 61.1626 39.999C61.7776 39.3012 62.3511 38.5994 62.8813 37.8957C66.7208 32.7978 67.8029 28.218 65.9285 24.9966C64.0541 21.7772 59.5129 20.4147 53.1426 21.1634C52.2636 21.267 51.3628 21.4097 50.4443 21.5876C50.3694 21.3706 50.2945 21.1536 50.2157 20.9405C51.0632 20.3229 51.6151 19.3299 51.6151 18.2098C51.6151 16.3391 50.0797 14.8164 48.1934 14.8164C47.8663 14.8164 47.5529 14.8653 47.2533 14.9493C45.0536 11.7123 42.4598 10 39.73 10C35.9811 10 32.522 13.2194 29.9893 19.066C29.6404 19.8713 29.3152 20.7158 29.0117 21.5915C28.0952 21.4136 27.1944 21.2709 26.3173 21.1673C19.9451 20.4186 15.4059 21.7791 13.5315 25.0005C12.4139 26.922 12.3489 29.3791 13.3324 32.1411C12.5243 32.7627 12 33.7322 12 34.8229C12 36.6936 13.5354 38.2163 15.4217 38.2163C15.8533 38.2163 16.2652 38.1323 16.6456 37.9876C17.1561 38.662 17.706 39.3344 18.2934 40.0029C17.6804 40.7008 17.1069 41.4025 16.5767 42.1043C12.7391 47.2002 11.657 51.7801 13.5315 55.0015C15.0708 57.6442 18.4038 59.034 23.0711 59.034C24.0901 59.034 25.1761 58.9676 26.3173 58.8327C27.1944 58.7291 28.0932 58.5864 29.0077 58.4105C29.5675 60.0309 30.2061 61.5302 30.9157 62.8809C30.352 63.4869 30.0031 64.2922 30.0031 65.1797C30.0031 67.0503 31.5385 68.5731 33.4247 68.5731C33.9963 68.5731 34.5344 68.4323 35.0075 68.1841C36.5015 69.3882 38.0862 70 39.726 70C43.4749 70 46.934 66.7806 49.4667 60.934C49.8156 60.1287 50.1408 59.2842 50.4443 58.4085C51.3608 58.5864 52.2616 58.7291 53.1387 58.8327C54.2819 58.9676 55.3659 59.034 56.3849 59.034C61.0522 59.034 64.3872 57.6442 65.9245 55.0015C66.8213 53.4611 67.046 51.6179 66.5986 49.5165C67.4442 48.8988 67.9961 47.9058 67.9961 46.7878L68 46.7858ZM66.1985 46.7858C66.1985 47.6713 65.4712 48.3926 64.5784 48.3926C63.6855 48.3926 62.9582 47.6713 62.9582 46.7858C62.9582 45.9003 63.6855 45.179 64.5784 45.179C65.4712 45.179 66.1985 45.9003 66.1985 46.7858ZM64.3675 25.8938C65.8378 28.4193 64.7695 32.4069 61.4366 36.8304C60.9734 37.4462 60.4728 38.0599 59.9406 38.6737C57.9045 36.5548 55.496 34.4691 52.8115 32.5046C52.4409 29.2383 51.8319 26.1323 51.0001 23.3253C57.4887 22.0919 62.6014 22.8581 64.3675 25.8918V25.8938ZM45.5819 50.0521C43.6326 51.1683 41.6694 52.1593 39.73 53.0252C37.7905 52.1613 35.8274 51.1683 33.8781 50.0521C31.9465 48.9458 30.0918 47.7553 28.3435 46.5082C28.1346 44.403 28.0262 42.2235 28.0262 40.001C28.0262 37.7785 28.1425 35.5775 28.3573 33.4742C30.0918 32.2408 31.9406 31.0582 33.8781 29.9479C35.8274 28.8317 37.7905 27.8387 39.73 26.9748C41.6694 27.8387 43.6326 28.8317 45.5819 29.9479C47.5213 31.0582 49.3721 32.2447 51.1105 33.482C51.3234 35.599 51.4338 37.7843 51.4338 39.999C51.4338 42.2137 51.3175 44.4225 51.1026 46.5258C49.3682 47.7592 47.5194 48.9418 45.5819 50.0521ZM50.8109 48.9067C50.4305 51.5573 49.8885 54.0437 49.2144 56.2935C46.9123 55.7482 44.4702 54.9702 41.9671 53.9713C43.4749 53.25 44.9847 52.4564 46.4826 51.6003C47.9806 50.7421 49.4273 49.843 50.8129 48.9067H50.8109ZM37.4929 53.9713C34.9779 54.9741 32.526 55.754 30.216 56.3013C29.532 54.0261 28.9979 51.5358 28.6273 48.8949C30.0169 49.8332 31.4695 50.7382 32.9773 51.6003C34.4733 52.4564 35.9831 53.25 37.4929 53.9713ZM26.4119 45.0715C24.299 43.4335 22.3812 41.7231 20.7296 39.9951C22.3832 38.2593 24.2951 36.5509 26.4119 34.9148C26.2878 36.5783 26.2227 38.2789 26.2227 40.001C26.2227 41.7231 26.2858 43.4139 26.41 45.0715H26.4119ZM28.6471 31.0953C29.0275 28.4447 29.5695 25.9583 30.2436 23.7084C32.5457 24.2538 34.9878 25.0318 37.4929 26.0306C35.9831 26.7539 34.4733 27.5455 32.9773 28.4017C31.4794 29.2598 30.0327 30.159 28.6471 31.0953ZM41.9651 26.0306C44.4761 25.0279 46.9261 24.2499 49.2341 23.7045C49.92 25.9876 50.4522 28.4799 50.8228 31.107C49.4332 30.1668 47.9825 29.2618 46.4826 28.4036C44.9847 27.5455 43.4749 26.7539 41.9671 26.0326L41.9651 26.0306ZM53.0401 34.9148C55.1629 36.5568 57.0807 38.2691 58.7324 40.001C57.0767 41.7387 55.1649 43.4491 53.0441 45.0871C53.1682 43.4237 53.2333 41.7231 53.2333 40.001C53.2333 38.2789 53.1663 36.5841 53.0401 34.9148ZM49.8136 18.2137C49.8136 18.763 49.5337 19.2478 49.108 19.539C48.9838 19.5331 48.8557 19.5488 48.7315 19.5977C48.6093 19.6446 48.5049 19.7169 48.4181 19.8049C48.3432 19.8146 48.2683 19.8224 48.1915 19.8224C47.2986 19.8224 46.5713 19.1012 46.5713 18.2157C46.5713 17.3302 47.2986 16.6089 48.1915 16.6089C49.0843 16.6089 49.8116 17.3302 49.8116 18.2157L49.8136 18.2137ZM39.73 11.7866C42.31 11.7866 44.3658 13.9173 45.712 15.8856C45.1305 16.4936 44.7718 17.3126 44.7718 18.2157C44.7718 20.0863 46.3072 21.6091 48.1934 21.6091C48.3097 21.6091 48.424 21.6032 48.5364 21.5915C48.5837 21.7185 48.629 21.8475 48.6744 21.9785C45.7987 22.6666 42.7811 23.6908 39.7319 25.0122C36.6887 23.6928 33.677 22.6705 30.8073 21.9824C32.9734 15.7938 36.1999 11.7866 39.7319 11.7866H39.73ZM13.8015 34.821C13.8015 33.9355 14.5288 33.2142 15.4217 33.2142C16.3145 33.2142 17.0418 33.9355 17.0418 34.821C17.0418 35.7065 16.3145 36.4278 15.4217 36.4278C14.5288 36.4278 13.8015 35.7065 13.8015 34.821ZM18.0983 36.9282C18.5634 36.3496 18.8433 35.6166 18.8433 34.821C18.8433 32.9503 17.3079 31.4276 15.4217 31.4276C15.2778 31.4276 15.1378 31.4393 14.9979 31.4569C14.4145 29.7719 14.0755 27.6394 15.0925 25.8918C16.8585 22.8581 21.9693 22.0899 28.4578 23.3233C27.6241 26.1323 27.0111 29.2305 26.6406 32.5046C23.962 34.4633 21.5574 36.5431 19.5194 38.6679C19.0128 38.0873 18.5378 37.5068 18.0983 36.9262V36.9282ZM23.008 57.2396C19.1863 57.2396 16.3244 56.2251 15.0905 54.1082C13.6202 51.5827 14.6884 47.595 18.0214 43.1715C18.4846 42.5577 18.9832 41.944 19.5154 41.3321C21.5534 43.4589 23.9541 45.5387 26.6406 47.5012C27.0111 50.7832 27.6241 53.8814 28.4539 56.6786C26.4967 57.05 24.6617 57.2416 23.01 57.2416L23.008 57.2396ZM31.8066 65.1797C31.8066 64.2942 32.5339 63.5729 33.4267 63.5729C34.3196 63.5729 35.0469 64.2942 35.0469 65.1797C35.0469 66.0652 34.3196 66.7864 33.4267 66.7864C32.5339 66.7864 31.8066 66.0652 31.8066 65.1797ZM39.73 68.2153C38.5829 68.2153 37.4476 67.7892 36.3399 66.9506C36.6592 66.4346 36.8484 65.8286 36.8484 65.1797C36.8484 63.309 35.313 61.7863 33.4267 61.7863C33.0877 61.7863 32.7586 61.8371 32.4491 61.929C31.8322 60.7405 31.2724 59.4348 30.7757 58.0254C33.6534 57.3373 36.6749 56.3111 39.728 54.9897C42.7712 56.3092 45.7829 57.3315 48.6527 58.0195C46.4866 64.2082 43.26 68.2153 39.728 68.2153H39.73ZM64.3675 54.1082C63.1356 56.2251 60.2737 57.2396 56.45 57.2396C54.7963 57.2396 52.9613 57.048 51.0021 56.6767C51.8358 53.8677 52.4488 50.7695 52.8194 47.4973C55.4999 45.5387 57.9045 43.4569 59.9445 41.3302C60.8098 42.3251 61.5824 43.3201 62.2526 44.3092C61.5824 44.9288 61.1587 45.8104 61.1587 46.7878C61.1587 48.6584 62.6941 50.1811 64.5803 50.1811C64.6868 50.1811 64.7932 50.1753 64.8977 50.1655C65.1756 51.7039 65.0001 53.0292 64.3714 54.1101L64.3675 54.1082Z"/>
</mask>
<path d="M68 46.7858C68 44.9151 66.4646 43.3924 64.5784 43.3924C64.33 43.3924 64.0876 43.4198 63.853 43.4706C63.0843 42.3173 62.1816 41.1562 61.1626 39.999C61.7776 39.3012 62.3511 38.5994 62.8813 37.8957C66.7208 32.7978 67.8029 28.218 65.9285 24.9966C64.0541 21.7772 59.5129 20.4147 53.1426 21.1634C52.2636 21.267 51.3628 21.4097 50.4443 21.5876C50.3694 21.3706 50.2945 21.1536 50.2157 20.9405C51.0632 20.3229 51.6151 19.3299 51.6151 18.2098C51.6151 16.3391 50.0797 14.8164 48.1934 14.8164C47.8663 14.8164 47.5529 14.8653 47.2533 14.9493C45.0536 11.7123 42.4598 10 39.73 10C35.9811 10 32.522 13.2194 29.9893 19.066C29.6404 19.8713 29.3152 20.7158 29.0117 21.5915C28.0952 21.4136 27.1944 21.2709 26.3173 21.1673C19.9451 20.4186 15.4059 21.7791 13.5315 25.0005C12.4139 26.922 12.3489 29.3791 13.3324 32.1411C12.5243 32.7627 12 33.7322 12 34.8229C12 36.6936 13.5354 38.2163 15.4217 38.2163C15.8533 38.2163 16.2652 38.1323 16.6456 37.9876C17.1561 38.662 17.706 39.3344 18.2934 40.0029C17.6804 40.7008 17.1069 41.4025 16.5767 42.1043C12.7391 47.2002 11.657 51.7801 13.5315 55.0015C15.0708 57.6442 18.4038 59.034 23.0711 59.034C24.0901 59.034 25.1761 58.9676 26.3173 58.8327C27.1944 58.7291 28.0932 58.5864 29.0077 58.4105C29.5675 60.0309 30.2061 61.5302 30.9157 62.8809C30.352 63.4869 30.0031 64.2922 30.0031 65.1797C30.0031 67.0503 31.5385 68.5731 33.4247 68.5731C33.9963 68.5731 34.5344 68.4323 35.0075 68.1841C36.5015 69.3882 38.0862 70 39.726 70C43.4749 70 46.934 66.7806 49.4667 60.934C49.8156 60.1287 50.1408 59.2842 50.4443 58.4085C51.3608 58.5864 52.2616 58.7291 53.1387 58.8327C54.2819 58.9676 55.3659 59.034 56.3849 59.034C61.0522 59.034 64.3872 57.6442 65.9245 55.0015C66.8213 53.4611 67.046 51.6179 66.5986 49.5165C67.4442 48.8988 67.9961 47.9058 67.9961 46.7878L68 46.7858ZM66.1985 46.7858C66.1985 47.6713 65.4712 48.3926 64.5784 48.3926C63.6855 48.3926 62.9582 47.6713 62.9582 46.7858C62.9582 45.9003 63.6855 45.179 64.5784 45.179C65.4712 45.179 66.1985 45.9003 66.1985 46.7858ZM64.3675 25.8938C65.8378 28.4193 64.7695 32.4069 61.4366 36.8304C60.9734 37.4462 60.4728 38.0599 59.9406 38.6737C57.9045 36.5548 55.496 34.4691 52.8115 32.5046C52.4409 29.2383 51.8319 26.1323 51.0001 23.3253C57.4887 22.0919 62.6014 22.8581 64.3675 25.8918V25.8938ZM45.5819 50.0521C43.6326 51.1683 41.6694 52.1593 39.73 53.0252C37.7905 52.1613 35.8274 51.1683 33.8781 50.0521C31.9465 48.9458 30.0918 47.7553 28.3435 46.5082C28.1346 44.403 28.0262 42.2235 28.0262 40.001C28.0262 37.7785 28.1425 35.5775 28.3573 33.4742C30.0918 32.2408 31.9406 31.0582 33.8781 29.9479C35.8274 28.8317 37.7905 27.8387 39.73 26.9748C41.6694 27.8387 43.6326 28.8317 45.5819 29.9479C47.5213 31.0582 49.3721 32.2447 51.1105 33.482C51.3234 35.599 51.4338 37.7843 51.4338 39.999C51.4338 42.2137 51.3175 44.4225 51.1026 46.5258C49.3682 47.7592 47.5194 48.9418 45.5819 50.0521ZM50.8109 48.9067C50.4305 51.5573 49.8885 54.0437 49.2144 56.2935C46.9123 55.7482 44.4702 54.9702 41.9671 53.9713C43.4749 53.25 44.9847 52.4564 46.4826 51.6003C47.9806 50.7421 49.4273 49.843 50.8129 48.9067H50.8109ZM37.4929 53.9713C34.9779 54.9741 32.526 55.754 30.216 56.3013C29.532 54.0261 28.9979 51.5358 28.6273 48.8949C30.0169 49.8332 31.4695 50.7382 32.9773 51.6003C34.4733 52.4564 35.9831 53.25 37.4929 53.9713ZM26.4119 45.0715C24.299 43.4335 22.3812 41.7231 20.7296 39.9951C22.3832 38.2593 24.2951 36.5509 26.4119 34.9148C26.2878 36.5783 26.2227 38.2789 26.2227 40.001C26.2227 41.7231 26.2858 43.4139 26.41 45.0715H26.4119ZM28.6471 31.0953C29.0275 28.4447 29.5695 25.9583 30.2436 23.7084C32.5457 24.2538 34.9878 25.0318 37.4929 26.0306C35.9831 26.7539 34.4733 27.5455 32.9773 28.4017C31.4794 29.2598 30.0327 30.159 28.6471 31.0953ZM41.9651 26.0306C44.4761 25.0279 46.9261 24.2499 49.2341 23.7045C49.92 25.9876 50.4522 28.4799 50.8228 31.107C49.4332 30.1668 47.9825 29.2618 46.4826 28.4036C44.9847 27.5455 43.4749 26.7539 41.9671 26.0326L41.9651 26.0306ZM53.0401 34.9148C55.1629 36.5568 57.0807 38.2691 58.7324 40.001C57.0767 41.7387 55.1649 43.4491 53.0441 45.0871C53.1682 43.4237 53.2333 41.7231 53.2333 40.001C53.2333 38.2789 53.1663 36.5841 53.0401 34.9148ZM49.8136 18.2137C49.8136 18.763 49.5337 19.2478 49.108 19.539C48.9838 19.5331 48.8557 19.5488 48.7315 19.5977C48.6093 19.6446 48.5049 19.7169 48.4181 19.8049C48.3432 19.8146 48.2683 19.8224 48.1915 19.8224C47.2986 19.8224 46.5713 19.1012 46.5713 18.2157C46.5713 17.3302 47.2986 16.6089 48.1915 16.6089C49.0843 16.6089 49.8116 17.3302 49.8116 18.2157L49.8136 18.2137ZM39.73 11.7866C42.31 11.7866 44.3658 13.9173 45.712 15.8856C45.1305 16.4936 44.7718 17.3126 44.7718 18.2157C44.7718 20.0863 46.3072 21.6091 48.1934 21.6091C48.3097 21.6091 48.424 21.6032 48.5364 21.5915C48.5837 21.7185 48.629 21.8475 48.6744 21.9785C45.7987 22.6666 42.7811 23.6908 39.7319 25.0122C36.6887 23.6928 33.677 22.6705 30.8073 21.9824C32.9734 15.7938 36.1999 11.7866 39.7319 11.7866H39.73ZM13.8015 34.821C13.8015 33.9355 14.5288 33.2142 15.4217 33.2142C16.3145 33.2142 17.0418 33.9355 17.0418 34.821C17.0418 35.7065 16.3145 36.4278 15.4217 36.4278C14.5288 36.4278 13.8015 35.7065 13.8015 34.821ZM18.0983 36.9282C18.5634 36.3496 18.8433 35.6166 18.8433 34.821C18.8433 32.9503 17.3079 31.4276 15.4217 31.4276C15.2778 31.4276 15.1378 31.4393 14.9979 31.4569C14.4145 29.7719 14.0755 27.6394 15.0925 25.8918C16.8585 22.8581 21.9693 22.0899 28.4578 23.3233C27.6241 26.1323 27.0111 29.2305 26.6406 32.5046C23.962 34.4633 21.5574 36.5431 19.5194 38.6679C19.0128 38.0873 18.5378 37.5068 18.0983 36.9262V36.9282ZM23.008 57.2396C19.1863 57.2396 16.3244 56.2251 15.0905 54.1082C13.6202 51.5827 14.6884 47.595 18.0214 43.1715C18.4846 42.5577 18.9832 41.944 19.5154 41.3321C21.5534 43.4589 23.9541 45.5387 26.6406 47.5012C27.0111 50.7832 27.6241 53.8814 28.4539 56.6786C26.4967 57.05 24.6617 57.2416 23.01 57.2416L23.008 57.2396ZM31.8066 65.1797C31.8066 64.2942 32.5339 63.5729 33.4267 63.5729C34.3196 63.5729 35.0469 64.2942 35.0469 65.1797C35.0469 66.0652 34.3196 66.7864 33.4267 66.7864C32.5339 66.7864 31.8066 66.0652 31.8066 65.1797ZM39.73 68.2153C38.5829 68.2153 37.4476 67.7892 36.3399 66.9506C36.6592 66.4346 36.8484 65.8286 36.8484 65.1797C36.8484 63.309 35.313 61.7863 33.4267 61.7863C33.0877 61.7863 32.7586 61.8371 32.4491 61.929C31.8322 60.7405 31.2724 59.4348 30.7757 58.0254C33.6534 57.3373 36.6749 56.3111 39.728 54.9897C42.7712 56.3092 45.7829 57.3315 48.6527 58.0195C46.4866 64.2082 43.26 68.2153 39.728 68.2153H39.73ZM64.3675 54.1082C63.1356 56.2251 60.2737 57.2396 56.45 57.2396C54.7963 57.2396 52.9613 57.048 51.0021 56.6767C51.8358 53.8677 52.4488 50.7695 52.8194 47.4973C55.4999 45.5387 57.9045 43.4569 59.9445 41.3302C60.8098 42.3251 61.5824 43.3201 62.2526 44.3092C61.5824 44.9288 61.1587 45.8104 61.1587 46.7878C61.1587 48.6584 62.6941 50.1811 64.5803 50.1811C64.6868 50.1811 64.7932 50.1753 64.8977 50.1655C65.1756 51.7039 65.0001 53.0292 64.3714 54.1101L64.3675 54.1082Z" fill="url(#paint2_linear_3706_87673)"/>
<path d="M68 46.7858C68 44.9151 66.4646 43.3924 64.5784 43.3924C64.33 43.3924 64.0876 43.4198 63.853 43.4706C63.0843 42.3173 62.1816 41.1562 61.1626 39.999C61.7776 39.3012 62.3511 38.5994 62.8813 37.8957C66.7208 32.7978 67.8029 28.218 65.9285 24.9966C64.0541 21.7772 59.5129 20.4147 53.1426 21.1634C52.2636 21.267 51.3628 21.4097 50.4443 21.5876C50.3694 21.3706 50.2945 21.1536 50.2157 20.9405C51.0632 20.3229 51.6151 19.3299 51.6151 18.2098C51.6151 16.3391 50.0797 14.8164 48.1934 14.8164C47.8663 14.8164 47.5529 14.8653 47.2533 14.9493C45.0536 11.7123 42.4598 10 39.73 10C35.9811 10 32.522 13.2194 29.9893 19.066C29.6404 19.8713 29.3152 20.7158 29.0117 21.5915C28.0952 21.4136 27.1944 21.2709 26.3173 21.1673C19.9451 20.4186 15.4059 21.7791 13.5315 25.0005C12.4139 26.922 12.3489 29.3791 13.3324 32.1411C12.5243 32.7627 12 33.7322 12 34.8229C12 36.6936 13.5354 38.2163 15.4217 38.2163C15.8533 38.2163 16.2652 38.1323 16.6456 37.9876C17.1561 38.662 17.706 39.3344 18.2934 40.0029C17.6804 40.7008 17.1069 41.4025 16.5767 42.1043C12.7391 47.2002 11.657 51.7801 13.5315 55.0015C15.0708 57.6442 18.4038 59.034 23.0711 59.034C24.0901 59.034 25.1761 58.9676 26.3173 58.8327C27.1944 58.7291 28.0932 58.5864 29.0077 58.4105C29.5675 60.0309 30.2061 61.5302 30.9157 62.8809C30.352 63.4869 30.0031 64.2922 30.0031 65.1797C30.0031 67.0503 31.5385 68.5731 33.4247 68.5731C33.9963 68.5731 34.5344 68.4323 35.0075 68.1841C36.5015 69.3882 38.0862 70 39.726 70C43.4749 70 46.934 66.7806 49.4667 60.934C49.8156 60.1287 50.1408 59.2842 50.4443 58.4085C51.3608 58.5864 52.2616 58.7291 53.1387 58.8327C54.2819 58.9676 55.3659 59.034 56.3849 59.034C61.0522 59.034 64.3872 57.6442 65.9245 55.0015C66.8213 53.4611 67.046 51.6179 66.5986 49.5165C67.4442 48.8988 67.9961 47.9058 67.9961 46.7878L68 46.7858ZM66.1985 46.7858C66.1985 47.6713 65.4712 48.3926 64.5784 48.3926C63.6855 48.3926 62.9582 47.6713 62.9582 46.7858C62.9582 45.9003 63.6855 45.179 64.5784 45.179C65.4712 45.179 66.1985 45.9003 66.1985 46.7858ZM64.3675 25.8938C65.8378 28.4193 64.7695 32.4069 61.4366 36.8304C60.9734 37.4462 60.4728 38.0599 59.9406 38.6737C57.9045 36.5548 55.496 34.4691 52.8115 32.5046C52.4409 29.2383 51.8319 26.1323 51.0001 23.3253C57.4887 22.0919 62.6014 22.8581 64.3675 25.8918V25.8938ZM45.5819 50.0521C43.6326 51.1683 41.6694 52.1593 39.73 53.0252C37.7905 52.1613 35.8274 51.1683 33.8781 50.0521C31.9465 48.9458 30.0918 47.7553 28.3435 46.5082C28.1346 44.403 28.0262 42.2235 28.0262 40.001C28.0262 37.7785 28.1425 35.5775 28.3573 33.4742C30.0918 32.2408 31.9406 31.0582 33.8781 29.9479C35.8274 28.8317 37.7905 27.8387 39.73 26.9748C41.6694 27.8387 43.6326 28.8317 45.5819 29.9479C47.5213 31.0582 49.3721 32.2447 51.1105 33.482C51.3234 35.599 51.4338 37.7843 51.4338 39.999C51.4338 42.2137 51.3175 44.4225 51.1026 46.5258C49.3682 47.7592 47.5194 48.9418 45.5819 50.0521ZM50.8109 48.9067C50.4305 51.5573 49.8885 54.0437 49.2144 56.2935C46.9123 55.7482 44.4702 54.9702 41.9671 53.9713C43.4749 53.25 44.9847 52.4564 46.4826 51.6003C47.9806 50.7421 49.4273 49.843 50.8129 48.9067H50.8109ZM37.4929 53.9713C34.9779 54.9741 32.526 55.754 30.216 56.3013C29.532 54.0261 28.9979 51.5358 28.6273 48.8949C30.0169 49.8332 31.4695 50.7382 32.9773 51.6003C34.4733 52.4564 35.9831 53.25 37.4929 53.9713ZM26.4119 45.0715C24.299 43.4335 22.3812 41.7231 20.7296 39.9951C22.3832 38.2593 24.2951 36.5509 26.4119 34.9148C26.2878 36.5783 26.2227 38.2789 26.2227 40.001C26.2227 41.7231 26.2858 43.4139 26.41 45.0715H26.4119ZM28.6471 31.0953C29.0275 28.4447 29.5695 25.9583 30.2436 23.7084C32.5457 24.2538 34.9878 25.0318 37.4929 26.0306C35.9831 26.7539 34.4733 27.5455 32.9773 28.4017C31.4794 29.2598 30.0327 30.159 28.6471 31.0953ZM41.9651 26.0306C44.4761 25.0279 46.9261 24.2499 49.2341 23.7045C49.92 25.9876 50.4522 28.4799 50.8228 31.107C49.4332 30.1668 47.9825 29.2618 46.4826 28.4036C44.9847 27.5455 43.4749 26.7539 41.9671 26.0326L41.9651 26.0306ZM53.0401 34.9148C55.1629 36.5568 57.0807 38.2691 58.7324 40.001C57.0767 41.7387 55.1649 43.4491 53.0441 45.0871C53.1682 43.4237 53.2333 41.7231 53.2333 40.001C53.2333 38.2789 53.1663 36.5841 53.0401 34.9148ZM49.8136 18.2137C49.8136 18.763 49.5337 19.2478 49.108 19.539C48.9838 19.5331 48.8557 19.5488 48.7315 19.5977C48.6093 19.6446 48.5049 19.7169 48.4181 19.8049C48.3432 19.8146 48.2683 19.8224 48.1915 19.8224C47.2986 19.8224 46.5713 19.1012 46.5713 18.2157C46.5713 17.3302 47.2986 16.6089 48.1915 16.6089C49.0843 16.6089 49.8116 17.3302 49.8116 18.2157L49.8136 18.2137ZM39.73 11.7866C42.31 11.7866 44.3658 13.9173 45.712 15.8856C45.1305 16.4936 44.7718 17.3126 44.7718 18.2157C44.7718 20.0863 46.3072 21.6091 48.1934 21.6091C48.3097 21.6091 48.424 21.6032 48.5364 21.5915C48.5837 21.7185 48.629 21.8475 48.6744 21.9785C45.7987 22.6666 42.7811 23.6908 39.7319 25.0122C36.6887 23.6928 33.677 22.6705 30.8073 21.9824C32.9734 15.7938 36.1999 11.7866 39.7319 11.7866H39.73ZM13.8015 34.821C13.8015 33.9355 14.5288 33.2142 15.4217 33.2142C16.3145 33.2142 17.0418 33.9355 17.0418 34.821C17.0418 35.7065 16.3145 36.4278 15.4217 36.4278C14.5288 36.4278 13.8015 35.7065 13.8015 34.821ZM18.0983 36.9282C18.5634 36.3496 18.8433 35.6166 18.8433 34.821C18.8433 32.9503 17.3079 31.4276 15.4217 31.4276C15.2778 31.4276 15.1378 31.4393 14.9979 31.4569C14.4145 29.7719 14.0755 27.6394 15.0925 25.8918C16.8585 22.8581 21.9693 22.0899 28.4578 23.3233C27.6241 26.1323 27.0111 29.2305 26.6406 32.5046C23.962 34.4633 21.5574 36.5431 19.5194 38.6679C19.0128 38.0873 18.5378 37.5068 18.0983 36.9262V36.9282ZM23.008 57.2396C19.1863 57.2396 16.3244 56.2251 15.0905 54.1082C13.6202 51.5827 14.6884 47.595 18.0214 43.1715C18.4846 42.5577 18.9832 41.944 19.5154 41.3321C21.5534 43.4589 23.9541 45.5387 26.6406 47.5012C27.0111 50.7832 27.6241 53.8814 28.4539 56.6786C26.4967 57.05 24.6617 57.2416 23.01 57.2416L23.008 57.2396ZM31.8066 65.1797C31.8066 64.2942 32.5339 63.5729 33.4267 63.5729C34.3196 63.5729 35.0469 64.2942 35.0469 65.1797C35.0469 66.0652 34.3196 66.7864 33.4267 66.7864C32.5339 66.7864 31.8066 66.0652 31.8066 65.1797ZM39.73 68.2153C38.5829 68.2153 37.4476 67.7892 36.3399 66.9506C36.6592 66.4346 36.8484 65.8286 36.8484 65.1797C36.8484 63.309 35.313 61.7863 33.4267 61.7863C33.0877 61.7863 32.7586 61.8371 32.4491 61.929C31.8322 60.7405 31.2724 59.4348 30.7757 58.0254C33.6534 57.3373 36.6749 56.3111 39.728 54.9897C42.7712 56.3092 45.7829 57.3315 48.6527 58.0195C46.4866 64.2082 43.26 68.2153 39.728 68.2153H39.73ZM64.3675 54.1082C63.1356 56.2251 60.2737 57.2396 56.45 57.2396C54.7963 57.2396 52.9613 57.048 51.0021 56.6767C51.8358 53.8677 52.4488 50.7695 52.8194 47.4973C55.4999 45.5387 57.9045 43.4569 59.9445 41.3302C60.8098 42.3251 61.5824 43.3201 62.2526 44.3092C61.5824 44.9288 61.1587 45.8104 61.1587 46.7878C61.1587 48.6584 62.6941 50.1811 64.5803 50.1811C64.6868 50.1811 64.7932 50.1753 64.8977 50.1655C65.1756 51.7039 65.0001 53.0292 64.3714 54.1101L64.3675 54.1082Z" stroke="url(#paint3_linear_3706_87673)" mask="url(#path-2-outside-1_3706_87673)"/>
<defs>
<linearGradient id="paint0_linear_3706_87673" x1="45.8955" y1="45.1744" x2="35.9437" y2="33.9067" gradientUnits="userSpaceOnUse">
<stop stop-color="#49B1B5"/>
<stop offset="1" stop-color="#7AE3EA"/>
</linearGradient>
<linearGradient id="paint1_linear_3706_87673" x1="45.8955" y1="45.1744" x2="35.9437" y2="33.9067" gradientUnits="userSpaceOnUse">
<stop stop-color="#49B1B5"/>
<stop offset="1" stop-color="#7AE3EA"/>
</linearGradient>
<linearGradient id="paint2_linear_3706_87673" x1="68" y1="63.5714" x2="22.5667" y2="13.09" gradientUnits="userSpaceOnUse">
<stop stop-color="#49B1B5"/>
<stop offset="1" stop-color="#7AE3EA"/>
</linearGradient>
<linearGradient id="paint3_linear_3706_87673" x1="68" y1="63.5714" x2="22.5667" y2="13.09" gradientUnits="userSpaceOnUse">
<stop stop-color="#49B1B5"/>
<stop offset="1" stop-color="#7AE3EA"/>
</linearGradient>
</defs>
</svg>
