<svg width="10" height="10" viewBox="0 0 10 10" fill="none" xmlns="http://www.w3.org/2000/svg">
<rect width="10" height="10" rx="5" fill="#D6131B"/>
<path d="M5.00698 3.256C4.88298 3.256 4.77898 3.214 4.69498 3.13C4.61098 3.046 4.56898 2.942 4.56898 2.818C4.56898 2.694 4.61098 2.59 4.69498 2.506C4.77898 2.422 4.88298 2.38 5.00698 2.38C5.12698 2.38 5.22898 2.422 5.31298 2.506C5.39698 2.59 5.43898 2.694 5.43898 2.818C5.43898 2.942 5.39698 3.046 5.31298 3.13C5.22898 3.214 5.12698 3.256 5.00698 3.256ZM5.34298 3.694V7H4.65898V3.694H5.34298Z" fill="white"/>
</svg>
