<svg width="28" height="28" viewBox="0 0 28 28" fill="none" xmlns="http://www.w3.org/2000/svg">
<g id="link">
<path id="Vector" d="M4.54992 13.9974C4.54992 12.0024 6.17159 10.3807 8.16658 10.3807H12.8333V8.16406H8.16658C4.94659 8.16406 2.33325 10.7774 2.33325 13.9974C2.33325 17.2174 4.94659 19.8307 8.16658 19.8307H12.8333V17.6141H8.16658C6.17159 17.6141 4.54992 15.9924 4.54992 13.9974ZM9.33325 15.1641H18.6666V12.8307H9.33325V15.1641ZM19.8333 8.16406H15.1666V10.3807H19.8333C21.8283 10.3807 23.4499 12.0024 23.4499 13.9974C23.4499 15.9924 21.8283 17.6141 19.8333 17.6141H15.1666V19.8307H19.8333C23.0533 19.8307 25.6666 17.2174 25.6666 13.9974C25.6666 10.7774 23.0533 8.16406 19.8333 8.16406Z" fill="#666666"/>
</g>
</svg>
