<svg width="60" height="60" viewBox="0 0 60 60" fill="none" xmlns="http://www.w3.org/2000/svg">
<path d="M4.05271 36.4232C4.20522 36.5243 4.38573 36.5789 4.56909 36.5789H7.82785V44.4453C7.82785 46.8472 9.21246 48.2243 11.6275 48.2243H19.3029V54.074C19.3029 54.5853 19.7193 55 20.234 55H26.7429C27.2576 55 27.674 54.5853 27.674 54.074V48.5186H32.7943C33.0417 48.5186 33.2782 48.4209 33.4524 48.247L38.3802 43.346L43.5525 48.4902C43.2241 49.0418 43.035 49.6843 43.035 50.3706C43.035 52.4129 44.7052 54.0746 46.7593 54.0746C48.8134 54.0746 50.4836 52.4129 50.4836 50.3706C50.4836 48.3283 48.8134 46.6666 46.7593 46.6666C46.0699 46.6666 45.4238 46.8546 44.8692 47.1807L39.6969 42.0366L43.4206 38.3331H49.6702C50.0843 39.9289 51.5438 41.1111 53.2763 41.1111C55.3303 41.1111 57 39.4495 57 37.4071C57 35.3648 55.3298 33.7031 53.2763 33.7031C51.5438 33.7031 50.0843 34.8854 49.6702 36.4811H43.0356C42.7883 36.4811 42.5518 36.5789 42.3776 36.7521L38.3808 40.7271L35.3151 37.6781C35.1403 37.5043 34.9044 37.4066 34.6571 37.4066H27.6746V30.9251H39.4301C39.8442 32.5209 41.3037 33.7031 43.0362 33.7031C45.0902 33.7031 46.7605 32.0415 46.7605 29.9991C46.7605 27.9568 45.0902 26.2952 43.0362 26.2952C41.3037 26.2952 39.8442 27.4774 39.4301 29.0731H27.6746V22.5917H34.6571C34.9044 22.5917 35.1409 22.494 35.3151 22.3207L38.3808 19.2718L42.3776 23.2467C42.5524 23.4206 42.7883 23.5183 43.0356 23.5183H49.6702C50.0843 25.1141 51.5438 26.2963 53.2763 26.2963C55.3303 26.2963 57 24.6346 57 22.5923C57 20.55 55.3298 18.8883 53.2763 18.8883C51.5438 18.8883 50.0843 20.0705 49.6702 21.6663H43.4206L39.6969 17.9629L44.8692 12.8187C45.4238 13.1448 46.0693 13.3329 46.7593 13.3329C48.8134 13.3329 50.4836 11.6712 50.4836 9.62886C50.4836 7.58655 48.8134 5.92486 46.7593 5.92486C44.7052 5.92486 43.035 7.58655 43.035 9.62886C43.035 10.3151 43.2241 10.9576 43.5525 11.5093L38.3802 16.6534L33.4524 11.7524C33.2776 11.5786 33.0417 11.4809 32.7943 11.4809H27.674V5.926C27.674 5.41471 27.2576 5 26.7429 5H24.8956C14.551 5 6.75111 12.7585 6.75111 23.0473V24.3051L3.38725 33.1765C3.06166 33.6713 2.93257 34.2781 3.03367 34.8632C3.14277 35.4978 3.51463 36.0659 4.05271 36.4232ZM48.6209 50.3706C48.6209 51.392 47.7852 52.2226 46.7588 52.2226C45.7323 52.2226 44.8966 51.392 44.8966 50.3706C44.8966 49.8672 45.1 49.4111 45.4284 49.077C45.4335 49.0719 45.4393 49.0679 45.4444 49.0628C45.4495 49.0577 45.4535 49.0526 45.4587 49.0475C45.7945 48.7208 46.2538 48.5191 46.7593 48.5191C47.7858 48.5191 48.6215 49.3497 48.6215 50.3711L48.6209 50.3706ZM53.2763 35.5557C54.3027 35.5557 55.1384 36.3863 55.1384 37.4077C55.1384 38.4292 54.3027 39.2597 53.2763 39.2597C52.2498 39.2597 51.4141 38.4292 51.4141 37.4077C51.4141 36.3863 52.2498 35.5557 53.2763 35.5557ZM43.035 28.1483C44.0615 28.1483 44.8972 28.9788 44.8972 30.0003C44.8972 31.0217 44.0615 31.8523 43.035 31.8523C42.0086 31.8523 41.1729 31.0217 41.1729 30.0003C41.1729 28.9788 42.0086 28.1483 43.035 28.1483ZM53.2763 20.7409C54.3027 20.7409 55.1384 21.5714 55.1384 22.5929C55.1384 23.6143 54.3027 24.4449 53.2763 24.4449C52.2498 24.4449 51.4141 23.6143 51.4141 22.5929C51.4141 21.5714 52.2498 20.7409 53.2763 20.7409ZM46.7588 7.778C47.7852 7.778 48.6209 8.60856 48.6209 9.63C48.6209 10.6514 47.7852 11.482 46.7588 11.482C46.2532 11.482 45.794 11.2803 45.4581 10.9537C45.453 10.9486 45.449 10.9429 45.4438 10.9383C45.4387 10.9332 45.433 10.9292 45.4278 10.9241C45.0994 10.5901 44.896 10.1333 44.896 9.63057C44.896 8.60913 45.7317 7.77857 46.7582 7.77857L46.7588 7.778ZM34.2704 39.2597L37.0636 42.0377L32.4082 46.6677H27.6734V39.2603H34.2704V39.2597ZM32.4082 13.3334L37.0636 17.9634L34.2704 20.7414H27.6734V13.334H32.4082V13.3334ZM4.96208 34.1656C5.01463 34.0957 5.05747 34.019 5.08832 33.9372L8.55329 24.8011C8.59327 24.6965 8.61326 24.5857 8.61326 24.4744V23.0479C8.61326 13.8146 15.6129 6.852 24.8951 6.852H25.8113V53.1486H21.1645V47.2989C21.1645 46.7876 20.7481 46.3729 20.2334 46.3729H11.627C10.2321 46.3729 9.68942 45.8326 9.68942 44.4453V35.6529C9.68942 35.1416 9.27301 34.7269 8.75835 34.7269H4.9358C4.89411 34.6593 4.87697 34.5945 4.86954 34.5502C4.85583 34.4712 4.84955 34.3156 4.96208 34.1656Z" fill="url(#paint0_linear_5032_86436)" stroke="url(#paint1_linear_5032_86436)"/>
<defs>
<linearGradient id="paint0_linear_5032_86436" x1="57" y1="49.6429" x2="20.1" y2="2.2" gradientUnits="userSpaceOnUse">
<stop stop-color="#49B1B5"/>
<stop offset="1" stop-color="#7AE3EA"/>
</linearGradient>
<linearGradient id="paint1_linear_5032_86436" x1="57" y1="49.6429" x2="20.1" y2="2.2" gradientUnits="userSpaceOnUse">
<stop stop-color="#49B1B5"/>
<stop offset="1" stop-color="#7AE3EA"/>
</linearGradient>
</defs>
</svg>
