<svg width="60" height="60" viewBox="0 0 60 60" fill="none" xmlns="http://www.w3.org/2000/svg">
<path d="M35.0272 21.8105C35.281 21.8105 35.5247 21.7088 35.7038 21.5279L38.8558 18.3548L42.965 22.4916C43.1447 22.6725 43.3878 22.7742 43.6415 22.7742H50.4629C50.8892 24.435 52.3898 25.6654 54.1704 25.6654C56.2817 25.6654 57.9995 23.9366 57.9995 21.8105C57.9995 19.6844 56.2817 17.9557 54.1704 17.9557C52.3898 17.9557 50.8886 19.1854 50.4629 20.8468H44.0374L40.2083 16.992L45.5261 11.6383C46.0964 11.9777 46.7606 12.1734 47.4695 12.1734C49.5808 12.1734 51.2986 10.4446 51.2986 8.31856C51.2986 6.19248 49.5808 4.46371 47.4695 4.46371C45.3582 4.46371 43.6404 6.19248 43.6404 8.31856C43.6404 9.03277 43.8348 9.70145 44.1719 10.275L38.854 15.6286L33.7875 10.528C33.6078 10.3471 33.3646 10.2454 33.1109 10.2454H27.8489L27.8459 4.46371C27.8459 3.93101 27.4172 3.5 26.8886 3.5H16.3592C14.5198 3.5 13.0222 5.02716 13.0222 6.90373C13.0222 8.78031 14.5192 10.2454 16.3592 10.2454H17.3165V27.3143L2.45405 51.1807C1.82918 52.3288 1.85032 53.684 2.51102 54.8073C3.13471 55.868 4.2206 56.5012 5.41632 56.5012H26.9151C27.1688 56.5012 27.4125 56.3995 27.5922 56.2186C27.7719 56.0377 27.8723 55.7923 27.8723 55.5375L27.8694 48.7921H33.1127C33.3664 48.7921 33.6101 48.6904 33.7892 48.5095L38.8558 43.4089L44.1736 48.7625C43.8365 49.3366 43.6421 50.0053 43.6421 50.7189C43.6421 52.845 45.3599 54.5732 47.4712 54.5732C49.5825 54.5732 51.3003 52.8444 51.3003 50.7189C51.3003 48.5934 49.5825 46.8641 47.4712 46.8641C46.7624 46.8641 46.0976 47.0598 45.5279 47.3991L40.21 42.0455L44.0391 38.1907H50.4646C50.891 39.8514 52.3915 41.0818 54.1722 41.0818C56.2835 41.0818 58.0013 39.353 58.0013 37.2269C58.0013 35.1009 56.2835 33.3721 54.1722 33.3721C52.3915 33.3721 50.8904 34.6019 50.4646 36.2632H43.6433C43.3896 36.2632 43.1459 36.3649 42.9668 36.5458L38.8575 40.6827L35.7056 37.5096C35.5258 37.3286 35.2827 37.2269 35.029 37.2269H27.8653L27.8624 30.4816H39.9364C40.3627 32.1423 41.8632 33.3727 43.6439 33.3727C45.7552 33.3727 47.473 31.6439 47.473 29.5178C47.473 27.3918 45.7552 25.663 43.6439 25.663C41.8632 25.663 40.3621 26.8928 39.9364 28.5541H27.8618L27.8588 21.8087H35.0296L35.0272 21.8105ZM54.1716 19.8831C55.2275 19.8831 56.0861 20.7481 56.0861 21.8105C56.0861 22.873 55.2275 23.7379 54.1716 23.7379C53.1156 23.7379 52.257 22.873 52.257 21.8105C52.257 20.7481 53.1156 19.8831 54.1716 19.8831ZM47.4706 6.39232C48.5266 6.39232 49.3852 7.25729 49.3852 8.31974C49.3852 9.38219 48.5266 10.2472 47.4706 10.2472C46.9456 10.2472 46.4699 10.0331 46.1234 9.68786C46.1217 9.68608 46.1199 9.68372 46.1181 9.68194C46.1164 9.68017 46.114 9.6784 46.1117 9.67603C45.7687 9.3272 45.5561 8.8483 45.5561 8.31974C45.5561 7.25729 46.4147 6.39232 47.4706 6.39232ZM49.3852 50.7195C49.3852 51.782 48.5266 52.6469 47.4706 52.6469C46.4147 52.6469 45.5561 51.782 45.5561 50.7195C45.5561 50.1915 45.7687 49.712 46.1117 49.3632C46.1134 49.3614 46.1158 49.3597 46.1181 49.3573C46.1199 49.3555 46.1217 49.3532 46.1234 49.3514C46.4693 49.0061 46.9456 48.7921 47.4706 48.7921C48.5266 48.7921 49.3852 49.6571 49.3852 50.7195ZM54.1716 35.3013C55.2275 35.3013 56.0861 36.1663 56.0861 37.2287C56.0861 38.2912 55.2275 39.1561 54.1716 39.1561C53.1156 39.1561 52.257 38.2912 52.257 37.2287C52.257 36.1663 53.1156 35.3013 54.1716 35.3013ZM43.6421 27.5922C44.6981 27.5922 45.5567 28.4572 45.5567 29.5196C45.5567 30.5821 44.6981 31.447 43.6421 31.447C42.5862 31.447 41.7276 30.5821 41.7276 29.5196C41.7276 28.4572 42.5862 27.5922 43.6421 27.5922ZM32.7163 12.174L37.5021 16.992L34.6302 19.8831H27.8547L27.8512 12.174H32.7157H32.7163ZM16.3616 8.31915C15.564 8.31915 14.9391 7.69776 14.9391 6.90492C14.9391 6.11207 15.5904 5.42861 16.3616 5.42861H25.9343L25.9355 8.31974H16.3616V8.31915ZM5.41632 54.5743C4.89657 54.5743 4.4379 54.3012 4.15835 53.8264C3.84592 53.2949 3.83593 52.6528 4.10432 52.1568L19.0866 28.1042C19.1823 27.9511 19.2328 27.7731 19.2328 27.5922V10.2466H25.9361L25.9572 54.5743H5.41632ZM34.6308 39.1561L37.5027 42.0473L32.7169 46.8652H27.8688L27.8653 39.1561H34.6314H34.6308Z" fill="url(#paint0_linear_5032_78623)" stroke="url(#paint1_linear_5032_78623)" stroke-width="0.5"/>
<defs>
<linearGradient id="paint0_linear_5032_78623" x1="58.0013" y1="50.8225" x2="18.6838" y2="1.3666" gradientUnits="userSpaceOnUse">
<stop stop-color="#49B1B5"/>
<stop offset="1" stop-color="#7AE3EA"/>
</linearGradient>
<linearGradient id="paint1_linear_5032_78623" x1="58.0013" y1="50.8225" x2="18.6838" y2="1.3666" gradientUnits="userSpaceOnUse">
<stop stop-color="#49B1B5"/>
<stop offset="1" stop-color="#7AE3EA"/>
</linearGradient>
</defs>
</svg>
