<svg width="22" height="22" viewBox="0 0 22 22" fill="none" xmlns="http://www.w3.org/2000/svg">
<g id="list">
<path id="Vector" d="M2.75 11.9141H4.58333V10.0807H2.75V11.9141ZM2.75 15.5807H4.58333V13.7474H2.75V15.5807ZM2.75 8.2474H4.58333V6.41406H2.75V8.2474ZM6.41667 11.9141H19.25V10.0807H6.41667V11.9141ZM6.41667 15.5807H19.25V13.7474H6.41667V15.5807ZM6.41667 6.41406V8.2474H19.25V6.41406H6.41667ZM2.75 11.9141H4.58333V10.0807H2.75V11.9141ZM2.75 15.5807H4.58333V13.7474H2.75V15.5807ZM2.75 8.2474H4.58333V6.41406H2.75V8.2474ZM6.41667 11.9141H19.25V10.0807H6.41667V11.9141ZM6.41667 15.5807H19.25V13.7474H6.41667V15.5807ZM6.41667 6.41406V8.2474H19.25V6.41406H6.41667Z" fill="#444444"/>
</g>
</svg>
