<svg width="28" height="28" viewBox="0 0 28 28" fill="none" xmlns="http://www.w3.org/2000/svg">
<g id="SNS">
<path id="Union" fill-rule="evenodd" clip-rule="evenodd" d="M7.80277 9.47057C8.96663 9.47057 9.67454 8.69366 9.67454 7.73528C9.65204 6.75291 8.96813 6 7.84927 6C6.73041 6 6 6.7769 6 7.73528C6 8.69366 6.70791 9.46907 7.80277 9.47057ZM6.09149 10.8384V22H9.56055V10.8384H6.09149ZM11.5449 10.8383C11.5914 11.8431 11.6364 13.007 11.6364 14.3988L11.6379 14.3973V21.9984H15.1069V15.5627C15.1069 15.2432 15.1294 14.9237 15.2209 14.6958C15.4729 14.0569 16.0428 13.3954 17.0012 13.3954C18.2565 13.3954 18.759 14.3763 18.759 15.8146V21.9999H22.228V15.4037C22.228 12.1176 20.5168 10.5878 18.234 10.5878C16.3623 10.5878 15.2434 11.6602 14.7875 12.3906H14.7185L14.558 10.8383H11.5449Z" fill="#666666"/>
</g>
</svg>
