<svg width="60" height="60" viewBox="0 0 60 60" fill="none" xmlns="http://www.w3.org/2000/svg">
<path d="M57.8207 30.7275C57.3083 29.6882 56.4219 28.9093 55.3228 28.5354C54.2257 28.1614 53.048 28.2378 52.0067 28.7502C51.1761 29.1593 50.5356 29.7998 50.1224 30.556L39.8498 28.0643C39.8849 26.4548 39.5481 24.8123 38.7878 23.2709C37.98 21.6325 36.7816 20.2668 35.3106 19.2689L38.8126 12.9157C39.2919 13.0913 39.8002 13.1843 40.3167 13.1843C40.9593 13.1843 41.6122 13.0417 42.2278 12.738C44.3745 11.6801 45.2609 9.07272 44.203 6.92604C43.6907 5.8868 42.8043 5.10788 41.7051 4.73391C40.608 4.35995 39.4304 4.4364 38.389 4.94879C37.3498 5.46118 36.5709 6.34754 36.1969 7.4467C35.8229 8.5438 35.8994 9.72147 36.4118 10.7628C36.6225 11.1925 36.8994 11.5706 37.2196 11.8929L33.6556 18.3578C33.3808 18.2379 33.1019 18.1264 32.8147 18.0293C30.1887 17.1367 27.3726 17.3206 24.885 18.5458C23.8478 19.0561 22.9346 19.7214 22.1557 20.4962L13.5917 14.1822C13.6909 13.9694 13.7818 13.7524 13.8583 13.5272C14.3934 11.9529 14.2839 10.2628 13.5483 8.769C12.8128 7.27728 11.5401 6.15952 9.96573 5.6244C8.39137 5.08928 6.7013 5.19879 5.20957 5.93432C3.71785 6.66985 2.60009 7.94256 2.06497 9.51693C1.52985 11.0913 1.63936 12.7814 2.37489 14.2752C3.11042 15.7669 4.38314 16.8846 5.9575 17.4198C6.61452 17.6429 7.2922 17.7545 7.96782 17.7545C8.90996 17.7545 9.8459 17.5375 10.7137 17.1098C11.412 16.7669 12.0256 16.3041 12.538 15.7483L20.945 21.9445C18.8747 24.9445 18.4388 28.9486 20.1619 32.4424C20.3189 32.7626 20.4925 33.0704 20.6784 33.368L12.9079 39.4774C11.8004 38.6014 10.2447 38.3803 8.89549 39.0435C7.99054 39.4898 7.31493 40.2605 6.98848 41.215C6.66411 42.1695 6.73022 43.1943 7.1765 44.0972C7.83352 45.4298 9.17442 46.2046 10.569 46.2046C11.1289 46.2046 11.6971 46.0807 12.2302 45.8162C13.1351 45.3699 13.8107 44.5993 14.1372 43.6447C14.4347 42.7666 14.3996 41.8307 14.0463 40.9836L21.821 34.87C23.8024 37.0291 26.6061 38.2357 29.4904 38.2357C30.9945 38.2357 32.5213 37.9051 33.9655 37.213L40.8146 47.2067C40.4469 47.6654 40.1576 48.1881 39.9634 48.7604C39.5254 50.0496 39.6142 51.4319 40.2175 52.6529C40.8188 53.874 41.8601 54.7872 43.1493 55.2252C43.6886 55.4091 44.2423 55.5 44.7939 55.5C45.5646 55.5 46.3311 55.3223 47.0419 54.9731C48.2629 54.3719 49.1761 53.3306 49.6142 52.0414C50.0522 50.7521 49.9633 49.3699 49.36 48.1488C48.7588 46.9278 47.7175 46.0145 46.4282 45.5765C45.139 45.1385 43.7568 45.2294 42.5357 45.8307C42.4407 45.8761 42.3498 45.9278 42.2588 45.9794L35.5895 36.244C37.7155 34.6965 39.1204 32.4279 39.6349 29.9548L49.5956 32.3721C49.548 33.1056 49.6844 33.8597 50.0315 34.5642C50.7856 36.0973 52.3311 36.9878 53.9323 36.9878C54.5749 36.9878 55.2277 36.8452 55.8434 36.5415C56.8827 36.0291 57.6616 35.1427 58.0356 34.0436C58.4095 32.9465 58.3331 31.7688 57.8207 30.7275ZM37.9841 8.05413C38.1948 7.4343 38.6349 6.93224 39.2237 6.64299C39.5667 6.47357 39.9345 6.38886 40.3064 6.38886C40.5729 6.38886 40.8394 6.43225 41.0977 6.52109C41.7175 6.73183 42.2196 7.17191 42.5088 7.76075C43.1059 8.97355 42.6059 10.4487 41.3911 11.0458C40.1783 11.6429 38.7031 11.143 38.106 9.92808C37.8167 9.33925 37.7733 8.67396 37.9841 8.05413ZM9.88102 15.4156C8.84177 15.928 7.6641 16.0045 6.56493 15.6305C5.46784 15.2566 4.57941 14.4797 4.06702 13.4384C3.55463 12.3991 3.47818 11.2215 3.85215 10.1223C4.22611 9.02313 5.00296 8.13678 6.04428 7.62439C7.08559 7.11199 8.2612 7.03555 9.36037 7.40951C10.4575 7.78347 11.3459 8.56033 11.8583 9.60164C12.3707 10.6409 12.4471 11.8186 12.0732 12.9177C11.6992 14.0148 10.9223 14.9032 9.88102 15.4156ZM11.3975 44.1241C10.4637 44.5848 9.32937 44.1984 8.8707 43.2646C8.64756 42.8121 8.6145 42.2997 8.77773 41.8224C8.94095 41.3452 9.27772 40.9588 9.7302 40.7377C9.99672 40.6055 10.2818 40.5435 10.5608 40.5435C11.257 40.5435 11.9285 40.9299 12.257 41.5972C12.7178 42.5311 12.3314 43.6654 11.3975 44.1241ZM44.7857 47.1922C45.1328 47.1922 45.482 47.2501 45.8208 47.3637C46.6328 47.6406 47.2877 48.2149 47.6658 48.9835C48.0439 49.7521 48.1018 50.6219 47.8249 51.4339C47.5481 52.2459 46.9737 52.9008 46.2051 53.2789C45.4365 53.657 44.5667 53.7149 43.7547 53.438C42.9427 53.1612 42.2878 52.5868 41.9097 51.8182C41.5316 51.0496 41.4737 50.1798 41.7506 49.3678C42.0274 48.5558 42.6018 47.9009 43.3704 47.5228C43.8187 47.3017 44.3001 47.1902 44.7857 47.1902V47.1922ZM33.2279 35.4754C29.0255 37.5456 23.9243 35.8101 21.8561 31.6097C19.7859 27.4093 21.5214 22.3061 25.7218 20.2379C26.9077 19.6532 28.1846 19.3598 29.4676 19.3598C30.387 19.3598 31.3127 19.5106 32.2093 19.8164C32.6887 19.9796 33.1474 20.1842 33.5833 20.4239C33.5874 20.4239 33.5895 20.428 33.5936 20.4301C33.5998 20.4342 33.606 20.4363 33.6122 20.4383C35.1122 21.271 36.3229 22.5333 37.0957 24.1036C39.1659 28.306 37.4304 33.4072 33.23 35.4754H33.2279ZM56.2484 33.4341C56.0376 34.0539 55.5976 34.556 55.0087 34.8452C53.7939 35.4423 52.3207 34.9423 51.7236 33.7275C51.1265 32.5147 51.6265 31.0395 52.8414 30.4424C53.1844 30.2729 53.5521 30.1882 53.924 30.1882C54.1906 30.1882 54.4571 30.2316 54.7153 30.3205C55.3352 30.5312 55.8372 30.9713 56.1265 31.5601C56.4157 32.149 56.4591 32.8142 56.2484 33.4341Z" fill="url(#paint0_linear_5032_78614)" stroke="url(#paint1_linear_5032_78614)" stroke-width="0.5"/>
<path d="M26.2218 22.0536C25.7549 22.2829 25.5628 22.849 25.7921 23.318C26.0214 23.785 26.5875 23.9792 27.0565 23.7478C29.7652 22.4131 33.0524 23.5329 34.385 26.2395C34.5482 26.5721 34.885 26.7664 35.2321 26.7664C35.3726 26.7664 35.5151 26.7354 35.6474 26.6693C36.1143 26.4399 36.3065 25.8738 36.0771 25.4048C34.2838 21.7643 29.8623 20.2602 26.2198 22.0536H26.2218Z" fill="url(#paint2_linear_5032_78614)"/>
<defs>
<linearGradient id="paint0_linear_5032_78614" x1="58.2695" y1="50.0357" x2="20.8849" y2="0.696574" gradientUnits="userSpaceOnUse">
<stop stop-color="#49B1B5"/>
<stop offset="1" stop-color="#7AE3EA"/>
</linearGradient>
<linearGradient id="paint1_linear_5032_78614" x1="58.2695" y1="50.0357" x2="20.8849" y2="0.696574" gradientUnits="userSpaceOnUse">
<stop stop-color="#49B1B5"/>
<stop offset="1" stop-color="#7AE3EA"/>
</linearGradient>
<linearGradient id="paint2_linear_5032_78614" x1="36.1739" y1="26.1803" x2="33.1108" y2="19.1941" gradientUnits="userSpaceOnUse">
<stop stop-color="#49B1B5"/>
<stop offset="1" stop-color="#7AE3EA"/>
</linearGradient>
</defs>
</svg>
