<svg width="16" height="16" viewBox="0 0 16 16" fill="none" xmlns="http://www.w3.org/2000/svg">
<rect x="2" y="2" width="12" height="12" rx="6" fill="#D6131B"/>
<path d="M8.00931 6.008C7.84398 6.008 7.70531 5.952 7.59331 5.84C7.48131 5.728 7.42531 5.58933 7.42531 5.424C7.42531 5.25867 7.48131 5.12 7.59331 5.008C7.70531 4.896 7.84398 4.84 8.00931 4.84C8.16931 4.84 8.30531 4.896 8.41731 5.008C8.52931 5.12 8.58531 5.25867 8.58531 5.424C8.58531 5.58933 8.52931 5.728 8.41731 5.84C8.30531 5.952 8.16931 6.008 8.00931 6.008ZM8.45731 6.592V11H7.54531V6.592H8.45731Z" fill="white"/>
</svg>
