<svg width="60" height="60" viewBox="0 0 60 60" fill="none" xmlns="http://www.w3.org/2000/svg">
<path d="M56.9062 55.8104H55.3751V41.9205C55.3751 41.3164 54.8854 40.8266 54.2813 40.8266C53.6772 40.8266 53.1875 41.3164 53.1875 41.9205V55.8104H47.4558V25.6517H53.1875V33.4621C53.1875 34.0662 53.6772 34.5559 54.2813 34.5559C54.8854 34.5559 55.3751 34.0662 55.3751 33.4621V24.5587C55.3751 23.9553 54.8854 23.4648 54.2813 23.4648H46.362C45.7579 23.4648 45.2682 23.9546 45.2682 24.5587V55.8112H41.8268V32.2147C41.8268 31.6114 41.3371 31.1209 40.733 31.1209H32.8137C32.2096 31.1209 31.7199 31.6106 31.7199 32.2147V55.8112H28.2786V24.5587C28.2786 23.9553 27.7888 23.4648 27.1847 23.4648H19.2654C18.6613 23.4648 18.1716 23.9546 18.1716 24.5587V41.4096C18.1716 42.0129 18.6613 42.5034 19.2654 42.5034C19.8695 42.5034 20.3593 42.0137 20.3593 41.4096V25.6525H26.0909V55.8112H20.3593V49.5765C20.3593 48.9724 19.8695 48.4827 19.2654 48.4827C18.6613 48.4827 18.1716 48.9724 18.1716 49.5765V55.8112H14.7303V32.2147C14.7303 31.6114 14.2405 31.1209 13.6364 31.1209H5.71871C5.11459 31.1209 4.62488 31.6106 4.62488 32.2147V55.8112H3.09383C2.48972 55.8112 2 56.3009 2 56.905C2 57.5091 2.48972 57.9988 3.09383 57.9988H56.9062C57.5103 57.9988 58 57.5091 58 56.905C58 56.3009 57.5103 55.8112 56.9062 55.8112V55.8104ZM6.81254 55.8104V33.3077H12.5442V55.8104H6.81254ZM33.9083 55.8104V33.3077H39.64V55.8104H33.9083Z" fill="url(#paint0_linear_5032_86421)" stroke="url(#paint1_linear_5032_86421)"/>
<path d="M9.67908 25.6537C12.4693 25.6537 14.7392 23.3837 14.7392 20.5935C14.7392 19.6016 14.4509 18.6754 13.9557 17.8934L20.5187 11.3305C21.303 11.8296 22.2307 12.1195 23.2266 12.1195C24.2225 12.1195 25.1588 11.8264 25.9447 11.3242L32.5045 17.884C32.0054 18.6684 31.7147 19.5976 31.7147 20.5935C31.7147 23.3837 33.9847 25.6537 36.7749 25.6537C39.5651 25.6537 41.835 23.3837 41.835 20.5935C41.835 19.5937 41.5427 18.6613 41.0397 17.8754L47.5964 11.3187C48.3839 11.8249 49.3194 12.1195 50.3224 12.1195C53.1126 12.1195 55.3825 9.84956 55.3825 7.05935C55.3825 4.26915 53.1126 2 50.3216 2C47.5306 2 45.2615 4.26993 45.2615 7.06014C45.2615 8.05681 45.5521 8.98609 46.0513 9.76964L39.4914 16.3295C38.7055 15.8272 37.7731 15.5342 36.7741 15.5342C35.7751 15.5342 34.8356 15.8288 34.0481 16.335L27.4914 9.77826C27.9937 8.99236 28.2867 8.05994 28.2867 7.06092C28.2867 4.27071 26.0168 2.00078 23.2266 2.00078C20.4364 2.00078 18.1664 4.27071 18.1664 7.06092C18.1664 8.06464 18.4618 9.00098 18.9672 9.78844L12.4144 16.3412C11.6246 15.8311 10.6859 15.535 9.6783 15.535C6.8881 15.535 4.61816 17.8049 4.61816 20.5951C4.61816 23.3853 6.8881 25.6552 9.6783 25.6552L9.67908 25.6537ZM50.3216 4.18766C51.9051 4.18766 53.1941 5.47659 53.1941 7.06014C53.1941 8.64368 51.9051 9.93261 50.3216 9.93261C48.738 9.93261 47.4491 8.64368 47.4491 7.06014C47.4491 5.47659 48.738 4.18766 50.3216 4.18766ZM39.6466 20.5935C39.6466 22.1771 38.3576 23.466 36.7741 23.466C35.1905 23.466 33.9016 22.1771 33.9016 20.5935C33.9016 19.01 35.1898 17.7211 36.7741 17.7211C38.3576 17.7211 39.6466 19.01 39.6466 20.5935ZM23.2266 4.18766C24.8101 4.18766 26.0991 5.47659 26.0991 7.06014C26.0991 8.64368 24.8109 9.93261 23.2266 9.93261C21.6423 9.93261 20.3541 8.64368 20.3541 7.06014C20.3541 5.47659 21.643 4.18766 23.2266 4.18766ZM9.67908 17.7211C10.3976 17.7211 11.0542 17.9867 11.5588 18.4239C11.5996 18.4866 11.6466 18.5453 11.7022 18.6002C11.7539 18.6519 11.8103 18.6981 11.8699 18.7373C12.2953 19.2388 12.5523 19.886 12.5523 20.5935C12.5523 22.1771 11.2634 23.466 9.67987 23.466C8.09632 23.466 6.80739 22.1771 6.80739 20.5935C6.80739 19.01 8.09632 17.7211 9.67987 17.7211H9.67908Z" fill="url(#paint2_linear_5032_86421)" stroke="url(#paint3_linear_5032_86421)"/>
<path d="M19.2673 46.8986C19.5548 46.8986 19.8361 46.7818 20.0391 46.5781C20.2436 46.3744 20.3595 46.0923 20.3595 45.8048C20.3595 45.5172 20.2436 45.2351 20.0391 45.0314C19.8353 44.8277 19.5548 44.7109 19.2673 44.7109C18.9797 44.7109 18.6961 44.8277 18.4939 45.0314C18.2894 45.2351 18.1719 45.5172 18.1719 45.8048C18.1719 46.0923 18.2886 46.3744 18.4939 46.5781C18.6976 46.7818 18.9781 46.8986 19.2673 46.8986Z" fill="url(#paint4_linear_5032_86421)" stroke="url(#paint5_linear_5032_86421)"/>
<path d="M54.2813 36.8906C53.9922 36.8906 53.7117 37.0074 53.508 37.2111C53.3042 37.4148 53.1875 37.6969 53.1875 37.9845C53.1875 38.272 53.3042 38.5541 53.508 38.7578C53.7117 38.9615 53.9938 39.0783 54.2813 39.0783C54.5689 39.0783 54.851 38.9615 55.0547 38.7578C55.2584 38.5541 55.3752 38.272 55.3752 37.9845C55.3752 37.6969 55.2584 37.4148 55.0547 37.2111C54.851 37.0074 54.5689 36.8906 54.2813 36.8906Z" fill="url(#paint6_linear_5032_86421)" stroke="url(#paint7_linear_5032_86421)"/>
<defs>
<linearGradient id="paint0_linear_5032_86421" x1="58" y1="54.2988" x2="36.5212" y2="12.8347" gradientUnits="userSpaceOnUse">
<stop stop-color="#49B1B5"/>
<stop offset="1" stop-color="#7AE3EA"/>
</linearGradient>
<linearGradient id="paint1_linear_5032_86421" x1="58" y1="54.2988" x2="36.5212" y2="12.8347" gradientUnits="userSpaceOnUse">
<stop stop-color="#49B1B5"/>
<stop offset="1" stop-color="#7AE3EA"/>
</linearGradient>
<linearGradient id="paint2_linear_5032_86421" x1="55.3825" y1="23.1207" x2="43.1554" y2="-8.1168" gradientUnits="userSpaceOnUse">
<stop stop-color="#49B1B5"/>
<stop offset="1" stop-color="#7AE3EA"/>
</linearGradient>
<linearGradient id="paint3_linear_5032_86421" x1="55.3825" y1="23.1207" x2="43.1554" y2="-8.1168" gradientUnits="userSpaceOnUse">
<stop stop-color="#49B1B5"/>
<stop offset="1" stop-color="#7AE3EA"/>
</linearGradient>
<linearGradient id="paint4_linear_5032_86421" x1="20.3595" y1="46.6642" x2="18.7188" y2="44.7109" gradientUnits="userSpaceOnUse">
<stop stop-color="#49B1B5"/>
<stop offset="1" stop-color="#7AE3EA"/>
</linearGradient>
<linearGradient id="paint5_linear_5032_86421" x1="20.3595" y1="46.6642" x2="18.7188" y2="44.7109" gradientUnits="userSpaceOnUse">
<stop stop-color="#49B1B5"/>
<stop offset="1" stop-color="#7AE3EA"/>
</linearGradient>
<linearGradient id="paint6_linear_5032_86421" x1="55.3752" y1="38.8439" x2="53.7344" y2="36.8906" gradientUnits="userSpaceOnUse">
<stop stop-color="#49B1B5"/>
<stop offset="1" stop-color="#7AE3EA"/>
</linearGradient>
<linearGradient id="paint7_linear_5032_86421" x1="55.3752" y1="38.8439" x2="53.7344" y2="36.8906" gradientUnits="userSpaceOnUse">
<stop stop-color="#49B1B5"/>
<stop offset="1" stop-color="#7AE3EA"/>
</linearGradient>
</defs>
</svg>
