<svg width="60" height="60" viewBox="0 0 60 60" fill="none" xmlns="http://www.w3.org/2000/svg">
<path d="M26.377 43.9054L33.622 55.9983H46.9046L54.1497 43.9054L46.9046 31.8125H33.622L26.377 43.9054Z" stroke="url(#paint0_linear_4571_117938)" stroke-width="2" stroke-linejoin="round"/>
<path d="M33.6204 31.8116L26.3753 19.7188H13.0927L5.84766 31.8116L13.0927 43.9045H26.3753" stroke="url(#paint1_linear_4571_117938)" stroke-width="2" stroke-linejoin="round"/>
<path d="M46.9046 31.8147L54.1497 19.7218L46.9046 7.62891H33.622L26.377 19.7218" stroke="url(#paint2_linear_4571_117938)" stroke-width="2" stroke-linejoin="round"/>
<path d="M5.84909 31.8125H2.22656" stroke="url(#paint3_linear_4571_117938)" stroke-width="2" stroke-linecap="round" stroke-linejoin="round"/>
<path d="M54.1504 19.7188H57.7729" stroke="url(#paint4_linear_4571_117938)" stroke-width="2" stroke-linecap="round" stroke-linejoin="round"/>
<path d="M46.9043 7.62786L49.3193 4" stroke="url(#paint5_linear_4571_117938)" stroke-width="2" stroke-linecap="round" stroke-linejoin="round"/>
<defs>
<linearGradient id="paint0_linear_4571_117938" x1="54.1497" y1="53.4069" x2="36.5987" y2="29.4142" gradientUnits="userSpaceOnUse">
<stop stop-color="#49B1B5"/>
<stop offset="1" stop-color="#7AE3EA"/>
</linearGradient>
<linearGradient id="paint1_linear_4571_117938" x1="33.6204" y1="41.3132" x2="16.0694" y2="17.3204" gradientUnits="userSpaceOnUse">
<stop stop-color="#49B1B5"/>
<stop offset="1" stop-color="#7AE3EA"/>
</linearGradient>
<linearGradient id="paint2_linear_4571_117938" x1="54.1497" y1="29.2233" x2="36.5987" y2="5.23058" gradientUnits="userSpaceOnUse">
<stop stop-color="#49B1B5"/>
<stop offset="1" stop-color="#7AE3EA"/>
</linearGradient>
<linearGradient id="paint3_linear_4571_117938" x1="5.84909" y1="32.7054" x2="5.51399" y2="31.2602" gradientUnits="userSpaceOnUse">
<stop stop-color="#49B1B5"/>
<stop offset="1" stop-color="#7AE3EA"/>
</linearGradient>
<linearGradient id="paint4_linear_4571_117938" x1="57.7729" y1="20.6116" x2="57.4378" y2="19.1665" gradientUnits="userSpaceOnUse">
<stop stop-color="#49B1B5"/>
<stop offset="1" stop-color="#7AE3EA"/>
</linearGradient>
<linearGradient id="paint5_linear_4571_117938" x1="49.3193" y1="7.23916" x2="46.63" y2="5.10794" gradientUnits="userSpaceOnUse">
<stop stop-color="#49B1B5"/>
<stop offset="1" stop-color="#7AE3EA"/>
</linearGradient>
</defs>
</svg>
