<svg width="60" height="60" viewBox="0 0 60 60" fill="none" xmlns="http://www.w3.org/2000/svg">
<path d="M11.6969 29.4336C11.5961 31.5175 11.8676 33.5767 12.4539 35.529C12.9209 37.0677 13.5874 38.5489 14.4411 39.9066C15.5294 41.6716 16.9282 43.2536 18.5904 44.564" stroke="url(#paint0_linear_4437_54045)" stroke-width="2.5" stroke-miterlimit="10"/>
<path d="M29.3701 48.4986C31.4849 48.5644 33.5729 48.2579 35.5457 47.6058C37.0721 47.1203 38.5368 46.4229 39.8904 45.5404C41.5999 44.4254 43.1325 43.0142 44.3997 41.3438" stroke="url(#paint1_linear_4437_54045)" stroke-width="2.5" stroke-miterlimit="10"/>
<path d="M41.2051 15.9492C42.787 17.1897 44.1345 18.6811 45.2042 20.333C46.0559 21.6434 46.7388 23.0629 47.2305 24.5523C47.8621 26.4531 48.183 28.467 48.1562 30.5098" stroke="url(#paint2_linear_4437_54045)" stroke-width="2.5" stroke-miterlimit="10"/>
<path d="M15.7913 18.7314C17.0832 17.1535 18.6219 15.8184 20.3252 14.7734C21.648 13.9444 23.0818 13.2943 24.5774 12.8397C26.4597 12.2616 28.4449 11.9818 30.4568 12.0436" stroke="url(#paint3_linear_4437_54045)" stroke-width="2.5" stroke-miterlimit="10"/>
<path d="M32.6377 15.3342C33.837 12.8121 34.2464 9.97321 33.7835 7.19605L33.5182 5.56677C33.4976 5.45569 33.4914 5.33843 33.4914 5.22734C33.4914 4.30985 34.1065 3.4911 35.0199 3.25247C38.1365 2.43989 41.4321 3.62893 43.3164 6.24152L43.337 6.27238C43.9624 7.14256 43.8143 8.34188 42.9976 9.03309L41.862 9.99379C39.665 11.8473 38.12 14.3303 37.4144 17.0972" stroke="url(#paint4_linear_4437_54045)" stroke-width="2.5" stroke-miterlimit="10"/>
<path d="M22.5579 43.0195C21.842 45.7329 20.3012 48.1748 18.135 50.0057L16.9995 50.9602C16.1828 51.6493 16.0326 52.8548 16.66 53.7209L16.6868 53.7579C18.5711 56.3705 21.8688 57.5534 24.9833 56.747C25.8967 56.5083 26.5118 55.6855 26.5118 54.7721C26.5118 54.661 26.5056 54.5437 26.485 54.4327L26.2135 52.7972C25.763 50.0468 26.1559 47.2388 27.3285 44.7393" stroke="url(#paint5_linear_4437_54045)" stroke-width="2.5" stroke-miterlimit="10"/>
<path d="M15.2369 27.3127C12.7374 26.1504 9.93969 25.7575 7.19955 26.2142L5.56411 26.4796C5.45302 26.5002 5.33576 26.5063 5.22468 26.5063C4.3113 26.5063 3.48843 25.8912 3.2498 24.9779C2.44339 21.8613 3.62626 18.5657 6.23886 16.6813L6.27589 16.6608C7.14195 16.0333 8.34539 16.1835 9.0366 17.0002L9.99112 18.1357C11.822 20.3019 14.27 21.8407 16.9875 22.5525" stroke="url(#paint6_linear_4437_54045)" stroke-width="2.5" stroke-miterlimit="10"/>
<path d="M44.6454 32.6328C47.1716 33.8383 50.0166 34.2456 52.8041 33.791L54.4333 33.5194C54.5444 33.4989 54.6617 33.4927 54.7728 33.4927C55.6903 33.4927 56.509 34.1078 56.7476 35.0212C57.5602 38.1378 56.3712 41.4334 53.7586 43.3177L53.7277 43.3445C52.8575 43.9698 51.6582 43.8217 50.967 43.005L50.0063 41.8695C48.1528 39.6724 45.6739 38.1275 42.9153 37.4219" stroke="url(#paint7_linear_4437_54045)" stroke-width="2.5" stroke-miterlimit="10"/>
<path d="M20.3202 14.7766C19.4397 13.2913 18.2527 11.9912 16.8292 10.9647L15.5908 10.0801C14.8893 9.58225 14.6301 8.68327 14.9139 7.90566C14.953 7.80074 15.0045 7.69583 15.06 7.59709C16.5617 5.04415 19.4767 3.67408 22.3979 4.14723L22.4349 4.1534C23.41 4.3118 24.0909 5.19021 24.0128 6.16942L23.8996 7.5292C23.7453 9.34362 23.984 11.1477 24.5888 12.8346" stroke="url(#paint8_linear_4437_54045)" stroke-width="2.5" stroke-miterlimit="10"/>
<path d="M39.8875 45.543C40.7454 46.8945 41.8583 48.0836 43.181 49.0257L44.4195 49.9103C45.1127 50.4123 45.374 51.3051 45.0921 52.0765C45.051 52.1876 45.0078 52.2905 44.944 52.3913C43.4485 54.9463 40.5314 56.3204 37.6123 55.8452L37.5671 55.8411C36.5981 55.6807 35.911 54.8043 35.9974 53.821L36.1106 52.4612C36.2525 50.8072 36.0633 49.1533 35.5654 47.596" stroke="url(#paint9_linear_4437_54045)" stroke-width="2.5" stroke-miterlimit="10"/>
<path d="M12.4599 35.5312C10.882 36.0497 9.21162 36.2451 7.53297 36.1011L6.17525 35.9818C5.19809 35.9015 4.31557 36.5886 4.15923 37.5596L4.151 37.6028C3.67991 40.526 5.04792 43.439 7.60497 44.9345C7.70783 44.9983 7.80863 45.0415 7.91972 45.0827C8.69938 45.3665 9.59013 45.1053 10.0859 44.41L10.9705 43.1715C11.9168 41.857 13.0914 40.7441 14.4409 39.8924" stroke="url(#paint10_linear_4437_54045)" stroke-width="2.5" stroke-miterlimit="10"/>
<path d="M45.2034 20.3227C46.703 19.4402 48.0114 18.2511 49.0338 16.8132L49.9163 15.5809C50.4203 14.8815 51.3173 14.6223 52.0969 14.9062C52.2018 14.9453 52.3026 14.9946 52.3993 15.0502C54.9523 16.5519 56.3264 19.469 55.8492 22.3881V22.4272C55.6846 23.4002 54.8103 24.0832 53.827 24.0029L52.4672 23.8898C50.6795 23.7396 48.896 23.9721 47.2276 24.5563" stroke="url(#paint11_linear_4437_54045)" stroke-width="2.5" stroke-miterlimit="10"/>
<path d="M27.6654 25.5093C29.4046 24.6983 30.157 22.631 29.346 20.8919C28.535 19.1527 26.4677 18.4003 24.7286 19.2113C22.9894 20.0223 22.237 22.0895 23.048 23.8287C23.859 25.5678 25.9263 26.3203 27.6654 25.5093Z" stroke="url(#paint12_linear_4437_54045)" stroke-width="2.5" stroke-miterlimit="10"/>
<path d="M39.2894 29.7398C41.0286 28.9288 41.781 26.8615 40.97 25.1224C40.1591 23.3832 38.0918 22.6308 36.3526 23.4417C34.6135 24.2527 33.861 26.32 34.672 28.0592C35.483 29.7983 37.5503 30.5507 39.2894 29.7398Z" stroke="url(#paint13_linear_4437_54045)" stroke-width="2.5" stroke-miterlimit="10"/>
<path d="M23.6469 36.5523C25.386 35.7413 26.1384 33.674 25.3275 31.9349C24.5165 30.1957 22.4492 29.4433 20.71 30.2542C18.9709 31.0652 18.2185 33.1325 19.0294 34.8717C19.8404 36.6108 21.9077 37.3632 23.6469 36.5523Z" stroke="url(#paint14_linear_4437_54045)" stroke-width="2.5" stroke-miterlimit="10"/>
<path d="M35.2745 40.7866C37.0137 39.9757 37.7661 37.9084 36.9551 36.1692C36.1442 34.4301 34.0769 33.6776 32.3377 34.4886C30.5986 35.2996 29.8461 37.3669 30.6571 39.106C31.4681 40.8452 33.5354 41.5976 35.2745 40.7866Z" stroke="url(#paint15_linear_4437_54045)" stroke-width="2.5" stroke-miterlimit="10"/>
<defs>
<linearGradient id="paint0_linear_4437_54045" x1="18.5904" y1="42.9429" x2="8.9181" y2="37.681" gradientUnits="userSpaceOnUse">
<stop stop-color="#49B1B5"/>
<stop offset="1" stop-color="#7AE3EA"/>
</linearGradient>
<linearGradient id="paint1_linear_4437_54045" x1="44.3997" y1="47.7398" x2="40.6355" y2="38.3378" gradientUnits="userSpaceOnUse">
<stop stop-color="#49B1B5"/>
<stop offset="1" stop-color="#7AE3EA"/>
</linearGradient>
<linearGradient id="paint2_linear_4437_54045" x1="48.1578" y1="28.9497" x2="38.6314" y2="23.5344" gradientUnits="userSpaceOnUse">
<stop stop-color="#49B1B5"/>
<stop offset="1" stop-color="#7AE3EA"/>
</linearGradient>
<linearGradient id="paint3_linear_4437_54045" x1="30.4568" y1="18.0139" x2="27.0472" y2="9.12424" gradientUnits="userSpaceOnUse">
<stop stop-color="#49B1B5"/>
<stop offset="1" stop-color="#7AE3EA"/>
</linearGradient>
<linearGradient id="paint4_linear_4437_54045" x1="43.7234" y1="15.5868" x2="33.0128" y2="5.55976" gradientUnits="userSpaceOnUse">
<stop stop-color="#49B1B5"/>
<stop offset="1" stop-color="#7AE3EA"/>
</linearGradient>
<linearGradient id="paint5_linear_4437_54045" x1="27.3285" y1="55.4994" x2="16.7048" y2="45.4959" gradientUnits="userSpaceOnUse">
<stop stop-color="#49B1B5"/>
<stop offset="1" stop-color="#7AE3EA"/>
</linearGradient>
<linearGradient id="paint6_linear_4437_54045" x1="16.9875" y1="26.13" x2="9.24529" y2="14.4513" gradientUnits="userSpaceOnUse">
<stop stop-color="#49B1B5"/>
<stop offset="1" stop-color="#7AE3EA"/>
</linearGradient>
<linearGradient id="paint7_linear_4437_54045" x1="57.0001" y1="42.5418" x2="49.2215" y2="30.7895" gradientUnits="userSpaceOnUse">
<stop stop-color="#49B1B5"/>
<stop offset="1" stop-color="#7AE3EA"/>
</linearGradient>
<linearGradient id="paint8_linear_4437_54045" x1="24.5888" y1="13.6278" x2="16.453" y2="4.78599" gradientUnits="userSpaceOnUse">
<stop stop-color="#49B1B5"/>
<stop offset="1" stop-color="#7AE3EA"/>
</linearGradient>
<linearGradient id="paint9_linear_4437_54045" x1="45.2039" y1="54.8245" x2="37.327" y2="46.1301" gradientUnits="userSpaceOnUse">
<stop stop-color="#49B1B5"/>
<stop offset="1" stop-color="#7AE3EA"/>
</linearGradient>
<linearGradient id="paint10_linear_4437_54045" x1="14.4409" y1="44.1601" x2="7.29936" y2="35.027" gradientUnits="userSpaceOnUse">
<stop stop-color="#49B1B5"/>
<stop offset="1" stop-color="#7AE3EA"/>
</linearGradient>
<linearGradient id="paint11_linear_4437_54045" x1="55.9429" y1="23.5102" x2="48.7712" y2="14.1187" gradientUnits="userSpaceOnUse">
<stop stop-color="#49B1B5"/>
<stop offset="1" stop-color="#7AE3EA"/>
</linearGradient>
<linearGradient id="paint12_linear_4437_54045" x1="30.4998" y1="23.3661" x2="23.1541" y2="19.9455" gradientUnits="userSpaceOnUse">
<stop stop-color="#49B1B5"/>
<stop offset="1" stop-color="#7AE3EA"/>
</linearGradient>
<linearGradient id="paint13_linear_4437_54045" x1="42.1238" y1="27.5966" x2="34.7781" y2="24.176" gradientUnits="userSpaceOnUse">
<stop stop-color="#49B1B5"/>
<stop offset="1" stop-color="#7AE3EA"/>
</linearGradient>
<linearGradient id="paint14_linear_4437_54045" x1="26.4812" y1="34.4091" x2="19.1355" y2="30.9885" gradientUnits="userSpaceOnUse">
<stop stop-color="#49B1B5"/>
<stop offset="1" stop-color="#7AE3EA"/>
</linearGradient>
<linearGradient id="paint15_linear_4437_54045" x1="38.1089" y1="38.6434" x2="30.7632" y2="35.2228" gradientUnits="userSpaceOnUse">
<stop stop-color="#49B1B5"/>
<stop offset="1" stop-color="#7AE3EA"/>
</linearGradient>
</defs>
</svg>
