<svg width="54" height="54" viewBox="0 0 54 54" fill="none" xmlns="http://www.w3.org/2000/svg">
<g clip-path="url(#clip0_2707_3950)">
<path d="M8.00031 37.7237C7.56538 37.7238 7.13896 37.6032 6.76849 37.3753C6.39802 37.1475 6.09804 36.8213 5.90193 36.4331C5.70581 36.0449 5.62126 35.6099 5.65767 35.1764C5.69407 34.743 5.85002 34.3282 6.10815 33.9782C7.59311 31.9714 8.39403 29.5406 8.39285 27.0442C8.39403 24.5477 7.59311 22.117 6.10815 20.1102C5.92519 19.8614 5.79302 19.579 5.71919 19.2791C5.64536 18.9793 5.63131 18.6678 5.67786 18.3625C5.77186 17.7459 6.10695 17.1919 6.6094 16.8224C7.11186 16.4529 7.74052 16.2981 8.3571 16.3921C8.97368 16.4861 9.52766 16.8212 9.89718 17.3237C11.9773 20.1373 13.098 23.5451 13.0939 27.0442C13.098 30.5433 11.9773 33.951 9.89718 36.7647C9.67856 37.0623 9.3929 37.3043 9.06334 37.4709C8.73378 37.6375 8.3696 37.7241 8.00031 37.7237Z" fill="url(#paint0_linear_2707_3950)"/>
<path d="M18.4988 43.166C18.0783 43.1657 17.6656 43.0527 17.3037 42.8386C16.9418 42.6245 16.6439 42.3172 16.4412 41.9488C16.2384 41.5804 16.1382 41.1644 16.151 40.7441C16.1638 40.3237 16.2891 39.9146 16.5138 39.5592C18.8842 35.8155 20.1431 31.476 20.1442 27.0451C20.1413 22.6136 18.8804 18.2739 16.508 14.5309C16.1833 14.0042 16.0795 13.3706 16.219 12.7678C16.3585 12.165 16.7301 11.6415 17.2532 11.3109C17.7762 10.9803 18.4085 10.8693 19.0129 11.0019C19.6173 11.1346 20.145 11.5002 20.4815 12.0194C23.3293 16.5138 24.8426 21.7244 24.8452 27.0451C24.8426 32.3657 23.3293 37.5763 20.4815 42.0707C20.27 42.4055 19.9774 42.6814 19.6308 42.8729C19.2842 43.0644 18.8948 43.1652 18.4988 43.166Z" fill="url(#paint1_linear_2707_3950)"/>
<path d="M28.9392 48.5823C28.5237 48.5821 28.1156 48.4718 27.7566 48.2626C27.3976 48.0534 27.1004 47.7527 26.8955 47.3913C26.6905 47.0298 26.585 46.6205 26.5897 46.205C26.5945 45.7895 26.7093 45.3827 26.9224 45.026C30.1673 39.5885 31.8855 33.3766 31.8961 27.0446C31.8855 20.7126 30.1673 14.5006 26.9224 9.06319C26.7618 8.79787 26.6552 8.50338 26.6089 8.19669C26.5626 7.89 26.5774 7.57718 26.6525 7.27625C26.7277 6.97532 26.8616 6.69223 27.0467 6.44331C27.2317 6.19439 27.4642 5.98455 27.7307 5.82589C27.9972 5.66724 28.2925 5.5629 28.5995 5.51889C28.9066 5.47489 29.2193 5.49209 29.5196 5.56949C29.82 5.6469 30.1021 5.78299 30.3496 5.96991C30.5971 6.15684 30.8052 6.3909 30.9618 6.65861C34.6402 12.8231 36.5871 19.866 36.5971 27.0446C36.586 34.2249 34.637 41.2691 30.9559 47.4341C30.7479 47.7836 30.4526 48.0732 30.0991 48.2744C29.7456 48.4757 29.346 48.5818 28.9392 48.5823Z" fill="url(#paint2_linear_2707_3950)"/>
<path opacity="0.1" d="M39.3887 54C38.9763 53.9996 38.5712 53.8907 38.2143 53.6842C37.8573 53.4777 37.5609 53.181 37.3549 52.8237C37.1489 52.4664 37.0405 52.0613 37.0406 51.6489C37.0407 51.2365 37.1493 50.8314 37.3555 50.4742C41.4689 43.35 43.6398 35.2708 43.6513 27.0444C43.6465 18.7933 41.4755 10.6881 37.3555 3.53927C37.1987 3.27185 37.0964 2.97606 37.0544 2.66893C37.0124 2.3618 37.0316 2.0494 37.1108 1.74972C37.19 1.45003 37.3278 1.16897 37.5161 0.922728C37.7043 0.676485 37.9395 0.46992 38.2079 0.314923C38.4764 0.159927 38.7729 0.0595627 39.0803 0.0196073C39.3877 -0.0203481 39.6999 0.000895256 39.9991 0.0821142C40.2982 0.163333 40.5784 0.302923 40.8234 0.492848C41.0684 0.682774 41.2733 0.919282 41.4266 1.18876C45.9597 9.052 48.348 17.968 48.3523 27.0444C48.341 36.0956 45.9527 44.9852 41.4266 52.8236C41.2202 53.1814 40.9232 53.4786 40.5654 53.6852C40.2077 53.8917 39.8018 54.0003 39.3887 54Z" fill="url(#paint3_linear_2707_3950)"/>
<g filter="url(#filter0_bi_2707_3950)">
<path d="M28.9397 48.5823C28.5241 48.5821 28.1161 48.4718 27.7571 48.2626C27.3981 48.0534 27.1009 47.7527 26.896 47.3913C26.691 47.0298 26.5855 46.6205 26.5902 46.205C26.595 45.7895 26.7098 45.3827 26.9229 45.026C30.1677 39.5885 31.886 33.3766 31.8966 27.0446C31.886 20.7126 30.1677 14.5006 26.9229 9.06319C26.7623 8.79787 26.6557 8.50338 26.6094 8.19669C26.563 7.89 26.5779 7.57718 26.653 7.27625C26.7281 6.97532 26.8621 6.69223 27.0471 6.44331C27.2322 6.19439 27.4647 5.98455 27.7312 5.82589C27.9977 5.66724 28.293 5.5629 28.6 5.51889C28.9071 5.47489 29.2198 5.49209 29.5201 5.56949C29.8205 5.6469 30.1025 5.78299 30.3501 5.96991C30.5976 6.15684 30.8056 6.3909 30.9623 6.65861C34.6407 12.8231 36.5876 19.866 36.5976 27.0446C36.5864 34.2249 34.6375 41.2691 30.9564 47.4341C30.7483 47.7836 30.4531 48.0732 30.0996 48.2744C29.7461 48.4757 29.3464 48.5818 28.9397 48.5823Z" fill="url(#paint4_linear_2707_3950)" fill-opacity="0.8"/>
<path d="M27.0517 45.1029L27.0517 45.1028C30.3104 39.6422 32.0359 33.4038 32.0466 27.0448L32.0466 27.0443C32.0359 20.6853 30.3104 14.4469 27.0517 8.98632L27.0517 8.98632L27.0512 8.98549C26.9008 8.7371 26.8011 8.46141 26.7577 8.17429C26.7143 7.88717 26.7282 7.59431 26.7985 7.31258C26.8689 7.03086 26.9943 6.76584 27.1675 6.5328C27.3408 6.29976 27.5584 6.10332 27.8079 5.95478C28.0574 5.80625 28.3339 5.70857 28.6213 5.66738C28.9088 5.62618 29.2015 5.64228 29.4827 5.71475C29.7639 5.78721 30.0279 5.91462 30.2597 6.08961C30.4914 6.26461 30.6862 6.48374 30.8328 6.73436L30.8328 6.73437L30.8335 6.73548C34.498 12.8768 36.4376 19.8931 36.4476 27.0446C36.4365 34.1978 34.4948 41.2155 30.8276 47.3572L30.8275 47.3573C30.6327 47.6846 30.3563 47.9557 30.0254 48.1441C29.6945 48.3325 29.3203 48.4318 28.9395 48.4323C28.5506 48.4321 28.1686 48.3288 27.8326 48.133C27.4965 47.9371 27.2183 47.6557 27.0264 47.3173C26.8345 46.9789 26.7358 46.5957 26.7402 46.2067C26.7447 45.8177 26.8521 45.4368 27.0517 45.1029Z" stroke="url(#paint5_linear_2707_3950)" stroke-opacity="0.1" stroke-width="0.3"/>
</g>
<g filter="url(#filter1_bi_2707_3950)">
<path d="M39.3877 54C38.9753 53.9996 38.5703 53.8907 38.2133 53.6842C37.8563 53.4777 37.5599 53.181 37.3539 52.8237C37.1479 52.4664 37.0395 52.0613 37.0396 51.6489C37.0397 51.2365 37.1483 50.8314 37.3545 50.4742C41.4679 43.35 43.6389 35.2708 43.6503 27.0444C43.6455 18.7933 41.4746 10.6881 37.3545 3.53927C37.1977 3.27185 37.0954 2.97606 37.0534 2.66893C37.0114 2.3618 37.0306 2.0494 37.1098 1.74972C37.1891 1.45003 37.3268 1.16897 37.5151 0.922728C37.7034 0.676485 37.9385 0.46992 38.207 0.314923C38.4754 0.159927 38.7719 0.0595627 39.0793 0.0196073C39.3867 -0.0203481 39.6989 0.000895256 39.9981 0.0821142C40.2973 0.163333 40.5774 0.302923 40.8224 0.492848C41.0674 0.682774 41.2724 0.919282 41.4256 1.18876C45.9587 9.052 48.347 17.968 48.3514 27.0444C48.34 36.0956 45.9518 44.9852 41.4256 52.8236C41.2192 53.1814 40.9222 53.4786 40.5645 53.6852C40.2067 53.8917 39.8008 54.0003 39.3877 54Z" fill="url(#paint6_linear_2707_3950)" fill-opacity="0.2"/>
<path d="M43.8003 27.0446V27.0443C43.7955 18.7669 41.6176 10.6359 37.4845 3.46437L37.4845 3.46436L37.4839 3.4634C37.3371 3.21305 37.2413 2.93614 37.202 2.64861C37.1627 2.36108 37.1807 2.06862 37.2548 1.78806C37.329 1.50749 37.458 1.24437 37.6342 1.01384C37.8105 0.783314 38.0306 0.589931 38.282 0.444826C38.5333 0.299722 38.8108 0.205762 39.0986 0.168356C39.3864 0.13095 39.6787 0.150838 39.9588 0.226874C40.2389 0.30291 40.5011 0.433592 40.7305 0.611397C40.9598 0.789201 41.1518 1.01062 41.2952 1.2629L41.2956 1.26367C45.8156 9.1041 48.197 17.9942 48.2014 27.0442C48.19 36.0692 45.8087 44.933 41.2957 52.7486L41.2956 52.7486C41.1025 53.0837 40.8244 53.3619 40.4895 53.5552C40.1545 53.7486 39.7745 53.8503 39.3878 53.85C39.0018 53.8496 38.6226 53.7476 38.2884 53.5543C37.9542 53.361 37.6767 53.0832 37.4838 52.7488C37.291 52.4143 37.1895 52.035 37.1896 51.6489C37.1897 51.2628 37.2914 50.8836 37.4844 50.5492C41.6109 43.4023 43.7888 35.2972 43.8003 27.0446Z" stroke="url(#paint7_linear_2707_3950)" stroke-opacity="0.1" stroke-width="0.3"/>
</g>
</g>
<defs>
<filter id="filter0_bi_2707_3950" x="20.583" y="-0.504883" width="22.0146" height="55.0869" filterUnits="userSpaceOnUse" color-interpolation-filters="sRGB">
<feFlood flood-opacity="0" result="BackgroundImageFix"/>
<feGaussianBlur in="BackgroundImageFix" stdDeviation="3"/>
<feComposite in2="SourceAlpha" operator="in" result="effect1_backgroundBlur_2707_3950"/>
<feBlend mode="normal" in="SourceGraphic" in2="effect1_backgroundBlur_2707_3950" result="shape"/>
<feColorMatrix in="SourceAlpha" type="matrix" values="0 0 0 0 0 0 0 0 0 0 0 0 0 0 0 0 0 0 127 0" result="hardAlpha"/>
<feOffset dy="1"/>
<feGaussianBlur stdDeviation="1.5"/>
<feComposite in2="hardAlpha" operator="arithmetic" k2="-1" k3="1"/>
<feColorMatrix type="matrix" values="0 0 0 0 1 0 0 0 0 1 0 0 0 0 1 0 0 0 0.4 0"/>
<feBlend mode="normal" in2="shape" result="effect2_innerShadow_2707_3950"/>
</filter>
<filter id="filter1_bi_2707_3950" x="31.0317" y="-6" width="23.3198" height="66" filterUnits="userSpaceOnUse" color-interpolation-filters="sRGB">
<feFlood flood-opacity="0" result="BackgroundImageFix"/>
<feGaussianBlur in="BackgroundImageFix" stdDeviation="3"/>
<feComposite in2="SourceAlpha" operator="in" result="effect1_backgroundBlur_2707_3950"/>
<feBlend mode="normal" in="SourceGraphic" in2="effect1_backgroundBlur_2707_3950" result="shape"/>
<feColorMatrix in="SourceAlpha" type="matrix" values="0 0 0 0 0 0 0 0 0 0 0 0 0 0 0 0 0 0 127 0" result="hardAlpha"/>
<feOffset dy="1"/>
<feGaussianBlur stdDeviation="1.5"/>
<feComposite in2="hardAlpha" operator="arithmetic" k2="-1" k3="1"/>
<feColorMatrix type="matrix" values="0 0 0 0 1 0 0 0 0 1 0 0 0 0 1 0 0 0 0.4 0"/>
<feBlend mode="normal" in2="shape" result="effect2_innerShadow_2707_3950"/>
</filter>
<linearGradient id="paint0_linear_2707_3950" x1="5.64941" y1="16.3652" x2="14.9116" y2="17.185" gradientUnits="userSpaceOnUse">
<stop stop-color="#ABD6FF"/>
<stop offset="0.703125" stop-color="#187399"/>
</linearGradient>
<linearGradient id="paint1_linear_2707_3950" x1="16.1499" y1="10.9473" x2="27.0022" y2="11.691" gradientUnits="userSpaceOnUse">
<stop stop-color="#ABD6FF"/>
<stop offset="0.703125" stop-color="#187399"/>
</linearGradient>
<linearGradient id="paint2_linear_2707_3950" x1="26.5825" y1="5.49512" x2="39.0965" y2="6.23366" gradientUnits="userSpaceOnUse">
<stop stop-color="#75A5FF"/>
<stop offset="0.703125" stop-color="#2339FF"/>
</linearGradient>
<linearGradient id="paint3_linear_2707_3950" x1="37.0327" y1="0" x2="51.1865" y2="0.753364" gradientUnits="userSpaceOnUse">
<stop stop-color="#75A5FF"/>
<stop offset="0.703125" stop-color="#2339FF"/>
</linearGradient>
<linearGradient id="paint4_linear_2707_3950" x1="26.583" y1="5.49512" x2="39.0969" y2="6.23366" gradientUnits="userSpaceOnUse">
<stop stop-color="#ABD6FF"/>
<stop offset="0.703125" stop-color="#187399"/>
</linearGradient>
<linearGradient id="paint5_linear_2707_3950" x1="26.896" y1="7.45363" x2="36.5976" y2="7.45363" gradientUnits="userSpaceOnUse">
<stop stop-color="#3CDEB6"/>
<stop offset="0.65625" stop-color="#364AFF"/>
</linearGradient>
<linearGradient id="paint6_linear_2707_3950" x1="37.0317" y1="0" x2="51.1855" y2="0.753364" gradientUnits="userSpaceOnUse">
<stop stop-color="#83E9FF"/>
<stop offset="0.453125" stop-color="#85A0FF"/>
</linearGradient>
<linearGradient id="paint7_linear_2707_3950" x1="37.3855" y1="2.45455" x2="48.3514" y2="2.45455" gradientUnits="userSpaceOnUse">
<stop stop-color="#3CDEB6"/>
<stop offset="0.65625" stop-color="#364AFF"/>
</linearGradient>
<clipPath id="clip0_2707_3950">
<rect width="54" height="54" fill="white"/>
</clipPath>
</defs>
</svg>
