<svg width="56" height="56" viewBox="0 0 56 56" fill="none" xmlns="http://www.w3.org/2000/svg">
<rect x="12.3867" y="11.1523" width="31.2266" height="33.6943" fill="url(#paint0_linear_2707_3972)"/>
<g filter="url(#filter0_bi_2707_3972)">
<path d="M49.6374 0H6.36478C5.68969 0 5.04224 0.26818 4.56488 0.745544C4.08752 1.22291 3.81934 1.87035 3.81934 2.54545V54.7271C3.8193 54.9575 3.88182 55.1836 4.00022 55.3813C4.11862 55.5789 4.28847 55.7408 4.49163 55.8495C4.6948 55.9582 4.92366 56.0097 5.15381 55.9985C5.38395 55.9873 5.60675 55.9139 5.79842 55.786L12.7284 51.1635L19.6584 55.7834C19.8675 55.923 20.1133 55.9975 20.3647 55.9975C20.6162 55.9975 20.8619 55.923 21.0711 55.7834L28.0011 51.1635L34.931 55.7834C35.1402 55.923 35.386 55.9975 35.6374 55.9975C35.8888 55.9975 36.1346 55.923 36.3438 55.7834L43.2737 51.1635L50.2037 55.7834C50.3952 55.9112 50.6178 55.9846 50.8477 55.9959C51.0776 56.0072 51.3063 55.9559 51.5094 55.8475C51.7125 55.7391 51.8824 55.5777 52.0009 55.3804C52.1195 55.1831 52.1824 54.9573 52.1828 54.7271V2.54545C52.1828 1.87035 51.9146 1.22291 51.4373 0.745544C50.9599 0.26818 50.3125 0 49.6374 0Z" fill="url(#paint1_linear_2707_3972)" fill-opacity="0.2"/>
<path d="M12.8116 51.0387L12.7284 50.9832L12.6452 51.0387L5.71518 55.6612L5.79842 55.786L5.71517 55.6612C5.54609 55.774 5.34955 55.8388 5.14653 55.8487C4.94351 55.8585 4.74162 55.8131 4.5624 55.7172C4.38318 55.6213 4.23335 55.4786 4.1289 55.3042C4.02446 55.1298 3.96931 54.9304 3.96934 54.7271V2.54545C3.96934 1.91013 4.22171 1.30084 4.67095 0.85161C5.12018 0.402377 5.72947 0.15 6.36478 0.15H49.6374C50.2727 0.15 50.882 0.402377 51.3312 0.85161C51.7804 1.30084 52.0328 1.91013 52.0328 2.54545V54.7268C52.0324 54.9299 51.977 55.129 51.8724 55.3031C51.7678 55.4771 51.6179 55.6196 51.4388 55.7152C51.2596 55.8108 51.0579 55.8561 50.855 55.8461C50.6522 55.8361 50.4559 55.7714 50.287 55.6587L50.2869 55.6586L43.3569 51.0387L43.2737 50.9832L43.1905 51.0387L36.2606 55.6586L36.2605 55.6587C36.076 55.7818 35.8592 55.8475 35.6374 55.8475C35.4156 55.8475 35.1988 55.7818 35.0143 55.6587L35.0142 55.6586L28.0843 51.0387L28.0011 50.9832L27.9179 51.0387L20.9879 55.6586L20.9878 55.6587C20.8033 55.7818 20.5865 55.8475 20.3647 55.8475C20.1429 55.8475 19.9261 55.7818 19.7416 55.6587L19.7416 55.6586L12.8116 51.0387Z" stroke="url(#paint2_linear_2707_3972)" stroke-opacity="0.1" stroke-width="0.3"/>
</g>
<g filter="url(#filter1_i_2707_3972)">
<path d="M30.5454 39.4546H15.2727C14.9352 39.4546 14.6115 39.3205 14.3728 39.0819C14.1341 38.8432 14 38.5195 14 38.1819C14 37.8444 14.1341 37.5206 14.3728 37.282C14.6115 37.0433 14.9352 36.9092 15.2727 36.9092H30.5454C30.8829 36.9092 31.2067 37.0433 31.4454 37.282C31.684 37.5206 31.8181 37.8444 31.8181 38.1819C31.8181 38.5195 31.684 38.8432 31.4454 39.0819C31.2067 39.3205 30.8829 39.4546 30.5454 39.4546Z" fill="white" fill-opacity="0.16"/>
</g>
<g filter="url(#filter2_i_2707_3972)">
<path d="M40.7273 39.4546H38.1819C37.8444 39.4546 37.5206 39.3205 37.282 39.0819C37.0433 38.8432 36.9092 38.5195 36.9092 38.1819C36.9092 37.8444 37.0433 37.5206 37.282 37.282C37.5206 37.0433 37.8444 36.9092 38.1819 36.9092H40.7273C41.0649 36.9092 41.3886 37.0433 41.6273 37.282C41.866 37.5206 42.0001 37.8444 42.0001 38.1819C42.0001 38.5195 41.866 38.8432 41.6273 39.0819C41.3886 39.3205 41.0649 39.4546 40.7273 39.4546Z" fill="white" fill-opacity="0.16"/>
</g>
<g filter="url(#filter3_i_2707_3972)">
<path d="M30.5454 31.8179H15.2727C14.9352 31.8179 14.6115 31.6838 14.3728 31.4451C14.1341 31.2065 14 30.8827 14 30.5452C14 30.2076 14.1341 29.8839 14.3728 29.6452C14.6115 29.4066 14.9352 29.2725 15.2727 29.2725H30.5454C30.8829 29.2725 31.2067 29.4066 31.4454 29.6452C31.684 29.8839 31.8181 30.2076 31.8181 30.5452C31.8181 30.8827 31.684 31.2065 31.4454 31.4451C31.2067 31.6838 30.8829 31.8179 30.5454 31.8179Z" fill="white" fill-opacity="0.16"/>
</g>
<g filter="url(#filter4_i_2707_3972)">
<path d="M40.7273 31.8179H38.1819C37.8444 31.8179 37.5206 31.6838 37.282 31.4451C37.0433 31.2065 36.9092 30.8827 36.9092 30.5452C36.9092 30.2076 37.0433 29.8839 37.282 29.6452C37.5206 29.4066 37.8444 29.2725 38.1819 29.2725H40.7273C41.0649 29.2725 41.3886 29.4066 41.6273 29.6452C41.866 29.8839 42.0001 30.2076 42.0001 30.5452C42.0001 30.8827 41.866 31.2065 41.6273 31.4451C41.3886 31.6838 41.0649 31.8179 40.7273 31.8179Z" fill="white" fill-opacity="0.16"/>
</g>
<g filter="url(#filter5_i_2707_3972)">
<path d="M28.0006 22.9094C32.218 22.9094 35.6369 19.4905 35.6369 15.2731C35.6369 11.0556 32.218 7.63672 28.0006 7.63672C23.7832 7.63672 20.3643 11.0556 20.3643 15.2731C20.3643 19.4905 23.7832 22.9094 28.0006 22.9094Z" fill="white" fill-opacity="0.16"/>
</g>
<defs>
<filter id="filter0_bi_2707_3972" x="-2.18066" y="-6" width="60.3633" height="68" filterUnits="userSpaceOnUse" color-interpolation-filters="sRGB">
<feFlood flood-opacity="0" result="BackgroundImageFix"/>
<feGaussianBlur in="BackgroundImageFix" stdDeviation="3"/>
<feComposite in2="SourceAlpha" operator="in" result="effect1_backgroundBlur_2707_3972"/>
<feBlend mode="normal" in="SourceGraphic" in2="effect1_backgroundBlur_2707_3972" result="shape"/>
<feColorMatrix in="SourceAlpha" type="matrix" values="0 0 0 0 0 0 0 0 0 0 0 0 0 0 0 0 0 0 127 0" result="hardAlpha"/>
<feOffset dy="2"/>
<feGaussianBlur stdDeviation="1.5"/>
<feComposite in2="hardAlpha" operator="arithmetic" k2="-1" k3="1"/>
<feColorMatrix type="matrix" values="0 0 0 0 1 0 0 0 0 1 0 0 0 0 1 0 0 0 0.4 0"/>
<feBlend mode="normal" in2="shape" result="effect2_innerShadow_2707_3972"/>
</filter>
<filter id="filter1_i_2707_3972" x="14" y="36.9092" width="17.8184" height="4.5459" filterUnits="userSpaceOnUse" color-interpolation-filters="sRGB">
<feFlood flood-opacity="0" result="BackgroundImageFix"/>
<feBlend mode="normal" in="SourceGraphic" in2="BackgroundImageFix" result="shape"/>
<feColorMatrix in="SourceAlpha" type="matrix" values="0 0 0 0 0 0 0 0 0 0 0 0 0 0 0 0 0 0 127 0" result="hardAlpha"/>
<feOffset dy="2"/>
<feGaussianBlur stdDeviation="1"/>
<feComposite in2="hardAlpha" operator="arithmetic" k2="-1" k3="1"/>
<feColorMatrix type="matrix" values="0 0 0 0 1 0 0 0 0 1 0 0 0 0 1 0 0 0 0.4 0"/>
<feBlend mode="normal" in2="shape" result="effect1_innerShadow_2707_3972"/>
</filter>
<filter id="filter2_i_2707_3972" x="36.9092" y="36.9092" width="5.09082" height="4.5459" filterUnits="userSpaceOnUse" color-interpolation-filters="sRGB">
<feFlood flood-opacity="0" result="BackgroundImageFix"/>
<feBlend mode="normal" in="SourceGraphic" in2="BackgroundImageFix" result="shape"/>
<feColorMatrix in="SourceAlpha" type="matrix" values="0 0 0 0 0 0 0 0 0 0 0 0 0 0 0 0 0 0 127 0" result="hardAlpha"/>
<feOffset dy="2"/>
<feGaussianBlur stdDeviation="1"/>
<feComposite in2="hardAlpha" operator="arithmetic" k2="-1" k3="1"/>
<feColorMatrix type="matrix" values="0 0 0 0 1 0 0 0 0 1 0 0 0 0 1 0 0 0 0.4 0"/>
<feBlend mode="normal" in2="shape" result="effect1_innerShadow_2707_3972"/>
</filter>
<filter id="filter3_i_2707_3972" x="14" y="29.2725" width="17.8184" height="4.5459" filterUnits="userSpaceOnUse" color-interpolation-filters="sRGB">
<feFlood flood-opacity="0" result="BackgroundImageFix"/>
<feBlend mode="normal" in="SourceGraphic" in2="BackgroundImageFix" result="shape"/>
<feColorMatrix in="SourceAlpha" type="matrix" values="0 0 0 0 0 0 0 0 0 0 0 0 0 0 0 0 0 0 127 0" result="hardAlpha"/>
<feOffset dy="2"/>
<feGaussianBlur stdDeviation="1"/>
<feComposite in2="hardAlpha" operator="arithmetic" k2="-1" k3="1"/>
<feColorMatrix type="matrix" values="0 0 0 0 1 0 0 0 0 1 0 0 0 0 1 0 0 0 0.4 0"/>
<feBlend mode="normal" in2="shape" result="effect1_innerShadow_2707_3972"/>
</filter>
<filter id="filter4_i_2707_3972" x="36.9092" y="29.2725" width="5.09082" height="4.5459" filterUnits="userSpaceOnUse" color-interpolation-filters="sRGB">
<feFlood flood-opacity="0" result="BackgroundImageFix"/>
<feBlend mode="normal" in="SourceGraphic" in2="BackgroundImageFix" result="shape"/>
<feColorMatrix in="SourceAlpha" type="matrix" values="0 0 0 0 0 0 0 0 0 0 0 0 0 0 0 0 0 0 127 0" result="hardAlpha"/>
<feOffset dy="2"/>
<feGaussianBlur stdDeviation="1"/>
<feComposite in2="hardAlpha" operator="arithmetic" k2="-1" k3="1"/>
<feColorMatrix type="matrix" values="0 0 0 0 1 0 0 0 0 1 0 0 0 0 1 0 0 0 0.4 0"/>
<feBlend mode="normal" in2="shape" result="effect1_innerShadow_2707_3972"/>
</filter>
<filter id="filter5_i_2707_3972" x="20.3643" y="7.63672" width="15.2725" height="17.2725" filterUnits="userSpaceOnUse" color-interpolation-filters="sRGB">
<feFlood flood-opacity="0" result="BackgroundImageFix"/>
<feBlend mode="normal" in="SourceGraphic" in2="BackgroundImageFix" result="shape"/>
<feColorMatrix in="SourceAlpha" type="matrix" values="0 0 0 0 0 0 0 0 0 0 0 0 0 0 0 0 0 0 127 0" result="hardAlpha"/>
<feOffset dy="2"/>
<feGaussianBlur stdDeviation="1"/>
<feComposite in2="hardAlpha" operator="arithmetic" k2="-1" k3="1"/>
<feColorMatrix type="matrix" values="0 0 0 0 1 0 0 0 0 1 0 0 0 0 1 0 0 0 0.4 0"/>
<feBlend mode="normal" in2="shape" result="effect1_innerShadow_2707_3972"/>
</filter>
<linearGradient id="paint0_linear_2707_3972" x1="12.3867" y1="11.1523" x2="49.4878" y2="19.883" gradientUnits="userSpaceOnUse">
<stop stop-color="#ABD6FF"/>
<stop offset="0.703125" stop-color="#187399"/>
</linearGradient>
<linearGradient id="paint1_linear_2707_3972" x1="3.81934" y1="0" x2="61.6807" y2="12.6886" gradientUnits="userSpaceOnUse">
<stop stop-color="#83E9FF"/>
<stop offset="0.453125" stop-color="#85A0FF"/>
</linearGradient>
<linearGradient id="paint2_linear_2707_3972" x1="5.33069" y1="2.54546" x2="52.1828" y2="2.54546" gradientUnits="userSpaceOnUse">
<stop stop-color="#3CDEB6"/>
<stop offset="0.65625" stop-color="#364AFF"/>
</linearGradient>
</defs>
</svg>
