<svg width="60" height="60" viewBox="0 0 60 60" fill="none" xmlns="http://www.w3.org/2000/svg">
<g id="Icon/Gra" clip-path="url(#clip0_2707_11729)">
<path id="Vector" d="M30.001 34.6548L16.1608 26.6643V14.1952C16.1608 9.58742 19.9101 5.83808 24.5179 5.83808C26.5843 5.83808 28.5438 6.62474 30.0545 7.96192L34.1587 5.59282C34.3465 5.48454 34.5409 5.39844 34.7327 5.29929C32.1783 2.37835 28.4668 0.621094 24.5179 0.621094C17.0336 0.621094 10.9438 6.71084 10.9438 14.1965V29.6779L24.7827 37.6697L30.001 34.6548Z" fill="url(#paint0_linear_2707_11729)"/>
<g id="Vector_2" filter="url(#filter0_bi_2707_11729)">
<path d="M25.9668 32.3277V16.3454L36.7661 10.1121C40.7568 7.80823 45.8772 9.17933 48.1824 13.17C49.2156 14.9599 49.5144 17.0498 49.1112 19.0263L53.2154 21.3954C53.4033 21.5036 53.5755 21.6289 53.7568 21.745C55.0092 18.0726 54.6752 13.9789 52.7014 10.5596C48.9586 4.07715 40.6407 1.84894 34.1569 5.59176L20.7485 13.3318V29.3141L25.9668 32.3277Z" fill="url(#paint1_linear_2707_11729)" fill-opacity="0.2"/>
<path d="M53.6762 21.5123C54.8421 17.9272 54.49 13.9581 52.5715 10.6346C48.8701 4.22391 40.6439 2.02025 34.2319 5.72167L20.8985 13.4184V29.2275L25.8168 32.0678V16.3454V16.2587L25.8918 16.2155L36.6911 9.9822C36.6911 9.9822 36.6911 9.98219 36.6911 9.98219C40.7535 7.63692 45.9657 9.03258 48.3123 13.095L48.3123 13.095C49.3462 14.886 49.6574 16.9708 49.2792 18.95L53.2903 21.2654L53.6762 21.5123ZM53.6762 21.5123C53.6692 21.5076 53.6622 21.5028 53.6551 21.4981C53.5376 21.4194 53.4149 21.3372 53.2904 21.2655L53.6762 21.5123Z" stroke="url(#paint2_linear_2707_11729)" stroke-opacity="0.1" stroke-width="0.3"/>
</g>
<path id="Vector_3" d="M25.9681 27.6706L39.8083 19.6788L50.6062 25.9147C54.5969 28.2185 55.9693 33.339 53.6655 37.3297C52.6322 39.1195 50.9715 40.4228 49.0577 41.0621V45.8003C49.0577 46.0181 49.0355 46.2295 49.0251 46.4447C52.8305 45.6933 56.2107 43.3568 58.1845 39.9388C61.9273 33.4564 59.6978 25.1384 53.2154 21.3956L39.8083 13.6543L25.9668 21.6448L25.9681 27.6706Z" fill="url(#paint3_linear_2707_11729)"/>
<g id="Vector_4" filter="url(#filter1_bi_2707_11729)">
<path d="M30.0002 25.3427L43.8404 33.3332V45.8036C43.8404 50.4113 40.0911 54.1607 35.4834 54.1607C33.4169 54.1607 31.4574 53.374 29.9468 52.0368L25.8426 54.4059C25.6547 54.5142 25.4603 54.6003 25.2686 54.6994C27.8229 57.6204 31.5344 59.3776 35.4834 59.3776C42.9677 59.3776 49.0574 53.2879 49.0574 45.8023V30.3209L35.2185 22.3291L30.0002 25.3427Z" fill="url(#paint4_linear_2707_11729)" fill-opacity="0.2"/>
<path d="M43.9904 33.3332V33.2466L43.9154 33.2033L30.3002 25.3426L35.2185 22.5023L48.9074 30.4075V45.8023C48.9074 53.2051 42.8848 59.2276 35.4834 59.2276C31.6451 59.2276 28.0324 57.5484 25.5105 54.7461C25.5188 54.7421 25.5271 54.738 25.5354 54.7339C25.6619 54.6719 25.7937 54.6072 25.9175 54.5359L25.9176 54.5358L29.9288 52.2204C31.4543 53.5374 33.4156 54.3107 35.4834 54.3107C40.1739 54.3107 43.9904 50.4942 43.9904 45.8036V33.3332Z" stroke="url(#paint5_linear_2707_11729)" stroke-opacity="0.1" stroke-width="0.3"/>
</g>
<path id="Vector_5" d="M34.0322 27.6709V43.6519L23.2329 49.8852C19.2422 52.189 14.1218 50.8179 11.8166 46.8272C10.7834 45.0374 10.4847 42.9474 10.8878 40.971L6.78359 38.6019C6.59573 38.4936 6.42353 38.3684 6.2422 38.2523C4.98981 41.9247 5.32378 46.0184 7.29759 49.4377C11.0404 55.9201 19.3583 58.1483 25.8421 54.4055L39.2505 46.6655V30.6832L34.0322 27.6709Z" fill="url(#paint6_linear_2707_11729)"/>
<g id="Vector_6" filter="url(#filter2_bi_2707_11729)">
<path d="M34.0324 32.3278L20.1922 40.3196L9.3943 34.0838C5.40361 31.7799 4.0312 26.6594 6.33507 22.6688C7.3683 20.8789 9.02902 19.5756 10.9428 18.9364V14.1982C10.9428 13.9803 10.965 13.769 10.9754 13.5537C7.17 14.3051 3.78985 16.6416 1.81604 20.0596C-1.92678 26.542 0.302733 34.86 6.78515 38.6028L20.1922 46.3441L34.0337 38.3536L34.0324 32.3278Z" fill="url(#paint7_linear_2707_11729)" fill-opacity="0.2"/>
<path d="M20.1172 40.4495L20.1922 40.4928L20.2672 40.4495L33.8825 32.5876L33.8837 38.267L20.1922 46.1709L6.86016 38.4729L6.78515 38.6028L6.86015 38.4729C0.449466 34.7715 -1.75544 26.5453 1.94593 20.1346C3.86436 16.8126 7.12734 14.5227 10.8138 13.7399C10.8134 13.7463 10.813 13.7526 10.8126 13.7589C10.8029 13.902 10.7928 14.0512 10.7928 14.1982V18.829C8.88911 19.4912 7.23905 20.8027 6.20517 22.5938C3.85987 26.6562 5.25687 31.8684 9.3193 34.2137L20.1172 40.4495Z" stroke="url(#paint8_linear_2707_11729)" stroke-opacity="0.1" stroke-width="0.3"/>
</g>
</g>
<defs>
<filter id="filter0_bi_2707_11729" x="14.7485" y="-2.22461" width="45.7466" height="40.5527" filterUnits="userSpaceOnUse" color-interpolation-filters="sRGB">
<feFlood flood-opacity="0" result="BackgroundImageFix"/>
<feGaussianBlur in="BackgroundImageFix" stdDeviation="3"/>
<feComposite in2="SourceAlpha" operator="in" result="effect1_backgroundBlur_2707_11729"/>
<feBlend mode="normal" in="SourceGraphic" in2="effect1_backgroundBlur_2707_11729" result="shape"/>
<feColorMatrix in="SourceAlpha" type="matrix" values="0 0 0 0 0 0 0 0 0 0 0 0 0 0 0 0 0 0 127 0" result="hardAlpha"/>
<feOffset dy="1"/>
<feGaussianBlur stdDeviation="1.5"/>
<feComposite in2="hardAlpha" operator="arithmetic" k2="-1" k3="1"/>
<feColorMatrix type="matrix" values="0 0 0 0 1 0 0 0 0 1 0 0 0 0 1 0 0 0 0.4 0"/>
<feBlend mode="normal" in2="shape" result="effect2_innerShadow_2707_11729"/>
</filter>
<filter id="filter1_bi_2707_11729" x="19.2686" y="16.3291" width="35.7891" height="49.0488" filterUnits="userSpaceOnUse" color-interpolation-filters="sRGB">
<feFlood flood-opacity="0" result="BackgroundImageFix"/>
<feGaussianBlur in="BackgroundImageFix" stdDeviation="3"/>
<feComposite in2="SourceAlpha" operator="in" result="effect1_backgroundBlur_2707_11729"/>
<feBlend mode="normal" in="SourceGraphic" in2="effect1_backgroundBlur_2707_11729" result="shape"/>
<feColorMatrix in="SourceAlpha" type="matrix" values="0 0 0 0 0 0 0 0 0 0 0 0 0 0 0 0 0 0 127 0" result="hardAlpha"/>
<feOffset dy="1"/>
<feGaussianBlur stdDeviation="1.5"/>
<feComposite in2="hardAlpha" operator="arithmetic" k2="-1" k3="1"/>
<feColorMatrix type="matrix" values="0 0 0 0 1 0 0 0 0 1 0 0 0 0 1 0 0 0 0.4 0"/>
<feBlend mode="normal" in2="shape" result="effect2_innerShadow_2707_11729"/>
</filter>
<filter id="filter2_bi_2707_11729" x="-6" y="7.55371" width="46.0337" height="44.79" filterUnits="userSpaceOnUse" color-interpolation-filters="sRGB">
<feFlood flood-opacity="0" result="BackgroundImageFix"/>
<feGaussianBlur in="BackgroundImageFix" stdDeviation="3"/>
<feComposite in2="SourceAlpha" operator="in" result="effect1_backgroundBlur_2707_11729"/>
<feBlend mode="normal" in="SourceGraphic" in2="effect1_backgroundBlur_2707_11729" result="shape"/>
<feColorMatrix in="SourceAlpha" type="matrix" values="0 0 0 0 0 0 0 0 0 0 0 0 0 0 0 0 0 0 127 0" result="hardAlpha"/>
<feOffset dy="1"/>
<feGaussianBlur stdDeviation="1.5"/>
<feComposite in2="hardAlpha" operator="arithmetic" k2="-1" k3="1"/>
<feColorMatrix type="matrix" values="0 0 0 0 1 0 0 0 0 1 0 0 0 0 1 0 0 0 0.4 0"/>
<feBlend mode="normal" in2="shape" result="effect2_innerShadow_2707_11729"/>
</filter>
<linearGradient id="paint0_linear_2707_11729" x1="10.9438" y1="0.621094" x2="40.0007" y2="5.35854" gradientUnits="userSpaceOnUse">
<stop stop-color="#ABD6FF"/>
<stop offset="0.703125" stop-color="#187399"/>
</linearGradient>
<linearGradient id="paint1_linear_2707_11729" x1="20.7485" y1="3.77539" x2="59.5677" y2="15.4255" gradientUnits="userSpaceOnUse">
<stop stop-color="#83E9FF"/>
<stop offset="0.453125" stop-color="#85A0FF"/>
</linearGradient>
<linearGradient id="paint2_linear_2707_11729" x1="21.8031" y1="5.07322" x2="54.4951" y2="5.07322" gradientUnits="userSpaceOnUse">
<stop stop-color="#3CDEB6"/>
<stop offset="0.65625" stop-color="#364AFF"/>
</linearGradient>
<linearGradient id="paint3_linear_2707_11729" x1="25.9668" y1="13.6543" x2="65.8707" y2="24.1708" gradientUnits="userSpaceOnUse">
<stop stop-color="#ABD6FF"/>
<stop offset="0.703125" stop-color="#187399"/>
</linearGradient>
<linearGradient id="paint4_linear_2707_11729" x1="25.2686" y1="22.3291" x2="54.3255" y2="27.0666" gradientUnits="userSpaceOnUse">
<stop stop-color="#83E9FF"/>
<stop offset="0.453125" stop-color="#85A0FF"/>
</linearGradient>
<linearGradient id="paint5_linear_2707_11729" x1="26.012" y1="24.0131" x2="49.0574" y2="24.0131" gradientUnits="userSpaceOnUse">
<stop stop-color="#3CDEB6"/>
<stop offset="0.65625" stop-color="#364AFF"/>
</linearGradient>
<linearGradient id="paint6_linear_2707_11729" x1="5.50391" y1="27.6709" x2="44.3227" y2="39.3214" gradientUnits="userSpaceOnUse">
<stop stop-color="#ABD6FF"/>
<stop offset="0.703125" stop-color="#187399"/>
</linearGradient>
<linearGradient id="paint7_linear_2707_11729" x1="0" y1="13.5537" x2="39.9039" y2="24.0702" gradientUnits="userSpaceOnUse">
<stop stop-color="#83E9FF"/>
<stop offset="0.453125" stop-color="#85A0FF"/>
</linearGradient>
<linearGradient id="paint8_linear_2707_11729" x1="1.06355" y1="15.0442" x2="34.0337" y2="15.0442" gradientUnits="userSpaceOnUse">
<stop stop-color="#3CDEB6"/>
<stop offset="0.65625" stop-color="#364AFF"/>
</linearGradient>
<clipPath id="clip0_2707_11729">
<rect width="60" height="60" fill="white"/>
</clipPath>
</defs>
</svg>
