<svg width="60" height="60" viewBox="0 0 60 60" fill="none" xmlns="http://www.w3.org/2000/svg">
<path d="M20.627 15.666C19.1684 16.3163 17.6137 17.3846 16.1859 18.7914C14.7581 20.1981 13.6738 21.7286 13.0137 23.1669" stroke="url(#paint0_linear_5347_134154)" stroke-width="2" stroke-linecap="round" stroke-linejoin="round"/>
<path d="M13.0156 28.1669C14.4601 29.59 17.6182 28.8828 20.6418 26.6465" stroke="url(#paint1_linear_5347_134154)" stroke-width="2" stroke-linecap="round" stroke-linejoin="round"/>
<path d="M25.7031 15.668C26.2414 16.1983 26.4837 16.9762 26.4478 17.8867" stroke="url(#paint2_linear_5347_134154)" stroke-width="2" stroke-linecap="round" stroke-linejoin="round"/>
<path d="M13.0138 28.1664L4.93515 20.2072C1.33868 16.6639 1.26306 10.9928 4.76597 7.54036C8.27016 4.08922 14.0263 4.16372 17.6241 7.70705L25.7027 15.6663" stroke="url(#paint3_linear_5347_134154)" stroke-width="2" stroke-linecap="round" stroke-linejoin="round"/>
<path d="M39.373 15.666C40.8316 16.3163 42.3863 17.3846 43.8142 18.7914C45.242 20.1981 46.3263 21.7286 46.9864 23.1669" stroke="url(#paint4_linear_5347_134154)" stroke-width="2" stroke-linecap="round" stroke-linejoin="round"/>
<path d="M39.9863 27.0889C42.8125 28.9717 45.6387 29.4932 46.9845 28.1673" stroke="url(#paint5_linear_5347_134154)" stroke-width="2" stroke-linecap="round" stroke-linejoin="round"/>
<path d="M34.2955 15.668C33.8469 16.1099 33.6046 16.7022 33.5508 17.4005" stroke="url(#paint6_linear_5347_134154)" stroke-width="2" stroke-linecap="round" stroke-linejoin="round"/>
<path d="M46.9877 28.1664L55.0663 20.2072C58.6641 16.6626 58.7397 10.9915 55.2355 7.54036C51.7313 4.08922 45.9752 4.16372 42.3774 7.70705L34.2988 15.6663" stroke="url(#paint7_linear_5347_134154)" stroke-width="2" stroke-linecap="round" stroke-linejoin="round"/>
<path d="M22.8217 23.5631C23.8128 23.5631 24.6161 22.7716 24.6161 21.7952C24.6161 20.8188 23.8128 20.0273 22.8217 20.0273C21.8307 20.0273 21.0273 20.8188 21.0273 21.7952C21.0273 22.7716 21.8307 23.5631 22.8217 23.5631Z" stroke="url(#paint8_linear_5347_134154)" stroke-width="2" stroke-linecap="round" stroke-linejoin="round"/>
<path d="M26.8128 36.0013C27.968 34.4145 27.5988 32.2056 25.9882 31.0674C24.3776 29.9293 22.1355 30.293 20.9803 31.8798C19.8251 33.4666 20.1943 35.6756 21.8049 36.8137C23.4155 37.9518 25.6576 37.5881 26.8128 36.0013Z" stroke="url(#paint9_linear_5347_134154)" stroke-width="2" stroke-linecap="round" stroke-linejoin="round"/>
<path d="M34.0386 27.0977C35.7729 27.0977 37.1788 25.7126 37.1788 24.0039C37.1788 22.2953 35.7729 20.9102 34.0386 20.9102C32.3043 20.9102 30.8984 22.2953 30.8984 24.0039C30.8984 25.7126 32.3043 27.0977 34.0386 27.0977Z" stroke="url(#paint10_linear_5347_134154)" stroke-width="2" stroke-linecap="round" stroke-linejoin="round"/>
<path d="M35.5014 39.8551C36.4924 39.8551 37.2958 39.0636 37.2958 38.0872C37.2958 37.1108 36.4924 36.3193 35.5014 36.3193C34.5104 36.3193 33.707 37.1108 33.707 38.0872C33.707 39.0636 34.5104 39.8551 35.5014 39.8551Z" stroke="url(#paint11_linear_5347_134154)" stroke-width="2" stroke-linecap="round" stroke-linejoin="round"/>
<rect x="9.10352" y="45" width="42" height="12" rx="2" fill="url(#paint12_linear_5347_134154)"/>
<path d="M21.5435 54V48.28H22.7195L24.6235 51.472C24.8075 51.784 25.0235 52.272 25.0235 52.272H25.0395C25.0395 52.272 25.0075 51.68 25.0075 51.28V48.28H26.1515V54H25.0315L23.0795 50.84C22.8955 50.536 22.6715 50.048 22.6715 50.048H22.6555C22.6555 50.048 22.6875 50.648 22.6875 51.048V54H21.5435ZM27.0279 54V48.28H31.2359V49.256H28.1879V50.536H30.8599V51.488H28.1879V53.032H31.2599V54H27.0279ZM33.245 54L31.581 48.28H32.765L33.509 51.12C33.621 51.608 33.757 52.368 33.757 52.368H33.773C33.773 52.368 33.917 51.656 34.037 51.152L34.661 48.28H35.781L36.405 51.144C36.525 51.648 36.669 52.368 36.669 52.368H36.685C36.685 52.368 36.853 51.608 36.965 51.112L37.685 48.28H38.829L37.197 54H36.117L35.421 50.936C35.325 50.52 35.221 49.92 35.221 49.92H35.205C35.205 49.92 35.117 50.52 35.021 50.936L34.317 54H33.245Z" fill="white"/>
<defs>
<linearGradient id="paint0_linear_5347_134154" x1="20.627" y1="22.3632" x2="15.0164" y2="15.5837" gradientUnits="userSpaceOnUse">
<stop stop-color="#49B1B5"/>
<stop offset="1" stop-color="#7AE3EA"/>
</linearGradient>
<linearGradient id="paint1_linear_5347_134154" x1="20.6418" y1="28.6622" x2="19.8367" y2="25.4244" gradientUnits="userSpaceOnUse">
<stop stop-color="#49B1B5"/>
<stop offset="1" stop-color="#7AE3EA"/>
</linearGradient>
<linearGradient id="paint2_linear_5347_134154" x1="26.4513" y1="17.6489" x2="25.2832" y2="17.18" gradientUnits="userSpaceOnUse">
<stop stop-color="#49B1B5"/>
<stop offset="1" stop-color="#7AE3EA"/>
</linearGradient>
<linearGradient id="paint3_linear_5347_134154" x1="25.7027" y1="25.6843" x2="8.37451" y2="4.74494" gradientUnits="userSpaceOnUse">
<stop stop-color="#49B1B5"/>
<stop offset="1" stop-color="#7AE3EA"/>
</linearGradient>
<linearGradient id="paint4_linear_5347_134154" x1="46.9864" y1="22.3632" x2="41.3758" y2="15.5837" gradientUnits="userSpaceOnUse">
<stop stop-color="#49B1B5"/>
<stop offset="1" stop-color="#7AE3EA"/>
</linearGradient>
<linearGradient id="paint5_linear_5347_134154" x1="46.9845" y1="28.7106" x2="46.4088" y2="26.0701" gradientUnits="userSpaceOnUse">
<stop stop-color="#49B1B5"/>
<stop offset="1" stop-color="#7AE3EA"/>
</linearGradient>
<linearGradient id="paint6_linear_5347_134154" x1="34.2955" y1="17.2149" x2="33.2255" y2="16.6674" gradientUnits="userSpaceOnUse">
<stop stop-color="#49B1B5"/>
<stop offset="1" stop-color="#7AE3EA"/>
</linearGradient>
<linearGradient id="paint7_linear_5347_134154" x1="57.815" y1="25.6843" x2="40.4869" y2="4.74425" gradientUnits="userSpaceOnUse">
<stop stop-color="#49B1B5"/>
<stop offset="1" stop-color="#7AE3EA"/>
</linearGradient>
<linearGradient id="paint8_linear_5347_134154" x1="24.6161" y1="23.1843" x2="21.9714" y2="19.9886" gradientUnits="userSpaceOnUse">
<stop stop-color="#49B1B5"/>
<stop offset="1" stop-color="#7AE3EA"/>
</linearGradient>
<linearGradient id="paint9_linear_5347_134154" x1="28.2795" y1="32.6866" x2="19.936" y2="33.3353" gradientUnits="userSpaceOnUse">
<stop stop-color="#49B1B5"/>
<stop offset="1" stop-color="#7AE3EA"/>
</linearGradient>
<linearGradient id="paint10_linear_5347_134154" x1="37.1788" y1="26.4348" x2="32.5505" y2="20.8423" gradientUnits="userSpaceOnUse">
<stop stop-color="#49B1B5"/>
<stop offset="1" stop-color="#7AE3EA"/>
</linearGradient>
<linearGradient id="paint11_linear_5347_134154" x1="37.2958" y1="39.4763" x2="34.6511" y2="36.2805" gradientUnits="userSpaceOnUse">
<stop stop-color="#49B1B5"/>
<stop offset="1" stop-color="#7AE3EA"/>
</linearGradient>
<linearGradient id="paint12_linear_5347_134154" x1="51.1035" y1="55.7143" x2="46.9566" y2="38.4353" gradientUnits="userSpaceOnUse">
<stop stop-color="#49B1B5"/>
<stop offset="1" stop-color="#7AE3EA"/>
</linearGradient>
</defs>
</svg>
