<svg width="80" height="80" viewBox="0 0 80 80" fill="none" xmlns="http://www.w3.org/2000/svg">
<path d="M71.915 43.306C71.3075 43.2835 70.7085 43.3564 70.1292 43.5163L66.9957 37.6149C67.4506 37.2334 67.8518 36.7846 68.1796 36.2713C69.8862 33.5814 69.0725 30.0136 66.3627 28.3195C63.653 26.6253 60.0588 27.4331 58.3522 30.123C58.0385 30.6167 57.8068 31.1412 57.6571 31.6881L50.1608 31.3992C49.7228 28.7542 47.4567 26.6814 44.6537 26.5749C44.0462 26.5524 43.4472 26.6253 42.8679 26.7852L39.7344 20.8837C40.1893 20.5023 40.5905 20.0535 40.9183 19.5402C42.6249 16.8503 41.8112 13.2825 39.1014 11.5884C37.7875 10.7665 36.2335 10.5029 34.7189 10.8423C33.2044 11.1845 31.916 12.0876 31.0881 13.3919C30.7744 13.8828 30.5427 14.4101 30.393 14.957L23.6483 14.6962C23.5437 14.1464 23.3572 13.6023 23.0803 13.0834C22.357 11.7202 21.142 10.7189 19.6614 10.2617C18.1779 9.80447 16.6069 9.95033 15.2337 10.6684C12.3996 12.1494 11.3089 15.6442 12.8008 18.4575C13.0806 18.9848 13.4338 19.4505 13.8378 19.8487L10.2437 25.5118C9.69833 25.3211 9.12191 25.2089 8.52854 25.1864C6.97729 25.1275 5.49668 25.6689 4.35797 26.7151C3.2249 27.7557 2.56372 29.1806 2.50438 30.7177C2.44504 32.2575 2.99038 33.7273 4.04433 34.8577C5.09827 35.988 6.53367 36.6444 8.0821 36.7033C8.15839 36.7061 8.2375 36.7089 8.31379 36.7089C8.83935 36.7089 9.35361 36.636 9.84809 36.5013L12.9845 42.4084C12.5409 42.7814 12.1453 43.2246 11.8175 43.7379C10.1109 46.4278 10.9246 49.9956 13.6344 51.6897C14.5951 52.29 15.6632 52.5761 16.7228 52.5761C18.6526 52.5761 20.543 51.6224 21.6478 49.8862C21.9727 49.3757 22.2072 48.8288 22.357 48.2594L29.0762 48.5174C29.1808 49.0952 29.3729 49.659 29.6555 50.1919C30.6953 52.1497 32.7156 53.2689 34.8037 53.2689C35.5129 53.2689 36.2306 53.1371 36.9201 52.8678L40.2458 59.1367C39.7965 59.5126 39.4038 59.9585 39.0788 60.4662C38.2509 61.7705 37.9853 63.3132 38.3272 64.8166C38.6691 66.32 39.5818 67.599 40.8957 68.4209C41.8564 69.0211 42.9245 69.3072 43.9841 69.3072C45.9139 69.3072 47.8043 68.3535 48.9091 66.6173C49.2368 66.1012 49.4714 65.5515 49.6183 64.9905L56.3375 65.2485C56.4421 65.8263 56.6342 66.3901 56.9168 66.923C57.9566 68.8809 59.9769 70 62.065 70C62.9777 70 63.9016 69.7868 64.7635 69.3352C66.1367 68.6172 67.1454 67.4111 67.606 65.9413C68.0666 64.4688 67.9196 62.9093 67.1963 61.5461C66.9137 61.0132 66.5577 60.5419 66.148 60.1408L69.7365 54.4862C70.279 54.6797 70.8611 54.7947 71.4658 54.8172C71.542 54.82 71.6212 54.8228 71.6974 54.8228C73.1639 54.8228 74.5541 54.2815 75.6363 53.2885C76.775 52.2423 77.4362 50.8174 77.4956 49.2804C77.6199 46.1024 75.1164 43.4182 71.915 43.2947V43.306ZM64.9867 30.482C66.4927 31.4245 66.9448 33.4075 65.9954 34.9025C65.5348 35.6262 64.82 36.1283 63.9779 36.319C63.1387 36.5069 62.2713 36.3611 61.5423 35.9039C60.8133 35.4467 60.3075 34.7371 60.1154 33.9012C59.926 33.0653 60.073 32.207 60.5335 31.4834C61.4829 29.9884 63.4806 29.5396 64.9838 30.482H64.9867ZM44.552 29.1329C46.3293 29.2002 47.7223 30.6924 47.6517 32.4595C47.6178 33.315 47.2504 34.106 46.6175 34.6866C45.9846 35.2672 45.1623 35.5701 44.3005 35.5364C42.5232 35.4691 41.1302 33.9769 41.2008 32.2099C41.2461 31.0823 41.8649 30.0809 42.8595 29.5312C43.3737 29.2479 43.9586 29.1077 44.552 29.1329ZM35.2897 13.3358C35.5299 13.2825 35.7701 13.2545 36.0102 13.2545C36.6121 13.2545 37.2026 13.4228 37.7254 13.7481C39.2314 14.6906 39.6835 16.6736 38.7341 18.1686C38.2735 18.8923 37.5587 19.3944 36.7166 19.5851C35.8746 19.7758 35.01 19.6272 34.281 19.17C33.552 18.7128 33.0462 18.0031 32.8541 17.1673C32.6647 16.3314 32.8117 15.4731 33.2722 14.7495C33.7328 14.0258 34.4477 13.5237 35.2897 13.333V13.3358ZM16.4402 12.9291C16.9121 12.6823 17.4235 12.5589 17.9406 12.5589C18.2627 12.5589 18.5848 12.6065 18.9013 12.7047C19.7235 12.9572 20.3988 13.5153 20.8001 14.2726C21.6308 15.835 21.0233 17.7759 19.4494 18.6006C17.8756 19.4252 15.9203 18.8222 15.0896 17.2598C14.2588 15.6975 14.8663 13.7565 16.4402 12.9319V12.9291ZM8.18382 34.1452C7.32201 34.1116 6.52519 33.7469 5.9403 33.1186C5.3554 32.4903 5.05024 31.6741 5.08414 30.8186C5.11805 29.9631 5.48538 29.1722 6.11831 28.5916C6.72016 28.039 7.49155 27.7389 8.30814 27.7389C8.35053 27.7389 8.39291 27.7389 8.43529 27.7389C9.2971 27.7725 10.0939 28.1372 10.6788 28.7655C11.2637 29.3938 11.5689 30.21 11.535 31.0655C11.5011 31.9209 11.1337 32.7119 10.5008 33.2925C9.86787 33.8731 9.04845 34.1761 8.18382 34.1424V34.1452ZM12.1199 35.2868C12.1651 35.2475 12.2103 35.2139 12.2527 35.1746C13.3914 34.1284 14.0526 32.7035 14.1119 31.1664C14.1712 29.6266 13.6259 28.1568 12.572 27.0264C12.5239 26.9759 12.4731 26.9311 12.425 26.8834L16.0305 21.2063C16.6465 21.4195 17.2963 21.5317 17.9547 21.5317C18.8674 21.5317 19.7913 21.3185 20.6532 20.8669C22.1422 20.0872 23.151 18.752 23.555 17.2514L30.3025 17.5123C30.3167 17.588 30.3251 17.6609 30.3421 17.7367C30.684 19.2401 31.5967 20.5191 32.9106 21.3381C33.8487 21.9244 34.9139 22.2273 35.9961 22.2273C36.4284 22.2273 36.8607 22.1796 37.2931 22.0814C37.3439 22.0702 37.3891 22.0534 37.44 22.0422L40.599 27.9969C39.4094 29.0291 38.6889 30.4961 38.6267 32.1089C38.5617 33.7638 39.2116 35.2868 40.3023 36.3807L36.694 42.0662C36.6347 42.0466 36.5782 42.0213 36.516 42.0017C35.0354 41.5445 33.4616 41.6903 32.0883 42.4084C30.7151 43.1264 29.7063 44.3325 29.2458 45.8023C29.2288 45.8556 29.2203 45.9089 29.2034 45.9622L22.4276 45.7013C22.4163 45.648 22.4107 45.5919 22.3994 45.5386C22.0575 44.0352 21.1448 42.7562 19.8309 41.9372C18.4238 41.0564 16.7764 40.8517 15.2789 41.236L12.1199 35.2868ZM15.0104 49.5272C13.5044 48.5847 13.0523 46.6017 14.0017 45.1095C14.9511 43.6145 16.9488 43.1657 18.452 44.1082C19.181 44.5653 19.6868 45.275 19.8789 46.1108C20.0683 46.9467 19.9213 47.805 19.4607 48.5286C18.5114 50.0236 16.5137 50.4724 15.0104 49.53V49.5272ZM31.9357 49.0055C31.5345 48.2482 31.4526 47.3814 31.7097 46.5624C31.964 45.7462 32.5263 45.0758 33.2892 44.6775C33.7611 44.4307 34.2725 44.3073 34.7896 44.3073C35.1117 44.3073 35.4338 44.355 35.7503 44.4532C36.5725 44.7056 37.2478 45.2638 37.6491 46.0211C38.4798 47.5834 37.8723 49.5244 36.2984 50.349C34.7246 51.1736 32.7693 50.5706 31.9386 49.0083L31.9357 49.0055ZM46.722 65.2598C45.7727 66.7548 43.775 67.2035 42.2717 66.2611C41.5427 65.8039 41.037 65.0943 40.8448 64.2584C40.6555 63.4226 40.8024 62.5643 41.263 61.8406C41.7236 61.1169 42.4385 60.6149 43.2805 60.4241C43.5207 60.3708 43.7608 60.3428 44.001 60.3428C44.6029 60.3428 45.1934 60.5111 45.7161 60.8365C47.2222 61.7789 47.6743 63.7619 46.7249 65.2541L46.722 65.2598ZM65.1364 65.1952C64.8821 66.0115 64.3198 66.6818 63.5569 67.0801C61.9831 67.9048 60.0249 67.3017 59.197 65.7394C58.7958 64.9821 58.7139 64.1154 58.971 63.2963C59.2281 62.4773 59.7876 61.8097 60.5505 61.4115C61.028 61.1618 61.5423 61.044 62.0509 61.044C63.2122 61.044 64.334 61.6667 64.9132 62.755C65.3144 63.5123 65.3964 64.379 65.1393 65.198L65.1364 65.1952ZM59.344 59.1423C57.9707 59.8604 56.962 61.0665 56.5014 62.5362C56.4845 62.5895 56.476 62.6428 56.459 62.6961L49.6833 62.4352C49.3838 60.9318 48.4909 59.549 47.0866 58.6711C45.7727 57.8493 44.2186 57.5856 42.7041 57.925C42.6475 57.939 42.591 57.9558 42.5345 57.9727L39.0562 51.4205C40.6725 49.6758 41.102 47.0393 39.9265 44.8234C39.6468 44.2961 39.2936 43.8249 38.8782 43.4182L42.4667 37.7635C43.0092 37.9571 43.5913 38.0721 44.196 38.0945C44.2723 38.0973 44.3486 38.1001 44.4277 38.1001C45.8942 38.1001 47.2843 37.5588 48.3665 36.5658C49.1492 35.845 49.7002 34.9446 49.9913 33.9545L57.5554 34.2462C57.5695 34.3219 57.578 34.3949 57.5949 34.4706C57.9368 35.974 58.8495 37.253 60.1634 38.0749C61.1015 38.6611 62.1667 38.964 63.2489 38.964C63.6812 38.964 64.1136 38.9163 64.5459 38.8181C64.5967 38.8069 64.6419 38.7901 64.6928 38.7761L67.8518 44.7308C66.6622 45.763 65.9417 47.23 65.8796 48.8428C65.8146 50.4977 66.4645 52.0207 67.5551 53.1146L63.9469 58.7973C62.4804 58.2952 60.8189 58.3682 59.3411 59.1395L59.344 59.1423ZM73.8816 51.4177C73.2487 51.9983 72.4236 52.3012 71.5646 52.2676C69.7873 52.2002 68.3943 50.708 68.465 48.941C68.5102 47.8134 69.129 46.8121 70.1236 46.2623C70.6379 45.979 71.2228 45.8388 71.8161 45.864C73.5934 45.9313 74.9864 47.4235 74.9158 49.1906C74.8819 50.0461 74.5146 50.8371 73.8816 51.4177Z" fill="url(#paint0_linear_3683_60654)"/>
<defs>
<linearGradient id="paint0_linear_3683_60654" x1="77.5" y1="63.5714" x2="35.2003" y2="0.625413" gradientUnits="userSpaceOnUse">
<stop stop-color="#49B1B5"/>
<stop offset="1" stop-color="#7AE3EA"/>
</linearGradient>
</defs>
</svg>
