<svg width="32" height="32" viewBox="0 0 32 32" fill="none" xmlns="http://www.w3.org/2000/svg">
<rect width="32" height="32" rx="16" fill="url(#paint0_linear_560_10639)"/>
<path d="M11.3814 16.648C11.1147 16.648 10.736 16.5413 10.2454 16.328C9.69071 16.0827 9.34404 15.96 9.20538 15.96C8.90671 15.96 8.74671 16.1787 8.72538 16.616H7.68538C7.70671 16.0507 7.84538 15.6027 8.10138 15.272C8.35738 14.9307 8.69871 14.76 9.12538 14.76C9.47738 14.76 9.88804 14.8827 10.3574 15.128C10.784 15.3413 11.0774 15.448 11.2374 15.448C11.5787 15.448 11.76 15.2293 11.7814 14.792H12.8214C12.7787 16.0293 12.2987 16.648 11.3814 16.648ZM16.7855 15.096V14.072H24.0495V15.096H16.7855ZM16.7855 17.896V16.872H24.0495V17.896H16.7855Z" fill="white"/>
<defs>
<linearGradient id="paint0_linear_560_10639" x1="32" y1="28.5714" x2="8" y2="-4.25747e-07" gradientUnits="userSpaceOnUse">
<stop stop-color="#49B1B5"/>
<stop offset="1" stop-color="#7AE3EA"/>
</linearGradient>
</defs>
</svg>
