<svg width="696" height="612" viewBox="0 0 696 612" fill="none" xmlns="http://www.w3.org/2000/svg">
<path opacity="0.5" d="M350.665 611.5L350.651 611.486H350.444C314.501 611.486 279.074 606.364 244.62 596.149C188.524 579.523 130.933 548.111 86.6145 509.95C50.3623 478.741 6.35283 428.557 2.12611 366.591C-1.90999 307.343 5.86406 258.311 25.8758 216.676C42.9576 181.144 66.1583 157.069 86.6216 137.266L86.6217 137.266C131.767 93.5437 180.903 49.543 234.538 23.4936L234.32 23.0439L234.538 23.4936C297.109 -6.90225 354.104 -7.14504 408.876 22.6665C435.74 37.2917 496.334 79.9449 553.721 127.679C582.41 151.542 610.286 176.666 632.734 200.179C655.196 223.707 672.178 245.576 679.139 262.933C703.599 323.913 699.75 393.623 668.864 449.387C643.236 495.665 601.057 533.295 539.841 564.422C494.672 587.391 447.603 602.157 399.924 608.296C383.423 610.418 366.994 611.491 350.665 611.5ZM325.885 4.09274V4.06332H325.385C296.711 4.06332 267.079 11.6086 236.064 26.6627L236.064 26.6627C182.859 52.5022 133.952 96.3344 89.0638 139.8L89.4116 140.159L89.0638 139.8C66.6615 161.497 43.6496 186.594 27.3207 222.049C10.9902 257.507 1.36004 303.289 5.6559 366.343C9.79644 427.18 53.2715 476.577 88.9277 507.284C132.895 545.136 190.01 576.287 245.639 592.782C339.618 620.642 443.538 609.433 538.231 561.274C598.727 530.498 640.464 493.347 665.756 447.68C696.134 392.818 699.907 324.254 675.84 264.251C669.98 249.635 656.079 230.529 635.208 208.03C614.327 185.52 586.432 159.575 552.538 131.28L552.217 131.664L552.538 131.28C493.57 82.0613 433.638 40.1912 407.161 25.7851C380.761 11.4082 353.779 4.1781 325.885 4.09274Z" fill="#709CB7" stroke="#F4F9FF"/>
</svg>
