<svg width="643" height="610" viewBox="0 0 643 610" fill="none" xmlns="http://www.w3.org/2000/svg">
<path opacity="0.5" d="M118.877 119.209L118.897 119.209L119.043 119.062C144.293 93.4826 172.827 71.869 204.301 54.5257C255.543 26.2853 318.356 7.36752 376.649 2.63718C424.327 -1.23673 490.959 2.69885 538.027 43.224C583.026 81.9744 612.459 121.954 628.03 165.444C641.316 202.563 642.15 235.987 641.867 264.462L641.867 264.462C641.267 327.306 638.061 393.186 618.919 449.656L619.393 449.817L618.919 449.656C596.593 515.539 556.726 556.271 497.031 574.306C467.75 583.15 394.827 596.307 320.541 603.613C283.403 607.265 245.941 609.453 213.436 608.91C180.913 608.366 153.419 605.088 136.177 597.848C75.596 572.415 28.6901 520.703 10.7035 459.547C-4.22593 408.797 -1.3739 352.344 19.4798 286.911C34.8666 238.63 57.4245 194.76 86.5521 156.516C96.6336 143.282 107.412 130.836 118.877 119.209ZM568.553 528.294L568.573 528.314L568.925 527.958C589.069 507.553 604.516 481.164 615.592 448.516L615.592 448.516C634.581 392.499 637.746 326.901 638.348 264.42L637.848 264.415L638.348 264.42C638.645 233.234 636.952 199.227 623.191 162.698C609.43 126.166 583.614 87.1499 535.723 45.9096C489.519 6.11686 423.823 2.35373 376.921 6.15646C319.095 10.8538 256.802 29.6161 205.982 57.6172C120.132 104.925 55.103 186.755 22.8515 287.978C2.25329 352.65 -0.628966 408.453 14.1022 458.534C31.8036 518.694 77.947 569.548 137.556 594.574C152.074 600.672 175.437 604.202 206.111 605.155C236.8 606.108 274.861 604.484 318.809 600.241L318.761 599.743L318.809 600.241C395.263 592.853 467.164 579.617 496.016 570.895C524.795 562.207 548.895 548.085 568.553 528.294Z" fill="url(#paint0_linear_2893_51090)" stroke="#F4F9FF"/>
<defs>
<linearGradient id="paint0_linear_2893_51090" x1="543.902" y1="551.325" x2="112.249" y2="125.211" gradientUnits="userSpaceOnUse">
<stop stop-color="#73B4CA"/>
<stop offset="0.0001" stop-color="#1C5372"/>
<stop offset="0.0002" stop-color="#73B4CA"/>
<stop offset="0.32" stop-color="#75B3CA"/>
<stop offset="0.755" stop-color="#A9D0E1"/>
<stop offset="1" stop-color="#DDF2F8"/>
</linearGradient>
</defs>
</svg>
