<svg width="617" height="690" viewBox="0 0 617 690" fill="none" xmlns="http://www.w3.org/2000/svg">
<path opacity="0.5" d="M10.2071 289.727L10.2242 289.716L10.2688 289.514C18.0082 254.414 30.6382 220.921 48.0325 189.475C76.3482 138.275 119.424 88.7985 166.233 53.7368C204.516 25.0551 262.999 -7.11608 324.422 2.09939C383.148 10.9155 429.357 29.0652 465.706 57.5726C496.726 81.9046 515.24 109.745 530.172 133.992L530.172 133.993C563.148 187.493 595.536 244.952 609.426 302.937L609.912 302.821L609.426 302.937C625.635 370.585 613.6 426.295 572.694 473.363C552.627 496.449 497.927 546.437 438.956 592.199C409.475 615.077 378.938 636.889 351.143 653.747C323.33 670.616 298.318 682.491 279.869 685.551C215.052 696.307 147.806 677.538 100.001 635.369C60.3271 600.377 32.662 551.084 15.4464 484.602C2.74263 435.547 -1.54237 386.403 2.73005 338.52C4.21004 321.95 6.69978 305.675 10.2071 289.727ZM608.702 396.319L608.731 396.325L608.838 395.837C615.013 367.836 614.025 337.274 606.002 303.745L606.002 303.745C592.226 246.224 559.952 189.026 527.172 135.832L526.747 136.094L527.172 135.832C510.808 109.283 491.255 81.4068 460.148 57.8267C429.038 34.2442 386.403 14.9818 323.903 5.5996C263.602 -3.45676 206.002 28.362 168.338 56.5698C121.906 91.3552 79.1883 140.423 51.1017 191.195C3.65848 276.97 -7.77192 380.866 18.8678 483.708C35.8949 549.411 63.1878 598.169 102.337 632.701C149.371 674.179 215.514 692.628 279.292 682.046C294.827 679.471 316.477 670.01 342.943 654.473C369.421 638.929 400.764 617.275 435.694 590.268L435.388 589.872L435.694 590.268C496.455 543.281 550.248 493.771 570.018 471.018C589.742 448.332 602.612 423.54 608.702 396.319Z" fill="url(#paint0_linear_2893_51091)" stroke="#F4F9FF"/>
<defs>
<linearGradient id="paint0_linear_2893_51091" x1="600.113" y1="428.943" x2="7.79634" y2="298.338" gradientUnits="userSpaceOnUse">
<stop stop-color="#73B4CA"/>
<stop offset="0.0001" stop-color="#1C5372"/>
<stop offset="0.0002" stop-color="#73B4CA"/>
<stop offset="0.32" stop-color="#75B3CA"/>
<stop offset="0.755" stop-color="#A9D0E1"/>
<stop offset="1" stop-color="#DDF2F8"/>
</linearGradient>
</defs>
</svg>
