<svg width="608" height="643" viewBox="0 0 608 643" fill="none" xmlns="http://www.w3.org/2000/svg">
<path opacity="0.5" d="M116.892 522.84V522.82L116.746 522.674C91.3303 497.258 69.9013 468.586 52.7617 437C24.8527 385.577 6.341 322.643 1.98719 264.321C-1.57875 216.619 2.78705 150.014 43.6153 103.209C82.6555 58.4604 122.824 29.2862 166.414 13.9965C203.618 0.950156 237.047 0.33201 265.519 0.79921L265.519 0.799204C328.358 1.80531 394.216 5.43663 450.561 24.9425L450.725 24.47L450.561 24.9425C516.299 47.6937 556.772 87.8233 574.422 147.633C583.076 176.971 595.762 249.977 602.588 324.309C606 361.469 607.946 398.945 607.193 431.445C606.439 463.965 602.984 491.436 595.633 508.632C569.809 569.047 517.795 615.618 456.524 633.209C405.679 647.811 349.245 644.594 283.949 623.318C235.768 607.62 192.044 584.779 153.99 555.405C140.821 545.239 128.445 534.38 116.892 522.84ZM528.872 75.816L528.893 75.7952L528.539 75.4416C508.264 55.1665 481.976 39.5488 449.4 28.2624L449.4 28.2624C393.506 8.91188 327.93 5.32365 265.455 4.31754L265.447 4.81749L265.455 4.31754C234.271 3.81923 200.253 5.29338 163.637 18.8173C127.017 32.3426 87.8346 57.9058 46.2859 105.53C6.19568 151.476 2.00839 217.146 5.50816 264.072C9.83196 321.927 28.1916 384.34 55.8639 435.34C102.616 521.493 184.025 587.049 285.037 619.954C349.575 640.969 405.358 644.212 455.533 629.804C515.807 612.492 566.957 566.678 592.368 507.231C598.559 492.753 602.24 469.414 603.391 438.747C604.543 408.064 603.164 369.994 599.205 326.019L598.707 326.063L599.205 326.018C592.311 249.519 579.539 177.534 571.004 148.626C562.502 119.792 548.536 95.6006 528.872 75.816Z" fill="url(#paint0_linear_2893_51092)" stroke="#F4F9FF"/>
<defs>
<linearGradient id="paint0_linear_2893_51092" x1="551.744" y1="100.615" x2="122.851" y2="529.507" gradientUnits="userSpaceOnUse">
<stop stop-color="#73B4CA"/>
<stop offset="0.0001" stop-color="#1C5372"/>
<stop offset="0.0002" stop-color="#73B4CA"/>
<stop offset="0.32" stop-color="#75B3CA"/>
<stop offset="0.755" stop-color="#A9D0E1"/>
<stop offset="1" stop-color="#DDF2F8"/>
</linearGradient>
</defs>
</svg>
