<svg width="489" height="515" viewBox="0 0 489 515" fill="none" xmlns="http://www.w3.org/2000/svg">
<g clip-path="url(#clip0_1958_27406)">
<path d="M73.1866 242.905C54.6629 237.152 38.6817 232.246 38.6817 220.074C38.6817 209.96 47.2171 204.692 63.0167 203.723C85.6567 202.33 110.415 219.529 110.415 219.529L124.338 193.73C124.338 193.73 99.2165 171.081 64.6511 171.687C45.8854 171.99 30.9333 177.016 19.1895 185.858C7.26417 194.821 0.908022 207.054 0.908022 221.164C0.908022 255.138 31.0543 264.585 57.6896 272.882C77.0002 278.938 93.7078 284.146 93.7078 297.772C93.7078 308.976 80.5113 317.575 62.9562 317.878C62.7746 317.878 62.5324 317.878 62.3508 317.878C42.0717 317.878 20.945 303.162 20.945 303.162L0 325.145C14.4678 340.648 35.9577 348.824 63.6221 348.824C103.636 348.824 131.542 327.083 131.542 295.955C131.542 261.012 99.2165 250.959 73.1866 242.966V242.905Z" fill="#006477"/>
<path d="M281.667 171.505C265.867 171.505 251.278 177.985 242.38 188.947C233.481 177.985 218.832 171.505 203.093 171.505C170.888 171.505 149.277 193.731 149.277 226.736V346.765H185.961V226.978C185.961 212.262 192.923 203.844 205.03 203.844C217.137 203.844 224.098 212.262 224.098 226.978V346.765H260.782V226.978C260.782 212.262 267.744 203.844 279.851 203.844C291.958 203.844 298.919 212.262 298.919 226.978V346.765H335.603V226.736C335.603 193.67 313.992 171.505 281.788 171.505H281.667Z" fill="#006477"/>
<path d="M375.558 346.705H479.799C483.492 336.531 486.579 326.054 488.94 315.274H401.043L400.559 173.867H363.875L364.359 335.077C364.359 342.587 368.294 346.705 375.498 346.705H375.558Z" fill="#006477"/>
<path d="M239.838 33.3079C290.748 32.8839 340.871 50.1435 380.763 81.8768C397.834 95.4421 414.421 113.61 425.922 129.961H465.088C415.994 46.3888 332.214 0 241.654 0H239.596C148.128 0.726717 62.5318 50.6279 16.3438 133.231H55.3282C97.7025 70.0071 166.107 33.9135 239.838 33.3079Z" fill="url(#paint0_linear_1958_27406)"/>
<path d="M243.471 481.692C192.561 482.116 112.534 463.282 57.3262 385.099C57.3262 385.16 18.1602 385.099 18.1602 385.099C63.7429 465.644 151.034 515 241.655 515H243.713C335.12 514.273 420.595 464.433 467.086 381.769C467.026 381.769 427.92 381.89 427.92 381.769C389.117 441.783 317.141 481.147 243.41 481.753L243.471 481.692Z" fill="url(#paint1_linear_1958_27406)"/>
</g>
<defs>
<linearGradient id="paint0_linear_1958_27406" x1="365.206" y1="249.809" x2="70.7038" y2="-44.5718" gradientUnits="userSpaceOnUse">
<stop offset="0.07" stop-color="white" stop-opacity="0"/>
<stop offset="0.18" stop-color="#B4D1D7" stop-opacity="0.29"/>
<stop offset="0.3" stop-color="#73AAB4" stop-opacity="0.55"/>
<stop offset="0.42" stop-color="#408B99" stop-opacity="0.75"/>
<stop offset="0.56" stop-color="#1C7586" stop-opacity="0.89"/>
<stop offset="0.7" stop-color="#06687A" stop-opacity="0.97"/>
<stop offset="0.88" stop-color="#006477"/>
</linearGradient>
<linearGradient id="paint1_linear_1958_27406" x1="118.103" y1="265.252" x2="412.605" y2="559.572" gradientUnits="userSpaceOnUse">
<stop offset="0.07" stop-color="white" stop-opacity="0"/>
<stop offset="0.18" stop-color="#B4D1D7" stop-opacity="0.29"/>
<stop offset="0.3" stop-color="#73AAB4" stop-opacity="0.55"/>
<stop offset="0.42" stop-color="#408B99" stop-opacity="0.75"/>
<stop offset="0.56" stop-color="#1C7586" stop-opacity="0.89"/>
<stop offset="0.7" stop-color="#06687A" stop-opacity="0.97"/>
<stop offset="0.88" stop-color="#006477"/>
</linearGradient>
<clipPath id="clip0_1958_27406">
<rect width="489" height="515" fill="white"/>
</clipPath>
</defs>
</svg>
