<svg width="120" height="24" viewBox="0 0 120 24" fill="none" xmlns="http://www.w3.org/2000/svg">
<g clip-path="url(#clip0_3962_10409)">
<path d="M18.263 2C18.263 2 19.0778 2.99435 18.9955 5.02398C18.9461 6.25976 18.1396 10.1922 12.2761 11.2438C8.44521 11.9313 5.60602 13.298 3.66797 18.6667C3.66797 18.6667 4.10825 14.9962 5.9064 13.1302C10.2269 8.64539 15.0206 11.4484 17.6499 6.44799C18.6745 4.49611 18.2589 2 18.2589 2" fill="white"/>
<mask id="mask0_3962_10409" style="mask-type:luminance" maskUnits="userSpaceOnUse" x="15" y="6" width="5" height="4">
<path d="M17.267 6.44336C16.8393 6.46002 16.424 6.63076 16.1042 6.95143C15.9298 7.12217 15.8011 7.32623 15.718 7.54279C15.5685 7.92592 15.5561 8.3507 15.6806 8.738C15.7637 8.9962 15.9049 9.23774 16.1042 9.43763C16.424 9.75414 16.8393 9.92488 17.267 9.94154C17.7446 9.96236 18.2264 9.79578 18.5877 9.43763C18.7912 9.23357 18.9282 8.99203 19.0113 8.738C19.1358 8.3507 19.1234 7.92592 18.9739 7.54279C18.8908 7.32623 18.7621 7.12217 18.5877 6.95143C18.2513 6.6141 17.7986 6.44336 17.346 6.44336C17.321 6.44336 17.292 6.44336 17.267 6.44336Z" fill="white"/>
</mask>
<g mask="url(#mask0_3962_10409)">
<mask id="mask1_3962_10409" style="mask-type:luminance" maskUnits="userSpaceOnUse" x="15" y="6" width="5" height="4">
<path d="M19.1303 6.43945H15.5547V9.96262H19.1303V6.43945Z" fill="white"/>
</mask>
<g mask="url(#mask1_3962_10409)">
<mask id="mask2_3962_10409" style="mask-type:luminance" maskUnits="userSpaceOnUse" x="15" y="6" width="5" height="4">
<path d="M19.1303 6.43555H15.5547V9.95871H19.1303V6.43555Z" fill="white"/>
</mask>
<g mask="url(#mask2_3962_10409)">
<rect x="15.5312" y="6.33496" width="3.78743" height="3.79802" fill="white"/>
</g>
</g>
</g>
<mask id="mask3_3962_10409" style="mask-type:luminance" maskUnits="userSpaceOnUse" x="5" y="10" width="5" height="5">
<path d="M7.54147 10.0703C7.03897 10.0911 6.54478 10.291 6.17102 10.67C5.96753 10.8741 5.81387 11.1156 5.7142 11.3696C5.53978 11.8194 5.52317 12.3233 5.66852 12.7814C5.76404 13.0854 5.93015 13.3728 6.16687 13.6101C6.54063 13.9891 7.03897 14.1848 7.53732 14.2057C8.10211 14.2306 8.67521 14.0308 9.09465 13.6101C9.33137 13.3728 9.49748 13.0854 9.593 12.7814C9.73835 12.3233 9.72174 11.8194 9.54732 11.3696C9.44765 11.1114 9.29399 10.8741 9.0905 10.67C8.69182 10.2702 8.16025 10.0703 7.62453 10.0703C7.59131 10.0703 7.56224 10.0703 7.53317 10.0703" fill="white"/>
</mask>
<g mask="url(#mask3_3962_10409)">
<mask id="mask4_3962_10409" style="mask-type:luminance" maskUnits="userSpaceOnUse" x="5" y="10" width="5" height="5">
<path d="M9.74277 10.0664H5.52344V14.2267H9.74277V10.0664Z" fill="white"/>
</mask>
<g mask="url(#mask4_3962_10409)">
<mask id="mask5_3962_10409" style="mask-type:luminance" maskUnits="userSpaceOnUse" x="5" y="10" width="5" height="5">
<path d="M9.74277 10.0654H5.52344V14.2258H9.74277V10.0654Z" fill="white"/>
</mask>
<g mask="url(#mask5_3962_10409)">
<rect x="5.36523" y="9.93164" width="4.38545" height="4.39771" fill="white"/>
</g>
</g>
</g>
<mask id="mask6_3962_10409" style="mask-type:luminance" maskUnits="userSpaceOnUse" x="3" y="14" width="4" height="3">
<path d="M4.88296 14.209C4.55488 14.2256 4.23096 14.3547 3.98594 14.6004C3.85304 14.7337 3.75338 14.892 3.68693 15.0585C3.5748 15.3501 3.56234 15.6791 3.65786 15.9789C3.72015 16.1788 3.83228 16.3662 3.98594 16.5203C4.23096 16.766 4.55488 16.8951 4.88296 16.9117C5.24841 16.9284 5.62633 16.7993 5.90042 16.5203C6.05407 16.3662 6.1662 16.1788 6.22849 15.9789C6.32401 15.6791 6.31155 15.3501 6.19942 15.0585C6.13298 14.892 6.03746 14.7337 5.90042 14.6004C5.63878 14.3381 5.28994 14.209 4.9411 14.209C4.92034 14.209 4.89957 14.209 4.88296 14.209Z" fill="white"/>
</mask>
<g mask="url(#mask6_3962_10409)">
<mask id="mask7_3962_10409" style="mask-type:luminance" maskUnits="userSpaceOnUse" x="3" y="14" width="4" height="3">
<path d="M6.32001 14.209H3.5625V16.9284H6.32001V14.209Z" fill="white"/>
</mask>
<g mask="url(#mask7_3962_10409)">
<mask id="mask8_3962_10409" style="mask-type:luminance" maskUnits="userSpaceOnUse" x="3" y="14" width="4" height="3">
<path d="M6.32001 14.21H3.5625V16.9294H6.32001V14.21Z" fill="white"/>
</mask>
<g mask="url(#mask8_3962_10409)">
<rect x="3.37109" y="14.1377" width="2.99008" height="2.79854" fill="white"/>
</g>
</g>
</g>
<mask id="mask9_3962_10409" style="mask-type:luminance" maskUnits="userSpaceOnUse" x="13" y="1" width="10" height="3">
<path d="M20.8094 1.82262C20.8551 1.82678 20.88 1.83095 20.88 1.83095C19.9248 1.79347 18.5128 1.69768 17.0178 1.91424C14.9414 2.21825 14.1938 3.0678 13.791 3.40513C14.4264 2.87624 16.0087 2.70133 17.375 2.98868C18.5378 3.23438 20.0286 3.63001 21.0046 2.92621C21.7604 2.38066 22.3335 1.50195 22.3335 1.50195C21.7313 1.75182 21.2496 1.82262 20.8094 1.81429" fill="white"/>
</mask>
<g mask="url(#mask9_3962_10409)">
<path d="M22.3337 1.51367H13.7871V3.64173H22.3337V1.51367Z" fill="white"/>
</g>
<mask id="mask10_3962_10409" style="mask-type:luminance" maskUnits="userSpaceOnUse" x="9" y="0" width="12" height="11">
<path d="M13.1445 0.767287C11.5166 1.00883 9.85541 2.17072 9.48996 3.89483C9.46919 3.99477 9.45258 4.09472 9.44012 4.19467C9.29893 5.24829 9.627 6.12283 10.4077 7.03069C10.4119 7.03486 10.4161 7.04319 10.4244 7.04735C10.4327 7.05984 10.441 7.06817 10.4534 7.08067C10.4825 7.11398 10.5116 7.1473 10.5406 7.18062C11.3131 8.03434 12.4759 8.9297 14.0124 10.0458C13.9709 10.0041 10.7068 6.67671 11.7034 5.32325C11.7034 5.32325 11.7076 5.31908 11.7118 5.31492C11.7201 5.30243 11.7325 5.28993 11.7408 5.2816C11.8986 5.1067 12.1561 5.10669 12.3554 5.23163C12.5714 5.36906 14.0332 6.42268 14.8929 6.95157C15.4037 7.26807 15.9228 6.58509 15.6362 6.1145C15.4037 5.7397 14.5482 5.09004 13.946 4.55282C13.3438 4.01143 13.5183 3.63246 13.7923 3.41174C14.1952 3.07442 14.9427 2.22486 17.0191 1.92085C18.5142 1.7043 19.9303 1.79592 20.8813 1.83756C20.8813 1.83756 20.8564 1.83756 20.8107 1.82923C20.4203 1.76677 18.4643 1.45859 17.8995 1.32117C16.8779 1.0713 15.466 0.708984 14.0997 0.708984C13.7757 0.708984 13.456 0.729807 13.1445 0.775616" fill="white"/>
</mask>
<g mask="url(#mask10_3962_10409)">
<path d="M16.058 -5.02098L4.70703 4.59473L14.1217 15.7706L25.4726 6.15492L16.058 -5.02098Z" fill="white"/>
</g>
<mask id="mask11_3962_10409" style="mask-type:luminance" maskUnits="userSpaceOnUse" x="0" y="19" width="13" height="4">
<path d="M1.9139 20.5991C1.60659 21.0447 1.09163 21.9942 0.962891 22.8354C0.975349 22.798 1.38233 21.5986 3.29266 21.1447C3.99865 20.9781 4.75447 21.0031 5.448 21.0905C5.76778 21.0905 8.80769 21.3695 9.64657 21.2571C10.5602 21.1322 11.5071 20.9864 12.1632 20.6283C12.2878 20.5658 12.3916 20.4992 12.4871 20.445C12.6283 20.3617 12.7363 20.2868 12.8194 20.216C12.0137 20.6991 10.257 20.5825 7.35833 19.3956C6.73955 19.1415 6.05848 19.0166 5.38986 19.0166C3.99034 19.0166 2.6282 19.5622 1.9139 20.5991Z" fill="white"/>
</mask>
<g mask="url(#mask11_3962_10409)">
<path d="M12.3398 16.6737L0.212891 19.1699L1.44209 25.1749L13.569 22.6786L12.3398 16.6737Z" fill="white"/>
</g>
<mask id="mask12_3962_10409" style="mask-type:luminance" maskUnits="userSpaceOnUse" x="5" y="3" width="14" height="19">
<path d="M9.89671 8.45779C10.6899 10.1402 11.7489 11.2105 12.2016 11.8144C12.6542 12.4182 13.8295 13.9299 13.7797 14.1965C13.7257 14.4588 12.106 13.6884 11.2049 13.4594C10.449 13.2678 9.92993 13.2178 9.75551 13.6509C9.54371 14.159 9.82611 14.4838 10.6733 14.817C11.5205 15.1543 14.0247 16.1205 14.2697 16.2746C14.5147 16.4286 14.6891 16.8992 14.6019 17.4573C14.5147 18.0195 14.2074 18.0528 13.2273 17.8571C12.6542 17.7405 8.63423 16.387 7.46727 16.0164C6.46228 15.6957 6.11759 16.9034 6.67823 17.2574C7.29285 17.6447 9.99223 18.6358 10.4573 18.7733C11.7115 19.1522 12.9283 19.4979 13.0404 19.7103C13.1152 19.8477 13.0986 19.9935 12.8245 20.2142C12.7373 20.2808 12.6293 20.3558 12.4923 20.4432C12.3967 20.5015 12.2929 20.564 12.1683 20.6265C11.508 20.9846 10.5653 21.1345 9.65169 21.2553C8.81281 21.3677 5.7729 21.0929 5.45312 21.0887C5.45312 21.0887 9.73059 22.0924 12.3511 21.9841C13.8212 21.9216 16.6161 21.526 17.7 19.0898C18.8711 16.4661 18.244 13.7509 15.6111 11.3896C15.0837 10.919 14.5438 10.4692 14.0164 10.0403C12.4798 8.92421 11.317 8.02885 10.5446 7.17512C10.5155 7.14181 10.4864 7.10849 10.4573 7.07518C10.449 7.06685 10.4407 7.05435 10.4283 7.04186C10.4241 7.03353 10.42 7.02937 10.4117 7.0252C9.63092 6.11318 9.30285 5.2428 9.44405 4.18918C9.45235 4.09756 9.46066 4.00594 9.48142 3.91016C9.29039 4.67226 8.99553 6.52546 9.90086 8.45363" fill="white"/>
</mask>
<g mask="url(#mask12_3962_10409)">
<path d="M18.3924 1.42871L2.09766 4.55762L5.92153 24.5832L22.2163 21.4543L18.3924 1.42871Z" fill="white"/>
</g>
<path fill-rule="evenodd" clip-rule="evenodd" d="M94.0953 5.11719V13.9805L94.1055 13.9754C94.1055 15.2023 94.5065 16.2612 95.329 17.147C96.192 18.0888 97.319 18.5877 98.705 18.6437C100.05 18.6946 101.177 18.2721 102.081 17.3608C102.944 16.5056 103.406 15.4365 103.477 14.1434C103.533 12.8859 103.117 11.7863 102.243 10.8546C101.416 9.95864 100.375 9.44446 99.1467 9.32737C98.3395 9.24082 97.4206 9.45464 96.3951 9.96882V11.7608C96.5118 11.6386 96.8063 11.4757 97.2733 11.267C97.8724 10.9921 98.3851 10.875 98.8167 10.9056C99.634 10.9717 100.309 11.2721 100.847 11.8066C101.38 12.3463 101.665 13.0081 101.71 13.7972C101.766 14.6626 101.507 15.4314 100.934 16.0983C100.36 16.7652 99.6594 17.0859 98.8268 17.0503C98.2582 17.0452 97.7353 16.8874 97.2683 16.5921C96.3139 15.9914 95.8316 14.9274 95.8316 13.3899V5.11719H94.0953ZM75.8344 14.3823H77.3168C78.124 14.3823 78.6977 14.5503 79.0276 14.8812C79.2713 15.1154 79.3932 15.5787 79.3932 16.271V18.5416H81.1852V15.8281C81.1852 14.9576 80.9873 14.3008 80.576 13.8528C80.1648 13.4049 79.6673 13.1147 79.0632 12.9823C79.2206 12.8856 79.3526 12.7685 79.4693 12.631C79.7282 12.4223 79.9567 12.1525 80.1547 11.8267L81.7742 9.26594H79.6673L78.5961 10.9409C78.4489 11.2565 78.1545 11.6434 77.7077 12.1016C77.3828 12.4478 76.9817 12.6209 76.4994 12.6209H75.7633V5.17285H73.8951V18.5467H75.8344V14.3823ZM29.5701 10.4223C28.3618 9.76553 27.7475 9.09353 27.7272 8.41135H27.7323C27.712 7.47462 28.5496 7.00117 30.2605 7.00117H34.0782V5.1888H29.8239C27.2043 5.1888 25.8437 6.26807 25.7422 8.41135C25.7016 9.44989 26.2854 10.4172 27.4988 11.2979C27.7221 11.4557 28.8593 12.1023 30.9103 13.2426C32.1592 13.935 32.7836 14.5561 32.7836 15.0906C32.7988 15.615 32.6364 16.0019 32.3013 16.2463C31.8292 16.6077 30.9661 16.7859 29.7071 16.7859H25.7879V18.583H30.3062C33.2202 18.583 34.6772 17.4681 34.6925 15.2434C34.6975 14.0877 34.1086 13.0899 32.9156 12.2397L29.5701 10.4223ZM38.3379 14.9888V9.26665L38.3328 9.26156H36.4747V13.6296C36.4747 14.4899 36.5102 15.1517 36.5915 15.6099C36.7691 16.5314 37.1296 17.2339 37.6779 17.7125C38.2363 18.2266 38.8506 18.5626 39.5207 18.7205V22.8034H41.3636V18.6696C42.1352 18.527 42.7749 18.1859 43.2876 17.6463C43.9578 16.9437 44.2928 16.1496 44.2928 15.2637V9.26665H42.4855V14.6834C42.4855 15.4572 42.3078 16.0477 41.9474 16.4601C41.592 16.8776 41.1097 17.0965 40.4955 17.1168C39.8964 17.1321 39.3837 16.9336 38.9674 16.5314C38.546 16.1292 38.3379 15.615 38.3379 14.9888ZM54.2986 13.2792V18.5483H52.4608V13.6814C52.4608 12.5207 52.1968 11.7214 51.6739 11.2989C51.415 11.0952 50.9632 10.9527 50.3184 10.8611C49.8057 10.7949 49.3082 10.9781 48.831 11.416C48.3182 11.8945 48.0593 12.5003 48.0593 13.2385V18.5483H46.2875V13.3403C46.2875 12.0523 46.714 11.024 47.577 10.24C48.3436 9.53742 49.2828 9.18615 50.3895 9.18615C51.1815 9.17597 51.9531 9.44579 52.7146 9.99051C53.7757 10.744 54.3037 11.8385 54.3037 13.2792H54.2986ZM58.4008 15.0958V11.0994H61.4316V9.2718H58.3703V7.00635H56.5783V15.4623C56.5783 16.1547 56.7966 16.7962 57.2332 17.3918C57.8018 18.1707 58.7866 18.5627 60.1929 18.5627H61.4976V16.7198H60.4619C59.6903 16.7198 59.1725 16.6027 58.9034 16.3685C58.5683 16.0783 58.4008 15.6558 58.4008 15.0958ZM71.6003 12.0378L65.4777 15.5963L64.6909 14.2167L69.2091 11.6509C68.7421 11.0909 68.0415 10.8211 67.1023 10.8414C66.29 10.8516 65.6097 11.1673 65.0615 11.7832C64.5132 12.3993 64.239 13.1222 64.239 13.9469C64.2492 14.7971 64.5538 15.5251 65.1579 16.1309C65.757 16.7316 66.4829 17.0371 67.3358 17.0371C68.0719 17.0269 68.7116 16.7723 69.2599 16.2836C69.864 15.7542 70.1838 15.0771 70.2143 14.2523L71.9556 14.4356C71.8338 15.7338 71.3109 16.7825 70.392 17.5716C69.468 18.3658 68.3765 18.7527 67.1023 18.7323C65.7874 18.712 64.6705 18.2131 63.7466 17.2458C62.8226 16.2785 62.3809 15.1382 62.4165 13.8145C62.452 12.5163 62.9343 11.4167 63.8735 10.5054C64.8127 9.59925 65.9194 9.14616 67.2038 9.14616C68.1989 9.14616 69.0771 9.41598 69.8488 9.95052C70.5849 10.4545 71.1687 11.1469 71.6053 12.0327L71.6003 12.0378ZM92.3185 13.9864V18.5683H90.5467V14.5923C90.5467 13.0243 90.0593 11.9348 89.0744 11.3188C88.5921 11.0184 88.0692 10.8606 87.4854 10.8504C86.6376 10.8148 85.9218 11.1406 85.338 11.8228C84.7491 12.505 84.4902 13.289 84.5409 14.1697C84.5866 14.9741 84.8811 15.6512 85.4294 16.201C85.9726 16.7457 86.663 17.0563 87.5057 17.1224C87.9423 17.153 88.4602 17.0308 89.0744 16.7508C89.5567 16.537 89.8562 16.3741 89.9781 16.2468V18.0795C88.9323 18.6039 87.9931 18.8228 87.1707 18.7363C85.9116 18.609 84.8557 18.0897 84.0079 17.1784C83.1093 16.2264 82.693 15.1064 82.7539 13.8235C82.8199 12.505 83.2921 11.4054 84.1754 10.5348C85.0994 9.60826 86.2518 9.17044 87.6225 9.22644C89.0389 9.28244 90.1913 9.79153 91.0696 10.7537C91.9072 11.6599 92.3235 12.7392 92.3235 13.9915L92.3185 13.9864ZM107.325 7.99598C107.543 7.81779 107.655 7.55816 107.665 7.22216L107.66 7.21707C107.665 6.89634 107.569 6.6367 107.351 6.44834C107.132 6.25998 106.878 6.16325 106.589 6.16325C106.3 6.16325 106.046 6.25489 105.838 6.43307C105.63 6.61125 105.513 6.86579 105.487 7.20179C105.467 7.52761 105.564 7.78216 105.787 7.97561C106.01 8.16907 106.269 8.2607 106.574 8.2607C106.863 8.2607 107.112 8.17416 107.325 7.99598ZM105.701 18.5494H107.579V9.2687H105.701V18.5494ZM119.174 13.8179C119.194 15.1466 118.722 16.3023 117.763 17.2746C116.793 18.247 115.646 18.7306 114.31 18.7154C113.026 18.7052 111.919 18.2419 110.995 17.3306C110.066 16.4194 109.589 15.3146 109.553 14.0165C109.528 12.6979 110 11.5525 110.955 10.5852C111.914 9.61791 113.062 9.13428 114.387 9.13428C115.681 9.14446 116.798 9.60264 117.727 10.5088C118.666 11.4201 119.148 12.5197 119.169 13.8179H119.174ZM114.473 10.7277C113.615 10.7074 112.879 11.0128 112.264 11.6441C111.65 12.2754 111.34 13.0339 111.34 13.9197C111.34 14.8056 111.635 15.5081 112.214 16.1241C112.798 16.7452 113.498 17.0608 114.321 17.071C115.184 17.0812 115.92 16.7656 116.524 16.1139C117.133 15.4674 117.433 14.7037 117.422 13.8332C117.397 13.0034 117.108 12.2856 116.544 11.6848C115.981 11.079 115.29 10.7634 114.478 10.7277H114.473Z" fill="white"/>
</g>
<defs>
<clipPath id="clip0_3962_10409">
<rect width="119.333" height="24" fill="white" transform="translate(0.333984)"/>
</clipPath>
</defs>
</svg>
