<svg width="130" height="26" viewBox="0 0 130 26" fill="none" xmlns="http://www.w3.org/2000/svg">
<path d="M19.4207 2.1665C19.4207 2.1665 20.3033 3.24372 20.2142 5.44248C20.1607 6.78124 19.287 11.0413 12.9348 12.1806C8.78472 12.9254 5.70893 14.406 3.60938 20.2221C3.60938 20.2221 4.08634 16.2457 6.03434 14.2242C10.7149 9.36567 15.9081 12.4023 18.7565 6.98516C19.8665 4.87063 19.4162 2.1665 19.4162 2.1665" fill="black"/>
<mask id="mask0_5224_37478" style="mask-type:luminance" maskUnits="userSpaceOnUse" x="16" y="6" width="5" height="5">
<path d="M18.3458 6.98047C17.8824 6.99851 17.4325 7.18349 17.0861 7.53088C16.8971 7.71585 16.7577 7.93692 16.6677 8.17152C16.5057 8.58658 16.4922 9.04675 16.6272 9.46633C16.7172 9.74604 16.8701 10.0077 17.0861 10.2243C17.4325 10.5671 17.8824 10.7521 18.3458 10.7702C18.8632 10.7927 19.385 10.6123 19.7764 10.2243C19.9969 10.0032 20.1454 9.74153 20.2353 9.46633C20.3703 9.04675 20.3568 8.58658 20.1949 8.17152C20.1049 7.93692 19.9654 7.71585 19.7764 7.53088C19.412 7.16544 18.9216 6.98047 18.4313 6.98047C18.4043 6.98047 18.3728 6.98047 18.3458 6.98047Z" fill="white"/>
</mask>
<g mask="url(#mask0_5224_37478)">
<mask id="mask1_5224_37478" style="mask-type:luminance" maskUnits="userSpaceOnUse" x="16" y="6" width="5" height="5">
<path d="M20.3658 6.97559H16.4922V10.7923H20.3658V6.97559Z" fill="white"/>
</mask>
<g mask="url(#mask1_5224_37478)">
<mask id="mask2_5224_37478" style="mask-type:luminance" maskUnits="userSpaceOnUse" x="16" y="6" width="5" height="5">
<path d="M20.3658 6.9707H16.4922V10.7875H20.3658V6.9707Z" fill="white"/>
</mask>
<g mask="url(#mask2_5224_37478)">
<rect x="16.4648" y="6.86182" width="4.10305" height="4.11452" fill="black"/>
</g>
</g>
</g>
<mask id="mask3_5224_37478" style="mask-type:luminance" maskUnits="userSpaceOnUse" x="5" y="10" width="6" height="6">
<path d="M7.8073 10.9092C7.26293 10.9317 6.72755 11.1483 6.32264 11.5588C6.1022 11.7799 5.93573 12.0416 5.82776 12.3168C5.6388 12.804 5.62081 13.3499 5.77827 13.8462C5.88175 14.1755 6.0617 14.4868 6.31814 14.744C6.72305 15.1545 7.26293 15.3666 7.8028 15.3891C8.41466 15.4162 9.03551 15.1997 9.48991 14.744C9.74635 14.4868 9.92631 14.1755 10.0298 13.8462C10.1872 13.3499 10.1693 12.804 9.9803 12.3168C9.87232 12.0371 9.70586 11.7799 9.48541 11.5588C9.05351 11.1257 8.47764 10.9092 7.89728 10.9092C7.86129 10.9092 7.82979 10.9092 7.7983 10.9092" fill="white"/>
</mask>
<g mask="url(#mask3_5224_37478)">
<mask id="mask4_5224_37478" style="mask-type:luminance" maskUnits="userSpaceOnUse" x="5" y="10" width="6" height="6">
<path d="M10.192 10.9048H5.62109V15.4118H10.192V10.9048Z" fill="white"/>
</mask>
<g mask="url(#mask4_5224_37478)">
<mask id="mask5_5224_37478" style="mask-type:luminance" maskUnits="userSpaceOnUse" x="5" y="10" width="6" height="6">
<path d="M10.192 10.9038H5.62109V15.4108H10.192V10.9038Z" fill="white"/>
</mask>
<g mask="url(#mask5_5224_37478)">
<rect x="5.44922" y="10.7588" width="4.7509" height="4.76419" fill="black"/>
</g>
</g>
</g>
<mask id="mask6_5224_37478" style="mask-type:luminance" maskUnits="userSpaceOnUse" x="3" y="15" width="4" height="4">
<path d="M4.92789 15.3926C4.57248 15.4106 4.22156 15.5505 3.95612 15.8167C3.81215 15.961 3.70418 16.1325 3.63219 16.3129C3.51072 16.6287 3.49723 16.9852 3.6007 17.31C3.66819 17.5265 3.78966 17.7296 3.95612 17.8965C4.22156 18.1627 4.57248 18.3025 4.92789 18.3206C5.3238 18.3386 5.73321 18.1988 6.03014 17.8965C6.1966 17.7296 6.31807 17.5265 6.38556 17.31C6.48903 16.9852 6.47553 16.6287 6.35406 16.3129C6.28208 16.1325 6.1786 15.961 6.03014 15.8167C5.7467 15.5324 5.36879 15.3926 4.99088 15.3926C4.96838 15.3926 4.94589 15.3926 4.92789 15.3926Z" fill="white"/>
</mask>
<g mask="url(#mask6_5224_37478)">
<mask id="mask7_5224_37478" style="mask-type:luminance" maskUnits="userSpaceOnUse" x="3" y="15" width="4" height="4">
<path d="M6.4834 15.3931H3.49609V18.3391H6.4834V15.3931Z" fill="white"/>
</mask>
<g mask="url(#mask7_5224_37478)">
<mask id="mask8_5224_37478" style="mask-type:luminance" maskUnits="userSpaceOnUse" x="3" y="15" width="4" height="4">
<path d="M6.4834 15.3936H3.49609V18.3396H6.4834V15.3936Z" fill="white"/>
</mask>
<g mask="url(#mask8_5224_37478)">
<rect x="3.28906" y="15.3154" width="3.23925" height="3.03176" fill="black"/>
</g>
</g>
</g>
<mask id="mask9_5224_37478" style="mask-type:luminance" maskUnits="userSpaceOnUse" x="14" y="1" width="10" height="3">
<path d="M22.1814 1.97434C22.2308 1.97885 22.2578 1.98336 22.2578 1.98336C21.2231 1.94276 19.6934 1.839 18.0738 2.0736C15.8243 2.40294 15.0145 3.32329 14.5781 3.68873C15.2665 3.11576 16.9806 2.92628 18.4607 3.23757C19.7204 3.50375 21.3356 3.93235 22.3928 3.1699C23.2116 2.57889 23.8325 1.62695 23.8325 1.62695C23.1801 1.89765 22.6582 1.97434 22.1814 1.96532" fill="white"/>
</mask>
<g mask="url(#mask9_5224_37478)">
<path d="M23.8331 1.63965H14.5742V3.94505H23.8331V1.63965Z" fill="black"/>
</g>
<mask id="mask10_5224_37478" style="mask-type:luminance" maskUnits="userSpaceOnUse" x="9" y="0" width="14" height="11">
<path d="M13.8758 0.830739C12.1122 1.09241 10.3126 2.35113 9.91669 4.21891C9.8942 4.32718 9.8762 4.43546 9.86271 4.54374C9.70974 5.68516 10.0652 6.63258 10.911 7.6161C10.9155 7.62061 10.92 7.62963 10.929 7.63414C10.938 7.64768 10.947 7.6567 10.9605 7.67024C10.9919 7.70633 11.0234 7.74242 11.0549 7.77851C11.8917 8.70338 13.1514 9.67336 14.8161 10.8825C14.7711 10.8373 11.2349 7.23262 12.3146 5.76637C12.3146 5.76637 12.3191 5.76185 12.3236 5.75734C12.3326 5.74381 12.3461 5.73027 12.3551 5.72125C12.5261 5.53176 12.805 5.53176 13.021 5.66711C13.2549 5.81599 14.8386 6.95741 15.7698 7.53038C16.3232 7.87325 16.8856 7.13336 16.5751 6.62356C16.3232 6.21752 15.3964 5.51372 14.7441 4.93173C14.0917 4.34523 14.2807 3.93468 14.5776 3.69557C15.014 3.33013 15.8238 2.40978 18.0733 2.08044C19.6929 1.84584 21.2271 1.94509 22.2573 1.99021C22.2573 1.99021 22.2303 1.99021 22.1808 1.98118C21.7579 1.91351 19.6389 1.57966 19.0271 1.43077C17.9203 1.16008 16.3907 0.767578 14.9105 0.767578C14.5596 0.767578 14.2132 0.790136 13.8758 0.839763" fill="white"/>
</mask>
<g mask="url(#mask10_5224_37478)">
<path d="M17.0312 -5.43948L4.73438 4.97754L14.9336 17.0848L27.2305 6.66775L17.0312 -5.43948Z" fill="black"/>
</g>
<mask id="mask11_5224_37478" style="mask-type:luminance" maskUnits="userSpaceOnUse" x="0" y="20" width="14" height="5">
<path d="M1.70995 22.3155C1.37703 22.7982 0.819155 23.8268 0.679688 24.7382C0.693184 24.6976 1.13408 23.3982 3.2036 22.9065C3.96842 22.726 4.78723 22.7531 5.53856 22.8478C5.88498 22.8478 9.17822 23.1501 10.087 23.0283C11.0768 22.8929 12.1025 22.735 12.8134 22.347C12.9483 22.2794 13.0608 22.2072 13.1643 22.1485C13.3173 22.0583 13.4342 21.9771 13.5242 21.9004C12.6514 22.4237 10.7484 22.2974 7.60808 21.0116C6.93774 20.7364 6.19991 20.6011 5.47557 20.6011C3.95943 20.6011 2.48377 21.1921 1.70995 22.3155Z" fill="white"/>
</mask>
<g mask="url(#mask11_5224_37478)">
<path d="M13.0047 18.0633L-0.132812 20.7676L1.19882 27.2729L14.3363 24.5686L13.0047 18.0633Z" fill="black"/>
</g>
<mask id="mask12_5224_37478" style="mask-type:luminance" maskUnits="userSpaceOnUse" x="5" y="4" width="15" height="20">
<path d="M10.3608 9.16244C11.2201 10.9851 12.3673 12.1446 12.8577 12.7987C13.3481 13.4529 14.6213 15.0906 14.5673 15.3793C14.5088 15.6636 12.7542 14.8289 11.7779 14.5808C10.9591 14.3733 10.3967 14.3191 10.2078 14.7883C9.97835 15.3387 10.2843 15.6906 11.2021 16.0516C12.1199 16.417 14.8327 17.4637 15.0982 17.6306C15.3636 17.7975 15.5526 18.3073 15.4581 18.9119C15.3636 19.5209 15.0307 19.557 13.9689 19.345C13.3481 19.2187 8.99308 17.7524 7.72887 17.3509C6.64012 17.0035 6.26671 18.3118 6.87407 18.6953C7.53991 19.1149 10.4642 20.1887 10.9681 20.3375C12.3268 20.7481 13.645 21.1225 13.7665 21.3526C13.8475 21.5015 13.8295 21.6594 13.5325 21.8985C13.438 21.9707 13.3211 22.0519 13.1726 22.1467C13.0691 22.2098 12.9567 22.2775 12.8217 22.3452C12.1064 22.7332 11.0851 22.8956 10.0953 23.0264C9.18653 23.1482 5.89329 22.8505 5.54688 22.8459C5.54688 22.8459 10.1808 23.9332 13.0196 23.8159C14.6123 23.7483 17.6401 23.3197 18.8143 20.6804C20.083 17.8381 19.4037 14.8966 16.5513 12.3386C15.98 11.8288 15.3951 11.3415 14.8237 10.8768C13.1591 9.66773 11.8994 8.69775 11.0626 7.77289C11.0311 7.7368 10.9996 7.7007 10.9681 7.66461C10.9591 7.65559 10.9501 7.64205 10.9366 7.62852C10.9321 7.6195 10.9276 7.61498 10.9186 7.61047C10.0728 6.62245 9.71741 5.67953 9.87037 4.53811C9.87937 4.43886 9.88837 4.33961 9.91086 4.23584C9.70391 5.06145 9.38448 7.06909 10.3653 9.15793" fill="white"/>
</mask>
<g mask="url(#mask12_5224_37478)">
<path d="M19.5628 1.54737L1.91016 4.93701L6.05269 26.6314L23.7053 23.2417L19.5628 1.54737Z" fill="black"/>
</g>
<path fill-rule="evenodd" clip-rule="evenodd" d="M101.575 5.54346V15.1453L101.586 15.1398C101.586 16.469 102.02 17.6161 102.911 18.5758C103.846 19.5961 105.067 20.1365 106.569 20.1972C108.026 20.2524 109.247 19.7946 110.226 18.8074C111.161 17.8809 111.661 16.7227 111.738 15.3218C111.799 13.9596 111.348 12.7683 110.402 11.759C109.505 10.7884 108.378 10.2313 107.047 10.1045C106.173 10.0107 105.177 10.2424 104.066 10.7994V12.7407C104.193 12.6084 104.512 12.4319 105.018 12.2058C105.667 11.9079 106.222 11.7811 106.69 11.8142C107.575 11.8859 108.307 12.2113 108.889 12.7904C109.467 13.375 109.775 14.0919 109.824 14.9468C109.885 15.8844 109.604 16.7172 108.983 17.4396C108.362 18.1621 107.603 18.5096 106.701 18.471C106.085 18.4655 105.518 18.2945 105.012 17.9746C103.978 17.3238 103.456 16.1712 103.456 14.5056V5.54346H101.575ZM81.7921 15.5807H83.3981C84.2725 15.5807 84.894 15.7627 85.2515 16.1212C85.5155 16.3748 85.6475 16.8767 85.6475 17.6268V20.0865H87.5889V17.147C87.5889 16.2039 87.3744 15.4924 86.9289 15.0071C86.4834 14.5218 85.9445 14.2074 85.29 14.064C85.4605 13.9592 85.6035 13.8324 85.73 13.6835C86.0104 13.4573 86.2579 13.165 86.4724 12.8121L88.2269 10.0379H85.9445L84.784 11.8524C84.6245 12.1944 84.3055 12.6135 83.8215 13.1099C83.4696 13.4849 83.0351 13.6724 82.5126 13.6724H81.7151V5.60376H79.6912V20.0921H81.7921V15.5807ZM31.6724 11.2906C30.3635 10.5792 29.698 9.85116 29.676 9.11213H29.6815C29.6595 8.09734 30.567 7.58443 32.4204 7.58443H36.5562V5.62104H31.9474C29.1095 5.62104 27.6356 6.79025 27.5256 9.11213C27.4816 10.2372 28.1141 11.2851 29.4285 12.2392C29.6705 12.4102 30.9024 13.1106 33.1243 14.346C34.4773 15.0961 35.1538 15.7689 35.1538 16.348C35.1703 16.9161 34.9943 17.3352 34.6313 17.5999C34.1198 17.9915 33.1848 18.1846 31.8209 18.1846H27.5751V20.1314H32.4699C35.6267 20.1314 37.2052 18.9236 37.2217 16.5135C37.2272 15.2615 36.5892 14.1806 35.2968 13.2595L31.6724 11.2906ZM41.1708 16.2377V10.0387L41.1653 10.0332H39.1524V14.7652C39.1524 15.6972 39.1909 16.4142 39.2789 16.9106C39.4714 17.9088 39.8619 18.6699 40.4559 19.1883C41.0608 19.7454 41.7263 20.1094 42.4523 20.2803V24.7035H44.4487V20.2252C45.2847 20.0708 45.9776 19.7012 46.5331 19.1166C47.2591 18.3556 47.6221 17.4952 47.6221 16.5356V10.0387H45.6642V15.9068C45.6642 16.7451 45.4717 17.3849 45.0812 17.8316C44.6962 18.2839 44.1737 18.521 43.5082 18.5431C42.8593 18.5596 42.3038 18.3445 41.8528 17.9088C41.3963 17.4731 41.1708 16.9161 41.1708 16.2377ZM58.4616 14.3857V20.0939H56.4707V14.8214C56.4707 13.5639 56.1847 12.698 55.6182 12.2403C55.3378 12.0197 54.8483 11.8653 54.1498 11.766C53.5943 11.6943 53.0554 11.8928 52.5384 12.3671C51.9829 12.8856 51.7024 13.5419 51.7024 14.3416V20.0939H49.783V14.4519C49.783 13.0565 50.245 11.9425 51.1799 11.0931C52.0104 10.332 53.0279 9.9515 54.2268 9.9515C55.0848 9.94047 55.9207 10.2328 56.7457 10.8229C57.8952 11.6391 58.4671 12.8249 58.4671 14.3857H58.4616ZM62.9057 16.3536V12.0242H66.1891V10.0443H62.8727V7.59005H60.9313V16.7507C60.9313 17.5008 61.1678 18.1957 61.6408 18.841C62.2568 19.6848 63.3237 20.1094 64.8472 20.1094H66.2606V18.113H65.1386C64.3027 18.113 63.7417 17.9861 63.4502 17.7324C63.0872 17.418 62.9057 16.9603 62.9057 16.3536ZM77.2051 13.0408L70.5724 16.8959L69.72 15.4013L74.6147 12.6216C74.1088 12.015 73.3498 11.7227 72.3323 11.7447C71.4524 11.7558 70.7154 12.0977 70.1214 12.765C69.5275 13.4324 69.2305 14.2155 69.2305 15.109C69.2415 16.03 69.5715 16.8187 70.2259 17.475C70.8749 18.1258 71.6614 18.4567 72.5853 18.4567C73.3828 18.4456 74.0758 18.1699 74.6697 17.6404C75.3242 17.0668 75.6707 16.3333 75.7037 15.4399L77.5901 15.6384C77.4581 17.0448 76.8916 18.1809 75.8962 19.0358C74.8952 19.8961 73.7128 20.3153 72.3323 20.2932C70.9079 20.2711 69.698 19.7307 68.697 18.6828C67.696 17.6349 67.2176 16.3995 67.2561 14.9656C67.2946 13.5592 67.817 12.3679 68.8345 11.3807C69.852 10.399 71.0509 9.90818 72.4423 9.90818C73.5203 9.90818 74.4717 10.2005 75.3077 10.7796C76.1052 11.3256 76.7377 12.0756 77.2106 13.0353L77.2051 13.0408ZM99.6499 15.1518V20.1155H97.7304V15.8081C97.7304 14.1095 97.2025 12.9292 96.1355 12.2619C95.613 11.9365 95.0466 11.7655 94.4141 11.7545C93.4956 11.7159 92.7202 12.0688 92.0877 12.8079C91.4497 13.5469 91.1692 14.3962 91.2242 15.3504C91.2737 16.2218 91.5927 16.9553 92.1867 17.5509C92.7752 18.141 93.5231 18.4775 94.4361 18.5492C94.9091 18.5822 95.47 18.4499 96.1355 18.1465C96.658 17.9149 96.9825 17.7384 97.1145 17.6005V19.586C95.9815 20.1541 94.9641 20.3912 94.0731 20.2975C92.7092 20.1596 91.5652 19.597 90.6468 18.6098C89.6733 17.5785 89.2223 16.3652 89.2883 14.9753C89.3598 13.5469 89.8713 12.3556 90.8282 11.4125C91.8292 10.4088 93.0776 9.93448 94.5626 9.99515C96.097 10.0558 97.3455 10.6073 98.2969 11.6497C99.2044 12.6314 99.6554 13.8006 99.6554 15.1573L99.6499 15.1518ZM115.907 8.66214C116.144 8.46911 116.265 8.18784 116.276 7.82384L116.27 7.81833C116.276 7.47087 116.171 7.1896 115.935 6.98554C115.698 6.78148 115.423 6.67669 115.11 6.67669C114.796 6.67669 114.521 6.77596 114.296 6.96899C114.07 7.16202 113.944 7.43778 113.916 7.80178C113.894 8.15475 113.999 8.43051 114.241 8.64008C114.483 8.84966 114.763 8.94893 115.093 8.94893C115.407 8.94893 115.676 8.85518 115.907 8.66214ZM114.147 20.0951H116.182V10.0409H114.147V20.0951ZM128.743 14.9692C128.765 16.4087 128.254 17.6606 127.214 18.714C126.164 19.7674 124.921 20.2914 123.474 20.2748C122.083 20.2638 120.884 19.7619 119.883 18.7747C118.877 17.7875 118.36 16.5907 118.321 15.1843C118.294 13.7559 118.805 12.515 119.839 11.4671C120.879 10.4192 122.121 9.8953 123.557 9.8953C124.959 9.90633 126.169 10.4027 127.176 11.3844C128.193 12.3716 128.716 13.5629 128.738 14.9692H128.743ZM123.65 11.6215C122.721 11.5995 121.923 11.9304 121.258 12.6143C120.593 13.2982 120.257 14.1199 120.257 15.0795C120.257 16.0392 120.576 16.8003 121.203 17.4676C121.835 18.1405 122.594 18.4824 123.485 18.4934C124.42 18.5045 125.218 18.1625 125.872 17.4566C126.532 16.7562 126.857 15.9289 126.846 14.9858C126.818 14.0868 126.505 13.3092 125.894 12.6584C125.284 12.0021 124.536 11.6602 123.656 11.6215H123.65Z" fill="black"/>
</svg>
