<svg width="180" height="36" viewBox="0 0 180 36" fill="none" xmlns="http://www.w3.org/2000/svg">
<path d="M27.3926 3.00049C27.3926 3.00049 28.6147 4.49202 28.4912 7.53646C28.4172 9.39013 27.2074 15.2887 18.4121 16.8662C12.6659 17.8974 8.40708 19.9475 5.5 28.0005C5.5 28.0005 6.16042 22.4947 8.85765 19.6958C15.3384 12.9686 22.5289 17.1731 26.4729 9.67247C28.0098 6.74466 27.3864 3.00049 27.3864 3.00049" fill="white"/>
<mask id="mask0_3803_59206" style="mask-type:luminance" maskUnits="userSpaceOnUse" x="23" y="9" width="6" height="6">
<path d="M25.9016 9.66589C25.2599 9.69088 24.637 9.947 24.1573 10.428C23.8957 10.6841 23.7026 10.9902 23.578 11.315C23.3538 11.8897 23.3351 12.5269 23.5219 13.1079C23.6465 13.4951 23.8583 13.8575 24.1573 14.1573C24.637 14.6321 25.2599 14.8882 25.9016 14.9132C26.6179 14.9444 27.3405 14.6945 27.8825 14.1573C28.1877 13.8512 28.3933 13.4889 28.5179 13.1079C28.7047 12.5269 28.6861 11.8897 28.4618 11.315C28.3372 10.9902 28.1441 10.6841 27.8825 10.428C27.3779 9.92201 26.6989 9.66589 26.0199 9.66589C25.9825 9.66589 25.9389 9.66589 25.9016 9.66589Z" fill="white"/>
</mask>
<g mask="url(#mask0_3803_59206)">
<mask id="mask1_3803_59206" style="mask-type:luminance" maskUnits="userSpaceOnUse" x="23" y="9" width="6" height="6">
<path d="M28.6974 9.65942H23.334V14.9442H28.6974V9.65942Z" fill="white"/>
</mask>
<g mask="url(#mask1_3803_59206)">
<mask id="mask2_3803_59206" style="mask-type:luminance" maskUnits="userSpaceOnUse" x="23" y="9" width="6" height="6">
<path d="M28.6974 9.65295H23.334V14.9377H28.6974V9.65295Z" fill="white"/>
</mask>
<g mask="url(#mask2_3803_59206)">
<rect x="23.2969" y="9.50244" width="5.68114" height="5.69704" fill="white"/>
</g>
</g>
</g>
<mask id="mask3_3803_59206" style="mask-type:luminance" maskUnits="userSpaceOnUse" x="8" y="15" width="7" height="7">
<path d="M11.3103 15.1056C10.5565 15.1368 9.81522 15.4367 9.25458 16.0051C8.94934 16.3112 8.71886 16.6735 8.56935 17.0546C8.30772 17.7292 8.28281 18.4851 8.50083 19.1722C8.64411 19.6282 8.89328 20.0593 9.24835 20.4153C9.80899 20.9838 10.5565 21.2774 11.304 21.3086C12.1512 21.3461 13.0109 21.0462 13.64 20.4153C13.9951 20.0593 14.2443 19.6282 14.3875 19.1722C14.6056 18.4851 14.5807 17.7292 14.319 17.0546C14.1695 16.6673 13.939 16.3112 13.6338 16.0051C13.0358 15.4054 12.2384 15.1056 11.4348 15.1056C11.385 15.1056 11.3414 15.1056 11.2978 15.1056" fill="white"/>
</mask>
<g mask="url(#mask3_3803_59206)">
<mask id="mask4_3803_59206" style="mask-type:luminance" maskUnits="userSpaceOnUse" x="8" y="15" width="7" height="7">
<path d="M14.6122 15.0992H8.2832V21.3397H14.6122V15.0992Z" fill="white"/>
</mask>
<g mask="url(#mask4_3803_59206)">
<mask id="mask5_3803_59206" style="mask-type:luminance" maskUnits="userSpaceOnUse" x="8" y="15" width="7" height="7">
<path d="M14.6122 15.0978H8.2832V21.3383H14.6122V15.0978Z" fill="white"/>
</mask>
<g mask="url(#mask5_3803_59206)">
<rect x="8.04688" y="14.8969" width="6.57817" height="6.59657" fill="white"/>
</g>
</g>
</g>
<mask id="mask6_3803_59206" style="mask-type:luminance" maskUnits="userSpaceOnUse" x="5" y="21" width="5" height="5">
<path d="M7.32444 21.3135C6.83232 21.3385 6.34644 21.5321 5.97891 21.9007C5.77957 22.1006 5.63006 22.3379 5.53039 22.5878C5.3622 23.0251 5.34351 23.5186 5.48679 23.9683C5.58023 24.2682 5.74842 24.5493 5.97891 24.7804C6.34644 25.149 6.83232 25.3426 7.32444 25.3676C7.87262 25.3926 8.43949 25.199 8.85062 24.7804C9.08111 24.5493 9.2493 24.2682 9.34274 23.9683C9.48601 23.5186 9.46733 23.0251 9.29913 22.5878C9.19947 22.3379 9.05619 22.1006 8.85062 21.9007C8.45818 21.5071 7.93491 21.3135 7.41165 21.3135C7.3805 21.3135 7.34936 21.3135 7.32444 21.3135Z" fill="white"/>
</mask>
<g mask="url(#mask6_3803_59206)">
<mask id="mask7_3803_59206" style="mask-type:luminance" maskUnits="userSpaceOnUse" x="5" y="21" width="5" height="5">
<path d="M9.47807 21.314H5.3418V25.3931H9.47807V21.314Z" fill="white"/>
</mask>
<g mask="url(#mask7_3803_59206)">
<mask id="mask8_3803_59206" style="mask-type:luminance" maskUnits="userSpaceOnUse" x="5" y="21" width="5" height="5">
<path d="M9.47807 21.3145H5.3418V25.3936H9.47807V21.3145Z" fill="white"/>
</mask>
<g mask="url(#mask8_3803_59206)">
<rect x="5.05469" y="21.2065" width="4.48511" height="4.19782" fill="white"/>
</g>
</g>
</g>
<mask id="mask9_3803_59206" style="mask-type:luminance" maskUnits="userSpaceOnUse" x="20" y="2" width="14" height="4">
<path d="M31.2131 2.7343C31.2816 2.74054 31.319 2.74679 31.319 2.74679C29.8863 2.69057 27.7683 2.54689 25.5257 2.87172C22.4111 3.32774 21.2898 4.60207 20.6855 5.10806C21.6386 4.31472 24.012 4.05236 26.0615 4.48339C27.8057 4.85194 30.042 5.44538 31.5059 4.38968C32.6396 3.57136 33.4993 2.2533 33.4993 2.2533C32.596 2.6281 31.8734 2.7343 31.2131 2.7218" fill="white"/>
</mask>
<g mask="url(#mask9_3803_59206)">
<path d="M33.4996 2.271H20.6797V5.46308H33.4996V2.271Z" fill="white"/>
</g>
<mask id="mask10_3803_59206" style="mask-type:luminance" maskUnits="userSpaceOnUse" x="14" y="1" width="18" height="15">
<path d="M19.7138 1.15081C17.2719 1.51312 14.7802 3.25596 14.232 5.84212C14.2009 5.99204 14.1759 6.14196 14.1573 6.29188C13.9455 7.87231 14.4376 9.18413 15.6087 10.5459C15.6149 10.5522 15.6211 10.5647 15.6336 10.5709C15.6461 10.5896 15.6585 10.6021 15.6772 10.6209C15.7208 10.6709 15.7644 10.7208 15.808 10.7708C16.9667 12.0514 18.7109 13.3944 21.0157 15.0686C20.9534 15.0061 16.0572 10.0149 17.5522 7.98475C17.5522 7.98475 17.5585 7.97851 17.5647 7.97226C17.5772 7.95352 17.5958 7.93478 17.6083 7.92228C17.845 7.65992 18.2312 7.65992 18.5302 7.84732C18.8542 8.05347 21.0469 9.63389 22.3364 10.4272C23.1026 10.902 23.8812 9.87752 23.4514 9.17163C23.1026 8.60943 21.8193 7.63493 20.9161 6.8291C20.0128 6.01703 20.2745 5.44857 20.6856 5.11749C21.2898 4.61151 22.4111 3.33717 25.5258 2.88116C27.7683 2.55633 29.8925 2.69376 31.319 2.75622C31.319 2.75622 31.2817 2.75622 31.2131 2.74373C30.6276 2.65003 27.6936 2.18777 26.8464 1.98163C25.314 1.60682 23.196 1.06335 21.1466 1.06335C20.6607 1.06335 20.181 1.09459 19.7138 1.1633" fill="white"/>
</mask>
<g mask="url(#mask10_3803_59206)">
<path d="M24.083 -7.53086L7.05664 6.8927L21.1787 23.6565L38.2051 9.23299L24.083 -7.53086Z" fill="white"/>
</g>
<mask id="mask11_3803_59206" style="mask-type:luminance" maskUnits="userSpaceOnUse" x="1" y="28" width="19" height="7">
<path d="M2.86987 30.899C2.4089 31.5674 1.63647 32.9917 1.44336 34.2535C1.46205 34.1973 2.07252 32.3983 4.93801 31.7174C5.997 31.4675 7.13073 31.505 8.17103 31.6361C8.65069 31.6361 13.2106 32.0547 14.4689 31.886C15.8393 31.6986 17.2596 31.48 18.2438 30.9428C18.4307 30.8491 18.5865 30.7491 18.7297 30.6679C18.9415 30.543 19.1035 30.4305 19.2281 30.3243C18.0196 31.049 15.3846 30.874 11.0365 29.0937C10.1083 28.7127 9.08674 28.5253 8.08382 28.5253C5.98454 28.5253 3.94132 29.3436 2.86987 30.899Z" fill="white"/>
</mask>
<g mask="url(#mask11_3803_59206)">
<path d="M18.5106 25.0116L0.320312 28.756L2.16411 37.7634L20.3544 34.019L18.5106 25.0116Z" fill="white"/>
</g>
<mask id="mask12_3803_59206" style="mask-type:luminance" maskUnits="userSpaceOnUse" x="8" y="5" width="20" height="28">
<path d="M14.8431 12.6869C16.0329 15.2106 17.6214 16.816 18.3004 17.7218C18.9794 18.6276 20.7423 20.8952 20.6675 21.2949C20.5865 21.6885 18.1571 20.5328 16.8053 20.1893C15.6716 19.9019 14.8929 19.827 14.6313 20.4766C14.3136 21.2387 14.7372 21.726 16.008 22.2257C17.2788 22.7317 21.0351 24.1809 21.4026 24.4121C21.7701 24.6432 22.0318 25.3491 21.9009 26.1862C21.7701 27.0295 21.3092 27.0794 19.839 26.7858C18.9794 26.6109 12.9494 24.5807 11.199 24.0248C9.69146 23.5438 9.17443 25.3553 10.0154 25.8863C10.9373 26.4673 14.9864 27.954 15.6841 28.1601C17.5653 28.7286 19.3905 29.2471 19.5587 29.5656C19.6708 29.7718 19.6459 29.9904 19.2348 30.3215C19.104 30.4214 18.942 30.5339 18.7364 30.6651C18.5932 30.7525 18.4374 30.8462 18.2506 30.9399C17.2601 31.4771 15.846 31.702 14.4756 31.8832C13.2173 32.0518 8.65739 31.6396 8.17773 31.6333C8.17773 31.6333 14.5939 33.1388 18.5246 32.9764C20.7298 32.8827 24.9222 32.2892 26.548 28.6349C28.3047 24.6994 27.3641 20.6265 23.4147 17.0846C22.6235 16.3788 21.8137 15.7041 21.0226 15.0607C18.7178 13.3866 16.9735 12.0435 15.8149 10.7629C15.7713 10.713 15.7277 10.663 15.6841 10.613C15.6716 10.6005 15.6592 10.5818 15.6405 10.563C15.6342 10.5505 15.628 10.5443 15.6155 10.538C14.4444 9.17001 13.9523 7.86444 14.1641 6.28401C14.1766 6.14658 14.189 6.00915 14.2202 5.86548C13.9336 7.00863 13.4913 9.78844 14.8493 12.6807" fill="white"/>
</mask>
<g mask="url(#mask12_3803_59206)">
<path d="M27.5866 2.14283L3.14453 6.83618L8.88035 36.8745L33.3224 32.1812L27.5866 2.14283Z" fill="white"/>
</g>
<path fill-rule="evenodd" clip-rule="evenodd" d="M141.14 7.67578V20.9707L141.155 20.9631C141.155 22.8034 141.757 24.3918 142.991 25.7205C144.285 27.1332 145.976 27.8816 148.055 27.9656C150.073 28.042 151.763 27.4081 153.119 26.0412C154.413 24.7583 155.106 23.1547 155.213 21.2151C155.296 19.3289 154.672 17.6794 153.362 16.282C152.121 14.938 150.56 14.1667 148.717 13.9911C147.506 13.8612 146.128 14.182 144.59 14.9532V17.6412C144.765 17.458 145.207 17.2136 145.907 16.9005C146.806 16.4881 147.575 16.3125 148.222 16.3583C149.448 16.4576 150.461 16.9081 151.268 17.71C152.068 18.5194 152.494 19.5121 152.563 20.6958C152.646 21.994 152.258 23.1471 151.398 24.1474C150.537 25.1478 149.486 25.6289 148.237 25.5754C147.384 25.5678 146.6 25.3311 145.899 24.8881C144.468 23.9871 143.744 22.3911 143.744 20.0849V7.67578H141.14ZM113.749 21.5735H115.972C117.183 21.5735 118.044 21.8255 118.539 22.3218C118.904 22.6731 119.087 23.368 119.087 24.4065V27.8124H121.775V23.7422C121.775 22.4364 121.478 21.4513 120.861 20.7793C120.244 20.1073 119.498 19.672 118.592 19.4735C118.828 19.3284 119.026 19.1527 119.201 18.9465C119.589 18.6335 119.932 18.2287 120.229 17.74L122.658 13.8989H119.498L117.891 16.4113C117.67 16.8847 117.229 17.4651 116.559 18.1524C116.071 18.6716 115.47 18.9313 114.746 18.9313H113.642V7.75928H110.84V27.82H113.749V21.5735ZM44.3521 15.6334C42.5398 14.6483 41.6183 13.6403 41.5879 12.617H41.5955C41.565 11.2119 42.8215 10.5017 45.3878 10.5017H51.1143V7.7832H44.7329C40.8035 7.7832 38.7627 9.40211 38.6104 12.617C38.5495 14.1748 39.4252 15.6257 41.2452 16.9468C41.5803 17.1836 43.286 18.1534 46.3625 19.8639C48.2358 20.9025 49.1725 21.8341 49.1725 22.6359C49.1953 23.4225 48.9516 24.0028 48.4491 24.3694C47.7409 24.9116 46.4463 25.1788 44.5578 25.1788H38.6789V27.8745H45.4563C49.8274 27.8745 52.0129 26.2021 52.0357 22.865C52.0434 21.1316 51.16 19.6348 49.3705 18.3596L44.3521 15.6334ZM57.5038 22.4832V13.9L57.4962 13.8923H54.7091V20.4443C54.7091 21.7349 54.7624 22.7276 54.8842 23.4149C55.1508 24.7971 55.6914 25.8509 56.5139 26.5687C57.3515 27.34 58.273 27.844 59.2781 28.0807V34.2051H62.0424V28.0043C63.1999 27.7905 64.1594 27.2789 64.9285 26.4694C65.9337 25.4156 66.4363 24.2243 66.4363 22.8956V13.9H63.7253V22.0251C63.7253 23.1858 63.4588 24.0716 62.9181 24.6902C62.3851 25.3163 61.6617 25.6447 60.7402 25.6752C59.8417 25.6982 59.0725 25.4003 58.4481 24.7971C57.816 24.1938 57.5038 23.4225 57.5038 22.4832ZM81.4449 19.9189V27.8225H78.6883V20.5221C78.6883 18.781 78.2923 17.5821 77.5079 16.9483C77.1196 16.6429 76.4418 16.429 75.4747 16.2916C74.7056 16.1923 73.9593 16.4672 73.2435 17.124C72.4744 17.8418 72.086 18.7505 72.086 19.8578V27.8225H69.4283V20.0105C69.4283 18.0785 70.068 16.536 71.3626 15.36C72.5124 14.3061 73.9212 13.7792 75.5813 13.7792C76.7693 13.764 77.9268 14.1687 79.069 14.9858C80.6606 16.116 81.4525 17.7578 81.4525 19.9189H81.4449ZM87.5983 22.6437V16.6492H92.1445V13.9077H87.5526V10.5095H84.8645V23.1935C84.8645 24.2321 85.192 25.1943 85.8468 26.0877C86.6997 27.2561 88.1771 27.8441 90.2864 27.8441H92.2435V25.0797H90.69C89.5325 25.0797 88.7558 24.9041 88.3522 24.5528C87.8496 24.1175 87.5983 23.4837 87.5983 22.6437ZM107.397 18.0567L98.2137 23.3945L97.0334 21.3251L103.811 17.4763C103.11 16.6363 102.059 16.2316 100.651 16.2621C99.4321 16.2774 98.4117 16.7509 97.5893 17.6749C96.7668 18.5989 96.3556 19.6832 96.3556 20.9203C96.3709 22.1956 96.8278 23.2876 97.734 24.1963C98.6325 25.0974 99.7215 25.5556 101.001 25.5556C102.105 25.5403 103.064 25.1585 103.887 24.4254C104.793 23.6312 105.273 22.6156 105.319 21.3785L107.931 21.6534C107.748 23.6007 106.963 25.1738 105.585 26.3574C104.199 27.5487 102.562 28.1291 100.651 28.0985C98.6782 28.068 97.0029 27.3196 95.617 25.8687C94.231 24.4178 93.5685 22.7072 93.6218 20.7218C93.6751 18.7745 94.3986 17.1251 95.8073 15.7581C97.2161 14.3989 98.8762 13.7192 100.803 13.7192C102.295 13.7192 103.613 14.124 104.77 14.9258C105.874 15.6818 106.75 16.7203 107.405 18.0491L107.397 18.0567ZM138.475 20.9797V27.8524H135.817V21.8884C135.817 19.5364 135.086 17.9022 133.609 16.9782C132.885 16.5277 132.101 16.2909 131.225 16.2757C129.954 16.2222 128.88 16.7109 128.004 17.7342C127.121 18.7575 126.732 19.9335 126.809 21.2546C126.877 22.4611 127.319 23.4768 128.141 24.3015C128.956 25.1186 129.992 25.5844 131.256 25.6837C131.911 25.7295 132.687 25.5462 133.609 25.1262C134.332 24.8055 134.781 24.5611 134.964 24.3702V27.1193C133.396 27.9058 131.987 28.2342 130.753 28.1044C128.865 27.9135 127.281 27.1346 126.009 25.7677C124.661 24.3397 124.037 22.6597 124.128 20.7353C124.227 18.7575 124.935 17.108 126.26 15.8022C127.646 14.4124 129.375 13.7557 131.431 13.8397C133.555 13.9237 135.284 14.6873 136.601 16.1306C137.858 17.4898 138.482 19.1088 138.482 20.9873L138.475 20.9797ZM160.985 11.994C161.312 11.7267 161.48 11.3372 161.495 10.8332L161.487 10.8256C161.495 10.3445 161.35 9.95506 161.023 9.67251C160.695 9.38997 160.315 9.24487 159.881 9.24487C159.447 9.24487 159.066 9.38233 158.754 9.6496C158.441 9.91687 158.266 10.2987 158.228 10.8027C158.198 11.2914 158.342 11.6732 158.677 11.9634C159.012 12.2536 159.401 12.3911 159.858 12.3911C160.292 12.3911 160.665 12.2612 160.985 11.994ZM158.548 27.8241H161.366V13.9031H158.548V27.8241ZM178.758 20.7269C178.788 22.72 178.08 24.4534 176.641 25.912C175.186 27.3705 173.465 28.096 171.463 28.0731C169.536 28.0578 167.876 27.3629 166.49 25.996C165.096 24.6291 164.381 22.972 164.327 21.0247C164.289 19.0469 164.997 17.3287 166.429 15.8778C167.868 14.4269 169.589 13.7014 171.577 13.7014C173.519 13.7167 175.194 14.404 176.588 15.7632C177.996 17.1301 178.72 18.7796 178.75 20.7269H178.758ZM171.706 16.0916C170.419 16.0611 169.315 16.5192 168.394 17.4661C167.472 18.4131 167.008 19.5509 167.008 20.8796C167.008 22.2083 167.45 23.2621 168.318 24.1861C169.193 25.1178 170.244 25.5912 171.478 25.6065C172.772 25.6218 173.877 25.1483 174.783 24.1709C175.697 23.2011 176.146 22.0556 176.131 20.7498C176.093 19.5051 175.659 18.4283 174.813 17.5272C173.968 16.6185 172.932 16.1451 171.714 16.0916H171.706Z" fill="white"/>
</svg>
