<svg width="36" height="36" viewBox="0 0 36 36" fill="none" xmlns="http://www.w3.org/2000/svg">
<path d="M27.8926 3C27.8926 3 29.1147 4.49153 28.9912 7.53597C28.9172 9.38964 27.7074 15.2882 18.9121 16.8657C13.1659 17.8969 8.90708 19.947 6 28C6 28 6.66042 22.4942 9.35765 19.6953C15.8384 12.9681 23.0289 17.1726 26.9729 9.67199C28.5098 6.74417 27.8864 3 27.8864 3" fill="white"/>
<mask id="mask0_3781_46848" style="mask-type:luminance" maskUnits="userSpaceOnUse" x="23" y="9" width="7" height="6">
<path d="M26.4007 9.66553C25.759 9.69051 25.1361 9.94663 24.6564 10.4276C24.3948 10.6837 24.2017 10.9898 24.0771 11.3147C23.8529 11.8894 23.8342 12.5265 24.0211 13.1075C24.1456 13.4948 24.3574 13.8571 24.6564 14.1569C25.1361 14.6317 25.759 14.8878 26.4007 14.9128C27.117 14.944 27.8396 14.6942 28.3816 14.1569C28.6868 13.8508 28.8924 13.4885 29.017 13.1075C29.2039 12.5265 29.1852 11.8894 28.9609 11.3147C28.8363 10.9898 28.6432 10.6837 28.3816 10.4276C27.877 9.92164 27.198 9.66553 26.519 9.66553C26.4816 9.66553 26.438 9.66553 26.4007 9.66553Z" fill="white"/>
</mask>
<g mask="url(#mask0_3781_46848)">
<mask id="mask1_3781_46848" style="mask-type:luminance" maskUnits="userSpaceOnUse" x="23" y="9" width="7" height="6">
<path d="M29.1962 9.65918H23.8328V14.9439H29.1962V9.65918Z" fill="white"/>
</mask>
<g mask="url(#mask1_3781_46848)">
<mask id="mask2_3781_46848" style="mask-type:luminance" maskUnits="userSpaceOnUse" x="23" y="9" width="7" height="6">
<path d="M29.1956 9.65283H23.8322V14.9376H29.1956V9.65283Z" fill="white"/>
</mask>
<g mask="url(#mask2_3781_46848)">
<rect x="23.7958" y="9.50244" width="5.68114" height="5.69704" fill="white"/>
</g>
</g>
</g>
<mask id="mask3_3781_46848" style="mask-type:luminance" maskUnits="userSpaceOnUse" x="8" y="15" width="8" height="7">
<path d="M11.811 15.105C11.0572 15.1362 10.3159 15.4361 9.75531 16.0045C9.45007 16.3106 9.21959 16.6729 9.07008 17.054C8.80845 17.7286 8.78353 18.4845 9.00156 19.1716C9.14483 19.6276 9.39401 20.0587 9.74908 20.4147C10.3097 20.9832 11.0572 21.2768 11.8048 21.308C12.6519 21.3455 13.5116 21.0456 14.1408 20.4147C14.4958 20.0587 14.745 19.6276 14.8883 19.1716C15.1063 18.4845 15.0814 17.7286 14.8197 17.054C14.6702 16.6667 14.4398 16.3106 14.1345 16.0045C13.5365 15.4048 12.7392 15.105 11.9356 15.105C11.8857 15.105 11.8421 15.105 11.7985 15.105" fill="white"/>
</mask>
<g mask="url(#mask3_3781_46848)">
<mask id="mask4_3781_46848" style="mask-type:luminance" maskUnits="userSpaceOnUse" x="8" y="15" width="8" height="7">
<path d="M15.1127 15.0986H8.78374V21.3391H15.1127V15.0986Z" fill="white"/>
</mask>
<g mask="url(#mask4_3781_46848)">
<mask id="mask5_3781_46848" style="mask-type:luminance" maskUnits="userSpaceOnUse" x="8" y="15" width="8" height="7">
<path d="M15.1125 15.0972H8.78352V21.3377H15.1125V15.0972Z" fill="white"/>
</mask>
<g mask="url(#mask5_3781_46848)">
<rect x="8.54692" y="14.8965" width="6.57817" height="6.59657" fill="white"/>
</g>
</g>
</g>
<mask id="mask6_3781_46848" style="mask-type:luminance" maskUnits="userSpaceOnUse" x="5" y="21" width="5" height="5">
<path d="M7.82443 21.313C7.33231 21.338 6.84642 21.5316 6.47889 21.9002C6.27956 22.1001 6.13005 22.3375 6.03038 22.5873C5.86219 23.0246 5.8435 23.5181 5.98678 23.9679C6.08022 24.2677 6.24841 24.5488 6.47889 24.7799C6.84642 25.1485 7.33231 25.3421 7.82443 25.3671C8.37261 25.3921 8.93948 25.1985 9.35061 24.7799C9.5811 24.5488 9.74929 24.2677 9.84273 23.9679C9.986 23.5181 9.96732 23.0246 9.79912 22.5873C9.69945 22.3375 9.55618 22.1001 9.35061 21.9002C8.95816 21.5066 8.4349 21.313 7.91164 21.313C7.88049 21.313 7.84934 21.313 7.82443 21.313Z" fill="white"/>
</mask>
<g mask="url(#mask6_3781_46848)">
<mask id="mask7_3781_46848" style="mask-type:luminance" maskUnits="userSpaceOnUse" x="5" y="21" width="5" height="5">
<path d="M9.97897 21.3135H5.8427V25.3926H9.97897V21.3135Z" fill="white"/>
</mask>
<g mask="url(#mask7_3781_46848)">
<mask id="mask8_3781_46848" style="mask-type:luminance" maskUnits="userSpaceOnUse" x="5" y="21" width="5" height="5">
<path d="M9.97844 21.314H5.84217V25.3931H9.97844V21.314Z" fill="white"/>
</mask>
<g mask="url(#mask8_3781_46848)">
<rect x="5.5557" y="21.2061" width="4.48511" height="4.19782" fill="white"/>
</g>
</g>
</g>
<mask id="mask9_3781_46848" style="mask-type:luminance" maskUnits="userSpaceOnUse" x="21" y="2" width="13" height="4">
<path d="M31.7136 2.73393C31.7821 2.74018 31.8195 2.74642 31.8195 2.74642C30.3867 2.6902 28.2688 2.54653 26.0262 2.87136C22.9116 3.32737 21.7903 4.60171 21.186 5.10769C22.1391 4.31436 24.5125 4.05199 26.5619 4.48302C28.3062 4.85158 30.5425 5.44502 32.0064 4.38932C33.1401 3.57099 33.9998 2.25293 33.9998 2.25293C33.0965 2.62773 32.3739 2.73393 31.7136 2.72144" fill="white"/>
</mask>
<g mask="url(#mask9_3781_46848)">
<path d="M34 2.27051H21.1801V5.4626H34V2.27051Z" fill="white"/>
</g>
<mask id="mask10_3781_46848" style="mask-type:luminance" maskUnits="userSpaceOnUse" x="14" y="1" width="18" height="15">
<path d="M20.2143 1.15044C17.7724 1.51275 15.2807 3.2556 14.7325 5.84175C14.7014 5.99167 14.6764 6.14159 14.6578 6.29152C14.446 7.87194 14.9381 9.18376 16.1092 10.5456C16.1154 10.5518 16.1216 10.5643 16.1341 10.5705C16.1466 10.5893 16.159 10.6018 16.1777 10.6205C16.2213 10.6705 16.2649 10.7205 16.3085 10.7704C17.4672 12.051 19.2114 13.3941 21.5162 15.0682C21.4539 15.0057 16.5577 10.0146 18.0527 7.98439C18.0527 7.98439 18.059 7.97814 18.0652 7.97189C18.0777 7.95315 18.0963 7.93441 18.1088 7.92192C18.3455 7.65955 18.7317 7.65955 19.0307 7.84696C19.3547 8.0531 21.5474 9.63353 22.8369 10.4269C23.6031 10.9016 24.3817 9.87715 23.9519 9.17127C23.6031 8.60906 22.3198 7.63457 21.4166 6.82874C20.5133 6.01666 20.7749 5.44821 21.1861 5.11713C21.7903 4.61114 22.9116 3.3368 26.0263 2.88079C28.2688 2.55596 30.393 2.69339 31.8195 2.75586C31.8195 2.75586 31.7822 2.75586 31.7136 2.74336C31.1281 2.64966 28.1941 2.1874 27.3469 1.98126C25.8145 1.60646 23.6965 1.06299 21.6471 1.06299C21.1612 1.06299 20.6815 1.09422 20.2143 1.16294" fill="white"/>
</mask>
<g mask="url(#mask10_3781_46848)">
<path d="M24.5844 -7.53147L7.55804 6.89209L21.6801 23.6559L38.7065 9.23238L24.5844 -7.53147Z" fill="white"/>
</g>
<mask id="mask11_3781_46848" style="mask-type:luminance" maskUnits="userSpaceOnUse" x="1" y="28" width="19" height="7">
<path d="M3.37012 30.8987C2.90915 31.5671 2.13671 32.9913 1.9436 34.2532C1.96229 34.197 2.57276 32.3979 5.43825 31.717C6.49724 31.4671 7.63097 31.5046 8.67127 31.6358C9.15093 31.6358 13.7108 32.0543 14.9691 31.8857C16.3396 31.6983 17.7599 31.4796 18.7441 30.9424C18.931 30.8487 19.0867 30.7487 19.23 30.6675C19.4418 30.5426 19.6037 30.4302 19.7283 30.324C18.5198 31.0486 15.8848 30.8737 11.5368 29.0934C10.6086 28.7123 9.58698 28.5249 8.58406 28.5249C6.48478 28.5249 4.44156 29.3432 3.37012 30.8987Z" fill="white"/>
</mask>
<g mask="url(#mask11_3781_46848)">
<path d="M19.01 25.011L0.819649 28.7554L2.66345 37.7628L20.8538 34.0184L19.01 25.011Z" fill="white"/>
</g>
<mask id="mask12_3781_46848" style="mask-type:luminance" maskUnits="userSpaceOnUse" x="8" y="5" width="20" height="28">
<path d="M15.3433 12.6867C16.5331 15.2104 18.1216 16.8158 18.8006 17.7216C19.4796 18.6273 21.2425 20.8949 21.1677 21.2947C21.0867 21.6883 18.6573 20.5326 17.3055 20.189C16.1718 19.9017 15.3931 19.8267 15.1315 20.4764C14.8138 21.2385 15.2374 21.7257 16.5082 22.2255C17.779 22.7315 21.5352 24.1807 21.9028 24.4118C22.2703 24.643 22.5319 25.3488 22.4011 26.1859C22.2703 27.0292 21.8093 27.0792 20.3392 26.7856C19.4796 26.6107 13.4496 24.5805 11.6991 24.0245C10.1916 23.5435 9.6746 25.3551 10.5156 25.8861C11.4375 26.467 15.4866 27.9537 16.1842 28.1599C18.0655 28.7283 19.8907 29.2468 20.0589 29.5654C20.171 29.7715 20.1461 29.9902 19.735 30.3213C19.6041 30.4212 19.4422 30.5336 19.2366 30.6648C19.0933 30.7523 18.9376 30.846 18.7507 30.9397C17.7603 31.4769 16.3462 31.7018 14.9758 31.8829C13.7174 32.0516 9.15757 31.6393 8.67791 31.6331C8.67791 31.6331 15.0941 33.1385 19.0248 32.9761C21.23 32.8824 25.4223 32.289 27.0482 28.6346C28.8049 24.6992 27.8642 20.6263 23.9148 17.0844C23.1237 16.3785 22.3139 15.7039 21.5228 15.0604C19.2179 13.3863 17.4737 12.0433 16.3151 10.7627C16.2715 10.7127 16.2279 10.6627 16.1842 10.6128C16.1718 10.6003 16.1593 10.5815 16.1406 10.5628C16.1344 10.5503 16.1282 10.544 16.1157 10.5378C14.9446 9.16976 14.4525 7.86419 14.6643 6.28377C14.6767 6.14634 14.6892 6.00891 14.7204 5.86523C14.4338 7.00839 13.9915 9.78819 15.3495 12.6804" fill="white"/>
</mask>
<g mask="url(#mask12_3781_46848)">
<path d="M28.0867 2.14258L3.64457 6.83594L9.38039 36.8743L33.8225 32.1809L28.0867 2.14258Z" fill="white"/>
</g>
</svg>
