<svg width="180" height="36" viewBox="0 0 180 36" fill="none" xmlns="http://www.w3.org/2000/svg">
<path d="M27.3926 3C27.3926 3 28.6147 4.49153 28.4912 7.53597C28.4172 9.38964 27.2074 15.2882 18.4121 16.8657C12.6659 17.8969 8.40708 19.947 5.5 28C5.5 28 6.16042 22.4942 8.85765 19.6953C15.3384 12.9681 22.5289 17.1726 26.4729 9.67199C28.0098 6.74417 27.3864 3 27.3864 3" fill="black"/>
<mask id="mask0_2893_51137" style="mask-type:luminance" maskUnits="userSpaceOnUse" x="23" y="9" width="6" height="6">
<path d="M25.9006 9.66541C25.259 9.69039 24.636 9.94651 24.1564 10.4275C23.8947 10.6836 23.7016 10.9897 23.577 11.3145C23.3528 11.8892 23.3341 12.5264 23.521 13.1074C23.6456 13.4947 23.8574 13.857 24.1564 14.1568C24.636 14.6316 25.259 14.8877 25.9006 14.9127C26.6169 14.9439 27.3395 14.694 27.8815 14.1568C28.1867 13.8507 28.3923 13.4884 28.5169 13.1074C28.7038 12.5264 28.6851 11.8892 28.4608 11.3145C28.3362 10.9897 28.1431 10.6836 27.8815 10.4275C27.3769 9.92152 26.6979 9.66541 26.0189 9.66541C25.9816 9.66541 25.938 9.66541 25.9006 9.66541Z" fill="white"/>
</mask>
<g mask="url(#mask0_2893_51137)">
<mask id="mask1_2893_51137" style="mask-type:luminance" maskUnits="userSpaceOnUse" x="23" y="9" width="6" height="6">
<path d="M28.696 9.65894H23.3325V14.9437H28.696V9.65894Z" fill="white"/>
</mask>
<g mask="url(#mask1_2893_51137)">
<mask id="mask2_2893_51137" style="mask-type:luminance" maskUnits="userSpaceOnUse" x="23" y="9" width="6" height="6">
<path d="M28.6955 9.65247H23.332V14.9372H28.6955V9.65247Z" fill="white"/>
</mask>
<g mask="url(#mask2_2893_51137)">
<rect x="23.2954" y="9.50195" width="5.68114" height="5.69704" fill="black"/>
</g>
</g>
</g>
<mask id="mask3_2893_51137" style="mask-type:luminance" maskUnits="userSpaceOnUse" x="8" y="15" width="7" height="7">
<path d="M11.3107 15.1051C10.557 15.1363 9.81571 15.4362 9.25507 16.0046C8.94983 16.3107 8.71935 16.673 8.56984 17.0541C8.30821 17.7287 8.28329 18.4846 8.50132 19.1717C8.64459 19.6277 8.89377 20.0588 9.24884 20.4148C9.80948 20.9833 10.557 21.2769 11.3045 21.3081C12.1517 21.3456 13.0114 21.0458 13.6405 20.4148C13.9956 20.0588 14.2448 19.6277 14.388 19.1717C14.6061 18.4846 14.5811 17.7287 14.3195 17.0541C14.17 16.6668 13.9395 16.3107 13.6343 16.0046C13.0363 15.4049 12.2389 15.1051 11.4353 15.1051C11.3855 15.1051 11.3419 15.1051 11.2983 15.1051" fill="white"/>
</mask>
<g mask="url(#mask3_2893_51137)">
<mask id="mask4_2893_51137" style="mask-type:luminance" maskUnits="userSpaceOnUse" x="8" y="15" width="7" height="7">
<path d="M14.6127 15.0988H8.28369V21.3393H14.6127V15.0988Z" fill="white"/>
</mask>
<g mask="url(#mask4_2893_51137)">
<mask id="mask5_2893_51137" style="mask-type:luminance" maskUnits="userSpaceOnUse" x="8" y="15" width="7" height="7">
<path d="M14.6127 15.0973H8.28369V21.3378H14.6127V15.0973Z" fill="white"/>
</mask>
<g mask="url(#mask5_2893_51137)">
<rect x="8.04688" y="14.8964" width="6.57817" height="6.59657" fill="black"/>
</g>
</g>
</g>
<mask id="mask6_2893_51137" style="mask-type:luminance" maskUnits="userSpaceOnUse" x="5" y="21" width="5" height="5">
<path d="M7.32444 21.313C6.83232 21.338 6.34644 21.5316 5.97891 21.9002C5.77957 22.1001 5.63006 22.3375 5.53039 22.5873C5.3622 23.0246 5.34351 23.5181 5.48679 23.9679C5.58023 24.2677 5.74842 24.5488 5.97891 24.7799C6.34644 25.1485 6.83232 25.3421 7.32444 25.3671C7.87262 25.3921 8.43949 25.1985 8.85062 24.7799C9.08111 24.5488 9.2493 24.2677 9.34274 23.9679C9.48601 23.5181 9.46733 23.0246 9.29913 22.5873C9.19947 22.3375 9.05619 22.1001 8.85062 21.9002C8.45818 21.5066 7.93491 21.313 7.41165 21.313C7.3805 21.313 7.34936 21.313 7.32444 21.313Z" fill="white"/>
</mask>
<g mask="url(#mask6_2893_51137)">
<mask id="mask7_2893_51137" style="mask-type:luminance" maskUnits="userSpaceOnUse" x="5" y="21" width="5" height="5">
<path d="M9.47904 21.3135H5.34277V25.3926H9.47904V21.3135Z" fill="white"/>
</mask>
<g mask="url(#mask7_2893_51137)">
<mask id="mask8_2893_51137" style="mask-type:luminance" maskUnits="userSpaceOnUse" x="5" y="21" width="5" height="5">
<path d="M9.47856 21.314H5.34229V25.3931H9.47856V21.314Z" fill="white"/>
</mask>
<g mask="url(#mask8_2893_51137)">
<rect x="5.05566" y="21.2061" width="4.48511" height="4.19782" fill="black"/>
</g>
</g>
</g>
<mask id="mask9_2893_51137" style="mask-type:luminance" maskUnits="userSpaceOnUse" x="20" y="2" width="14" height="4">
<path d="M31.2136 2.73381C31.2821 2.74005 31.3195 2.7463 31.3195 2.7463C29.8867 2.69008 27.7688 2.5464 25.5262 2.87124C22.4116 3.32725 21.2903 4.60159 20.686 5.10757C21.6391 4.31423 24.0125 4.05187 26.0619 4.4829C27.8062 4.85145 30.0425 5.4449 31.5064 4.3892C32.6401 3.57087 33.4998 2.25281 33.4998 2.25281C32.5965 2.62761 31.8739 2.73381 31.2136 2.72131" fill="white"/>
</mask>
<g mask="url(#mask9_2893_51137)">
<path d="M33.5001 2.27051H20.6802V5.4626H33.5001V2.27051Z" fill="black"/>
</g>
<mask id="mask10_2893_51137" style="mask-type:luminance" maskUnits="userSpaceOnUse" x="14" y="1" width="18" height="15">
<path d="M19.7143 1.15032C17.2724 1.51263 14.7807 3.25548 14.2325 5.84163C14.2013 5.99155 14.1764 6.14147 14.1577 6.29139C13.9459 7.87182 14.4381 9.18364 15.6092 10.5454C15.6154 10.5517 15.6216 10.5642 15.6341 10.5704C15.6466 10.5892 15.659 10.6017 15.6777 10.6204C15.7213 10.6704 15.7649 10.7203 15.8085 10.7703C16.9672 12.0509 18.7114 13.3939 21.0162 15.0681C20.9539 15.0056 16.0577 10.0145 17.5527 7.98426C17.5527 7.98426 17.559 7.97802 17.5652 7.97177C17.5776 7.95303 17.5963 7.93429 17.6088 7.9218C17.8455 7.65943 18.2317 7.65943 18.5307 7.84684C18.8547 8.05298 21.0474 9.63341 22.3368 10.4267C23.1031 10.9015 23.8817 9.87703 23.4519 9.17115C23.1031 8.60894 21.8198 7.63445 20.9166 6.82862C20.0133 6.01654 20.2749 5.44808 20.6861 5.11701C21.2903 4.61102 22.4116 3.33668 25.5263 2.88067C27.7688 2.55584 29.893 2.69327 31.3195 2.75573C31.3195 2.75573 31.2822 2.75573 31.2136 2.74324C30.6281 2.64954 27.6941 2.18728 26.8469 1.98114C25.3145 1.60633 23.1965 1.06287 21.147 1.06287C20.6612 1.06287 20.1815 1.0941 19.7143 1.16281" fill="white"/>
</mask>
<g mask="url(#mask10_2893_51137)">
<path d="M24.0845 -7.53135L7.05811 6.89221L21.1801 23.6561L38.2065 9.2325L24.0845 -7.53135Z" fill="black"/>
</g>
<mask id="mask11_2893_51137" style="mask-type:luminance" maskUnits="userSpaceOnUse" x="1" y="28" width="19" height="7">
<path d="M2.86987 30.8985C2.4089 31.5669 1.63647 32.9912 1.44336 34.2531C1.46205 34.1968 2.07252 32.3978 4.93801 31.7169C5.997 31.467 7.13073 31.5045 8.17103 31.6357C8.65069 31.6357 13.2106 32.0542 14.4689 31.8855C15.8393 31.6981 17.2596 31.4795 18.2438 30.9423C18.4307 30.8486 18.5865 30.7486 18.7297 30.6674C18.9415 30.5425 19.1035 30.43 19.2281 30.3238C18.0196 31.0485 15.3846 30.8736 11.0365 29.0932C10.1083 28.7122 9.08674 28.5248 8.08382 28.5248C5.98454 28.5248 3.94132 29.3431 2.86987 30.8985Z" fill="white"/>
</mask>
<g mask="url(#mask11_2893_51137)">
<path d="M18.5097 25.0111L0.319336 28.7555L2.16313 37.7629L20.3535 34.0185L18.5097 25.0111Z" fill="black"/>
</g>
<mask id="mask12_2893_51137" style="mask-type:luminance" maskUnits="userSpaceOnUse" x="8" y="5" width="20" height="28">
<path d="M14.8431 12.6864C16.0329 15.2101 17.6214 16.8155 18.3004 17.7213C18.9794 18.6271 20.7423 20.8947 20.6675 21.2945C20.5865 21.688 18.1571 20.5324 16.8053 20.1888C15.6716 19.9014 14.8929 19.8265 14.6313 20.4761C14.3136 21.2382 14.7372 21.7255 16.008 22.2252C17.2788 22.7312 21.0351 24.1805 21.4026 24.4116C21.7701 24.6427 22.0318 25.3486 21.9009 26.1857C21.7701 27.029 21.3092 27.0789 19.839 26.7854C18.9794 26.6104 12.9494 24.5802 11.199 24.0243C9.69146 23.5433 9.17443 25.3548 10.0154 25.8858C10.9373 26.4668 14.9864 27.9535 15.6841 28.1596C17.5653 28.7281 19.3905 29.2466 19.5587 29.5652C19.6708 29.7713 19.6459 29.9899 19.2348 30.321C19.104 30.421 18.942 30.5334 18.7364 30.6646C18.5932 30.752 18.4374 30.8457 18.2506 30.9394C17.2601 31.4767 15.846 31.7015 14.4756 31.8827C13.2173 32.0514 8.65739 31.6391 8.17773 31.6328C8.17773 31.6328 14.5939 33.1383 18.5246 32.9759C20.7298 32.8822 24.9222 32.2887 26.548 28.6344C28.3047 24.6989 27.3641 20.6261 23.4147 17.0842C22.6235 16.3783 21.8137 15.7036 21.0226 15.0602C18.7178 13.3861 16.9735 12.043 15.8149 10.7624C15.7713 10.7125 15.7277 10.6625 15.6841 10.6125C15.6716 10.6 15.6592 10.5813 15.6405 10.5625C15.6342 10.5501 15.628 10.5438 15.6155 10.5376C14.4444 9.16952 13.9523 7.86395 14.1641 6.28352C14.1766 6.14609 14.189 6.00867 14.2202 5.86499C13.9336 7.00815 13.4913 9.78795 14.8493 12.6802" fill="white"/>
</mask>
<g mask="url(#mask12_2893_51137)">
<path d="M27.5866 2.14234L3.14453 6.83569L8.88035 36.874L33.3224 32.1807L27.5866 2.14234Z" fill="black"/>
</g>
<path fill-rule="evenodd" clip-rule="evenodd" d="M141.141 7.67529V20.9702L141.156 20.9626C141.156 22.8029 141.758 24.3913 142.992 25.72C144.286 27.1327 145.977 27.8811 148.056 27.9651C150.074 28.0415 151.764 27.4077 153.12 26.0407C154.414 24.7578 155.107 23.1542 155.214 21.2146C155.297 19.3284 154.673 17.6789 153.363 16.2815C152.122 14.9375 150.561 14.1662 148.718 13.9906C147.507 13.8607 146.129 14.1815 144.591 14.9527V17.6407C144.766 17.4575 145.207 17.2131 145.908 16.9C146.807 16.4877 147.576 16.312 148.223 16.3578C149.449 16.4571 150.462 16.9077 151.269 17.7095C152.069 18.5189 152.495 19.5117 152.564 20.6953C152.647 21.9935 152.259 23.1466 151.399 24.1469C150.538 25.1473 149.487 25.6284 148.238 25.5749C147.385 25.5673 146.601 25.3306 145.9 24.8877C144.469 23.9866 143.745 22.3906 143.745 20.0844V7.67529H141.141ZM113.75 21.573H115.973C117.184 21.573 118.045 21.825 118.54 22.3213C118.905 22.6726 119.088 23.3675 119.088 24.4061V27.8119H121.776V23.7417C121.776 22.4359 121.479 21.4508 120.862 20.7788C120.245 20.1068 119.499 19.6715 118.593 19.473C118.829 19.3279 119.027 19.1522 119.202 18.9461C119.59 18.633 119.933 18.2282 120.23 17.7395L122.659 13.8984H119.499L117.892 16.4108C117.671 16.8842 117.23 17.4646 116.56 18.1519C116.072 18.6712 115.471 18.9308 114.747 18.9308H113.643V7.75879H110.841V27.8195H113.75V21.573ZM44.3531 15.6329C42.5407 14.6478 41.6193 13.6398 41.5889 12.6165H41.5965C41.566 11.2114 42.8225 10.5013 45.3888 10.5013H51.1153V7.78271H44.7339C40.8045 7.78271 38.7637 9.40162 38.6114 12.6165C38.5504 14.1744 39.4262 15.6253 41.2462 16.9464C41.5812 17.1831 43.287 18.1529 46.3635 19.8634C48.2368 20.902 49.1735 21.8336 49.1735 22.6354C49.1963 23.422 48.9526 24.0023 48.45 24.3689C47.7418 24.9111 46.4473 25.1784 44.5587 25.1784H38.6799V27.874H45.4573C49.8284 27.874 52.0139 26.2016 52.0367 22.8645C52.0443 21.1311 51.161 19.6344 49.3715 18.3591L44.3531 15.6329ZM57.5048 22.4828V13.8995L57.4972 13.8918H54.7101V20.4438C54.7101 21.7344 54.7634 22.7271 54.8852 23.4144C55.1518 24.7966 55.6924 25.8504 56.5148 26.5682C57.3525 27.3395 58.2739 27.8435 59.2791 28.0802V34.2046H62.0434V28.0038C63.2009 27.79 64.1604 27.2784 64.9295 26.4689C65.9347 25.4151 66.4373 24.2238 66.4373 22.8951V13.8995H63.7263V22.0246C63.7263 23.1853 63.4598 24.0711 62.9191 24.6897C62.3861 25.3158 61.6626 25.6442 60.7412 25.6748C59.8426 25.6977 59.0735 25.3998 58.4491 24.7966C57.817 24.1933 57.5048 23.422 57.5048 22.4828ZM81.4459 19.9184V27.822H78.6892V20.5216C78.6892 18.7806 78.2933 17.5816 77.5089 16.9478C77.1205 16.6424 76.4428 16.4286 75.4757 16.2911C74.7066 16.1918 73.9603 16.4667 73.2445 17.1235C72.4753 17.8413 72.087 18.75 72.087 19.8573V27.822H69.4293V20.01C69.4293 18.078 70.069 16.5355 71.3635 15.3595C72.5134 14.3056 73.9222 13.7787 75.5823 13.7787C76.7702 13.7635 77.9277 14.1682 79.07 14.9853C80.6615 16.1155 81.4535 17.7573 81.4535 19.9184H81.4459ZM87.5993 22.6432V16.6487H92.1455V13.9072H87.5536V10.509H84.8655V23.193C84.8655 24.2316 85.1929 25.1938 85.8478 26.0872C86.7007 27.2556 88.178 27.8436 90.2874 27.8436H92.2445V25.0792H90.691C89.5335 25.0792 88.7568 24.9036 88.3532 24.5523C87.8506 24.117 87.5993 23.4832 87.5993 22.6432ZM107.398 18.0562L98.2147 23.394L97.0343 21.3246L103.812 17.4758C103.111 16.6358 102.06 16.2311 100.652 16.2617C99.4331 16.2769 98.4127 16.7504 97.5902 17.6744C96.7678 18.5984 96.3566 19.6827 96.3566 20.9198C96.3718 22.1951 96.8287 23.2871 97.7349 24.1958C98.6335 25.0969 99.7225 25.5551 101.002 25.5551C102.106 25.5398 103.065 25.158 103.888 24.4249C104.794 23.6307 105.274 22.6151 105.32 21.378L107.931 21.6529C107.749 23.6002 106.964 25.1733 105.586 26.3569C104.2 27.5482 102.563 28.1286 100.652 28.098C98.6792 28.0675 97.0039 27.3191 95.6179 25.8682C94.232 24.4173 93.5695 22.7068 93.6228 20.7213C93.6761 18.774 94.3995 17.1246 95.8083 15.7577C97.2171 14.3984 98.8772 13.7188 100.804 13.7188C102.296 13.7188 103.614 14.1235 104.771 14.9253C105.875 15.6813 106.751 16.7198 107.406 18.0486L107.398 18.0562ZM138.476 20.9792V27.8519H135.818V21.8879C135.818 19.5359 135.087 17.9017 133.61 16.9777C132.886 16.5272 132.102 16.2905 131.226 16.2752C129.955 16.2217 128.881 16.7105 128.005 17.7337C127.122 18.757 126.733 19.933 126.809 21.2541C126.878 22.4606 127.32 23.4763 128.142 24.301C128.957 25.1181 129.993 25.5839 131.257 25.6832C131.912 25.729 132.688 25.5457 133.61 25.1257C134.333 24.805 134.782 24.5606 134.965 24.3697V27.1188C133.397 27.9054 131.988 28.2337 130.754 28.1039C128.866 27.913 127.282 27.1341 126.01 25.7672C124.662 24.3392 124.038 22.6592 124.129 20.7348C124.228 18.757 124.936 17.1075 126.261 15.8017C127.647 14.4119 129.376 13.7552 131.432 13.8392C133.556 13.9232 135.285 14.6868 136.602 16.1301C137.859 17.4894 138.483 19.1083 138.483 20.9868L138.476 20.9792ZM160.986 11.9935C161.313 11.7262 161.481 11.3367 161.496 10.8327L161.488 10.8251C161.496 10.344 161.351 9.95457 161.024 9.67202C160.696 9.38948 160.316 9.24438 159.882 9.24438C159.448 9.24438 159.067 9.38184 158.755 9.64911C158.442 9.91639 158.267 10.2982 158.229 10.8022C158.199 11.2909 158.343 11.6727 158.678 11.9629C159.013 12.2531 159.402 12.3906 159.859 12.3906C160.293 12.3906 160.666 12.2607 160.986 11.9935ZM158.549 27.8237H161.367V13.9026H158.549V27.8237ZM178.759 20.7264C178.789 22.7195 178.081 24.4529 176.642 25.9115C175.187 27.37 173.466 28.0955 171.464 28.0726C169.537 28.0573 167.877 27.3624 166.491 25.9955C165.097 24.6286 164.382 22.9715 164.328 21.0242C164.29 19.0464 164.998 17.3282 166.43 15.8773C167.869 14.4264 169.59 13.7009 171.578 13.7009C173.52 13.7162 175.195 14.4035 176.589 15.7627C177.997 17.1297 178.721 18.7791 178.751 20.7264H178.759ZM171.707 16.0911C170.42 16.0606 169.316 16.5187 168.395 17.4657C167.473 18.4126 167.009 19.5504 167.009 20.8791C167.009 22.2078 167.45 23.2617 168.319 24.1857C169.194 25.1173 170.245 25.5907 171.479 25.606C172.773 25.6213 173.878 25.1478 174.784 24.1704C175.698 23.2006 176.147 22.0551 176.132 20.7493C176.094 19.5046 175.66 18.4278 174.814 17.5267C173.969 16.618 172.933 16.1446 171.715 16.0911H171.707Z" fill="black"/>
</svg>
