<svg width="24" height="24" viewBox="0 0 24 24" fill="none" xmlns="http://www.w3.org/2000/svg">
<g id="logo">
<path id="Vector" d="M18.5951 2C18.5951 2 19.4098 2.99435 19.3275 5.02398C19.2781 6.25976 18.4716 10.1922 12.6081 11.2438C8.77724 11.9313 5.93805 13.298 4 18.6667C4 18.6667 4.44028 14.9962 6.23843 13.1302C10.5589 8.64539 15.3526 11.4484 17.982 6.44799C19.0065 4.49611 18.591 2 18.591 2" fill="black"/>
<g id="Clip path group">
<mask id="mask0_3781_46935" style="mask-type:luminance" maskUnits="userSpaceOnUse" x="15" y="6" width="5" height="4">
<g id="clippath">
<path id="Vector_2" d="M17.601 6.44385C17.1733 6.46051 16.758 6.63125 16.4382 6.95192C16.2638 7.12266 16.1351 7.32672 16.052 7.54328C15.9025 7.92641 15.89 8.35119 16.0146 8.73849C16.0977 8.99668 16.2389 9.23823 16.4382 9.43812C16.758 9.75462 17.1733 9.92537 17.601 9.94203C18.0786 9.96285 18.5604 9.79627 18.9217 9.43812C19.1251 9.23406 19.2622 8.99252 19.3452 8.73849C19.4698 8.35119 19.4574 7.92641 19.3079 7.54328C19.2248 7.32672 19.0961 7.12266 18.9217 6.95192C18.5853 6.61459 18.1326 6.44385 17.6799 6.44385C17.655 6.44385 17.626 6.44385 17.601 6.44385Z" fill="white"/>
</g>
</mask>
<g mask="url(#mask0_3781_46935)">
<g id="Group">
<g id="Clip path group_2">
<mask id="mask1_3781_46935" style="mask-type:luminance" maskUnits="userSpaceOnUse" x="15" y="6" width="5" height="4">
<g id="clippath-1">
<path id="Vector_3" d="M19.4643 6.43945H15.8887V9.96262H19.4643V6.43945Z" fill="white"/>
</g>
</mask>
<g mask="url(#mask1_3781_46935)">
<g id="Group_2">
<g id="Clip path group_3">
<mask id="mask2_3781_46935" style="mask-type:luminance" maskUnits="userSpaceOnUse" x="15" y="6" width="5" height="4">
<g id="clippath-2">
<path id="Vector_4" d="M19.4643 6.43506H15.8887V9.95822H19.4643V6.43506Z" fill="white"/>
</g>
</mask>
<g mask="url(#mask2_3781_46935)">
<g id="Group_3">
<rect id="Rectangle" x="15.8652" y="6.33496" width="3.78743" height="3.79802" fill="black"/>
</g>
</g>
</g>
</g>
</g>
</g>
</g>
</g>
</g>
<g id="Clip path group_4">
<mask id="mask3_3781_46935" style="mask-type:luminance" maskUnits="userSpaceOnUse" x="5" y="10" width="6" height="5">
<g id="clippath-3">
<path id="Vector_5" d="M7.8735 10.0703C7.37101 10.0911 6.87681 10.291 6.50305 10.67C6.29956 10.8741 6.14591 11.1156 6.04624 11.3696C5.87182 11.8194 5.8552 12.3233 6.00055 12.7814C6.09607 13.0854 6.26219 13.3728 6.4989 13.6101C6.87266 13.9891 7.37101 14.1848 7.86935 14.2057C8.43414 14.2306 9.00724 14.0308 9.42668 13.6101C9.6634 13.3728 9.82951 13.0854 9.92503 12.7814C10.0704 12.3233 10.0538 11.8194 9.87935 11.3696C9.77968 11.1114 9.62602 10.8741 9.42253 10.67C9.02385 10.2702 8.49228 10.0703 7.95656 10.0703C7.92334 10.0703 7.89427 10.0703 7.8652 10.0703" fill="white"/>
</g>
</mask>
<g mask="url(#mask3_3781_46935)">
<g id="Group_4">
<g id="Clip path group_5">
<mask id="mask4_3781_46935" style="mask-type:luminance" maskUnits="userSpaceOnUse" x="5" y="10" width="6" height="5">
<g id="clippath-4">
<path id="Vector_6" d="M10.0748 10.0659H5.85547V14.2263H10.0748V10.0659Z" fill="white"/>
</g>
</mask>
<g mask="url(#mask4_3781_46935)">
<g id="Group_5">
<g id="Clip path group_6">
<mask id="mask5_3781_46935" style="mask-type:luminance" maskUnits="userSpaceOnUse" x="5" y="10" width="6" height="5">
<g id="clippath-5">
<path id="Vector_7" d="M10.0748 10.0649H5.85547V14.2253H10.0748V10.0649Z" fill="white"/>
</g>
</mask>
<g mask="url(#mask5_3781_46935)">
<g id="Group_6">
<rect id="Rectangle_2" x="5.69727" y="9.93115" width="4.38544" height="4.39771" fill="black"/>
</g>
</g>
</g>
</g>
</g>
</g>
</g>
</g>
</g>
<g id="Clip path group_7">
<mask id="mask6_3781_46935" style="mask-type:luminance" maskUnits="userSpaceOnUse" x="3" y="14" width="4" height="3">
<g id="clippath-6">
<path id="Vector_8" d="M5.21694 14.2085C4.88887 14.2252 4.56494 14.3543 4.31992 14.6C4.18703 14.7332 4.08736 14.8915 4.02091 15.0581C3.90879 15.3496 3.89633 15.6786 3.99184 15.9784C4.05414 16.1783 4.16626 16.3657 4.31992 16.5198C4.56494 16.7655 4.88887 16.8946 5.21694 16.9113C5.5824 16.9279 5.96031 16.7988 6.2344 16.5198C6.38806 16.3657 6.50018 16.1783 6.56248 15.9784C6.65799 15.6786 6.64554 15.3496 6.53341 15.0581C6.46696 14.8915 6.37144 14.7332 6.2344 14.6C5.97277 14.3376 5.62393 14.2085 5.27508 14.2085C5.25432 14.2085 5.23356 14.2085 5.21694 14.2085Z" fill="white"/>
</g>
</mask>
<g mask="url(#mask6_3781_46935)">
<g id="Group_7">
<g id="Clip path group_8">
<mask id="mask7_3781_46935" style="mask-type:luminance" maskUnits="userSpaceOnUse" x="3" y="14" width="4" height="3">
<g id="clippath-7">
<path id="Vector_9" d="M6.654 14.209H3.89648V16.9284H6.654V14.209Z" fill="white"/>
</g>
</mask>
<g mask="url(#mask7_3781_46935)">
<g id="Group_8">
<g id="Clip path group_9">
<mask id="mask8_3781_46935" style="mask-type:luminance" maskUnits="userSpaceOnUse" x="3" y="14" width="4" height="3">
<g id="clippath-8">
<path id="Vector_10" d="M6.654 14.2095H3.89648V16.9289H6.654V14.2095Z" fill="white"/>
</g>
</mask>
<g mask="url(#mask8_3781_46935)">
<g id="Group_9">
<rect id="Rectangle_3" x="3.70508" y="14.1372" width="2.99008" height="2.79854" fill="black"/>
</g>
</g>
</g>
</g>
</g>
</g>
</g>
</g>
</g>
<g id="Clip path group_10">
<mask id="mask9_3781_46935" style="mask-type:luminance" maskUnits="userSpaceOnUse" x="14" y="1" width="9" height="3">
<g id="clippath-9">
<path id="Vector_11" d="M21.1434 1.82262C21.1891 1.82678 21.214 1.83095 21.214 1.83095C20.2588 1.79347 18.8468 1.69768 17.3518 1.91424C15.2753 2.21825 14.5278 3.0678 14.125 3.40513C14.7604 2.87624 16.3426 2.70133 17.7089 2.98868C18.8717 3.23438 20.3626 3.63001 21.3386 2.92621C22.0944 2.38066 22.6675 1.50195 22.6675 1.50195C22.0653 1.75182 21.5836 1.82262 21.1434 1.81429" fill="white"/>
</g>
</mask>
<g mask="url(#mask9_3781_46935)">
<g id="Group_10">
<path id="Vector_12" d="M22.6677 1.51367H14.1211V3.64173H22.6677V1.51367Z" fill="black"/>
</g>
</g>
</g>
<g id="Clip path group_11">
<mask id="mask10_3781_46935" style="mask-type:luminance" maskUnits="userSpaceOnUse" x="9" y="0" width="13" height="11">
<g id="clippath-10">
<path id="Vector_13" d="M13.4765 0.766799C11.8486 1.00834 10.1874 2.17024 9.82199 3.89434C9.80122 3.99429 9.78461 4.09423 9.77215 4.19418C9.63096 5.2478 9.95903 6.12234 10.7398 7.03021C10.7439 7.03437 10.7481 7.0427 10.7564 7.04686C10.7647 7.05936 10.773 7.06769 10.7855 7.08018C10.8145 7.1135 10.8436 7.14681 10.8727 7.18013C11.6451 8.03385 12.8079 8.92922 14.3445 10.0453C14.303 10.0037 11.0388 6.67622 12.0355 5.32276C12.0355 5.32276 12.0396 5.3186 12.0438 5.31443C12.0521 5.30194 12.0645 5.28944 12.0729 5.28112C12.2307 5.10621 12.4881 5.10621 12.6875 5.23114C12.9034 5.36857 14.3652 6.42219 15.2249 6.95108C15.7357 7.26758 16.2548 6.5846 15.9683 6.11402C15.7357 5.73921 14.8802 5.08955 14.278 4.55233C13.6759 4.01094 13.8503 3.63197 14.1244 3.41126C14.5272 3.07393 15.2747 2.22437 17.3512 1.92037C18.8462 1.70381 20.2623 1.79543 21.2133 1.83707C21.2133 1.83707 21.1884 1.83707 21.1427 1.82875C20.7524 1.76628 18.7964 1.45811 18.2316 1.32068C17.21 1.07081 15.798 0.708496 14.4317 0.708496C14.1078 0.708496 13.788 0.729319 13.4765 0.775128" fill="white"/>
</g>
</mask>
<g mask="url(#mask10_3781_46935)">
<g id="Group_11">
<path id="Vector_14" d="M16.39 -5.02098L5.03906 4.59473L14.4537 15.7706L25.8047 6.15492L16.39 -5.02098Z" fill="black"/>
</g>
</g>
</g>
<g id="Clip path group_12">
<mask id="mask11_3781_46935" style="mask-type:luminance" maskUnits="userSpaceOnUse" x="1" y="19" width="13" height="4">
<g id="clippath-11">
<path id="Vector_15" d="M2.24593 20.5991C1.93862 21.0447 1.42366 21.9942 1.29492 22.8354C1.30738 22.798 1.71436 21.5986 3.62469 21.1447C4.33068 20.9781 5.0865 21.0031 5.78004 21.0905C6.09981 21.0905 9.13972 21.3695 9.9786 21.2571C10.8922 21.1322 11.8391 20.9864 12.4952 20.6283C12.6198 20.5658 12.7237 20.4992 12.8192 20.445C12.9604 20.3617 13.0683 20.2868 13.1514 20.216C12.3457 20.6991 10.5891 20.5825 7.69036 19.3956C7.07158 19.1415 6.39051 19.0166 5.72189 19.0166C4.32237 19.0166 2.96023 19.5622 2.24593 20.5991Z" fill="white"/>
</g>
</mask>
<g mask="url(#mask11_3781_46935)">
<g id="Group_12">
<path id="Vector_16" d="M12.6718 16.6742L0.544922 19.1704L1.77412 25.1753L13.901 22.6791L12.6718 16.6742Z" fill="black"/>
</g>
</g>
</g>
<g id="Clip path group_13">
<mask id="mask12_3781_46935" style="mask-type:luminance" maskUnits="userSpaceOnUse" x="5" y="3" width="14" height="19">
<g id="clippath-12">
<path id="Vector_17" d="M10.2287 8.45779C11.0219 10.1402 12.0809 11.2105 12.5336 11.8144C12.9863 12.4182 14.1615 13.9299 14.1117 14.1965C14.0577 14.4588 12.4381 13.6884 11.5369 13.4594C10.7811 13.2678 10.262 13.2178 10.0875 13.6509C9.87575 14.159 10.1581 14.4838 11.0053 14.817C11.8525 15.1543 14.3567 16.1205 14.6017 16.2746C14.8467 16.4286 15.0212 16.8992 14.934 17.4573C14.8467 18.0195 14.5394 18.0528 13.5594 17.8571C12.9863 17.7405 8.96626 16.387 7.7993 16.0164C6.79431 15.6957 6.44962 16.9034 7.01026 17.2574C7.62488 17.6447 10.3243 18.6358 10.7894 18.7733C12.0436 19.1522 13.2603 19.4979 13.3725 19.7103C13.4472 19.8477 13.4306 19.9935 13.1565 20.2142C13.0693 20.2808 12.9613 20.3558 12.8243 20.4432C12.7288 20.5015 12.625 20.564 12.5004 20.6265C11.8401 20.9846 10.8974 21.1345 9.98372 21.2553C9.14484 21.3677 6.10493 21.0929 5.78516 21.0887C5.78516 21.0887 10.0626 22.0924 12.6831 21.9841C14.1532 21.9216 16.9481 21.526 18.032 19.0898C19.2031 16.4661 18.576 13.7509 15.9431 11.3896C15.4157 10.919 14.8758 10.4692 14.3484 10.0403C12.8118 8.92421 11.649 8.02885 10.8766 7.17512C10.8475 7.14181 10.8184 7.10849 10.7894 7.07518C10.7811 7.06685 10.7728 7.05435 10.7603 7.04186C10.7562 7.03353 10.752 7.02937 10.7437 7.0252C9.96296 6.11318 9.63488 5.2428 9.77608 4.18918C9.78438 4.09756 9.79269 4.00594 9.81345 3.91016C9.62242 4.67226 9.32756 6.52546 10.2329 8.45363" fill="white"/>
</g>
</mask>
<g mask="url(#mask12_3781_46935)">
<g id="Group_13">
<path id="Vector_18" d="M18.7244 1.42822L2.42969 4.55713L6.25356 24.5827L22.5483 21.4538L18.7244 1.42822Z" fill="black"/>
</g>
</g>
</g>
</g>
</svg>
