<svg width="30" height="30" viewBox="0 0 30 30" fill="none" xmlns="http://www.w3.org/2000/svg">
<g id="search">
<path id="Vector" d="M19.9715 18.0894H18.984L18.634 17.7519C20.134 16.0019 20.909 13.6144 20.484 11.0769C19.8965 7.60191 16.9965 4.82691 13.4965 4.40191C8.20898 3.75191 3.75899 8.2019 4.40899 13.4894C4.83399 16.9894 7.60899 19.8894 11.084 20.4769C13.6215 20.9019 16.009 20.1269 17.759 18.6269L18.0965 18.9769V19.9644L23.409 25.2769C23.9215 25.7894 24.759 25.7894 25.2715 25.2769C25.784 24.7644 25.784 23.9269 25.2715 23.4144L19.9715 18.0894ZM12.4715 18.0894C9.35898 18.0894 6.84649 15.5769 6.84649 12.4644C6.84649 9.3519 9.35898 6.83941 12.4715 6.83941C15.584 6.83941 18.0965 9.3519 18.0965 12.4644C18.0965 15.5769 15.584 18.0894 12.4715 18.0894Z" fill="#171010"/>
</g>
</svg>
