<svg width="36" height="37" viewBox="0 0 36 37" fill="none" xmlns="http://www.w3.org/2000/svg">
<path d="M17.985 3.5C9.705 3.5 3 10.22 3 18.5C3 26.78 9.705 33.5 17.985 33.5C26.28 33.5 33 26.78 33 18.5C33 10.22 26.28 3.5 17.985 3.5ZM28.38 12.5H23.955C23.475 10.625 22.785 8.825 21.885 7.16C24.645 8.105 26.94 10.025 28.38 12.5ZM18 6.56C19.245 8.36 20.22 10.355 20.865 12.5H15.135C15.78 10.355 16.755 8.36 18 6.56ZM6.39 21.5C6.15 20.54 6 19.535 6 18.5C6 17.465 6.15 16.46 6.39 15.5H11.46C11.34 16.49 11.25 17.48 11.25 18.5C11.25 19.52 11.34 20.51 11.46 21.5H6.39ZM7.62 24.5H12.045C12.525 26.375 13.215 28.175 14.115 29.84C11.355 28.895 9.06 26.99 7.62 24.5ZM12.045 12.5H7.62C9.06 10.01 11.355 8.105 14.115 7.16C13.215 8.825 12.525 10.625 12.045 12.5ZM18 30.44C16.755 28.64 15.78 26.645 15.135 24.5H20.865C20.22 26.645 19.245 28.64 18 30.44ZM21.51 21.5H14.49C14.355 20.51 14.25 19.52 14.25 18.5C14.25 17.48 14.355 16.475 14.49 15.5H21.51C21.645 16.475 21.75 17.48 21.75 18.5C21.75 19.52 21.645 20.51 21.51 21.5ZM21.885 29.84C22.785 28.175 23.475 26.375 23.955 24.5H28.38C26.94 26.975 24.645 28.895 21.885 29.84ZM24.54 21.5C24.66 20.51 24.75 19.52 24.75 18.5C24.75 17.48 24.66 16.49 24.54 15.5H29.61C29.85 16.46 30 17.465 30 18.5C30 19.535 29.85 20.54 29.61 21.5H24.54Z" fill="black"/>
</svg>
