<svg width="12" height="12" viewBox="0 0 12 12" fill="none" xmlns="http://www.w3.org/2000/svg">
<rect width="12" height="12" rx="6" fill="#444444"/>
<rect width="12" height="12" rx="6" fill="#444444"/>
<path d="M9.14937 2.85486C8.95437 2.65986 8.63937 2.65986 8.44437 2.85486L5.99937 5.29486L3.55438 2.84986C3.35938 2.65486 3.04437 2.65486 2.84937 2.84986C2.65438 3.04486 2.65438 3.35986 2.84937 3.55486L5.29437 5.99986L2.84937 8.44486C2.65438 8.63986 2.65438 8.95486 2.84937 9.14986C3.04437 9.34486 3.35938 9.34486 3.55438 9.14986L5.99937 6.70486L8.44437 9.14986C8.63937 9.34486 8.95437 9.34486 9.14937 9.14986C9.34437 8.95486 9.34437 8.63986 9.14937 8.44486L6.70437 5.99986L9.14937 3.55486C9.33937 3.36486 9.33937 3.04486 9.14937 2.85486Z" fill="white"/>
</svg>
