<svg width="137" height="37" viewBox="0 0 137 37" fill="none" xmlns="http://www.w3.org/2000/svg">
<rect x="0.5" y="1" width="136" height="35" rx="17.5" stroke="black"/>
<path d="M22.75 24.752C19.096 24.752 16.72 21.962 16.72 18.056C16.72 14.276 18.988 11.342 22.822 11.342C25.828 11.342 27.646 13.07 27.988 15.446H26.404C26.098 13.844 24.82 12.746 22.786 12.746C19.96 12.746 18.376 15.032 18.376 18.056C18.376 21.206 20.122 23.33 22.804 23.33C25.234 23.33 26.386 21.674 26.548 19.784H28.15C28.132 21.062 27.52 22.502 26.602 23.402C25.702 24.284 24.388 24.752 22.75 24.752ZM29.9677 24.5V11.63H31.5877V23.006H38.3377V24.5H29.9677ZM44.9399 24.77C41.0519 24.77 38.6399 21.908 38.6399 18.056C38.6399 14.204 41.0519 11.342 44.9399 11.342C48.8279 11.342 51.2399 14.204 51.2399 18.056C51.2399 21.908 48.8279 24.77 44.9399 24.77ZM44.9399 23.348C47.9639 23.348 49.5839 21.08 49.5839 18.056C49.5839 15.032 47.9639 12.746 44.9399 12.746C41.9159 12.746 40.2959 15.032 40.2959 18.056C40.2959 21.08 41.9159 23.348 44.9399 23.348ZM57.8868 24.698C55.0788 24.698 52.9548 23.456 52.9548 20.342V11.63H54.5748V20.18C54.5748 22.376 55.8168 23.312 57.9408 23.312C59.9748 23.312 61.1988 22.376 61.1988 20.18V11.63H62.8188V20.342C62.8188 23.456 60.6408 24.698 57.8868 24.698ZM65.0185 24.5V11.63H69.6985C73.5685 11.63 75.4045 14.258 75.4045 18.11C75.4045 21.962 73.4425 24.5 69.5725 24.5H65.0185ZM66.6385 23.078H69.5185C72.5425 23.078 73.7485 21.134 73.7485 18.11C73.7485 15.086 72.6685 13.034 69.6445 13.034H66.6385V23.078Z" fill="black"/>
<path d="M95.5125 17.03C95.0025 14.4425 92.73 12.5 90 12.5C87.8325 12.5 85.95 13.73 85.0125 15.53C82.755 15.77 81 17.6825 81 20C81 22.4825 83.0175 24.5 85.5 24.5H95.25C97.32 24.5 99 22.82 99 20.75C99 18.77 97.4625 17.165 95.5125 17.03Z" fill="black"/>
<path d="M117.513 17.03C117.003 14.4425 114.73 12.5 112 12.5C109.832 12.5 107.95 13.73 107.012 15.53C104.755 15.77 103 17.6825 103 20C103 22.4825 105.018 24.5 107.5 24.5H117.25C119.32 24.5 121 22.82 121 20.75C121 18.77 119.463 17.165 117.513 17.03ZM117.25 23H107.5C105.842 23 104.5 21.6575 104.5 20C104.5 18.3425 105.842 17 107.5 17H108.033C108.528 15.2675 110.11 14 112 14C114.28 14 116.125 15.845 116.125 18.125V18.5H117.25C118.495 18.5 119.5 19.505 119.5 20.75C119.5 21.995 118.495 23 117.25 23Z" fill="black"/>
</svg>
