<svg width="137" height="36" viewBox="0 0 137 36" fill="none" xmlns="http://www.w3.org/2000/svg">
<rect x="0.5" y="0.5" width="136" height="35" rx="17.5" stroke="white"/>
<path d="M22.75 24.252C20.938 24.252 19.48 23.628 18.376 22.38C17.272 21.132 16.72 19.524 16.72 17.556C16.72 15.612 17.266 14.01 18.358 12.75C19.462 11.478 20.95 10.842 22.822 10.842C24.286 10.842 25.468 11.22 26.368 11.976C27.268 12.732 27.808 13.722 27.988 14.946H26.404C26.248 14.13 25.852 13.476 25.216 12.984C24.592 12.492 23.782 12.246 22.786 12.246C21.406 12.246 20.326 12.744 19.546 13.74C18.766 14.724 18.376 15.996 18.376 17.556C18.376 19.14 18.778 20.418 19.582 21.39C20.398 22.35 21.472 22.83 22.804 22.83C23.956 22.83 24.844 22.494 25.468 21.822C26.104 21.15 26.464 20.304 26.548 19.284H28.15C28.138 19.92 27.988 20.574 27.7 21.246C27.424 21.906 27.058 22.458 26.602 22.902C25.678 23.802 24.394 24.252 22.75 24.252ZM29.9677 24V11.13H31.5877V22.506H38.3377V24H29.9677ZM49.5119 22.38C48.3719 23.64 46.8479 24.27 44.9399 24.27C43.0319 24.27 41.5019 23.64 40.3499 22.38C39.2099 21.12 38.6399 19.512 38.6399 17.556C38.6399 15.6 39.2099 13.992 40.3499 12.732C41.5019 11.472 43.0319 10.842 44.9399 10.842C46.8479 10.842 48.3719 11.472 49.5119 12.732C50.6639 13.992 51.2399 15.6 51.2399 17.556C51.2399 19.512 50.6639 21.12 49.5119 22.38ZM41.5199 21.372C42.3359 22.356 43.4759 22.848 44.9399 22.848C46.4039 22.848 47.5439 22.356 48.3599 21.372C49.1759 20.388 49.5839 19.116 49.5839 17.556C49.5839 15.996 49.1759 14.724 48.3599 13.74C47.5439 12.744 46.4039 12.246 44.9399 12.246C43.4759 12.246 42.3359 12.744 41.5199 13.74C40.7039 14.724 40.2959 15.996 40.2959 17.556C40.2959 19.116 40.7039 20.388 41.5199 21.372ZM57.8868 24.198C56.3868 24.198 55.1868 23.844 54.2868 23.136C53.3988 22.428 52.9548 21.33 52.9548 19.842V11.13H54.5748V19.68C54.5748 21.768 55.6968 22.812 57.9408 22.812C60.1128 22.812 61.1988 21.768 61.1988 19.68V11.13H62.8188V19.842C62.8188 21.318 62.3628 22.416 61.4508 23.136C60.5508 23.844 59.3628 24.198 57.8868 24.198ZM65.0185 24V11.13H69.6985C71.5825 11.13 73.0045 11.712 73.9645 12.876C74.9245 14.04 75.4045 15.618 75.4045 17.61C75.4045 19.59 74.9065 21.15 73.9105 22.29C72.9145 23.43 71.4685 24 69.5725 24H65.0185ZM66.6385 22.578H69.5185C72.3385 22.578 73.7485 20.922 73.7485 17.61C73.7485 14.226 72.3805 12.534 69.6445 12.534H66.6385V22.578Z" fill="white"/>
<path d="M95.5125 16.53C95.0025 13.9425 92.73 12 90 12C87.8325 12 85.95 13.23 85.0125 15.03C82.755 15.27 81 17.1825 81 19.5C81 21.9825 83.0175 24 85.5 24H95.25C97.32 24 99 22.32 99 20.25C99 18.27 97.4625 16.665 95.5125 16.53Z" fill="white"/>
<path d="M117.513 16.53C117.003 13.9425 114.73 12 112 12C109.832 12 107.95 13.23 107.012 15.03C104.755 15.27 103 17.1825 103 19.5C103 21.9825 105.017 24 107.5 24H117.25C119.32 24 121 22.32 121 20.25C121 18.27 119.462 16.665 117.513 16.53ZM117.25 22.5H107.5C105.842 22.5 104.5 21.1575 104.5 19.5C104.5 17.8425 105.842 16.5 107.5 16.5H108.033C108.528 14.7675 110.11 13.5 112 13.5C114.28 13.5 116.125 15.345 116.125 17.625V18H117.25C118.495 18 119.5 19.005 119.5 20.25C119.5 21.495 118.495 22.5 117.25 22.5Z" fill="white"/>
</svg>
