<svg width="49" height="30" viewBox="0 0 49 30" fill="none" xmlns="http://www.w3.org/2000/svg">
<rect x="0.5" y="0.5" width="48" height="29" rx="14.5" stroke="black"/>
<path d="M19.2875 13.8568C18.8908 11.8443 17.1233 10.3335 15 10.3335C13.3142 10.3335 11.85 11.2902 11.1208 12.6902C9.365 12.8768 8 14.3643 8 16.1668C8 18.0977 9.56917 19.6668 11.5 19.6668H19.0833C20.6933 19.6668 22 18.3602 22 16.7502C22 15.2102 20.8042 13.9618 19.2875 13.8568ZM19.0833 18.5002H11.5C10.2108 18.5002 9.16667 17.456 9.16667 16.1668C9.16667 14.8777 10.2108 13.8335 11.5 13.8335H11.9142C12.2992 12.486 13.53 11.5002 15 11.5002C16.7733 11.5002 18.2083 12.9352 18.2083 14.7085V15.0002H19.0833C20.0517 15.0002 20.8333 15.7818 20.8333 16.7502C20.8333 17.7185 20.0517 18.5002 19.0833 18.5002Z" fill="black"/>
<path d="M38.2875 13.8568C37.8908 11.8443 36.1233 10.3335 34 10.3335C32.3142 10.3335 30.85 11.2902 30.1208 12.6902C28.365 12.8768 27 14.3643 27 16.1668C27 18.0977 28.5692 19.6668 30.5 19.6668H38.0833C39.6933 19.6668 41 18.3602 41 16.7502C41 15.2102 39.8042 13.9618 38.2875 13.8568Z" fill="black"/>
</svg>
