<svg width="36" height="36" viewBox="0 0 36 36" fill="none" xmlns="http://www.w3.org/2000/svg">
<path d="M23.9658 21.7078H22.7808L22.3608 21.3028C24.1608 19.2028 25.0908 16.3378 24.5808 13.2928C23.8758 9.12285 20.3958 5.79285 16.1958 5.28285C9.85078 4.50285 4.51078 9.84285 5.29078 16.1878C5.80078 20.3878 9.13078 23.8678 13.3008 24.5728C16.3458 25.0828 19.2108 24.1528 21.3108 22.3528L21.7158 22.7728V23.9578L28.0908 30.3328C28.7058 30.9478 29.7108 30.9478 30.3258 30.3328C30.9408 29.7178 30.9408 28.7128 30.3258 28.0978L23.9658 21.7078ZM14.9658 21.7078C11.2308 21.7078 8.21578 18.6928 8.21578 14.9578C8.21578 11.2228 11.2308 8.20785 14.9658 8.20785C18.7008 8.20785 21.7158 11.2228 21.7158 14.9578C21.7158 18.6928 18.7008 21.7078 14.9658 21.7078Z" fill="white"/>
</svg>
