<svg width="146" height="36" viewBox="0 0 146 36" fill="none" xmlns="http://www.w3.org/2000/svg">
<rect x="0.5" y="0.5" width="145" height="35" rx="17.5" stroke="white"/>
<path d="M17.206 24V11.13H18.826V22.506H25.576V24H17.206ZM27.1728 24V11.13H36.2628V12.552H28.7928V16.62H35.5788V17.988H28.7928V22.506H36.4788V24H27.1728ZM37.5601 12.552V11.13H47.7481V12.552H43.4641V24H41.8441V12.552H37.5601ZM50.6122 11.13V12.93C50.6122 14.226 49.9462 14.784 49.1002 14.91V14.226C49.5142 14.064 49.7842 13.704 49.7842 12.93H49.0822V11.13H50.6122ZM56.9895 24.252C53.3715 24.252 51.6435 22.236 51.4995 19.644H53.0835C53.2995 21.822 54.6315 22.956 57.0615 22.956C58.8435 22.956 60.1215 22.146 60.1215 20.544C60.1215 18.78 58.5735 18.366 56.2695 17.862C54.0015 17.358 52.0575 16.71 52.0575 14.28C52.0575 12.156 53.8215 10.878 56.4315 10.878C59.6535 10.878 60.9855 12.516 61.3095 14.892H59.7795C59.5455 13.056 58.3575 12.138 56.4675 12.138C54.7215 12.138 53.5695 12.876 53.5695 14.208C53.5695 15.666 55.0095 16.098 56.9355 16.476C59.4375 16.98 61.7235 17.592 61.7235 20.49C61.7235 22.902 59.7615 24.252 56.9895 24.252ZM65.6323 12.552V11.13H75.8203V12.552H71.5363V24H69.9163V12.552H65.6323ZM74.7855 24L79.5195 11.13H81.3375L86.0895 24H84.3255L82.9575 20.076H77.8275L76.4415 24H74.7855ZM79.8255 14.442L78.2955 18.762H82.5075L81.0315 14.442C80.7795 13.722 80.4555 12.624 80.4555 12.624H80.4195C80.4195 12.624 80.0775 13.704 79.8255 14.442ZM87.4833 24V11.13H89.1033V22.506H95.8533V24H87.4833ZM97.4501 24V11.13H99.0701V17.52L105.406 11.13H107.44L102.238 16.278L107.872 24H105.982L101.14 17.376L99.0701 19.446V24H97.4501Z" fill="white"/>
<path d="M115 12H127V21H115.878L115 21.8775V12ZM115 10.5C114.175 10.5 113.507 11.175 113.507 12L113.5 25.5L116.5 22.5H127C127.825 22.5 128.5 21.825 128.5 21V12C128.5 11.175 127.825 10.5 127 10.5H115ZM116.5 18H122.5V19.5H116.5V18ZM116.5 15.75H125.5V17.25H116.5V15.75ZM116.5 13.5H125.5V15H116.5V13.5Z" fill="white"/>
</svg>
