<svg width="36" height="36" viewBox="0 0 36 36" fill="none" xmlns="http://www.w3.org/2000/svg">
<path d="M17.985 3.00049C9.705 3.00049 3 9.72049 3 18.0005C3 26.2805 9.705 33.0005 17.985 33.0005C26.28 33.0005 33 26.2805 33 18.0005C33 9.72049 26.28 3.00049 17.985 3.00049ZM28.38 12.0005H23.955C23.475 10.1255 22.785 8.32549 21.885 6.66049C24.645 7.60549 26.94 9.52549 28.38 12.0005ZM18 6.06049C19.245 7.86049 20.22 9.85549 20.865 12.0005H15.135C15.78 9.85549 16.755 7.86049 18 6.06049ZM6.39 21.0005C6.15 20.0405 6 19.0355 6 18.0005C6 16.9655 6.15 15.9605 6.39 15.0005H11.46C11.34 15.9905 11.25 16.9805 11.25 18.0005C11.25 19.0205 11.34 20.0105 11.46 21.0005H6.39ZM7.62 24.0005H12.045C12.525 25.8755 13.215 27.6755 14.115 29.3405C11.355 28.3955 9.06 26.4905 7.62 24.0005ZM12.045 12.0005H7.62C9.06 9.51049 11.355 7.60549 14.115 6.66049C13.215 8.32549 12.525 10.1255 12.045 12.0005ZM18 29.9405C16.755 28.1405 15.78 26.1455 15.135 24.0005H20.865C20.22 26.1455 19.245 28.1405 18 29.9405ZM21.51 21.0005H14.49C14.355 20.0105 14.25 19.0205 14.25 18.0005C14.25 16.9805 14.355 15.9755 14.49 15.0005H21.51C21.645 15.9755 21.75 16.9805 21.75 18.0005C21.75 19.0205 21.645 20.0105 21.51 21.0005ZM21.885 29.3405C22.785 27.6755 23.475 25.8755 23.955 24.0005H28.38C26.94 26.4755 24.645 28.3955 21.885 29.3405ZM24.54 21.0005C24.66 20.0105 24.75 19.0205 24.75 18.0005C24.75 16.9805 24.66 15.9905 24.54 15.0005H29.61C29.85 15.9605 30 16.9655 30 18.0005C30 19.0355 29.85 20.0405 29.61 21.0005H24.54Z" fill="white"/>
</svg>
