<svg width="24" height="24" viewBox="0 0 24 24" fill="none" xmlns="http://www.w3.org/2000/svg">
<path d="M15.9772 14.4713H15.1872L14.9072 14.2013C16.1072 12.8013 16.7272 10.8913 16.3872 8.86133C15.9172 6.08133 13.5972 3.86133 10.7972 3.52133C6.56719 3.00133 3.00719 6.56133 3.52719 10.7913C3.86719 13.5913 6.08719 15.9113 8.86719 16.3813C10.8972 16.7213 12.8072 16.1013 14.2072 14.9013L14.4772 15.1813V15.9713L18.7272 20.2213C19.1372 20.6313 19.8072 20.6313 20.2172 20.2213C20.6272 19.8113 20.6272 19.1413 20.2172 18.7313L15.9772 14.4713ZM9.97719 14.4713C7.48719 14.4713 5.47719 12.4613 5.47719 9.97133C5.47719 7.48133 7.48719 5.47133 9.97719 5.47133C12.4672 5.47133 14.4772 7.48133 14.4772 9.97133C14.4772 12.4613 12.4672 14.4713 9.97719 14.4713Z" fill="#171010"/>
</svg>
