<svg width="137" height="36" viewBox="0 0 137 36" fill="none" xmlns="http://www.w3.org/2000/svg">
<rect x="0.5" y="0.500488" width="136" height="35" rx="17.5" stroke="white"/>
<path d="M22.75 24.2525C19.096 24.2525 16.72 21.4625 16.72 17.5565C16.72 13.7765 18.988 10.8425 22.822 10.8425C25.828 10.8425 27.646 12.5705 27.988 14.9465H26.404C26.098 13.3445 24.82 12.2465 22.786 12.2465C19.96 12.2465 18.376 14.5325 18.376 17.5565C18.376 20.7065 20.122 22.8305 22.804 22.8305C25.234 22.8305 26.386 21.1745 26.548 19.2845H28.15C28.132 20.5625 27.52 22.0025 26.602 22.9025C25.702 23.7845 24.388 24.2525 22.75 24.2525ZM29.9677 24.0005V11.1305H31.5877V22.5065H38.3377V24.0005H29.9677ZM44.9399 24.2705C41.0519 24.2705 38.6399 21.4085 38.6399 17.5565C38.6399 13.7045 41.0519 10.8425 44.9399 10.8425C48.8279 10.8425 51.2399 13.7045 51.2399 17.5565C51.2399 21.4085 48.8279 24.2705 44.9399 24.2705ZM44.9399 22.8485C47.9639 22.8485 49.5839 20.5805 49.5839 17.5565C49.5839 14.5325 47.9639 12.2465 44.9399 12.2465C41.9159 12.2465 40.2959 14.5325 40.2959 17.5565C40.2959 20.5805 41.9159 22.8485 44.9399 22.8485ZM57.8868 24.1985C55.0788 24.1985 52.9548 22.9565 52.9548 19.8425V11.1305H54.5748V19.6805C54.5748 21.8765 55.8168 22.8125 57.9408 22.8125C59.9748 22.8125 61.1988 21.8765 61.1988 19.6805V11.1305H62.8188V19.8425C62.8188 22.9565 60.6408 24.1985 57.8868 24.1985ZM65.0185 24.0005V11.1305H69.6985C73.5685 11.1305 75.4045 13.7585 75.4045 17.6105C75.4045 21.4625 73.4425 24.0005 69.5725 24.0005H65.0185ZM66.6385 22.5785H69.5185C72.5425 22.5785 73.7485 20.6345 73.7485 17.6105C73.7485 14.5865 72.6685 12.5345 69.6445 12.5345H66.6385V22.5785Z" fill="white"/>
<path d="M95.5125 16.5305C95.0025 13.943 92.73 12.0005 90 12.0005C87.8325 12.0005 85.95 13.2305 85.0125 15.0305C82.755 15.2705 81 17.183 81 19.5005C81 21.983 83.0175 24.0005 85.5 24.0005H95.25C97.32 24.0005 99 22.3205 99 20.2505C99 18.2705 97.4625 16.6655 95.5125 16.5305Z" fill="white"/>
<path d="M117.513 16.5305C117.003 13.943 114.73 12.0005 112 12.0005C109.832 12.0005 107.95 13.2305 107.012 15.0305C104.755 15.2705 103 17.183 103 19.5005C103 21.983 105.017 24.0005 107.5 24.0005H117.25C119.32 24.0005 121 22.3205 121 20.2505C121 18.2705 119.462 16.6655 117.513 16.5305ZM117.25 22.5005H107.5C105.842 22.5005 104.5 21.158 104.5 19.5005C104.5 17.843 105.842 16.5005 107.5 16.5005H108.033C108.528 14.768 110.11 13.5005 112 13.5005C114.28 13.5005 116.125 15.3455 116.125 17.6255V18.0005H117.25C118.495 18.0005 119.5 19.0055 119.5 20.2505C119.5 21.4955 118.495 22.5005 117.25 22.5005Z" fill="white"/>
</svg>
