<svg width="36" height="37" viewBox="0 0 36 37" fill="none" xmlns="http://www.w3.org/2000/svg">
<path d="M23.9649 22.2073H22.7799L22.3599 21.8023C24.1599 19.7023 25.0899 16.8373 24.5799 13.7923C23.8749 9.62233 20.3949 6.29233 16.1949 5.78233C9.84987 5.00233 4.50987 10.3423 5.28987 16.6873C5.79987 20.8873 9.12987 24.3673 13.2999 25.0723C16.3449 25.5823 19.2099 24.6523 21.3099 22.8523L21.7149 23.2723V24.4573L28.0899 30.8323C28.7049 31.4473 29.7099 31.4473 30.3249 30.8323C30.9399 30.2173 30.9399 29.2123 30.3249 28.5973L23.9649 22.2073ZM14.9649 22.2073C11.2299 22.2073 8.21487 19.1923 8.21487 15.4573C8.21487 11.7223 11.2299 8.70733 14.9649 8.70733C18.6999 8.70733 21.7149 11.7223 21.7149 15.4573C21.7149 19.1923 18.6999 22.2073 14.9649 22.2073Z" fill="black"/>
</svg>
