<svg width="36" height="36" viewBox="0 0 36 36" fill="none" xmlns="http://www.w3.org/2000/svg">
<rect x="0.5" y="0.5" width="35" height="35" rx="17.5" stroke="url(#paint0_linear_3089_8080)"/>
<path d="M24.0453 8.8335C24.0453 8.8335 24.7921 9.74499 24.7167 11.6055C24.6714 12.7383 23.9322 16.343 18.5572 17.307C15.0456 17.9371 12.4431 19.19 10.6665 24.1113C10.6665 24.1113 11.0701 20.7466 12.7184 19.0362C16.6789 14.9251 21.0731 17.4945 23.4833 12.9108C24.4225 11.1216 24.0415 8.8335 24.0415 8.8335" fill="black"/>
<mask id="mask0_3089_8080" style="mask-type:luminance" maskUnits="userSpaceOnUse" x="21" y="12" width="4" height="5">
<path d="M23.1336 12.9067C22.7415 12.922 22.3608 13.0785 22.0677 13.3725C21.9078 13.529 21.7898 13.716 21.7137 13.9145C21.5766 14.2658 21.5652 14.6551 21.6794 15.0102C21.7556 15.2468 21.885 15.4683 22.0677 15.6515C22.3608 15.9416 22.7415 16.0981 23.1336 16.1134C23.5714 16.1325 24.013 15.9798 24.3442 15.6515C24.5307 15.4644 24.6564 15.243 24.7325 15.0102C24.8467 14.6551 24.8353 14.2658 24.6982 13.9145C24.6221 13.716 24.5041 13.529 24.3442 13.3725C24.0358 13.0633 23.6209 12.9067 23.206 12.9067C23.1831 12.9067 23.1565 12.9067 23.1336 12.9067Z" fill="white"/>
</mask>
<g mask="url(#mask0_3089_8080)">
<mask id="mask1_3089_8080" style="mask-type:luminance" maskUnits="userSpaceOnUse" x="21" y="12" width="4" height="5">
<path d="M24.8421 12.9028H21.5645V16.1324H24.8421V12.9028Z" fill="white"/>
</mask>
<g mask="url(#mask1_3089_8080)">
<mask id="mask2_3089_8080" style="mask-type:luminance" maskUnits="userSpaceOnUse" x="21" y="12" width="4" height="5">
<path d="M24.8416 12.8989H21.564V16.1285H24.8416V12.8989Z" fill="white"/>
</mask>
<g mask="url(#mask2_3089_8080)">
<rect x="21.5415" y="12.8071" width="3.47181" height="3.48152" fill="black"/>
</g>
</g>
</g>
<mask id="mask3_3089_8080" style="mask-type:luminance" maskUnits="userSpaceOnUse" x="12" y="16" width="5" height="5">
<path d="M14.218 16.231C13.7574 16.25 13.3044 16.4333 12.9618 16.7807C12.7752 16.9677 12.6344 17.1891 12.543 17.422C12.3831 17.8343 12.3679 18.2962 12.5012 18.7161C12.5887 18.9948 12.741 19.2582 12.958 19.4758C13.3006 19.8232 13.7574 20.0026 14.2142 20.0217C14.7319 20.0446 15.2573 19.8614 15.6418 19.4758C15.8588 19.2582 16.011 18.9948 16.0986 18.7161C16.2318 18.2962 16.2166 17.8343 16.0567 17.422C15.9654 17.1853 15.8245 16.9677 15.638 16.7807C15.2725 16.4142 14.7852 16.231 14.2942 16.231C14.2637 16.231 14.2371 16.231 14.2104 16.231" fill="white"/>
</mask>
<g mask="url(#mask3_3089_8080)">
<mask id="mask4_3089_8080" style="mask-type:luminance" maskUnits="userSpaceOnUse" x="12" y="16" width="5" height="5">
<path d="M16.2359 16.2271H12.3682V20.0407H16.2359V16.2271Z" fill="white"/>
</mask>
<g mask="url(#mask4_3089_8080)">
<mask id="mask5_3089_8080" style="mask-type:luminance" maskUnits="userSpaceOnUse" x="12" y="16" width="5" height="5">
<path d="M16.2359 16.2261H12.3682V20.0397H16.2359V16.2261Z" fill="white"/>
</mask>
<g mask="url(#mask5_3089_8080)">
<rect x="12.2236" y="16.1035" width="4.01999" height="4.03124" fill="black"/>
</g>
</g>
</g>
<mask id="mask6_3089_8080" style="mask-type:luminance" maskUnits="userSpaceOnUse" x="10" y="20" width="4" height="3">
<path d="M11.7814 20.0244C11.4806 20.0397 11.1837 20.158 10.9591 20.3833C10.8373 20.5054 10.7459 20.6505 10.685 20.8032C10.5822 21.0704 10.5708 21.372 10.6584 21.6468C10.7155 21.8301 10.8183 22.0019 10.9591 22.1431C11.1837 22.3683 11.4806 22.4867 11.7814 22.5019C12.1164 22.5172 12.4628 22.3989 12.7141 22.1431C12.8549 22.0019 12.9577 21.8301 13.0148 21.6468C13.1023 21.372 13.0909 21.0704 12.9881 20.8032C12.9272 20.6505 12.8397 20.5054 12.7141 20.3833C12.4742 20.1428 12.1545 20.0244 11.8347 20.0244C11.8156 20.0244 11.7966 20.0244 11.7814 20.0244Z" fill="white"/>
</mask>
<g mask="url(#mask6_3089_8080)">
<mask id="mask7_3089_8080" style="mask-type:luminance" maskUnits="userSpaceOnUse" x="10" y="20" width="4" height="3">
<path d="M13.098 20.0249H10.5703V22.5177H13.098V20.0249Z" fill="white"/>
</mask>
<g mask="url(#mask7_3089_8080)">
<mask id="mask8_3089_8080" style="mask-type:luminance" maskUnits="userSpaceOnUse" x="10" y="20" width="4" height="3">
<path d="M13.0975 20.0254H10.5698V22.5182H13.0975V20.0254Z" fill="white"/>
</mask>
<g mask="url(#mask8_3089_8080)">
<rect x="10.395" y="19.9595" width="2.7409" height="2.56533" fill="black"/>
</g>
</g>
</g>
<mask id="mask9_3089_8080" style="mask-type:luminance" maskUnits="userSpaceOnUse" x="19" y="8" width="9" height="3">
<path d="M26.3808 8.67041C26.4226 8.67423 26.4455 8.67804 26.4455 8.67804C25.5699 8.64369 24.2756 8.55589 22.9052 8.75439C21.0018 9.03307 20.3165 9.81183 19.9473 10.121C20.5297 9.63623 21.9801 9.47589 23.2325 9.7393C24.2984 9.96453 25.6651 10.3272 26.5597 9.68204C27.2525 9.18195 27.7779 8.37646 27.7779 8.37646C27.2259 8.60551 26.7843 8.67041 26.3808 8.66277" fill="white"/>
</mask>
<g mask="url(#mask9_3089_8080)">
<path d="M27.7783 8.38721H19.9438V10.3379H27.7783V8.38721Z" fill="black"/>
</g>
<mask id="mask10_3089_8080" style="mask-type:luminance" maskUnits="userSpaceOnUse" x="15" y="7" width="12" height="10">
<path d="M19.3532 7.70286C17.8609 7.92427 16.3382 8.98934 16.0032 10.5698C15.9841 10.6614 15.9689 10.753 15.9575 10.8446C15.8281 11.8104 16.1288 12.6121 16.8445 13.4443C16.8483 13.4481 16.8521 13.4558 16.8597 13.4596C16.8673 13.471 16.8749 13.4787 16.8863 13.4901C16.913 13.5207 16.9396 13.5512 16.9663 13.5817C17.6744 14.3643 18.7403 15.1851 20.1488 16.2082C20.1107 16.17 17.1186 13.1198 18.0322 11.8792C18.0322 11.8792 18.036 11.8753 18.0398 11.8715C18.0474 11.8601 18.0588 11.8486 18.0665 11.841C18.2111 11.6806 18.4471 11.6806 18.6299 11.7952C18.8278 11.9211 20.1678 12.887 20.9558 13.3718C21.4241 13.6619 21.8999 13.0358 21.6372 12.6045C21.4241 12.2609 20.6399 11.6654 20.0879 11.1729C19.5359 10.6767 19.6958 10.3293 19.947 10.1269C20.3163 9.81773 21.0015 9.03897 22.9049 8.76029C24.2754 8.56179 25.5735 8.64577 26.4452 8.68394C26.4452 8.68394 26.4224 8.68394 26.3805 8.67631C26.0227 8.61905 24.2297 8.33656 23.712 8.21058C22.7755 7.98153 21.4812 7.64941 20.2287 7.64941C19.9318 7.64941 19.6387 7.6685 19.3532 7.71049" fill="white"/>
</mask>
<g mask="url(#mask10_3089_8080)">
<path d="M22.0237 2.39752L11.6187 11.2119L20.2488 21.4565L30.6538 12.6421L22.0237 2.39752Z" fill="black"/>
</g>
<mask id="mask11_3089_8080" style="mask-type:luminance" maskUnits="userSpaceOnUse" x="8" y="24" width="12" height="4">
<path d="M9.05975 25.8823C8.77804 26.2907 8.306 27.1611 8.18799 27.9323C8.19941 27.8979 8.57248 26.7985 10.3236 26.3824C10.9708 26.2297 11.6636 26.2526 12.2993 26.3327C12.5925 26.3327 15.3791 26.5885 16.148 26.4854C16.9855 26.3709 17.8535 26.2373 18.455 25.909C18.5692 25.8517 18.6643 25.7907 18.7519 25.741C18.8813 25.6647 18.9803 25.596 19.0564 25.5311C18.3179 25.9739 16.7076 25.867 14.0505 24.779C13.4833 24.5462 12.8589 24.4316 12.246 24.4316C10.9632 24.4316 9.71452 24.9317 9.05975 25.8823Z" fill="white"/>
</mask>
<g mask="url(#mask11_3089_8080)">
<path d="M18.6173 22.284L7.50098 24.5723L8.62774 30.0768L19.7441 27.7886L18.6173 22.284Z" fill="black"/>
</g>
<mask id="mask12_3089_8080" style="mask-type:luminance" maskUnits="userSpaceOnUse" x="12" y="10" width="13" height="18">
<path d="M16.3765 14.7526C17.1036 16.2949 18.0743 17.276 18.4893 17.8295C18.9042 18.3831 19.9816 19.7688 19.9359 20.0131C19.8864 20.2536 18.4017 19.5474 17.5757 19.3374C16.8828 19.1618 16.407 19.116 16.2471 19.513C16.0529 19.9787 16.3118 20.2765 17.0884 20.5819C17.865 20.8911 20.1605 21.7768 20.3851 21.918C20.6097 22.0593 20.7696 22.4906 20.6896 23.0022C20.6097 23.5175 20.328 23.5481 19.4296 23.3687C18.9042 23.2618 15.2192 22.0211 14.1495 21.6813C13.2283 21.3874 12.9123 22.4945 13.4262 22.8189C13.9896 23.174 16.4641 24.0825 16.8904 24.2085C18.0401 24.5559 19.1555 24.8727 19.2583 25.0674C19.3268 25.1934 19.3116 25.327 19.0603 25.5293C18.9804 25.5904 18.8814 25.6591 18.7558 25.7393C18.6682 25.7927 18.573 25.85 18.4588 25.9073C17.8536 26.2356 16.9894 26.373 16.1519 26.4837C15.3829 26.5868 12.5963 26.3348 12.3032 26.331C12.3032 26.331 16.2242 27.251 18.6263 27.1518C19.9739 27.0945 22.5359 26.7318 23.5295 24.4986C24.603 22.0936 24.0282 19.6046 21.6147 17.4401C21.1312 17.0088 20.6363 16.5965 20.1529 16.2033C18.7443 15.1802 17.6784 14.3595 16.9704 13.5769C16.9437 13.5463 16.9171 13.5158 16.8904 13.4853C16.8828 13.4776 16.8752 13.4662 16.8638 13.4547C16.86 13.4471 16.8562 13.4433 16.8486 13.4394C16.1329 12.6034 15.8321 11.8056 15.9616 10.8398C15.9692 10.7558 15.9768 10.6718 15.9958 10.584C15.8207 11.2826 15.5504 12.9813 16.3803 14.7488" fill="white"/>
</mask>
<g mask="url(#mask12_3089_8080)">
<path d="M24.1644 8.30908L9.22754 11.1772L12.7328 29.534L27.6696 26.6659L24.1644 8.30908Z" fill="black"/>
</g>
<defs>
<linearGradient id="paint0_linear_3089_8080" x1="36" y1="37.5" x2="-1.5" y2="3.29999" gradientUnits="userSpaceOnUse">
<stop stop-color="#003249"/>
<stop offset="0.14" stop-color="#073B54"/>
<stop offset="0.39" stop-color="#1C5372"/>
<stop offset="0.72" stop-color="#3D7BA2"/>
<stop offset="1" stop-color="#5EA2D2"/>
</linearGradient>
</defs>
</svg>
