<svg width="24" height="24" viewBox="0 0 24 24" fill="none" xmlns="http://www.w3.org/2000/svg">
<rect x="0.5" y="0.5" width="23" height="23" rx="11.5" stroke="#444444"/>
<path d="M7.33268 7.33317H16.666V14.3332H8.01518L7.33268 15.0157V7.33317ZM7.33268 6.1665C6.69102 6.1665 6.17185 6.6915 6.17185 7.33317L6.16602 17.8332L8.49935 15.4998H16.666C17.3077 15.4998 17.8327 14.9748 17.8327 14.3332V7.33317C17.8327 6.6915 17.3077 6.1665 16.666 6.1665H7.33268ZM8.49935 11.9998H13.166V13.1665H8.49935V11.9998ZM8.49935 10.2498H15.4993V11.4165H8.49935V10.2498ZM8.49935 8.49984H15.4993V9.6665H8.49935V8.49984Z" fill="#444444"/>
</svg>
