<svg width="56" height="56" viewBox="0 0 56 56" fill="none" xmlns="http://www.w3.org/2000/svg">
<rect width="56" height="56" rx="28" fill="black"/>
<path d="M36.4 19.6133C35.88 19.0933 35.04 19.0933 34.52 19.6133L28 26.12L21.48 19.6C20.96 19.08 20.12 19.08 19.6 19.6C19.08 20.12 19.08 20.96 19.6 21.48L26.12 28L19.6 34.52C19.08 35.04 19.08 35.88 19.6 36.4C20.12 36.92 20.96 36.92 21.48 36.4L28 29.88L34.52 36.4C35.04 36.92 35.88 36.92 36.4 36.4C36.92 35.88 36.92 35.04 36.4 34.52L29.88 28L36.4 21.48C36.9066 20.9733 36.9066 20.12 36.4 19.6133Z" fill="white"/>
</svg>
